<svg id="svg" version="1.1" width="500" height="520" xmlns="http://www.w3.org/2000/svg" xmlns:xlink="http://www.w3.org/1999/xlink" style="display: block;"><g id="svgg"><path id="path0" d="M2.909 3.712 C 2.244 8.562,2.244 407.438,2.909 412.288 L 3.417 416.000 201.709 416.000 L 400.000 416.000 400.000 208.000 L 400.000 0.000 201.709 -0.000 L 3.417 -0.000 2.909 3.712 M220.081 26.509 C 221.576 27.008,225.492 29.418,228.781 31.864 C 236.406 37.533,251.483 47.706,254.853 49.456 C 256.276 50.195,258.651 51.430,260.130 52.201 C 261.609 52.971,264.255 54.849,266.010 56.373 C 267.764 57.897,270.243 59.377,271.517 59.661 C 272.791 59.946,278.408 62.478,283.998 65.289 C 289.589 68.100,294.885 70.400,295.768 70.400 C 296.652 70.400,299.495 71.477,302.087 72.794 C 305.176 74.364,310.384 75.886,317.200 77.212 C 333.423 80.368,335.812 80.709,345.200 81.207 C 358.481 81.912,361.884 83.687,366.650 92.400 L 368.400 95.600 368.400 158.800 C 368.400 215.377,368.256 222.713,367.025 228.800 C 364.132 243.109,363.200 248.967,363.200 252.836 C 363.200 256.933,360.875 264.811,358.987 267.115 C 358.407 267.822,357.236 270.560,356.383 273.200 C 354.666 278.518,350.981 285.933,348.829 288.400 C 348.061 289.280,346.391 292.132,345.117 294.738 C 343.842 297.344,340.910 301.532,338.600 304.045 C 336.290 306.558,334.400 308.864,334.400 309.170 C 334.400 309.476,332.510 311.936,330.200 314.636 C 327.890 317.337,325.640 320.027,325.200 320.616 C 322.362 324.410,311.645 334.459,309.994 334.873 C 308.897 335.148,308.000 335.692,308.000 336.081 C 308.000 336.962,304.711 340.800,303.956 340.800 C 303.411 340.800,301.659 342.222,294.842 348.200 C 292.961 349.850,291.034 351.200,290.562 351.200 C 290.089 351.200,287.429 353.204,284.651 355.653 C 281.873 358.103,277.826 361.021,275.657 362.139 C 273.488 363.257,271.219 364.667,270.614 365.272 C 268.591 367.294,261.049 372.000,259.830 372.000 C 259.167 372.000,257.031 373.403,255.083 375.118 C 253.135 376.833,250.294 378.814,248.770 379.521 C 244.610 381.450,237.353 385.739,236.050 387.038 C 235.418 387.669,233.331 388.858,231.413 389.680 C 229.496 390.502,226.773 392.025,225.363 393.064 C 219.120 397.666,210.063 398.200,205.271 394.250 C 203.673 392.933,200.248 390.797,197.659 389.503 C 195.070 388.210,192.749 386.622,192.501 385.976 C 192.253 385.329,191.639 384.800,191.136 384.800 C 189.873 384.800,176.972 376.942,176.215 375.712 C 175.877 375.162,173.620 373.883,171.200 372.868 C 168.780 371.854,166.232 370.524,165.537 369.912 C 164.842 369.300,163.935 368.800,163.520 368.800 C 163.105 368.800,161.001 367.180,158.844 365.200 C 156.687 363.220,154.676 361.600,154.374 361.600 C 154.072 361.600,152.245 360.343,150.313 358.808 C 148.381 357.272,146.376 356.012,145.858 356.008 C 145.340 356.003,144.208 355.100,143.343 354.000 C 142.478 352.900,141.434 352.000,141.024 352.000 C 140.614 352.000,139.406 351.060,138.339 349.911 C 137.273 348.762,134.240 346.185,131.600 344.184 C 128.960 342.183,125.720 339.405,124.400 338.011 C 123.080 336.617,119.963 334.141,117.473 332.509 C 114.983 330.876,112.332 328.564,111.582 327.370 C 110.832 326.177,109.164 324.120,107.876 322.800 C 106.588 321.480,104.073 318.600,102.287 316.400 C 96.861 309.717,95.913 308.584,91.477 303.477 C 89.124 300.769,87.200 298.215,87.200 297.801 C 87.200 297.387,86.452 296.371,85.538 295.544 C 84.053 294.200,80.800 288.153,80.800 286.736 C 80.800 286.432,79.985 285.422,78.988 284.492 C 76.040 281.739,73.660 277.031,71.571 269.823 C 70.492 266.097,68.864 261.373,67.955 259.325 C 61.615 245.036,59.624 209.252,60.942 133.295 L 61.579 96.591 63.571 92.238 C 67.328 84.033,72.048 81.696,86.800 80.737 C 98.030 80.006,119.905 75.970,122.754 74.104 C 123.719 73.472,127.002 72.184,130.049 71.243 C 135.748 69.483,139.756 67.755,150.730 62.330 C 154.212 60.608,157.493 59.200,158.022 59.200 C 158.550 59.200,160.121 58.210,161.512 57.000 C 163.750 55.053,171.084 50.973,176.800 48.496 C 177.900 48.019,180.215 46.453,181.944 45.015 C 183.673 43.577,185.445 42.400,185.881 42.400 C 186.317 42.400,187.304 41.830,188.073 41.134 C 189.735 39.630,194.229 36.949,196.200 36.285 C 196.970 36.026,197.600 35.525,197.600 35.172 C 197.600 34.819,198.950 33.725,200.600 32.740 C 202.250 31.755,204.680 29.969,206.000 28.773 C 209.688 25.429,214.522 24.651,220.081 26.509 M210.607 68.524 C 209.621 68.736,208.275 69.680,207.615 70.621 C 206.464 72.265,203.083 74.456,195.057 78.762 C 192.998 79.866,191.093 81.126,190.823 81.562 C 190.285 82.434,183.493 85.600,182.161 85.600 C 181.702 85.600,180.758 86.113,180.063 86.739 C 178.317 88.314,163.314 95.677,160.504 96.338 C 159.242 96.635,156.902 97.885,155.304 99.115 C 152.085 101.595,141.989 105.661,135.200 107.211 C 132.780 107.764,129.360 109.038,127.600 110.041 C 125.627 111.166,121.305 112.350,116.332 113.128 C 102.693 115.263,99.930 116.800,98.435 123.083 C 95.762 134.322,98.502 242.211,101.608 248.015 C 102.044 248.829,102.400 250.074,102.400 250.781 C 102.400 251.488,103.064 252.780,103.876 253.651 C 104.688 254.523,106.038 257.298,106.876 259.818 C 107.714 262.338,110.060 266.926,112.088 270.012 C 114.117 273.099,116.567 277.176,117.534 279.071 C 118.501 280.967,120.127 283.481,121.146 284.659 C 122.166 285.837,124.665 288.702,126.700 291.027 C 128.735 293.351,130.400 295.546,130.400 295.904 C 130.400 296.263,131.103 296.881,131.961 297.278 C 132.820 297.675,137.463 301.780,142.279 306.400 C 161.156 324.509,164.458 327.200,167.797 327.200 C 168.212 327.200,169.204 327.920,170.000 328.800 C 170.796 329.680,171.805 330.400,172.242 330.400 C 172.678 330.400,174.512 331.604,176.318 333.076 C 178.123 334.547,180.500 336.221,181.600 336.794 C 182.700 337.368,184.680 338.721,186.000 339.801 C 187.320 340.882,191.399 343.493,195.065 345.604 C 198.731 347.716,202.516 350.181,203.476 351.083 C 208.888 356.167,220.627 356.248,225.960 351.237 C 227.728 349.576,234.409 345.690,239.611 343.296 C 241.378 342.484,243.333 341.203,243.958 340.451 C 244.582 339.699,246.453 338.389,248.116 337.541 C 249.779 336.693,251.783 335.357,252.569 334.574 C 255.752 331.404,261.404 327.453,264.800 326.024 C 266.780 325.192,269.497 323.496,270.838 322.255 C 272.179 321.015,273.578 320.000,273.946 320.000 C 274.315 320.000,275.424 319.190,276.412 318.200 C 277.399 317.210,279.600 315.109,281.303 313.530 C 283.006 311.952,287.665 307.632,291.656 303.930 C 299.852 296.329,309.113 285.992,309.875 283.597 C 310.154 282.718,311.205 281.100,312.210 280.000 C 314.292 277.722,319.606 267.117,320.445 263.566 C 320.752 262.265,322.218 259.611,323.702 257.669 C 325.186 255.727,326.400 253.320,326.400 252.321 C 326.400 251.322,326.740 249.611,327.155 248.519 C 330.076 240.836,332.089 132.217,329.501 121.938 C 328.036 116.118,324.885 114.636,310.072 112.801 C 305.215 112.199,301.897 111.304,299.661 109.993 C 297.855 108.935,294.223 107.559,291.589 106.935 C 288.955 106.311,284.753 104.856,282.251 103.700 C 279.749 102.545,277.373 101.600,276.971 101.600 C 276.569 101.600,274.765 100.532,272.963 99.226 C 271.160 97.920,268.676 96.614,267.443 96.324 C 264.427 95.614,256.472 91.509,251.798 88.250 C 249.707 86.793,247.602 85.600,247.119 85.600 C 245.291 85.600,234.857 79.791,231.513 76.911 C 231.025 76.491,229.045 75.355,227.113 74.386 C 225.181 73.417,222.684 71.767,221.564 70.719 C 219.495 68.784,214.269 67.737,210.607 68.524 M236.728 101.289 C 249.499 107.663,257.600 113.296,257.600 115.801 C 257.600 116.139,258.326 116.868,259.212 117.422 C 261.840 119.063,267.907 127.884,268.871 131.465 C 269.363 133.291,270.474 135.781,271.341 136.997 C 277.830 146.110,277.798 171.534,271.287 180.678 C 270.450 181.853,269.363 184.309,268.871 186.135 C 267.924 189.652,261.558 198.959,259.580 199.718 C 258.936 199.966,257.615 201.578,256.647 203.301 C 254.946 206.328,250.175 209.992,245.200 212.092 C 243.880 212.649,242.080 213.709,241.200 214.446 C 233.568 220.840,193.050 220.740,186.969 214.313 C 186.182 213.481,184.959 212.800,184.251 212.800 C 182.093 212.800,168.371 200.389,163.464 194.000 C 147.520 173.239,151.297 130.800,170.393 116.143 C 171.928 114.965,174.216 112.830,175.475 111.400 C 176.735 109.970,178.150 108.800,178.620 108.800 C 179.090 108.800,180.051 108.278,180.757 107.639 C 188.638 100.506,199.898 97.580,217.928 97.978 L 230.656 98.258 236.728 101.289 M212.350 125.591 C 214.083 125.924,216.133 126.978,216.907 127.933 C 220.853 132.807,219.204 150.400,214.800 150.400 C 214.241 150.400,213.233 151.210,212.559 152.200 C 205.821 162.099,197.861 165.799,188.857 163.216 C 179.626 160.569,182.724 176.895,192.953 184.800 C 196.084 187.220,199.233 189.815,199.952 190.567 C 201.626 192.320,211.630 193.220,220.880 192.449 C 228.109 191.847,227.759 192.028,236.888 184.200 C 239.069 182.330,241.201 180.800,241.627 180.800 C 242.052 180.800,242.400 180.250,242.400 179.577 C 242.400 178.905,243.570 176.115,245.000 173.377 C 250.403 163.035,248.266 145.926,240.445 136.902 C 238.736 134.930,230.827 128.800,229.992 128.800 C 229.730 128.800,228.191 127.900,226.572 126.800 C 223.936 125.009,222.875 124.810,216.414 124.892 C 210.723 124.965,209.865 125.112,212.350 125.591 M173.200 215.497 C 175.400 216.090,178.558 217.435,180.219 218.487 C 181.879 219.539,184.399 221.132,185.819 222.026 C 195.645 228.215,202.020 245.804,198.248 256.318 C 193.986 268.199,186.730 275.600,174.473 280.571 C 149.282 290.786,121.028 259.042,133.519 234.559 C 134.461 232.711,135.585 231.200,136.016 231.200 C 136.447 231.200,136.800 230.744,136.800 230.186 C 136.800 227.620,140.970 223.237,145.384 221.161 C 147.923 219.967,150.900 218.369,152.000 217.610 C 156.731 214.342,165.625 213.456,173.200 215.497 M162.087 245.197 C 161.254 245.827,160.213 246.462,159.773 246.609 C 158.604 246.999,162.583 252.785,164.000 252.756 C 164.660 252.743,165.988 251.496,166.950 249.985 L 168.701 247.238 166.427 245.619 C 163.758 243.719,164.007 243.743,162.087 245.197 M228.350 287.529 C 238.018 293.194,241.595 303.936,236.466 311.898 C 227.631 325.611,210.060 327.728,203.599 315.856 C 202.445 313.735,201.220 312.000,200.878 312.000 C 195.371 312.000,200.420 292.179,207.123 287.484 C 211.614 284.338,222.947 284.362,228.350 287.529 " stroke="none" fill="#fcfcfc" fill-rule="evenodd"></path><path id="path1" d="M210.800 40.261 C 209.480 40.777,207.212 42.352,205.759 43.759 C 204.307 45.166,202.417 46.541,201.559 46.813 C 200.702 47.085,200.000 47.611,200.000 47.982 C 200.000 49.024,189.636 55.529,185.535 57.061 C 183.520 57.813,181.180 59.065,180.335 59.843 C 178.889 61.175,177.709 61.837,168.800 66.319 C 166.820 67.315,164.300 68.651,163.200 69.288 C 154.769 74.170,134.842 83.452,130.509 84.516 C 127.589 85.233,123.580 86.459,121.600 87.241 C 119.620 88.022,114.580 89.569,110.400 90.679 C 106.220 91.788,102.260 92.886,101.600 93.118 C 100.940 93.351,96.177 93.918,91.016 94.380 C 74.401 95.866,75.470 93.053,74.447 138.000 C 72.897 206.070,75.696 250.641,82.356 263.968 C 83.574 266.406,85.785 270.920,87.269 274.000 C 91.816 283.434,98.916 294.373,104.382 300.366 C 106.372 302.548,108.000 304.599,108.000 304.923 C 108.000 306.769,125.414 323.989,132.537 329.187 C 137.932 333.123,139.909 334.734,145.530 339.772 C 147.108 341.187,151.072 344.381,154.338 346.869 C 157.603 349.358,160.663 351.710,161.138 352.096 C 162.639 353.320,170.544 358.400,170.946 358.400 C 171.157 358.400,172.831 359.603,174.665 361.074 C 176.499 362.544,179.518 364.337,181.373 365.056 C 183.228 365.776,187.356 368.228,190.546 370.504 C 193.737 372.781,197.799 375.291,199.573 376.083 C 201.348 376.875,203.980 378.609,205.422 379.936 C 210.670 384.767,216.909 384.689,224.000 379.704 C 225.980 378.312,228.680 376.700,230.000 376.121 C 232.123 375.191,237.125 372.145,243.200 368.084 C 244.300 367.348,246.820 366.064,248.800 365.230 C 250.780 364.395,253.675 362.517,255.234 361.056 C 256.792 359.595,258.304 358.400,258.594 358.400 C 258.883 358.400,260.720 357.320,262.676 356.000 C 264.632 354.680,266.739 353.600,267.359 353.600 C 267.979 353.600,269.707 352.340,271.200 350.800 C 272.693 349.260,274.293 347.994,274.757 347.988 C 275.221 347.981,277.220 346.519,279.200 344.738 C 281.180 342.958,284.780 340.014,287.200 338.196 C 289.620 336.378,291.960 334.459,292.400 333.932 C 292.840 333.405,294.730 332.030,296.600 330.877 C 298.470 329.724,300.000 328.424,300.000 327.990 C 300.000 327.555,300.500 327.200,301.112 327.200 C 302.787 327.200,320.800 309.124,320.800 307.444 C 320.800 306.817,323.118 303.952,327.471 299.200 C 328.075 298.540,329.944 296.020,331.623 293.600 C 333.301 291.180,335.109 288.840,335.640 288.400 C 336.170 287.960,337.253 285.800,338.045 283.600 C 338.838 281.400,340.142 278.644,340.943 277.477 C 341.744 276.309,342.400 275.137,342.400 274.873 C 342.400 274.608,343.329 272.504,344.463 270.196 C 354.533 249.719,356.020 235.713,356.091 160.654 C 356.136 114.193,355.934 102.170,355.070 99.600 L 353.994 96.400 348.797 95.865 C 333.770 94.319,327.292 93.402,324.400 92.415 C 322.640 91.814,320.000 91.079,318.533 90.783 C 317.066 90.486,313.286 89.369,310.133 88.300 C 306.980 87.232,301.735 85.648,298.478 84.780 C 295.221 83.913,290.541 82.177,288.078 80.923 C 285.615 79.668,280.900 77.319,277.600 75.701 C 274.300 74.083,270.520 72.164,269.200 71.436 C 267.880 70.708,264.640 68.987,262.000 67.613 C 259.360 66.238,254.818 63.471,251.906 61.464 C 248.994 59.457,244.674 56.858,242.306 55.689 C 235.959 52.557,234.536 51.646,231.697 48.894 C 230.282 47.522,228.833 46.400,228.477 46.400 C 228.121 46.400,226.401 45.268,224.655 43.885 C 219.364 39.694,215.099 38.579,210.800 40.261 M221.096 56.581 C 229.110 60.716,232.164 62.518,237.234 66.102 C 240.295 68.266,244.420 70.743,246.400 71.607 C 248.380 72.471,251.559 74.218,253.464 75.489 C 255.368 76.759,259.868 79.122,263.464 80.739 C 267.059 82.356,271.260 84.479,272.800 85.456 C 274.340 86.434,276.500 87.453,277.600 87.722 C 278.700 87.991,281.220 89.049,283.200 90.073 C 291.945 94.597,299.127 97.630,302.816 98.356 C 305.007 98.787,309.320 99.900,312.400 100.830 C 315.480 101.760,321.381 103.384,325.514 104.439 C 329.647 105.495,333.607 106.865,334.314 107.485 C 335.021 108.104,336.320 108.833,337.200 109.104 C 338.080 109.376,339.700 110.922,340.800 112.540 L 342.800 115.482 343.022 171.141 C 343.293 239.358,341.991 249.338,329.754 272.800 C 323.732 284.347,321.412 288.413,319.912 290.052 C 319.080 290.960,318.400 291.995,318.400 292.351 C 318.400 294.124,294.353 318.899,289.286 322.347 C 288.359 322.978,285.560 325.361,283.066 327.644 C 280.572 329.926,276.792 332.621,274.666 333.632 C 272.540 334.644,269.488 336.580,267.884 337.936 C 266.280 339.291,263.652 341.300,262.044 342.400 C 260.435 343.500,257.211 345.930,254.879 347.800 C 252.546 349.670,250.314 351.213,249.919 351.228 C 249.524 351.244,246.140 353.224,242.400 355.628 C 238.660 358.033,233.756 360.860,231.502 361.911 C 229.249 362.962,227.139 364.251,226.814 364.777 C 223.882 369.521,209.980 370.218,204.328 365.903 C 202.241 364.310,199.255 362.473,197.692 361.820 C 196.130 361.167,193.940 359.923,192.826 359.056 C 191.711 358.188,188.280 355.906,185.200 353.984 C 182.120 352.063,178.619 349.730,177.420 348.800 C 176.220 347.871,172.080 344.972,168.220 342.359 C 148.891 329.274,145.837 326.754,125.482 307.105 C 122.118 303.857,118.518 300.439,117.482 299.509 C 113.546 295.973,105.240 283.012,99.341 271.200 C 98.132 268.780,96.554 265.900,95.835 264.800 C 95.115 263.700,93.928 260.820,93.196 258.400 C 92.464 255.980,91.383 252.740,90.794 251.200 C 89.680 248.290,88.015 241.448,86.415 233.200 C 83.826 219.856,83.572 128.339,86.094 118.010 C 87.196 113.499,90.356 108.800,92.287 108.800 C 92.720 108.800,93.642 108.310,94.337 107.711 C 95.824 106.428,102.815 104.000,105.022 104.000 C 105.867 104.000,107.693 103.492,109.079 102.870 C 113.124 101.058,119.393 99.215,124.145 98.441 C 126.570 98.047,132.660 95.763,137.677 93.367 C 142.695 90.971,148.648 88.408,150.906 87.672 C 153.164 86.936,155.620 85.662,156.364 84.840 C 157.107 84.018,158.860 82.899,160.258 82.353 C 167.454 79.542,177.108 74.975,181.200 72.447 C 182.960 71.359,184.974 70.454,185.676 70.435 C 186.378 70.416,187.604 69.680,188.400 68.800 C 189.196 67.920,190.127 67.200,190.467 67.200 C 190.808 67.200,193.182 65.811,195.743 64.113 C 198.305 62.415,201.205 60.772,202.189 60.463 C 203.173 60.153,204.996 58.881,206.240 57.637 C 209.820 54.057,215.431 53.658,221.096 56.581 M232.800 202.400 L 230.000 202.989 233.400 203.095 C 235.270 203.153,236.800 202.840,236.800 202.400 C 236.800 201.960,236.530 201.647,236.200 201.705 C 235.870 201.763,234.340 202.076,232.800 202.400 M156.200 229.581 C 152.950 230.967,154.268 231.200,165.360 231.200 C 174.012 231.200,176.114 230.994,175.339 230.219 C 174.120 229.000,158.763 228.487,156.200 229.581 M158.000 268.800 C 157.685 269.310,160.007 269.600,164.400 269.600 C 168.793 269.600,171.115 269.310,170.800 268.800 C 170.528 268.360,167.648 268.000,164.400 268.000 C 161.152 268.000,158.272 268.360,158.000 268.800 M216.377 296.947 C 209.712 299.101,209.576 308.915,216.197 310.033 C 221.245 310.886,223.951 308.715,223.989 303.783 C 224.001 302.284,220.134 295.943,219.294 296.082 C 219.022 296.127,217.710 296.516,216.377 296.947 " stroke="none" fill="#3ba2e0" fill-rule="evenodd"></path><path id="path2" d="M210.800 35.400 C 209.480 35.866,206.960 37.404,205.200 38.817 C 199.147 43.676,188.388 50.709,181.600 54.244 C 177.860 56.191,174.260 58.250,173.600 58.818 C 172.940 59.387,169.547 61.182,166.061 62.808 C 162.574 64.435,157.985 66.960,155.862 68.420 C 153.739 69.881,150.651 71.520,149.001 72.063 C 147.350 72.606,142.064 74.826,137.253 76.995 C 127.468 81.406,108.283 86.719,95.600 88.529 C 67.092 92.598,69.540 85.911,69.422 160.055 C 69.289 243.278,71.476 258.095,87.740 284.184 C 88.763 285.825,89.600 287.394,89.600 287.669 C 89.600 287.944,90.590 289.482,91.800 291.085 C 93.010 292.688,94.496 294.900,95.102 296.000 C 95.708 297.100,98.155 300.160,100.540 302.800 C 102.924 305.440,108.137 311.305,112.123 315.834 C 116.109 320.363,121.942 326.123,125.085 328.634 C 133.671 335.494,140.809 341.462,144.553 344.911 C 146.397 346.610,148.131 348.000,148.406 348.000 C 148.925 348.000,154.494 352.009,155.200 352.890 C 156.381 354.364,170.788 364.172,175.544 366.740 C 178.585 368.382,183.081 371.078,185.536 372.731 C 187.991 374.385,192.250 376.927,195.000 378.380 C 197.750 379.834,200.000 381.333,200.000 381.711 C 200.000 382.090,200.398 382.400,200.885 382.400 C 201.372 382.400,203.082 383.432,204.685 384.693 C 211.180 389.803,217.776 389.309,227.350 382.996 C 230.183 381.128,233.738 378.925,235.250 378.099 C 236.763 377.274,242.236 374.034,247.414 370.899 C 252.592 367.765,257.452 364.840,258.214 364.400 C 258.976 363.960,261.285 362.430,263.344 361.000 C 265.403 359.570,267.291 358.400,267.540 358.400 C 268.023 358.400,280.040 349.731,282.947 347.286 C 283.907 346.477,287.867 343.354,291.747 340.344 C 310.303 325.947,316.156 320.334,326.936 306.599 C 339.049 291.165,338.711 291.690,347.527 274.566 C 359.124 252.040,360.917 235.929,360.624 156.932 L 360.400 96.616 357.414 94.035 C 354.643 91.641,353.771 91.384,345.352 90.484 C 324.982 88.308,302.486 82.622,289.798 76.444 C 286.607 74.890,281.747 72.677,278.998 71.526 C 276.249 70.375,273.503 69.027,272.895 68.531 C 272.287 68.036,268.591 65.988,264.681 63.981 C 260.771 61.973,256.910 59.765,256.102 59.073 C 255.294 58.381,252.150 56.460,249.116 54.804 C 246.082 53.147,242.262 50.849,240.627 49.696 C 220.153 35.259,216.352 33.437,210.800 35.400 M218.540 40.320 C 220.156 40.898,222.908 42.502,224.655 43.885 C 226.401 45.268,228.121 46.400,228.477 46.400 C 228.833 46.400,230.282 47.522,231.697 48.894 C 234.536 51.646,235.959 52.557,242.306 55.689 C 244.674 56.858,248.994 59.457,251.906 61.464 C 254.818 63.471,259.360 66.238,262.000 67.613 C 264.640 68.987,267.880 70.708,269.200 71.436 C 270.520 72.164,274.300 74.083,277.600 75.701 C 280.900 77.319,285.615 79.668,288.078 80.923 C 290.541 82.177,295.221 83.913,298.478 84.780 C 301.735 85.648,306.980 87.232,310.133 88.300 C 313.286 89.369,317.066 90.486,318.533 90.783 C 320.000 91.079,322.640 91.814,324.400 92.415 C 327.292 93.402,333.770 94.319,348.797 95.865 L 353.994 96.400 355.070 99.600 C 358.780 110.632,355.796 234.977,351.451 250.400 C 349.140 258.604,346.534 265.985,344.463 270.196 C 343.329 272.504,342.400 274.608,342.400 274.873 C 342.400 275.137,341.744 276.309,340.943 277.477 C 340.142 278.644,338.838 281.400,338.045 283.600 C 337.253 285.800,336.170 287.960,335.640 288.400 C 335.109 288.840,333.301 291.180,331.623 293.600 C 329.944 296.020,328.075 298.540,327.471 299.200 C 323.118 303.952,320.800 306.817,320.800 307.444 C 320.800 309.124,302.787 327.200,301.112 327.200 C 300.500 327.200,300.000 327.555,300.000 327.990 C 300.000 328.424,298.470 329.724,296.600 330.877 C 294.730 332.030,292.840 333.405,292.400 333.932 C 291.960 334.459,289.620 336.378,287.200 338.196 C 284.780 340.014,281.180 342.958,279.200 344.738 C 277.220 346.519,275.221 347.981,274.757 347.988 C 274.293 347.994,272.693 349.260,271.200 350.800 C 269.707 352.340,267.979 353.600,267.359 353.600 C 266.739 353.600,264.632 354.680,262.676 356.000 C 260.720 357.320,258.883 358.400,258.594 358.400 C 258.304 358.400,256.792 359.595,255.234 361.056 C 253.675 362.517,250.780 364.395,248.800 365.230 C 246.820 366.064,244.300 367.348,243.200 368.084 C 237.125 372.145,232.123 375.191,230.000 376.121 C 228.680 376.700,225.980 378.312,224.000 379.704 C 216.909 384.689,210.670 384.767,205.422 379.936 C 203.980 378.609,201.348 376.875,199.573 376.083 C 197.799 375.291,193.737 372.781,190.546 370.504 C 187.356 368.228,183.228 365.776,181.373 365.056 C 179.518 364.337,176.499 362.544,174.665 361.074 C 172.831 359.603,171.157 358.400,170.946 358.400 C 170.544 358.400,162.639 353.320,161.138 352.096 C 160.663 351.710,157.603 349.358,154.338 346.869 C 151.072 344.381,147.108 341.187,145.530 339.772 C 139.909 334.734,137.932 333.123,132.537 329.187 C 125.414 323.989,108.000 306.769,108.000 304.923 C 108.000 304.599,106.372 302.548,104.382 300.366 C 98.916 294.373,91.816 283.434,87.269 274.000 C 85.785 270.920,83.574 266.406,82.356 263.968 C 75.696 250.641,72.897 206.070,74.447 138.000 C 75.470 93.053,74.401 95.866,91.016 94.380 C 96.177 93.918,100.940 93.351,101.600 93.118 C 102.260 92.886,106.220 91.788,110.400 90.679 C 114.580 89.569,119.620 88.022,121.600 87.241 C 123.580 86.459,127.589 85.233,130.509 84.516 C 134.842 83.452,154.769 74.170,163.200 69.288 C 164.300 68.651,166.820 67.315,168.800 66.319 C 177.709 61.837,178.889 61.175,180.335 59.843 C 181.180 59.065,183.520 57.813,185.535 57.061 C 189.636 55.529,200.000 49.024,200.000 47.982 C 200.000 47.611,200.702 47.085,201.559 46.813 C 202.417 46.541,204.307 45.166,205.759 43.759 C 210.142 39.512,213.641 38.571,218.540 40.320 M210.051 54.940 C 209.199 55.179,207.484 56.393,206.240 57.637 C 204.996 58.881,203.173 60.153,202.189 60.463 C 201.205 60.772,198.305 62.415,195.743 64.113 C 193.182 65.811,190.808 67.200,190.467 67.200 C 190.127 67.200,189.196 67.920,188.400 68.800 C 187.604 69.680,186.378 70.416,185.676 70.435 C 184.974 70.454,182.960 71.359,181.200 72.447 C 177.108 74.975,167.454 79.542,160.258 82.353 C 158.860 82.899,157.107 84.018,156.364 84.840 C 155.620 85.662,153.164 86.936,150.906 87.672 C 148.648 88.408,142.695 90.971,137.677 93.367 C 132.660 95.763,126.570 98.047,124.145 98.441 C 119.393 99.215,113.124 101.058,109.079 102.870 C 107.693 103.492,105.867 104.000,105.022 104.000 C 102.815 104.000,95.824 106.428,94.337 107.711 C 93.642 108.310,92.720 108.800,92.287 108.800 C 90.356 108.800,87.196 113.499,86.094 118.010 C 83.572 128.339,83.826 219.856,86.415 233.200 C 88.015 241.448,89.680 248.290,90.794 251.200 C 91.383 252.740,92.464 255.980,93.196 258.400 C 93.928 260.820,95.115 263.700,95.835 264.800 C 96.554 265.900,98.132 268.780,99.341 271.200 C 105.240 283.012,113.546 295.973,117.482 299.509 C 118.518 300.439,122.118 303.857,125.482 307.105 C 145.837 326.754,148.891 329.274,168.220 342.359 C 172.080 344.972,176.220 347.871,177.420 348.800 C 178.619 349.730,182.120 352.063,185.200 353.984 C 188.280 355.906,191.711 358.188,192.826 359.056 C 193.940 359.923,196.130 361.167,197.692 361.820 C 199.255 362.473,202.241 364.310,204.328 365.903 C 209.980 370.218,223.882 369.521,226.814 364.777 C 227.139 364.251,229.249 362.962,231.502 361.911 C 233.756 360.860,238.660 358.033,242.400 355.628 C 246.140 353.224,249.524 351.244,249.919 351.228 C 250.314 351.213,252.546 349.670,254.879 347.800 C 257.211 345.930,260.435 343.500,262.044 342.400 C 263.652 341.300,266.280 339.291,267.884 337.936 C 269.488 336.580,272.540 334.644,274.666 333.632 C 276.792 332.621,280.572 329.926,283.066 327.644 C 285.560 325.361,288.359 322.978,289.286 322.347 C 294.353 318.899,318.400 294.124,318.400 292.351 C 318.400 291.995,319.080 290.960,319.912 290.052 C 320.744 289.143,322.594 286.240,324.025 283.600 C 342.523 249.453,343.315 244.768,343.022 171.141 L 342.800 115.482 340.800 112.540 C 339.700 110.922,338.080 109.376,337.200 109.104 C 336.320 108.833,335.021 108.104,334.314 107.485 C 333.607 106.865,329.647 105.495,325.514 104.439 C 321.381 103.384,315.480 101.760,312.400 100.830 C 309.320 99.900,305.007 98.787,302.816 98.356 C 299.127 97.630,291.945 94.597,283.200 90.073 C 281.220 89.049,278.700 87.991,277.600 87.722 C 276.500 87.453,274.340 86.434,272.800 85.456 C 271.260 84.479,267.059 82.356,263.464 80.739 C 259.868 79.122,255.368 76.759,253.464 75.489 C 251.559 74.218,248.380 72.471,246.400 71.607 C 244.420 70.743,240.295 68.266,237.234 66.102 C 232.164 62.518,229.110 60.716,221.096 56.581 C 218.146 55.059,212.577 54.231,210.051 54.940 M220.656 61.543 C 222.810 62.392,227.464 65.002,231.000 67.343 C 242.408 74.898,263.630 86.409,276.400 91.968 C 278.600 92.926,282.380 94.718,284.800 95.950 C 287.220 97.183,291.540 98.969,294.400 99.920 C 312.203 105.838,320.109 108.229,323.935 108.853 C 330.586 109.938,335.314 112.627,337.200 116.400 C 339.511 121.022,339.691 224.256,337.407 234.800 C 332.760 256.244,331.841 259.259,327.663 266.762 C 326.181 269.423,323.992 273.930,322.799 276.777 C 317.358 289.766,291.636 317.140,273.735 328.992 C 269.921 331.518,265.113 334.696,263.052 336.056 C 260.990 337.415,257.114 340.284,254.438 342.432 C 251.762 344.580,247.149 347.673,244.186 349.306 C 241.224 350.939,237.727 353.023,236.417 353.938 C 225.080 361.845,209.264 367.024,207.867 363.287 C 207.609 362.596,195.430 354.903,186.833 350.000 C 183.002 347.815,176.990 343.598,176.000 342.401 C 175.780 342.135,171.280 339.088,166.000 335.629 C 160.720 332.170,155.837 328.768,155.148 328.070 C 154.459 327.371,152.682 325.900,151.198 324.800 C 139.454 316.096,115.757 291.712,111.546 284.000 C 110.706 282.460,109.604 280.660,109.099 280.000 C 108.252 278.895,101.605 266.373,97.118 257.432 C 95.139 253.489,93.763 247.642,91.507 233.600 C 89.831 223.165,88.830 130.127,90.308 122.132 C 91.895 113.547,95.177 110.475,104.487 108.861 C 106.639 108.488,112.540 106.759,117.600 105.019 C 122.660 103.279,128.960 101.225,131.600 100.455 C 135.899 99.200,148.451 93.879,154.800 90.620 C 163.059 86.380,168.193 83.912,172.500 82.112 C 177.200 80.148,183.159 76.984,184.000 76.007 C 184.220 75.751,187.054 74.162,190.297 72.476 C 193.540 70.790,198.454 67.831,201.217 65.899 C 210.579 59.355,213.464 58.708,220.656 61.543 M200.400 107.521 C 188.304 111.610,186.694 112.464,179.682 118.506 C 172.723 124.503,171.302 126.316,165.411 136.710 C 153.460 157.798,165.882 195.753,188.000 205.732 C 203.870 212.893,204.630 213.106,214.400 213.140 L 223.600 213.173 233.887 208.798 C 261.123 197.214,273.879 168.014,264.213 139.379 C 262.935 135.593,262.147 134.251,255.807 125.060 C 244.922 109.280,219.243 101.151,200.400 107.521 M224.902 118.912 C 240.507 122.383,253.315 135.445,255.381 149.996 C 258.984 175.374,248.325 192.286,224.849 198.440 C 206.473 203.257,185.907 194.962,178.521 179.755 C 173.603 169.628,173.200 168.103,173.200 159.626 C 173.200 130.966,196.522 112.600,224.902 118.912 M199.060 138.835 C 194.641 142.178,192.245 145.914,191.871 150.045 C 191.102 158.545,203.971 153.991,209.146 143.932 C 212.885 136.664,206.316 133.344,199.060 138.835 M236.800 202.400 C 236.800 202.840,235.270 203.153,233.400 203.095 L 230.000 202.989 232.800 202.400 C 234.340 202.076,235.870 201.763,236.200 201.705 C 236.530 201.647,236.800 201.960,236.800 202.400 M153.246 225.613 C 148.143 228.186,144.800 230.889,144.800 232.441 C 144.800 232.971,144.296 233.822,143.680 234.333 C 141.583 236.074,139.727 245.113,140.232 251.132 C 142.003 272.261,166.565 281.371,181.584 266.471 C 189.143 258.972,189.968 257.186,189.930 248.400 C 189.848 229.331,170.144 217.092,153.246 225.613 M175.339 230.219 C 176.114 230.994,174.012 231.200,165.360 231.200 C 159.332 231.200,154.400 231.008,154.400 230.774 C 154.400 228.729,173.347 228.227,175.339 230.219 M169.053 236.359 C 181.530 240.809,181.140 257.477,168.479 260.886 C 156.474 264.119,148.285 253.370,154.006 241.889 C 157.070 235.739,162.116 233.885,169.053 236.359 M170.800 268.800 C 171.115 269.310,168.793 269.600,164.400 269.600 C 160.007 269.600,157.685 269.310,158.000 268.800 C 158.272 268.360,161.152 268.000,164.400 268.000 C 167.648 268.000,170.528 268.360,170.800 268.800 M214.004 293.389 C 206.666 295.245,204.408 307.110,210.434 312.142 C 217.801 318.291,228.804 313.657,228.797 304.408 C 228.791 296.032,222.394 291.268,214.004 293.389 M221.894 299.183 C 226.243 305.756,223.362 311.244,216.197 310.033 C 207.956 308.641,210.418 297.550,219.294 296.082 C 219.565 296.037,220.735 297.432,221.894 299.183 " stroke="none" fill="#79bfe8" fill-rule="evenodd"></path><path id="path3" d="M210.383 32.278 C 208.833 32.832,205.233 35.098,202.383 37.313 C 199.532 39.528,196.660 41.593,196.000 41.901 C 194.227 42.731,192.029 44.103,188.000 46.895 C 186.020 48.267,181.160 51.091,177.200 53.170 C 173.240 55.249,169.460 57.416,168.800 57.987 C 168.140 58.557,165.620 59.849,163.200 60.858 C 160.780 61.867,157.295 63.707,155.456 64.946 C 153.617 66.186,151.872 67.200,151.579 67.200 C 151.287 67.200,150.091 67.844,148.923 68.631 C 147.756 69.418,144.820 70.736,142.400 71.560 C 139.980 72.385,136.200 73.893,134.000 74.913 C 129.233 77.122,116.705 81.019,110.000 82.380 C 107.360 82.915,102.858 83.843,99.996 84.442 C 97.134 85.040,91.734 85.764,87.996 86.051 C 77.005 86.895,71.857 89.085,68.683 94.266 C 64.429 101.213,64.512 220.664,68.787 241.474 C 72.098 257.594,75.345 268.619,78.449 274.274 C 79.332 275.883,81.241 279.386,82.691 282.059 C 84.142 284.731,86.560 288.644,88.064 290.753 C 89.569 292.863,91.660 295.897,92.711 297.495 C 93.761 299.093,96.281 302.215,98.311 304.434 C 102.633 309.159,103.957 310.756,108.903 317.200 C 112.272 321.591,115.175 324.508,122.236 330.600 C 123.639 331.810,125.119 332.800,125.526 332.800 C 125.934 332.800,126.387 333.077,126.533 333.415 C 126.680 333.753,127.876 334.862,129.192 335.880 C 131.685 337.811,138.749 343.837,142.325 347.084 C 143.466 348.121,146.248 350.198,148.507 351.700 C 150.766 353.203,153.466 355.259,154.507 356.270 C 157.981 359.643,173.068 369.323,188.378 378.000 C 190.707 379.320,195.624 382.404,199.306 384.854 C 212.257 393.472,217.458 393.289,232.242 383.701 C 235.849 381.362,241.287 378.107,244.327 376.469 C 249.297 373.791,260.728 366.669,262.821 364.947 C 263.272 364.576,264.712 363.604,266.021 362.788 C 285.681 350.530,324.000 318.943,324.000 314.996 C 324.000 314.649,325.495 312.743,327.322 310.761 C 331.893 305.802,340.858 293.523,343.236 288.964 C 344.316 286.894,346.307 283.400,347.660 281.200 C 349.012 279.000,350.760 275.400,351.544 273.200 C 352.328 271.000,353.275 268.480,353.649 267.600 C 362.291 247.251,362.563 244.184,362.953 162.884 C 363.339 82.326,364.909 88.864,344.685 86.842 C 332.992 85.673,313.213 81.691,304.400 78.731 C 297.201 76.314,282.181 70.154,279.822 68.653 C 278.820 68.015,274.220 65.581,269.600 63.245 C 264.980 60.908,260.120 58.202,258.800 57.231 C 257.480 56.261,253.700 53.911,250.400 52.009 C 247.100 50.107,243.088 47.527,241.485 46.275 C 239.882 45.024,238.328 44.000,238.031 44.000 C 237.507 44.000,235.844 42.841,227.600 36.729 C 221.046 31.871,215.517 30.441,210.383 32.278 M228.627 41.474 C 233.592 44.843,238.992 48.543,240.627 49.696 C 242.262 50.849,246.082 53.147,249.116 54.804 C 252.150 56.460,255.294 58.381,256.102 59.073 C 256.910 59.765,260.771 61.973,264.681 63.981 C 268.591 65.988,272.287 68.036,272.895 68.531 C 273.503 69.027,276.249 70.375,278.998 71.526 C 281.747 72.677,286.607 74.890,289.798 76.444 C 302.486 82.622,324.982 88.308,345.352 90.484 C 353.771 91.384,354.643 91.641,357.414 94.035 L 360.400 96.616 360.624 156.932 C 360.903 231.998,360.057 241.953,351.429 265.200 C 350.123 268.720,348.367 272.935,347.527 274.566 C 338.711 291.690,339.049 291.165,326.936 306.599 C 316.156 320.334,310.303 325.947,291.747 340.344 C 287.867 343.354,283.907 346.477,282.947 347.286 C 280.040 349.731,268.023 358.400,267.540 358.400 C 267.291 358.400,265.403 359.570,263.344 361.000 C 261.285 362.430,258.976 363.960,258.214 364.400 C 257.452 364.840,252.592 367.765,247.414 370.899 C 242.236 374.034,236.763 377.274,235.250 378.099 C 233.738 378.925,230.183 381.128,227.350 382.996 C 217.776 389.309,211.180 389.803,204.685 384.693 C 203.082 383.432,201.372 382.400,200.885 382.400 C 200.398 382.400,200.000 382.090,200.000 381.711 C 200.000 381.333,197.750 379.834,195.000 378.380 C 192.250 376.927,187.991 374.385,185.536 372.731 C 183.081 371.078,178.585 368.382,175.544 366.740 C 170.788 364.172,156.381 354.364,155.200 352.890 C 154.494 352.009,148.925 348.000,148.406 348.000 C 148.131 348.000,146.397 346.610,144.553 344.911 C 140.809 341.462,133.671 335.494,125.085 328.634 C 121.942 326.123,116.109 320.363,112.123 315.834 C 108.137 311.305,102.924 305.440,100.540 302.800 C 98.155 300.160,95.708 297.100,95.102 296.000 C 94.496 294.900,93.010 292.688,91.800 291.085 C 90.590 289.482,89.600 287.944,89.600 287.669 C 89.600 287.394,88.763 285.825,87.740 284.184 C 71.476 258.095,69.289 243.278,69.422 160.055 C 69.519 98.979,69.537 98.730,74.137 94.130 C 77.153 91.114,76.744 91.220,95.600 88.529 C 108.283 86.719,127.468 81.406,137.253 76.995 C 142.064 74.826,147.350 72.606,149.001 72.063 C 150.651 71.520,153.739 69.881,155.862 68.420 C 157.985 66.960,162.574 64.435,166.061 62.808 C 169.547 61.182,172.940 59.387,173.600 58.818 C 174.260 58.250,177.860 56.191,181.600 54.244 C 188.388 50.709,199.147 43.676,205.200 38.817 C 212.672 32.819,216.515 33.255,228.627 41.474 M208.520 61.199 C 207.266 61.853,203.980 63.968,201.217 65.899 C 198.454 67.831,193.540 70.790,190.297 72.476 C 187.054 74.162,184.220 75.751,184.000 76.007 C 183.159 76.984,177.200 80.148,172.500 82.112 C 168.193 83.912,163.059 86.380,154.800 90.620 C 148.451 93.879,135.899 99.200,131.600 100.455 C 128.960 101.225,122.660 103.279,117.600 105.019 C 112.540 106.759,106.639 108.488,104.487 108.861 C 95.177 110.475,91.895 113.547,90.308 122.132 C 88.830 130.127,89.831 223.165,91.507 233.600 C 93.763 247.642,95.139 253.489,97.118 257.432 C 101.605 266.373,108.252 278.895,109.099 280.000 C 109.604 280.660,110.706 282.460,111.546 284.000 C 115.757 291.712,139.454 316.096,151.198 324.800 C 152.682 325.900,154.459 327.371,155.148 328.070 C 155.837 328.768,160.720 332.170,166.000 335.629 C 171.280 339.088,175.780 342.135,176.000 342.401 C 176.990 343.598,183.002 347.815,186.833 350.000 C 195.430 354.903,207.609 362.596,207.867 363.287 C 208.670 365.435,218.188 363.979,224.473 360.745 C 231.850 356.950,233.205 356.178,236.417 353.938 C 237.727 353.023,241.224 350.939,244.186 349.306 C 247.149 347.673,251.762 344.580,254.438 342.432 C 257.114 340.284,260.990 337.415,263.052 336.056 C 265.113 334.696,269.921 331.518,273.735 328.992 C 291.636 317.140,317.358 289.766,322.799 276.777 C 323.992 273.930,326.181 269.423,327.663 266.762 C 331.841 259.259,332.760 256.244,337.407 234.800 C 339.691 224.256,339.511 121.022,337.200 116.400 C 335.314 112.627,330.586 109.938,323.935 108.853 C 320.109 108.229,312.203 105.838,294.400 99.920 C 291.540 98.969,287.220 97.183,284.800 95.950 C 282.380 94.718,278.600 92.926,276.400 91.968 C 263.630 86.409,242.408 74.898,231.000 67.343 C 220.412 60.332,213.700 58.497,208.520 61.199 M223.404 66.421 C 241.971 78.170,259.316 87.784,273.200 94.023 C 275.840 95.209,280.520 97.368,283.600 98.821 C 286.680 100.273,291.540 102.192,294.400 103.085 C 297.260 103.977,301.580 105.486,304.000 106.437 C 306.420 107.389,312.900 109.169,318.400 110.392 C 337.108 114.555,335.735 108.948,335.155 178.800 L 334.709 232.400 332.608 242.825 C 330.731 252.133,327.523 261.752,325.334 264.633 C 324.116 266.237,320.800 273.642,320.800 274.759 C 320.800 275.310,319.786 277.164,318.548 278.880 C 317.309 280.596,314.399 284.787,312.081 288.194 C 307.597 294.786,296.624 306.154,285.242 316.000 C 281.427 319.300,277.603 322.634,276.744 323.409 C 275.885 324.184,272.731 326.344,269.736 328.209 C 266.741 330.074,259.719 334.840,254.131 338.800 C 248.544 342.760,242.366 346.900,240.403 348.000 C 238.440 349.100,233.738 351.890,229.956 354.200 C 226.173 356.510,222.637 358.400,222.099 358.400 C 221.561 358.400,220.696 358.824,220.178 359.342 C 217.043 362.477,209.580 360.577,199.838 354.163 C 194.689 350.774,190.130 348.000,189.707 348.000 C 189.284 348.000,186.117 345.929,182.669 343.397 C 174.499 337.397,170.668 334.783,163.580 330.371 C 160.373 328.375,156.006 325.207,153.875 323.332 C 133.601 305.489,120.739 292.345,115.407 284.021 C 113.004 280.270,110.426 276.300,109.678 275.200 C 108.929 274.100,107.684 271.760,106.911 270.000 C 106.138 268.240,104.760 265.360,103.849 263.600 C 96.376 249.162,95.552 246.149,94.441 229.200 C 93.215 210.485,92.740 170.639,93.424 143.954 C 94.246 111.914,93.058 114.280,110.400 110.164 C 124.829 106.738,141.926 100.297,159.844 91.535 C 169.217 86.951,177.262 83.200,177.720 83.200 C 178.778 83.200,182.532 81.107,187.249 77.890 C 189.273 76.509,193.194 74.255,195.963 72.881 C 198.732 71.507,202.663 68.990,204.699 67.287 C 210.728 62.244,216.389 61.982,223.404 66.421 M208.400 101.689 C 189.777 103.316,166.176 122.040,160.578 139.629 C 156.052 153.851,156.910 172.969,162.534 183.200 C 163.381 184.740,164.867 187.436,165.837 189.191 C 168.230 193.523,179.923 204.653,185.039 207.471 C 200.318 215.883,199.291 215.600,214.503 215.600 L 227.805 215.600 237.909 210.570 C 249.799 204.651,251.498 203.270,259.083 193.353 C 264.867 185.791,265.681 183.998,269.897 169.530 C 273.464 157.290,268.656 135.651,260.136 125.595 C 259.206 124.498,257.024 121.757,255.287 119.504 C 252.379 115.735,243.205 108.800,241.126 108.800 C 240.638 108.800,238.655 107.961,236.719 106.937 C 227.979 102.309,219.434 100.725,208.400 101.689 M232.000 108.749 C 246.605 113.731,250.594 117.031,261.076 132.800 C 267.863 143.009,268.850 168.244,262.965 181.049 C 256.754 194.559,248.224 202.700,233.887 208.798 L 223.600 213.173 214.400 213.140 C 204.630 213.106,203.870 212.893,188.000 205.732 C 171.902 198.469,159.861 176.042,161.083 155.600 C 161.811 143.418,163.486 138.700,171.200 127.100 C 173.823 123.155,185.316 113.287,189.282 111.573 C 207.373 103.755,215.739 103.202,232.000 108.749 M199.674 120.046 C 180.210 126.637,167.270 153.110,174.657 171.226 C 184.039 194.231,202.572 204.280,224.849 198.440 C 248.325 192.286,258.984 175.374,255.381 149.996 C 252.040 126.460,224.483 111.645,199.674 120.046 M224.243 121.995 C 230.834 123.256,232.898 124.084,235.501 126.509 C 236.383 127.330,238.217 128.764,239.577 129.696 C 245.827 133.979,251.605 144.299,252.777 153.271 C 256.811 184.170,228.150 204.920,197.197 193.508 C 185.546 189.213,175.485 171.181,177.696 158.557 C 178.135 156.051,178.792 151.793,179.157 149.095 C 179.522 146.398,180.388 143.158,181.082 141.895 C 181.775 140.633,182.877 138.486,183.530 137.124 C 189.380 124.930,206.444 118.589,224.243 121.995 M199.489 133.979 C 197.790 135.508,195.140 137.591,193.600 138.607 C 188.191 142.179,185.624 151.533,188.855 155.903 C 193.582 162.297,207.395 155.719,213.352 144.238 C 218.281 134.737,207.508 126.765,199.489 133.979 M209.849 138.732 C 211.897 144.915,200.542 156.147,194.400 154.013 C 191.788 153.105,191.618 152.838,191.871 150.045 C 192.742 140.423,207.360 131.224,209.849 138.732 M160.000 220.015 C 138.765 223.800,128.500 249.336,141.807 265.272 C 155.878 282.121,177.068 281.005,189.631 262.753 C 200.373 247.147,189.960 223.813,170.773 220.494 C 164.598 219.426,163.563 219.380,160.000 220.015 M175.573 225.190 C 201.439 237.879,190.535 275.485,161.590 273.414 C 153.231 272.816,146.809 268.093,141.907 258.940 C 138.993 253.499,140.164 237.251,143.680 234.333 C 144.296 233.822,144.800 232.971,144.800 232.441 C 144.800 225.737,166.340 220.660,175.573 225.190 M160.800 235.722 C 148.918 239.636,149.596 259.624,161.667 261.278 C 175.755 263.209,183.904 248.118,173.738 238.924 C 170.714 236.189,164.243 234.587,160.800 235.722 M169.728 240.103 C 177.384 244.005,174.489 256.989,165.700 258.168 C 162.126 258.647,157.600 257.213,157.600 255.601 C 157.600 255.048,157.060 254.148,156.400 253.600 C 154.784 252.259,154.852 246.384,156.524 242.877 C 158.408 238.927,164.791 237.586,169.728 240.103 M216.400 289.623 C 209.802 290.602,206.324 293.548,204.913 299.354 C 200.745 316.497,217.875 325.530,229.503 312.321 C 237.575 303.150,228.713 287.797,216.400 289.623 M222.808 293.952 C 228.692 296.410,230.989 306.055,226.774 310.601 C 217.798 320.281,203.954 312.548,207.566 299.871 C 209.254 293.944,216.269 291.220,222.808 293.952 " stroke="none" fill="#9fd1ee" fill-rule="evenodd"></path><path id="path4" d="M209.600 26.161 C 208.940 26.401,207.320 27.576,206.000 28.773 C 204.680 29.969,202.250 31.755,200.600 32.740 C 198.950 33.725,197.600 34.819,197.600 35.172 C 197.600 35.525,196.970 36.026,196.200 36.285 C 194.229 36.949,189.735 39.630,188.073 41.134 C 187.304 41.830,186.317 42.400,185.881 42.400 C 185.445 42.400,183.673 43.577,181.944 45.015 C 180.215 46.453,177.900 48.019,176.800 48.496 C 171.084 50.973,163.750 55.053,161.512 57.000 C 160.121 58.210,158.550 59.200,158.022 59.200 C 157.493 59.200,154.212 60.608,150.730 62.330 C 139.756 67.755,135.748 69.483,130.049 71.243 C 127.002 72.184,123.719 73.472,122.754 74.104 C 119.905 75.970,98.030 80.006,86.800 80.737 C 72.048 81.696,67.328 84.033,63.571 92.238 L 61.579 96.591 60.942 133.295 C 59.624 209.252,61.615 245.036,67.955 259.325 C 68.864 261.373,70.492 266.097,71.571 269.823 C 73.660 277.031,76.040 281.739,78.988 284.492 C 79.985 285.422,80.800 286.432,80.800 286.736 C 80.800 288.153,84.053 294.200,85.538 295.544 C 86.452 296.371,87.200 297.387,87.200 297.801 C 87.200 298.215,89.124 300.769,91.477 303.477 C 95.913 308.584,96.861 309.717,102.287 316.400 C 104.073 318.600,106.588 321.480,107.876 322.800 C 109.164 324.120,110.832 326.177,111.582 327.370 C 112.332 328.564,114.983 330.876,117.473 332.509 C 119.963 334.141,123.080 336.617,124.400 338.011 C 125.720 339.405,128.960 342.183,131.600 344.184 C 134.240 346.185,137.273 348.762,138.339 349.911 C 139.406 351.060,140.614 352.000,141.024 352.000 C 141.434 352.000,142.478 352.900,143.343 354.000 C 144.208 355.100,145.340 356.003,145.858 356.008 C 146.376 356.012,148.381 357.272,150.313 358.808 C 152.245 360.343,154.072 361.600,154.374 361.600 C 154.676 361.600,156.687 363.220,158.844 365.200 C 161.001 367.180,163.105 368.800,163.520 368.800 C 163.935 368.800,164.842 369.300,165.537 369.912 C 166.232 370.524,168.780 371.854,171.200 372.868 C 173.620 373.883,175.877 375.162,176.215 375.712 C 176.972 376.942,189.873 384.800,191.136 384.800 C 191.639 384.800,192.253 385.329,192.501 385.976 C 192.749 386.622,195.070 388.210,197.659 389.503 C 200.248 390.797,203.673 392.933,205.271 394.250 C 210.063 398.200,219.120 397.666,225.363 393.064 C 226.773 392.025,229.496 390.502,231.413 389.680 C 233.331 388.858,235.418 387.669,236.050 387.038 C 237.353 385.739,244.610 381.450,248.770 379.521 C 250.294 378.814,253.135 376.833,255.083 375.118 C 257.031 373.403,259.167 372.000,259.830 372.000 C 261.049 372.000,268.591 367.294,270.614 365.272 C 271.219 364.667,273.488 363.257,275.657 362.139 C 277.826 361.021,281.873 358.103,284.651 355.653 C 287.429 353.204,290.089 351.200,290.562 351.200 C 291.034 351.200,292.961 349.850,294.842 348.200 C 301.659 342.222,303.411 340.800,303.956 340.800 C 304.711 340.800,308.000 336.962,308.000 336.081 C 308.000 335.692,308.897 335.148,309.994 334.873 C 311.645 334.459,322.362 324.410,325.200 320.616 C 325.640 320.027,327.890 317.337,330.200 314.636 C 332.510 311.936,334.400 309.476,334.400 309.170 C 334.400 308.864,336.290 306.558,338.600 304.045 C 340.910 301.532,343.842 297.344,345.117 294.738 C 346.391 292.132,348.061 289.280,348.829 288.400 C 350.981 285.933,354.666 278.518,356.383 273.200 C 357.236 270.560,358.407 267.822,358.987 267.115 C 360.875 264.811,363.200 256.933,363.200 252.836 C 363.200 248.967,364.132 243.109,367.025 228.800 C 368.256 222.713,368.400 215.377,368.400 158.800 L 368.400 95.600 366.650 92.400 C 361.884 83.687,358.481 81.912,345.200 81.207 C 335.812 80.709,333.423 80.368,317.200 77.212 C 310.384 75.886,305.176 74.364,302.087 72.794 C 299.495 71.477,296.652 70.400,295.768 70.400 C 294.885 70.400,289.589 68.100,283.998 65.289 C 278.408 62.478,272.791 59.946,271.517 59.661 C 270.243 59.377,267.764 57.897,266.010 56.373 C 264.255 54.849,261.609 52.971,260.130 52.201 C 258.651 51.430,256.276 50.195,254.853 49.456 C 251.483 47.706,236.406 37.533,228.781 31.864 C 221.013 26.088,214.853 24.257,209.600 26.161 M219.772 32.482 C 221.877 33.187,225.400 35.099,227.600 36.729 C 235.844 42.841,237.507 44.000,238.031 44.000 C 238.328 44.000,239.882 45.024,241.485 46.275 C 243.088 47.527,247.100 50.107,250.400 52.009 C 253.700 53.911,257.480 56.261,258.800 57.231 C 260.120 58.202,264.980 60.908,269.600 63.245 C 274.220 65.581,278.820 68.015,279.822 68.653 C 282.181 70.154,297.201 76.314,304.400 78.731 C 313.213 81.691,332.992 85.673,344.685 86.842 C 364.909 88.864,363.339 82.326,362.953 162.884 C 362.563 244.184,362.291 247.251,353.649 267.600 C 353.275 268.480,352.328 271.000,351.544 273.200 C 350.760 275.400,349.012 279.000,347.660 281.200 C 346.307 283.400,344.316 286.894,343.236 288.964 C 340.858 293.523,331.893 305.802,327.322 310.761 C 325.495 312.743,324.000 314.649,324.000 314.996 C 324.000 318.943,285.681 350.530,266.021 362.788 C 264.712 363.604,263.272 364.576,262.821 364.947 C 260.728 366.669,249.297 373.791,244.327 376.469 C 241.287 378.107,235.849 381.362,232.242 383.701 C 217.458 393.289,212.257 393.472,199.306 384.854 C 195.624 382.404,190.707 379.320,188.378 378.000 C 173.068 369.323,157.981 359.643,154.507 356.270 C 153.466 355.259,150.766 353.203,148.507 351.700 C 146.248 350.198,143.466 348.121,142.325 347.084 C 138.749 343.837,131.685 337.811,129.192 335.880 C 127.876 334.862,126.680 333.753,126.533 333.415 C 126.387 333.077,125.934 332.800,125.526 332.800 C 125.119 332.800,123.639 331.810,122.236 330.600 C 115.175 324.508,112.272 321.591,108.903 317.200 C 103.957 310.756,102.633 309.159,98.311 304.434 C 96.281 302.215,93.761 299.093,92.711 297.495 C 91.660 295.897,89.569 292.863,88.064 290.753 C 86.560 288.644,84.142 284.731,82.691 282.059 C 81.241 279.386,79.332 275.883,78.449 274.274 C 75.345 268.619,72.098 257.594,68.787 241.474 C 64.512 220.664,64.429 101.213,68.683 94.266 C 71.857 89.085,77.005 86.895,87.996 86.051 C 91.734 85.764,97.134 85.040,99.996 84.442 C 102.858 83.843,107.360 82.915,110.000 82.380 C 116.705 81.019,129.233 77.122,134.000 74.913 C 136.200 73.893,139.980 72.385,142.400 71.560 C 144.820 70.736,147.756 69.418,148.923 68.631 C 150.091 67.844,151.287 67.200,151.579 67.200 C 151.872 67.200,153.617 66.186,155.456 64.946 C 157.295 63.707,160.780 61.867,163.200 60.858 C 165.620 59.849,168.140 58.557,168.800 57.987 C 169.460 57.416,173.240 55.249,177.200 53.170 C 181.160 51.091,186.020 48.267,188.000 46.895 C 192.029 44.103,194.227 42.731,196.000 41.901 C 196.660 41.593,199.532 39.528,202.383 37.313 C 210.203 31.236,213.400 30.348,219.772 32.482 M210.000 63.747 C 209.120 63.991,206.735 65.584,204.699 67.287 C 202.663 68.990,198.732 71.507,195.963 72.881 C 193.194 74.255,189.273 76.509,187.249 77.890 C 182.532 81.107,178.778 83.200,177.720 83.200 C 177.262 83.200,169.217 86.951,159.844 91.535 C 141.926 100.297,124.829 106.738,110.400 110.164 C 93.058 114.280,94.246 111.914,93.424 143.954 C 92.740 170.639,93.215 210.485,94.441 229.200 C 95.552 246.149,96.376 249.162,103.849 263.600 C 104.760 265.360,106.138 268.240,106.911 270.000 C 107.684 271.760,108.929 274.100,109.678 275.200 C 110.426 276.300,113.004 280.270,115.407 284.021 C 120.739 292.345,133.601 305.489,153.875 323.332 C 156.006 325.207,160.373 328.375,163.580 330.371 C 170.668 334.783,174.499 337.397,182.669 343.397 C 186.117 345.929,189.284 348.000,189.707 348.000 C 190.130 348.000,194.689 350.774,199.838 354.163 C 209.580 360.577,217.043 362.477,220.178 359.342 C 220.696 358.824,221.561 358.400,222.099 358.400 C 222.637 358.400,226.173 356.510,229.956 354.200 C 233.738 351.890,238.440 349.100,240.403 348.000 C 242.366 346.900,248.544 342.760,254.131 338.800 C 259.719 334.840,266.741 330.074,269.736 328.209 C 272.731 326.344,275.885 324.184,276.744 323.409 C 277.603 322.634,281.427 319.300,285.242 316.000 C 296.624 306.154,307.597 294.786,312.081 288.194 C 314.399 284.787,317.309 280.596,318.548 278.880 C 319.786 277.164,320.800 275.310,320.800 274.759 C 320.800 273.642,324.116 266.237,325.334 264.633 C 327.523 261.752,330.731 252.133,332.608 242.825 L 334.709 232.400 335.155 178.800 C 335.735 108.948,337.108 114.555,318.400 110.392 C 312.900 109.169,306.420 107.389,304.000 106.437 C 301.580 105.486,297.260 103.977,294.400 103.085 C 291.540 102.192,286.680 100.273,283.600 98.821 C 280.520 97.368,275.840 95.209,273.200 94.023 C 259.316 87.784,241.971 78.170,223.404 66.421 C 219.228 63.778,213.793 62.694,210.000 63.747 M221.564 70.719 C 222.684 71.767,225.181 73.417,227.113 74.386 C 229.045 75.355,231.025 76.491,231.513 76.911 C 234.857 79.791,245.291 85.600,247.119 85.600 C 247.602 85.600,249.707 86.793,251.798 88.250 C 256.472 91.509,264.427 95.614,267.443 96.324 C 268.676 96.614,271.160 97.920,272.963 99.226 C 274.765 100.532,276.569 101.600,276.971 101.600 C 277.373 101.600,279.749 102.545,282.251 103.700 C 284.753 104.856,288.955 106.311,291.589 106.935 C 294.223 107.559,297.855 108.935,299.661 109.993 C 301.897 111.304,305.215 112.199,310.072 112.801 C 324.885 114.636,328.036 116.118,329.501 121.938 C 332.089 132.217,330.076 240.836,327.155 248.519 C 326.740 249.611,326.400 251.322,326.400 252.321 C 326.400 253.320,325.186 255.727,323.702 257.669 C 322.218 259.611,320.752 262.265,320.445 263.566 C 319.606 267.117,314.292 277.722,312.210 280.000 C 311.205 281.100,310.154 282.718,309.875 283.597 C 309.113 285.992,299.852 296.329,291.656 303.930 C 287.665 307.632,283.006 311.952,281.303 313.530 C 279.600 315.109,277.399 317.210,276.412 318.200 C 275.424 319.190,274.315 320.000,273.946 320.000 C 273.578 320.000,272.179 321.015,270.838 322.255 C 269.497 323.496,266.780 325.192,264.800 326.024 C 261.404 327.453,255.752 331.404,252.569 334.574 C 251.783 335.357,249.779 336.693,248.116 337.541 C 246.453 338.389,244.582 339.699,243.958 340.451 C 243.333 341.203,241.378 342.484,239.611 343.296 C 234.409 345.690,227.728 349.576,225.960 351.237 C 220.627 356.248,208.888 356.167,203.476 351.083 C 202.516 350.181,198.731 347.716,195.065 345.604 C 191.399 343.493,187.320 340.882,186.000 339.801 C 184.680 338.721,182.700 337.368,181.600 336.794 C 180.500 336.221,178.123 334.547,176.318 333.076 C 174.512 331.604,172.678 330.400,172.242 330.400 C 171.805 330.400,170.796 329.680,170.000 328.800 C 169.204 327.920,168.212 327.200,167.797 327.200 C 164.458 327.200,161.156 324.509,142.279 306.400 C 137.463 301.780,132.820 297.675,131.961 297.278 C 131.103 296.881,130.400 296.263,130.400 295.904 C 130.400 295.546,128.735 293.351,126.700 291.027 C 124.665 288.702,122.166 285.837,121.146 284.659 C 120.127 283.481,118.501 280.967,117.534 279.071 C 116.567 277.176,114.117 273.099,112.088 270.012 C 110.060 266.926,107.714 262.338,106.876 259.818 C 106.038 257.298,104.688 254.523,103.876 253.651 C 103.064 252.780,102.400 251.488,102.400 250.781 C 102.400 250.074,102.044 248.829,101.608 248.015 C 98.502 242.211,95.762 134.322,98.435 123.083 C 99.930 116.800,102.693 115.263,116.332 113.128 C 121.305 112.350,125.627 111.166,127.600 110.041 C 129.360 109.038,132.780 107.764,135.200 107.211 C 141.989 105.661,152.085 101.595,155.304 99.115 C 156.902 97.885,159.242 96.635,160.504 96.338 C 163.314 95.677,178.317 88.314,180.063 86.739 C 180.758 86.113,181.702 85.600,182.161 85.600 C 183.493 85.600,190.285 82.434,190.823 81.562 C 191.093 81.126,192.998 79.866,195.057 78.762 C 203.083 74.456,206.464 72.265,207.615 70.621 C 209.861 67.415,218.093 67.473,221.564 70.719 M200.800 98.326 C 196.614 98.925,183.815 104.871,180.757 107.639 C 180.051 108.278,179.090 108.800,178.620 108.800 C 178.150 108.800,176.735 109.970,175.475 111.400 C 174.216 112.830,171.928 114.965,170.393 116.143 C 151.297 130.800,147.520 173.239,163.464 194.000 C 168.371 200.389,182.093 212.800,184.251 212.800 C 184.959 212.800,186.182 213.481,186.969 214.313 C 193.050 220.740,233.568 220.840,241.200 214.446 C 242.080 213.709,243.880 212.649,245.200 212.092 C 250.175 209.992,254.946 206.328,256.647 203.301 C 257.615 201.578,258.936 199.966,259.580 199.718 C 261.558 198.959,267.924 189.652,268.871 186.135 C 269.363 184.309,270.450 181.853,271.287 180.678 C 277.798 171.534,277.830 146.110,271.341 136.997 C 270.474 135.781,269.363 133.291,268.871 131.465 C 267.907 127.884,261.840 119.063,259.212 117.422 C 258.326 116.868,257.600 116.139,257.600 115.801 C 257.600 113.296,249.499 107.663,236.728 101.289 L 230.656 98.258 217.928 97.978 C 210.928 97.823,203.220 97.980,200.800 98.326 M229.200 103.614 C 231.400 104.417,234.784 105.912,236.719 106.937 C 238.655 107.961,240.638 108.800,241.126 108.800 C 243.205 108.800,252.379 115.735,255.287 119.504 C 257.024 121.757,259.206 124.498,260.136 125.595 C 268.656 135.651,273.464 157.290,269.897 169.530 C 265.681 183.998,264.867 185.791,259.083 193.353 C 251.498 203.270,249.799 204.651,237.909 210.570 L 227.805 215.600 214.503 215.600 C 199.291 215.600,200.318 215.883,185.039 207.471 C 179.923 204.653,168.230 193.523,165.837 189.191 C 164.867 187.436,163.381 184.740,162.534 183.200 C 156.910 172.969,156.052 153.851,160.578 139.629 C 168.836 113.682,204.903 94.754,229.200 103.614 M204.000 121.976 C 196.507 123.625,186.427 131.085,183.530 137.124 C 182.877 138.486,181.775 140.633,181.082 141.895 C 180.388 143.158,179.522 146.398,179.157 149.095 C 178.792 151.793,178.135 156.051,177.696 158.557 C 172.129 190.349,217.442 209.979,241.609 186.245 C 257.720 170.422,256.677 141.414,239.577 129.696 C 238.217 128.764,236.383 127.330,235.501 126.509 C 230.333 121.694,215.186 119.515,204.000 121.976 M226.572 126.800 C 228.191 127.900,229.730 128.800,229.992 128.800 C 230.827 128.800,238.736 134.930,240.445 136.902 C 248.266 145.926,250.403 163.035,245.000 173.377 C 243.570 176.115,242.400 178.905,242.400 179.577 C 242.400 180.250,242.052 180.800,241.627 180.800 C 241.201 180.800,239.069 182.330,236.888 184.200 C 227.759 192.028,228.109 191.847,220.880 192.449 C 211.630 193.220,201.626 192.320,199.952 190.567 C 199.233 189.815,196.084 187.220,192.953 184.800 C 182.724 176.895,179.626 160.569,188.857 163.216 C 197.861 165.799,205.821 162.099,212.559 152.200 C 213.233 151.210,214.241 150.400,214.800 150.400 C 219.204 150.400,220.853 132.807,216.907 127.933 C 216.133 126.978,214.083 125.924,212.350 125.591 C 209.865 125.112,210.723 124.965,216.414 124.892 C 222.875 124.810,223.936 125.009,226.572 126.800 M211.724 133.241 C 219.673 139.303,206.962 158.400,194.979 158.400 C 185.501 158.400,184.539 144.590,193.600 138.607 C 195.140 137.591,197.790 135.508,199.489 133.979 C 203.437 130.427,207.699 130.170,211.724 133.241 M156.400 215.377 C 155.080 215.845,153.100 216.850,152.000 217.610 C 150.900 218.369,147.923 219.967,145.384 221.161 C 140.970 223.237,136.800 227.620,136.800 230.186 C 136.800 230.744,136.447 231.200,136.016 231.200 C 135.585 231.200,134.461 232.711,133.519 234.559 C 121.028 259.042,149.282 290.786,174.473 280.571 C 186.730 275.600,193.986 268.199,198.248 256.318 C 202.020 245.804,195.645 228.215,185.819 222.026 C 184.399 221.132,181.879 219.539,180.219 218.487 C 174.353 214.770,162.483 213.221,156.400 215.377 M170.773 220.494 C 198.908 225.361,201.768 264.627,174.760 275.235 C 162.853 279.912,151.054 276.344,141.807 265.272 C 128.500 249.336,138.765 223.800,160.000 220.015 C 163.563 219.380,164.598 219.426,170.773 220.494 M160.724 239.365 C 156.055 240.559,152.961 250.746,156.400 253.600 C 157.060 254.148,157.600 255.048,157.600 255.601 C 157.600 259.267,167.693 259.036,171.358 255.287 C 178.810 247.665,171.436 236.625,160.724 239.365 M166.427 245.619 L 168.701 247.238 166.950 249.985 C 165.988 251.496,164.660 252.743,164.000 252.756 C 162.583 252.785,158.604 246.999,159.773 246.609 C 160.213 246.462,161.254 245.827,162.087 245.197 C 164.007 243.743,163.758 243.719,166.427 245.619 M212.193 285.601 C 206.048 286.896,200.978 292.944,199.136 301.175 C 198.148 305.586,199.181 312.000,200.878 312.000 C 201.220 312.000,202.445 313.735,203.599 315.856 C 210.060 327.728,227.631 325.611,236.466 311.898 C 245.121 298.464,229.818 281.885,212.193 285.601 M228.124 293.847 C 240.177 305.900,225.628 324.892,210.760 316.514 C 201.911 311.528,201.935 296.050,210.798 291.367 C 216.701 288.248,223.498 289.221,228.124 293.847 " stroke="none" fill="#c9e4f4" fill-rule="evenodd"></path></g></svg>