<svg id="svg" version="1.1" width="500" height="520" xmlns="http://www.w3.org/2000/svg" xmlns:xlink="http://www.w3.org/1999/xlink" style="display: block;"><g id="svgg"><path id="path0" d="M0.800 207.600 L 0.800 415.200 200.400 415.200 L 400.000 415.200 400.000 207.600 L 400.000 0.000 200.400 0.000 L 0.800 0.000 0.800 207.600 M212.469 25.996 C 213.567 27.094,215.621 28.583,217.033 29.305 C 218.445 30.026,220.860 31.803,222.400 33.252 C 229.714 40.135,232.393 42.400,233.222 42.400 C 233.716 42.400,234.950 43.282,235.962 44.360 C 236.975 45.437,239.467 47.101,241.502 48.057 C 243.536 49.013,246.157 50.600,247.326 51.584 C 248.495 52.567,250.850 53.595,252.560 53.869 C 254.531 54.184,256.515 55.250,257.984 56.783 C 259.257 58.112,260.902 59.200,261.638 59.200 C 262.374 59.200,264.377 60.150,266.088 61.312 C 267.800 62.473,271.000 64.053,273.200 64.823 C 275.400 65.593,279.307 67.342,281.881 68.711 C 284.456 70.080,287.028 71.200,287.597 71.200 C 288.167 71.200,291.180 72.284,294.294 73.609 C 297.408 74.934,302.576 76.526,305.778 77.146 C 308.980 77.766,313.760 79.274,316.400 80.497 C 320.905 82.584,322.064 82.749,335.253 83.172 C 357.323 83.881,355.200 76.281,355.200 154.562 C 355.200 227.128,354.177 246.614,349.957 254.400 C 349.361 255.500,348.465 259.007,347.966 262.193 C 347.394 265.840,346.329 269.060,345.091 270.885 C 344.009 272.479,342.447 275.563,341.621 277.739 C 340.794 279.915,339.191 282.909,338.059 284.394 C 336.927 285.879,336.000 287.286,336.000 287.522 C 336.000 288.441,328.007 300.510,326.148 302.400 C 325.065 303.500,323.940 305.194,323.647 306.165 C 323.354 307.136,322.054 308.822,320.757 309.913 C 319.461 311.004,318.400 312.195,318.400 312.560 C 318.400 313.714,305.454 327.200,304.347 327.200 C 303.766 327.200,302.652 328.280,301.873 329.600 C 301.093 330.920,300.144 332.000,299.765 332.000 C 299.385 332.000,297.649 333.440,295.906 335.200 C 294.164 336.960,292.368 338.400,291.915 338.400 C 291.463 338.400,289.767 339.682,288.146 341.248 C 281.884 347.301,280.271 348.674,276.400 351.248 C 274.200 352.710,272.277 354.207,272.126 354.575 C 271.976 354.942,270.536 355.915,268.926 356.736 C 267.317 357.558,265.314 358.988,264.476 359.915 C 263.638 360.842,262.502 361.600,261.952 361.600 C 261.402 361.600,259.476 362.832,257.673 364.339 C 255.870 365.845,253.168 367.482,251.668 367.977 C 250.169 368.472,248.756 369.360,248.530 369.950 C 248.304 370.540,246.382 371.673,244.259 372.467 C 242.137 373.262,238.818 375.102,236.885 376.556 C 234.952 378.010,232.950 379.200,232.436 379.200 C 231.922 379.200,230.751 379.899,229.834 380.754 C 228.024 382.440,222.465 385.600,221.309 385.600 C 220.916 385.600,219.291 386.703,217.697 388.051 C 206.000 397.947,203.261 397.905,191.683 387.652 C 190.408 386.523,188.968 385.597,188.483 385.592 C 187.997 385.588,185.980 384.296,184.000 382.721 C 182.020 381.146,179.140 379.330,177.600 378.686 C 176.060 378.042,173.900 376.681,172.800 375.661 C 171.700 374.641,169.779 373.565,168.531 373.271 C 167.283 372.976,165.342 371.815,164.218 370.690 C 163.093 369.566,160.689 368.010,158.875 367.232 C 157.061 366.455,155.121 365.268,154.562 364.595 C 154.004 363.923,152.389 362.916,150.973 362.358 C 149.558 361.801,147.500 360.524,146.400 359.522 C 144.269 357.579,141.990 355.899,133.400 349.936 C 130.430 347.874,128.000 345.880,128.000 345.504 C 128.000 345.128,126.589 343.929,124.863 342.840 C 123.138 341.751,121.505 340.162,121.235 339.310 C 120.964 338.457,119.879 337.542,118.824 337.278 C 117.769 337.013,116.138 335.717,115.199 334.398 C 114.259 333.079,113.066 332.000,112.546 332.000 C 112.026 332.000,110.521 330.931,109.201 329.625 C 99.679 320.204,96.383 316.829,94.150 314.214 C 92.747 312.571,90.652 310.231,89.494 309.014 C 88.335 307.796,86.818 305.674,86.123 304.297 C 85.428 302.920,84.287 301.575,83.589 301.306 C 82.890 301.038,81.566 299.105,80.647 297.009 C 79.727 294.914,77.946 292.017,76.687 290.572 C 75.429 289.127,74.400 287.549,74.400 287.066 C 74.400 286.583,73.694 285.575,72.831 284.827 C 70.525 282.827,62.764 267.262,61.591 262.288 C 61.036 259.930,59.741 256.322,58.713 254.272 C 56.210 249.273,55.346 239.929,54.217 205.600 C 53.224 175.381,53.222 173.448,54.157 124.000 C 54.986 80.156,53.453 83.420,73.281 83.280 C 84.702 83.199,86.812 82.828,94.000 79.633 C 96.200 78.655,100.414 77.432,103.365 76.914 C 106.316 76.397,110.456 75.226,112.565 74.313 C 114.674 73.401,118.740 71.926,121.600 71.038 C 124.460 70.149,128.240 68.591,130.000 67.576 C 131.760 66.561,134.810 65.306,136.778 64.787 C 138.746 64.267,141.367 62.992,142.603 61.952 C 143.839 60.912,146.155 59.701,147.750 59.261 C 149.345 58.820,151.584 57.595,152.725 56.538 C 153.866 55.482,156.565 54.189,158.722 53.666 C 160.879 53.143,163.931 51.655,165.504 50.358 C 167.077 49.061,168.788 48.000,169.307 48.000 C 169.825 48.000,171.757 46.740,173.600 45.200 C 175.443 43.660,177.367 42.397,177.876 42.393 C 178.779 42.386,186.417 36.429,190.400 32.626 C 191.500 31.576,193.584 30.236,195.031 29.649 C 196.477 29.061,198.016 27.918,198.449 27.108 C 200.257 23.730,209.472 22.999,212.469 25.996 M203.788 62.410 C 202.131 62.708,199.397 64.059,197.713 65.413 C 196.029 66.766,193.330 68.426,191.714 69.101 C 190.099 69.776,188.584 70.831,188.348 71.446 C 188.112 72.061,186.047 73.423,183.760 74.473 C 181.472 75.524,179.291 76.873,178.914 77.473 C 178.537 78.073,176.197 79.457,173.714 80.549 C 171.231 81.640,168.480 83.178,167.600 83.967 C 166.720 84.755,164.020 86.030,161.600 86.800 C 159.180 87.570,156.457 88.875,155.550 89.699 C 154.642 90.523,151.963 91.772,149.596 92.475 C 147.229 93.178,144.191 94.582,142.846 95.595 C 141.501 96.607,138.370 97.850,135.889 98.356 C 133.402 98.863,130.747 99.975,129.970 100.834 C 128.484 102.475,124.160 103.975,120.800 104.015 C 119.700 104.027,116.640 104.941,114.000 106.045 C 109.208 108.048,95.812 111.178,91.970 111.192 C 90.853 111.197,88.700 112.235,87.184 113.500 L 84.429 115.800 84.489 171.700 C 84.548 225.988,84.598 227.773,86.233 233.600 C 87.158 236.900,88.465 242.559,89.136 246.175 C 89.839 249.958,91.385 254.676,92.778 257.287 C 94.110 259.783,95.200 262.352,95.200 262.997 C 95.200 263.641,96.287 265.779,97.616 267.748 C 98.945 269.716,100.525 272.509,101.129 273.953 C 101.732 275.397,102.770 277.258,103.435 278.089 C 108.998 285.036,114.302 291.277,116.715 293.714 C 118.302 295.317,119.960 297.002,120.400 297.460 C 120.840 297.918,122.033 299.126,123.051 300.146 C 124.069 301.166,126.844 303.980,129.217 306.400 C 135.796 313.106,142.479 318.708,149.437 323.347 C 150.548 324.088,152.314 325.618,153.361 326.747 C 154.408 327.876,155.959 328.800,156.808 328.800 C 157.657 328.800,159.123 329.843,160.066 331.118 C 161.008 332.393,162.777 333.635,163.996 333.879 C 165.216 334.123,167.897 335.780,169.955 337.561 C 172.013 339.343,174.160 340.800,174.725 340.800 C 175.290 340.800,176.438 341.562,177.276 342.493 C 178.114 343.425,180.660 345.012,182.933 346.020 C 185.207 347.028,187.656 348.752,188.376 349.850 C 189.095 350.949,190.579 352.072,191.672 352.347 C 192.765 352.621,195.399 354.095,197.525 355.623 C 203.262 359.744,210.403 359.259,214.754 354.451 C 215.530 353.593,217.221 352.659,218.510 352.376 C 219.799 352.093,221.411 351.011,222.092 349.972 C 222.773 348.933,225.011 347.473,227.065 346.727 C 229.119 345.981,231.382 344.722,232.092 343.929 C 232.803 343.137,235.143 341.523,237.292 340.343 C 239.442 339.164,241.920 337.558,242.800 336.776 C 243.680 335.993,245.750 334.797,247.400 334.118 C 249.050 333.438,250.400 332.511,250.400 332.057 C 250.400 331.604,251.913 330.460,253.763 329.517 C 255.613 328.573,257.766 326.988,258.548 325.993 C 259.330 324.999,261.375 323.623,263.093 322.936 C 264.810 322.249,266.901 320.816,267.738 319.751 C 268.576 318.687,269.992 317.583,270.886 317.300 C 271.780 317.016,273.307 315.708,274.279 314.392 C 275.252 313.076,276.577 312.000,277.224 312.000 C 277.871 312.000,278.400 311.630,278.400 311.178 C 278.400 310.726,282.719 305.956,287.997 300.578 C 293.276 295.200,297.596 290.484,297.597 290.097 C 297.599 289.710,298.770 288.038,300.200 286.381 C 305.835 279.852,307.648 277.324,308.815 274.371 C 309.484 272.680,310.784 270.464,311.705 269.448 C 312.626 268.432,313.813 265.800,314.343 263.600 C 314.873 261.400,316.178 258.033,317.243 256.118 C 318.708 253.483,319.490 250.077,320.455 242.118 C 321.157 236.333,322.236 229.440,322.854 226.800 C 323.757 222.939,323.979 211.663,323.988 169.157 L 324.000 116.314 321.400 113.858 C 319.487 112.052,317.743 111.271,314.800 110.904 C 305.986 109.806,298.579 108.057,294.400 106.088 C 291.980 104.948,288.818 104.012,287.374 104.008 C 284.190 103.998,279.614 102.186,278.682 100.565 C 278.307 99.913,275.926 98.953,273.392 98.432 C 270.858 97.910,267.798 96.658,266.592 95.650 C 265.386 94.641,262.347 93.222,259.837 92.497 C 257.328 91.771,254.808 90.532,254.237 89.744 C 253.667 88.955,251.152 87.674,248.649 86.896 C 246.146 86.118,243.626 84.913,243.049 84.218 C 242.472 83.523,239.804 81.968,237.119 80.764 C 234.434 79.559,232.022 78.012,231.759 77.326 C 231.496 76.640,229.498 75.312,227.319 74.375 C 225.140 73.438,222.539 71.800,221.539 70.735 C 220.539 69.671,219.256 68.800,218.688 68.800 C 218.120 68.800,216.424 67.719,214.919 66.397 C 211.130 63.071,207.445 61.751,203.788 62.410 M189.484 114.741 C 191.271 116.528,189.788 117.600,185.528 117.600 C 182.574 117.600,181.420 117.261,181.045 116.284 C 179.833 113.126,186.626 111.883,189.484 114.741 M220.000 152.400 C 224.180 153.044,229.271 153.578,231.313 153.586 C 233.355 153.594,236.595 154.312,238.513 155.182 C 240.431 156.053,242.929 156.773,244.065 156.782 C 245.672 156.796,246.729 157.732,248.829 161.000 C 250.313 163.310,251.809 165.318,252.153 165.463 C 252.498 165.608,253.700 167.560,254.826 169.802 C 255.952 172.043,257.428 174.283,258.105 174.778 C 258.867 175.335,259.235 176.580,259.069 178.039 L 258.800 180.400 203.600 180.400 L 148.400 180.400 148.157 178.304 C 148.004 176.984,148.818 174.868,150.357 172.588 C 151.701 170.597,152.800 168.591,152.800 168.129 C 152.800 167.668,153.446 166.820,154.235 166.245 C 155.024 165.670,156.600 163.400,157.737 161.200 C 159.559 157.676,160.174 157.142,162.903 156.712 C 164.606 156.444,167.338 155.634,168.974 154.912 C 170.610 154.191,173.670 153.573,175.774 153.540 C 177.878 153.507,182.660 153.014,186.400 152.445 C 195.775 151.018,210.904 150.998,220.000 152.400 M143.624 169.097 C 144.906 170.851,143.517 174.992,141.424 175.656 C 140.641 175.904,140.000 176.733,140.000 177.497 C 140.000 182.901,128.564 186.130,124.012 182.011 C 120.159 178.523,124.667 169.589,131.157 167.854 C 134.946 166.840,142.526 167.596,143.624 169.097 M279.321 169.545 C 280.169 170.455,281.123 171.200,281.442 171.200 C 281.761 171.200,282.878 173.002,283.923 175.204 L 285.824 179.209 283.512 181.404 C 278.965 185.723,268.087 183.411,266.686 177.829 C 266.433 176.823,265.910 176.000,265.524 176.000 C 263.385 176.000,262.295 170.020,264.158 168.505 C 266.773 166.378,277.025 167.082,279.321 169.545 M272.781 185.800 C 273.245 186.350,274.519 187.809,275.612 189.041 C 276.706 190.274,277.600 191.912,277.600 192.681 C 277.600 193.451,278.050 194.530,278.600 195.080 C 279.311 195.791,279.600 199.531,279.600 208.000 C 279.600 216.469,279.311 220.209,278.600 220.920 C 278.050 221.470,277.600 222.568,277.600 223.360 C 277.600 224.152,276.907 225.493,276.061 226.339 C 275.214 227.186,274.121 228.626,273.632 229.539 C 273.120 230.498,271.948 231.200,270.862 231.200 C 269.099 231.200,268.961 231.547,268.670 236.702 C 268.199 245.028,268.681 244.800,251.530 244.800 C 234.503 244.800,235.200 245.156,235.200 236.453 L 235.200 231.200 203.600 231.200 L 172.000 231.200 172.000 236.222 C 172.000 244.867,172.136 244.800,154.735 244.800 L 139.960 244.800 139.180 242.748 C 138.751 241.619,138.400 238.559,138.400 235.948 C 138.400 231.541,138.269 231.200,136.578 231.200 C 134.345 231.200,130.476 226.980,129.853 223.864 C 129.604 222.619,129.126 221.600,128.791 221.600 C 126.287 221.600,125.908 201.099,128.314 195.769 C 128.951 194.356,129.701 192.405,129.980 191.433 C 130.259 190.461,131.448 188.571,132.622 187.233 L 134.756 184.800 203.347 184.800 C 257.235 184.800,272.118 185.014,272.781 185.800 M139.213 197.979 C 138.132 199.729,137.589 201.729,137.748 203.379 L 138.000 206.000 151.600 206.000 L 165.200 206.000 165.444 201.274 C 165.758 195.170,165.883 195.227,152.265 195.212 L 140.930 195.200 139.213 197.979 M184.410 196.875 C 183.685 199.765,184.239 206.038,185.200 205.810 C 186.280 205.555,186.680 197.958,185.704 196.215 C 185.016 194.985,184.865 195.062,184.410 196.875 M221.333 195.733 C 220.485 196.581,220.716 205.453,221.600 206.000 C 222.104 206.312,222.400 204.408,222.400 200.847 C 222.400 195.170,222.313 194.754,221.333 195.733 M242.133 195.733 C 241.840 196.027,241.600 198.555,241.600 201.352 L 241.600 206.438 255.400 206.219 L 269.200 206.000 269.130 202.590 C 268.996 196.040,267.276 195.200,253.994 195.200 C 247.764 195.200,242.427 195.440,242.133 195.733 M195.761 196.506 C 194.784 197.482,195.153 204.565,196.227 205.456 C 198.200 207.094,199.303 205.245,199.046 200.732 C 198.810 196.594,197.438 194.829,195.761 196.506 M208.000 201.141 C 208.000 206.394,208.278 206.960,210.246 205.712 C 211.917 204.652,211.195 196.490,209.400 196.149 C 208.182 195.917,208.000 196.565,208.000 201.141 M205.200 284.800 C 205.476 285.246,204.866 285.600,203.819 285.600 C 202.788 285.600,199.896 286.320,197.392 287.200 C 194.165 288.334,190.789 288.800,185.792 288.800 C 180.795 288.800,177.420 288.334,174.192 287.200 C 171.689 286.320,168.821 285.594,167.820 285.588 C 166.351 285.578,166.232 285.426,167.200 284.800 C 168.830 283.747,204.549 283.747,205.200 284.800 " stroke="none" fill="#fcfcfc" fill-rule="evenodd"></path><path id="path1" d="M203.778 33.606 C 202.555 33.973,200.332 35.292,198.838 36.537 C 195.681 39.166,190.487 42.913,186.828 45.200 C 185.421 46.080,183.101 47.790,181.673 49.000 C 180.245 50.210,178.616 51.200,178.051 51.200 C 177.487 51.200,175.458 52.440,173.542 53.956 C 171.627 55.472,169.227 56.921,168.208 57.177 C 167.190 57.432,164.657 58.672,162.578 59.931 C 160.500 61.191,157.900 62.489,156.800 62.816 C 155.700 63.142,153.827 64.095,152.639 64.932 C 151.450 65.769,148.417 67.365,145.899 68.478 C 143.381 69.592,140.436 71.200,139.353 72.052 C 138.270 72.903,136.743 73.600,135.959 73.600 C 135.174 73.600,132.126 74.877,129.184 76.438 C 126.242 77.998,121.622 79.837,118.917 80.524 C 116.213 81.211,111.863 82.667,109.250 83.759 C 106.638 84.852,101.238 86.392,97.250 87.182 C 93.263 87.972,88.920 89.063,87.600 89.608 C 86.280 90.152,80.674 90.867,75.142 91.195 C 60.169 92.084,61.954 86.320,61.322 135.817 C 61.026 159.082,60.994 189.251,61.252 202.859 C 61.728 227.932,61.709 227.733,65.885 250.639 C 66.511 254.070,67.565 257.490,68.228 258.239 C 69.373 259.532,72.000 266.363,72.000 268.047 C 72.000 268.482,73.260 270.670,74.800 272.909 C 76.340 275.148,77.600 277.467,77.600 278.062 C 77.600 278.657,78.629 280.327,79.887 281.772 C 81.146 283.217,82.947 286.020,83.890 288.000 C 85.848 292.111,88.523 296.085,91.762 299.695 C 92.993 301.068,95.440 304.101,97.200 306.437 C 101.021 311.507,111.889 322.336,117.635 326.800 C 119.901 328.560,122.970 331.080,124.455 332.400 C 125.940 333.720,128.515 335.948,130.178 337.351 C 131.840 338.754,134.640 341.135,136.400 342.642 C 138.160 344.149,140.860 346.012,142.400 346.783 C 143.940 347.554,146.036 349.223,147.058 350.492 C 148.080 351.761,149.446 352.800,150.094 352.800 C 150.742 352.800,152.177 353.705,153.283 354.810 C 154.388 355.916,157.162 357.764,159.446 358.917 C 161.731 360.071,164.618 361.866,165.861 362.907 C 167.105 363.948,168.572 364.800,169.122 364.800 C 169.671 364.800,170.942 365.674,171.945 366.741 C 172.948 367.809,175.684 369.460,178.025 370.410 C 180.366 371.360,182.473 372.635,182.706 373.244 C 182.939 373.852,184.491 374.918,186.154 375.613 C 187.817 376.308,189.908 377.562,190.800 378.400 C 191.692 379.238,193.857 380.515,195.611 381.238 C 197.365 381.962,199.520 383.200,200.400 383.990 C 203.229 386.531,206.673 386.740,209.298 384.531 C 210.572 383.460,213.046 381.985,214.796 381.253 C 216.546 380.522,218.703 379.250,219.589 378.426 C 220.475 377.602,222.730 376.320,224.600 375.577 C 226.470 374.834,228.000 373.883,228.000 373.463 C 228.000 373.043,230.250 371.641,233.000 370.347 C 235.750 369.053,238.900 367.321,240.000 366.498 C 241.919 365.062,246.513 362.272,252.776 358.741 C 254.394 357.829,256.501 356.299,257.459 355.341 C 258.416 354.384,259.473 353.600,259.806 353.600 C 260.139 353.600,262.386 351.980,264.800 350.000 C 267.214 348.020,269.627 346.400,270.162 346.400 C 270.697 346.400,272.139 345.504,273.367 344.408 C 275.881 342.165,282.930 336.208,288.048 332.000 C 297.653 324.103,304.471 317.680,309.531 311.761 C 319.379 300.240,319.970 299.468,321.221 296.472 C 321.897 294.854,322.951 293.338,323.563 293.103 C 324.175 292.869,325.217 291.324,325.879 289.670 C 326.540 288.016,327.985 285.590,329.089 284.278 C 330.193 282.966,331.719 280.297,332.480 278.346 C 333.242 276.396,334.527 273.842,335.337 272.671 C 336.146 271.499,337.565 268.079,338.489 265.071 C 339.413 262.062,340.635 258.700,341.206 257.600 C 343.036 254.069,343.913 249.475,345.176 236.800 C 345.856 229.980,346.944 222.240,347.594 219.600 C 348.582 215.584,348.777 204.920,348.788 154.297 L 348.800 93.794 346.600 92.962 C 345.390 92.505,340.151 91.918,334.957 91.659 C 328.977 91.361,323.843 90.632,320.957 89.671 C 318.451 88.836,313.340 87.551,309.600 86.814 C 305.860 86.078,301.360 84.818,299.600 84.015 C 297.840 83.211,295.140 82.169,293.600 81.699 C 292.060 81.229,288.966 80.284,286.724 79.599 C 284.482 78.914,281.502 77.508,280.101 76.474 C 278.700 75.441,275.962 74.149,274.017 73.605 C 272.072 73.060,269.865 71.935,269.113 71.104 C 268.361 70.273,266.453 69.244,264.873 68.817 C 263.293 68.390,260.032 66.772,257.627 65.221 C 255.222 63.669,252.863 62.400,252.385 62.400 C 251.906 62.400,250.094 61.383,248.358 60.139 C 246.621 58.896,243.492 57.247,241.403 56.475 C 239.315 55.702,237.335 54.608,237.003 54.044 C 236.672 53.479,235.235 52.421,233.811 51.693 C 232.387 50.966,230.047 49.345,228.611 48.093 C 227.175 46.841,225.199 45.566,224.221 45.261 C 223.242 44.955,221.688 43.647,220.766 42.353 C 219.845 41.059,218.620 40.000,218.043 40.000 C 217.467 40.000,216.502 39.400,215.898 38.667 C 214.069 36.446,208.643 32.796,207.280 32.869 C 206.576 32.907,205.000 33.238,203.778 33.606 M210.716 54.368 C 211.827 54.790,213.456 55.856,214.335 56.735 C 215.214 57.614,217.406 59.085,219.206 60.003 C 221.005 60.921,222.666 62.163,222.896 62.763 C 223.127 63.363,224.459 64.304,225.857 64.855 C 227.256 65.405,229.480 66.644,230.800 67.606 C 235.636 71.134,245.437 76.744,249.382 78.244 C 251.611 79.090,254.176 80.474,255.082 81.318 C 255.988 82.162,258.095 83.333,259.765 83.920 C 261.434 84.507,263.700 85.775,264.800 86.738 C 265.900 87.701,268.600 88.937,270.800 89.486 C 273.000 90.035,276.060 91.317,277.600 92.337 C 279.140 93.356,282.200 94.651,284.400 95.214 C 286.600 95.777,290.380 97.047,292.800 98.035 C 295.220 99.024,300.800 100.429,305.200 101.157 C 309.600 101.885,315.180 103.142,317.600 103.951 C 320.020 104.759,323.125 105.660,324.500 105.952 C 325.874 106.244,327.854 107.393,328.900 108.506 L 330.800 110.529 330.800 171.465 C 330.800 237.165,330.622 240.353,326.342 251.503 C 325.477 253.757,324.213 257.760,323.532 260.400 C 322.850 263.040,321.488 266.460,320.503 268.000 C 319.519 269.540,318.063 272.537,317.268 274.659 C 316.473 276.782,315.309 278.715,314.681 278.956 C 314.054 279.197,313.039 280.594,312.426 282.060 C 311.814 283.526,309.006 287.537,306.186 290.974 C 303.366 294.410,300.623 298.037,300.089 299.034 C 299.310 300.490,294.558 305.457,289.486 310.116 C 289.077 310.492,288.125 311.406,287.371 312.147 C 285.877 313.614,278.965 319.996,276.400 322.275 C 275.520 323.057,273.360 324.550,271.600 325.594 C 268.215 327.600,263.393 331.376,259.892 334.761 C 258.733 335.883,257.448 336.800,257.037 336.800 C 256.625 336.800,254.359 338.240,252.000 340.000 C 249.641 341.760,247.401 343.200,247.022 343.200 C 246.643 343.200,244.818 344.293,242.966 345.629 C 237.380 349.659,229.368 354.876,226.475 356.366 C 224.977 357.138,223.028 358.443,222.145 359.266 C 221.262 360.089,219.248 361.174,217.670 361.678 C 216.091 362.181,213.900 363.403,212.800 364.393 C 209.106 367.719,200.776 367.593,197.582 364.165 C 196.751 363.273,195.065 362.322,193.835 362.051 C 192.606 361.781,190.090 360.399,188.244 358.980 C 186.399 357.561,181.944 354.600,178.344 352.400 C 174.744 350.200,170.450 347.230,168.802 345.800 C 167.154 344.370,165.434 343.200,164.979 343.200 C 164.524 343.200,162.643 341.940,160.800 340.400 C 158.957 338.860,156.965 337.600,156.373 337.600 C 155.363 337.600,150.092 333.606,145.611 329.446 C 144.517 328.431,142.344 326.855,140.782 325.944 C 133.950 321.958,112.088 301.065,104.722 291.481 C 102.785 288.961,100.390 286.083,99.400 285.086 C 98.410 284.089,97.600 282.840,97.600 282.312 C 97.600 281.783,96.677 280.141,95.549 278.662 C 94.421 277.183,92.773 274.334,91.887 272.330 C 91.000 270.327,89.446 267.465,88.432 265.971 C 87.418 264.477,86.335 261.903,86.025 260.251 C 85.715 258.600,84.592 255.765,83.529 253.951 C 81.687 250.808,81.021 247.540,78.400 228.800 C 75.786 210.111,76.836 113.164,79.695 109.239 C 81.376 106.931,90.900 103.186,98.123 101.993 C 106.968 100.532,114.106 98.946,114.960 98.252 C 115.488 97.822,118.908 96.645,122.560 95.636 C 126.212 94.627,130.541 93.006,132.180 92.034 C 133.819 91.061,137.013 89.777,139.279 89.179 C 141.545 88.581,144.174 87.364,145.122 86.473 C 146.070 85.583,148.283 84.347,150.040 83.727 C 151.797 83.107,154.619 81.660,156.312 80.511 C 158.005 79.363,160.555 78.101,161.978 77.708 C 164.258 77.079,168.693 74.672,177.657 69.200 C 179.098 68.320,181.596 66.835,183.207 65.901 C 184.817 64.966,187.689 63.076,189.588 61.701 C 191.487 60.325,193.463 59.200,193.981 59.200 C 194.498 59.200,195.774 58.292,196.816 57.182 C 199.775 54.034,206.340 52.704,210.716 54.368 M180.000 156.717 C 179.340 157.085,176.322 157.605,173.294 157.872 C 167.554 158.380,160.800 161.015,160.800 162.747 C 160.800 163.300,160.080 164.404,159.200 165.200 C 158.320 165.996,157.600 166.956,157.600 167.332 C 157.600 167.709,156.363 169.776,154.852 171.927 C 153.340 174.077,152.320 176.053,152.585 176.318 C 153.112 176.846,254.400 177.002,254.400 176.476 C 254.400 175.550,250.810 169.600,250.252 169.600 C 249.893 169.600,249.600 168.880,249.600 168.000 C 249.600 167.087,249.067 166.400,248.358 166.400 C 247.675 166.400,246.736 165.307,246.270 163.971 C 245.077 160.549,240.402 158.368,233.070 157.813 C 229.814 157.567,226.959 157.058,226.727 156.683 C 226.183 155.801,181.585 155.834,180.000 156.717 M131.208 171.794 C 128.995 172.662,125.480 176.785,125.749 178.198 C 126.044 179.752,135.200 180.821,135.200 179.301 C 135.200 178.873,136.136 177.410,137.281 176.050 C 140.581 172.128,136.912 169.557,131.208 171.794 M268.000 172.584 C 268.000 173.454,268.900 175.137,270.000 176.324 C 271.100 177.511,272.000 178.842,272.000 179.281 C 272.000 179.748,273.909 179.980,276.592 179.840 C 282.225 179.546,282.935 178.012,279.180 174.257 C 275.920 170.997,268.000 169.812,268.000 172.584 M202.069 188.000 L 135.737 188.400 134.152 191.200 C 130.392 197.842,127.899 214.054,130.400 215.600 C 130.840 215.872,131.200 216.800,131.200 217.662 C 131.200 221.206,135.222 227.068,138.862 228.830 L 142.400 230.543 142.400 235.671 L 142.400 240.800 155.200 240.800 L 168.000 240.800 168.000 235.621 C 168.000 227.689,166.547 228.000,203.637 228.000 C 240.366 228.000,239.200 227.735,239.200 236.075 L 239.200 240.841 251.718 240.620 L 264.236 240.400 264.318 235.637 L 264.400 230.875 268.600 228.474 C 270.910 227.154,272.800 225.721,272.800 225.289 C 272.800 224.858,273.497 223.041,274.349 221.253 C 275.201 219.464,276.353 215.750,276.909 213.000 C 278.059 207.314,277.109 200.544,274.349 194.747 C 273.497 192.959,272.800 191.146,272.800 190.720 C 272.800 187.659,270.884 187.585,202.069 188.000 M168.802 192.803 C 170.662 196.280,169.450 209.062,167.200 209.686 C 164.602 210.406,138.607 210.408,136.000 209.688 C 132.271 208.659,133.456 197.635,137.794 193.000 C 140.274 190.351,167.397 190.179,168.802 192.803 M189.909 196.065 C 191.570 206.525,189.343 211.370,183.542 209.914 C 176.948 208.259,179.106 190.867,185.843 191.356 L 189.200 191.600 189.909 196.065 M201.522 193.719 C 205.002 203.704,200.006 214.274,194.263 209.076 C 192.584 207.556,192.118 195.569,193.628 192.747 C 195.123 189.954,200.437 190.608,201.522 193.719 M213.620 195.285 C 216.163 205.882,211.747 214.147,206.400 208.800 C 204.312 206.712,204.068 195.801,206.045 192.978 C 208.601 189.330,212.475 190.509,213.620 195.285 M225.143 192.457 C 227.700 195.014,226.901 208.398,224.123 209.549 C 218.671 211.807,216.829 209.566,216.811 200.652 C 216.793 191.804,220.673 187.988,225.143 192.457 M269.390 193.329 C 273.750 198.033,274.926 208.661,271.200 209.689 C 268.080 210.549,241.947 210.492,239.652 209.620 C 237.641 208.855,237.600 208.681,237.600 200.980 C 237.600 190.652,236.711 191.200,253.468 191.200 L 267.417 191.200 269.390 193.329 " stroke="none" fill="#ed2722" fill-rule="evenodd"></path><path id="path2" d="M204.000 30.125 C 200.333 31.690,195.829 34.699,190.400 39.211 C 187.980 41.223,183.480 44.435,180.400 46.351 C 177.320 48.266,172.993 51.027,170.784 52.487 C 168.576 53.947,165.187 55.699,163.253 56.381 C 161.320 57.063,159.340 57.952,158.854 58.355 C 157.096 59.814,129.331 73.600,128.151 73.600 C 127.485 73.600,125.346 74.535,123.397 75.677 C 121.447 76.819,116.916 78.445,113.326 79.290 C 109.737 80.135,105.021 81.580,102.846 82.502 C 97.835 84.625,84.533 87.041,74.525 87.644 C 63.750 88.295,60.265 89.646,59.204 93.584 C 58.149 97.505,58.092 215.607,59.139 229.600 C 59.577 235.448,60.576 241.802,61.546 244.904 C 62.459 247.821,63.568 252.141,64.012 254.504 C 64.455 256.867,65.878 260.960,67.174 263.600 C 68.470 266.240,70.277 270.020,71.190 272.000 C 73.296 276.566,76.834 282.616,78.516 284.526 C 79.230 285.337,80.592 287.547,81.542 289.438 C 82.493 291.329,84.965 295.054,87.036 297.717 C 89.106 300.379,91.520 303.560,92.400 304.785 C 99.569 314.762,104.250 319.517,118.008 330.800 C 122.300 334.320,126.809 338.100,128.028 339.200 C 130.766 341.671,137.142 346.682,140.546 349.038 C 141.947 350.007,145.177 352.420,147.726 354.400 C 150.274 356.380,153.843 358.900,155.656 360.000 C 157.469 361.100,160.138 362.720,161.586 363.600 C 163.034 364.480,166.060 366.410,168.310 367.889 C 170.559 369.368,173.200 370.886,174.179 371.261 C 175.157 371.637,177.721 373.127,179.876 374.572 C 182.032 376.017,184.831 377.830,186.098 378.601 C 192.254 382.347,194.307 383.643,198.060 386.156 C 203.622 389.879,207.223 389.964,212.000 386.487 C 216.748 383.031,231.497 374.032,235.824 371.950 C 241.949 369.005,256.357 359.900,264.800 353.640 C 267.220 351.846,270.243 349.753,271.519 348.989 C 272.794 348.225,276.821 345.080,280.467 342.000 C 284.113 338.920,289.114 334.780,291.580 332.800 C 298.385 327.336,314.446 311.246,317.565 306.769 C 321.768 300.735,328.075 291.182,331.200 286.115 C 332.740 283.618,334.766 280.370,335.702 278.897 C 336.637 277.424,338.169 274.173,339.104 271.673 C 340.040 269.172,341.567 265.634,342.497 263.810 C 344.263 260.349,347.950 241.626,350.016 225.630 C 351.445 214.562,351.796 94.608,350.406 92.011 C 349.365 90.066,345.838 89.050,338.000 88.439 C 326.376 87.533,310.936 84.711,305.200 82.446 C 302.120 81.229,297.620 79.800,295.200 79.271 C 290.864 78.324,287.789 76.990,271.200 68.866 C 262.563 64.635,259.188 62.839,252.592 58.962 C 250.498 57.731,247.438 56.244,245.792 55.657 C 244.147 55.070,240.640 53.087,238.000 51.251 C 235.360 49.415,231.400 46.681,229.200 45.175 C 227.000 43.669,221.439 39.369,216.841 35.618 C 207.797 28.241,208.106 28.373,204.000 30.125 M211.680 35.067 C 213.396 36.313,215.294 37.933,215.898 38.667 C 216.502 39.400,217.467 40.000,218.043 40.000 C 218.620 40.000,219.845 41.059,220.766 42.353 C 221.688 43.647,223.242 44.955,224.221 45.261 C 225.199 45.566,227.175 46.841,228.611 48.093 C 230.047 49.345,232.387 50.966,233.811 51.693 C 235.235 52.421,236.672 53.479,237.003 54.044 C 237.335 54.608,239.315 55.702,241.403 56.475 C 243.492 57.247,246.621 58.896,248.358 60.139 C 250.094 61.383,251.906 62.400,252.385 62.400 C 252.863 62.400,255.222 63.669,257.627 65.221 C 260.032 66.772,263.293 68.390,264.873 68.817 C 266.453 69.244,268.361 70.273,269.113 71.104 C 269.865 71.935,272.072 73.060,274.017 73.605 C 275.962 74.149,278.700 75.441,280.101 76.474 C 281.502 77.508,284.482 78.914,286.724 79.599 C 288.966 80.284,292.060 81.229,293.600 81.699 C 295.140 82.169,297.840 83.211,299.600 84.015 C 301.360 84.818,305.860 86.078,309.600 86.814 C 313.340 87.551,318.451 88.836,320.957 89.671 C 323.843 90.632,328.977 91.361,334.957 91.659 C 340.151 91.918,345.390 92.505,346.600 92.962 L 348.800 93.794 348.788 154.297 C 348.777 204.920,348.582 215.584,347.594 219.600 C 346.944 222.240,345.856 229.980,345.176 236.800 C 343.913 249.475,343.036 254.069,341.206 257.600 C 340.635 258.700,339.413 262.062,338.489 265.071 C 337.565 268.079,336.146 271.499,335.337 272.671 C 334.527 273.842,333.242 276.396,332.480 278.346 C 331.719 280.297,330.193 282.966,329.089 284.278 C 327.985 285.590,326.540 288.016,325.879 289.670 C 325.217 291.324,324.175 292.869,323.563 293.103 C 322.951 293.338,321.897 294.854,321.221 296.472 C 319.970 299.468,319.379 300.240,309.531 311.761 C 304.471 317.680,297.653 324.103,288.048 332.000 C 282.930 336.208,275.881 342.165,273.367 344.408 C 272.139 345.504,270.697 346.400,270.162 346.400 C 269.627 346.400,267.214 348.020,264.800 350.000 C 262.386 351.980,260.139 353.600,259.806 353.600 C 259.473 353.600,258.416 354.384,257.459 355.341 C 256.501 356.299,254.394 357.829,252.776 358.741 C 246.513 362.272,241.919 365.062,240.000 366.498 C 238.900 367.321,235.750 369.053,233.000 370.347 C 230.250 371.641,228.000 373.043,228.000 373.463 C 228.000 373.883,226.470 374.834,224.600 375.577 C 222.730 376.320,220.475 377.602,219.589 378.426 C 218.703 379.250,216.546 380.522,214.796 381.253 C 213.046 381.985,210.572 383.460,209.298 384.531 C 206.673 386.740,203.229 386.531,200.400 383.990 C 199.520 383.200,197.365 381.962,195.611 381.238 C 193.857 380.515,191.692 379.238,190.800 378.400 C 189.908 377.562,187.817 376.308,186.154 375.613 C 184.491 374.918,182.939 373.852,182.706 373.244 C 182.473 372.635,180.366 371.360,178.025 370.410 C 175.684 369.460,172.948 367.809,171.945 366.741 C 170.942 365.674,169.671 364.800,169.122 364.800 C 168.572 364.800,167.105 363.948,165.861 362.907 C 164.618 361.866,161.731 360.071,159.446 358.917 C 157.162 357.764,154.388 355.916,153.283 354.810 C 152.177 353.705,150.742 352.800,150.094 352.800 C 149.446 352.800,148.080 351.761,147.058 350.492 C 146.036 349.223,143.940 347.554,142.400 346.783 C 140.860 346.012,138.160 344.149,136.400 342.642 C 134.640 341.135,131.840 338.754,130.178 337.351 C 128.515 335.948,125.940 333.720,124.455 332.400 C 122.970 331.080,119.901 328.560,117.635 326.800 C 111.889 322.336,101.021 311.507,97.200 306.437 C 95.440 304.101,92.993 301.068,91.762 299.695 C 88.523 296.085,85.848 292.111,83.890 288.000 C 82.947 286.020,81.146 283.217,79.887 281.772 C 78.629 280.327,77.600 278.657,77.600 278.062 C 77.600 277.467,76.340 275.148,74.800 272.909 C 73.260 270.670,72.000 268.482,72.000 268.047 C 72.000 266.363,69.373 259.532,68.228 258.239 C 67.565 257.490,66.511 254.070,65.885 250.639 C 61.709 227.733,61.728 227.932,61.252 202.859 C 60.994 189.251,61.026 159.082,61.322 135.817 C 61.954 86.320,60.169 92.084,75.142 91.195 C 80.674 90.867,86.280 90.152,87.600 89.608 C 88.920 89.063,93.263 87.972,97.250 87.182 C 101.238 86.392,106.638 84.852,109.250 83.759 C 111.863 82.667,116.213 81.211,118.917 80.524 C 121.622 79.837,126.242 77.998,129.184 76.438 C 132.126 74.877,135.174 73.600,135.959 73.600 C 136.743 73.600,138.270 72.903,139.353 72.052 C 140.436 71.200,143.381 69.592,145.899 68.478 C 148.417 67.365,151.450 65.769,152.639 64.932 C 153.827 64.095,155.700 63.142,156.800 62.816 C 157.900 62.489,160.500 61.191,162.578 59.931 C 164.657 58.672,167.190 57.432,168.208 57.177 C 169.227 56.921,171.627 55.472,173.542 53.956 C 175.458 52.440,177.487 51.200,178.051 51.200 C 178.616 51.200,180.245 50.210,181.673 49.000 C 183.101 47.790,185.421 46.080,186.828 45.200 C 190.487 42.913,195.681 39.166,198.838 36.537 C 201.444 34.366,204.554 33.015,207.280 32.869 C 207.984 32.831,209.964 33.820,211.680 35.067 M201.156 54.455 C 199.812 54.845,197.859 56.073,196.816 57.182 C 195.774 58.292,194.498 59.200,193.981 59.200 C 193.463 59.200,191.487 60.325,189.588 61.701 C 187.689 63.076,184.817 64.966,183.207 65.901 C 181.596 66.835,179.098 68.320,177.657 69.200 C 168.693 74.672,164.258 77.079,161.978 77.708 C 160.555 78.101,158.005 79.363,156.312 80.511 C 154.619 81.660,151.797 83.107,150.040 83.727 C 148.283 84.347,146.070 85.583,145.122 86.473 C 144.174 87.364,141.545 88.581,139.279 89.179 C 137.013 89.777,133.819 91.061,132.180 92.034 C 130.541 93.006,126.212 94.627,122.560 95.636 C 118.908 96.645,115.488 97.822,114.960 98.252 C 114.106 98.946,106.968 100.532,98.123 101.993 C 90.900 103.186,81.376 106.931,79.695 109.239 C 76.836 113.164,75.786 210.111,78.400 228.800 C 81.021 247.540,81.687 250.808,83.529 253.951 C 84.592 255.765,85.715 258.600,86.025 260.251 C 86.335 261.903,87.418 264.477,88.432 265.971 C 89.446 267.465,91.000 270.327,91.887 272.330 C 92.773 274.334,94.421 277.183,95.549 278.662 C 96.677 280.141,97.600 281.783,97.600 282.312 C 97.600 282.840,98.410 284.089,99.400 285.086 C 100.390 286.083,102.785 288.961,104.722 291.481 C 112.088 301.065,133.950 321.958,140.782 325.944 C 142.344 326.855,144.517 328.431,145.611 329.446 C 150.092 333.606,155.363 337.600,156.373 337.600 C 156.965 337.600,158.957 338.860,160.800 340.400 C 162.643 341.940,164.524 343.200,164.979 343.200 C 165.434 343.200,167.154 344.370,168.802 345.800 C 170.450 347.230,174.744 350.200,178.344 352.400 C 181.944 354.600,186.399 357.561,188.244 358.980 C 190.090 360.399,192.606 361.781,193.835 362.051 C 195.065 362.322,196.751 363.273,197.582 364.165 C 200.776 367.593,209.106 367.719,212.800 364.393 C 213.900 363.403,216.091 362.181,217.670 361.678 C 219.248 361.174,221.262 360.089,222.145 359.266 C 223.028 358.443,224.977 357.138,226.475 356.366 C 229.368 354.876,237.380 349.659,242.966 345.629 C 244.818 344.293,246.643 343.200,247.022 343.200 C 247.401 343.200,249.641 341.760,252.000 340.000 C 254.359 338.240,256.625 336.800,257.037 336.800 C 257.448 336.800,258.733 335.883,259.892 334.761 C 263.393 331.376,268.215 327.600,271.600 325.594 C 273.360 324.550,275.520 323.057,276.400 322.275 C 278.965 319.996,285.877 313.614,287.371 312.147 C 288.125 311.406,289.077 310.492,289.486 310.116 C 294.558 305.457,299.310 300.490,300.089 299.034 C 300.623 298.037,303.366 294.410,306.186 290.974 C 309.006 287.537,311.814 283.526,312.426 282.060 C 313.039 280.594,314.054 279.197,314.681 278.956 C 315.309 278.715,316.473 276.782,317.268 274.659 C 318.063 272.537,319.519 269.540,320.503 268.000 C 321.488 266.460,322.850 263.040,323.532 260.400 C 324.213 257.760,325.477 253.757,326.342 251.503 C 330.622 240.353,330.800 237.165,330.800 171.465 L 330.800 110.529 328.900 108.506 C 327.854 107.393,325.874 106.244,324.500 105.952 C 323.125 105.660,320.020 104.759,317.600 103.951 C 315.180 103.142,309.600 101.885,305.200 101.157 C 300.800 100.429,295.220 99.024,292.800 98.035 C 290.380 97.047,286.600 95.777,284.400 95.214 C 282.200 94.651,279.140 93.356,277.600 92.337 C 276.060 91.317,273.000 90.035,270.800 89.486 C 268.600 88.937,265.900 87.701,264.800 86.738 C 263.700 85.775,261.434 84.507,259.765 83.920 C 258.095 83.333,255.988 82.162,255.082 81.318 C 254.176 80.474,251.611 79.090,249.382 78.244 C 245.437 76.744,235.636 71.134,230.800 67.606 C 229.480 66.644,227.256 65.405,225.857 64.855 C 224.459 64.304,223.127 63.363,222.896 62.763 C 222.666 62.163,221.005 60.921,219.206 60.003 C 217.406 59.085,215.214 57.614,214.335 56.735 C 211.309 53.709,206.554 52.886,201.156 54.455 M216.242 61.408 C 230.747 71.381,240.420 77.461,244.021 78.868 C 245.990 79.636,248.500 80.883,249.600 81.639 C 250.700 82.394,253.400 83.906,255.600 84.999 C 257.800 86.091,261.040 87.727,262.800 88.634 C 272.107 93.430,284.778 98.790,290.800 100.478 C 297.195 102.271,311.029 105.624,318.335 107.151 C 329.155 109.413,328.104 101.973,327.821 174.328 L 327.577 236.400 325.469 243.200 C 324.309 246.940,322.930 252.160,322.403 254.800 C 321.061 261.530,312.098 279.429,306.945 285.669 C 303.389 289.975,302.865 290.642,299.422 295.252 C 295.655 300.296,278.043 317.589,272.787 321.404 C 270.814 322.835,266.140 326.343,262.400 329.198 C 258.660 332.053,254.160 335.161,252.400 336.104 C 250.640 337.047,248.167 338.683,246.903 339.739 C 245.640 340.795,243.390 342.168,241.903 342.789 C 240.417 343.410,239.200 344.230,239.200 344.612 C 239.200 344.993,237.670 346.148,235.800 347.178 C 233.930 348.207,228.873 351.349,224.563 354.159 C 220.252 356.969,215.752 359.689,214.563 360.202 C 213.373 360.716,211.541 361.781,210.492 362.568 C 206.465 365.591,200.194 363.476,187.352 354.766 C 184.135 352.585,179.607 349.720,177.289 348.400 C 173.262 346.106,171.092 344.560,165.371 339.911 C 163.957 338.762,161.587 337.200,160.105 336.441 C 156.938 334.819,150.417 330.295,146.267 326.841 C 144.654 325.498,141.640 323.140,139.569 321.600 C 133.381 316.998,127.650 311.846,123.997 307.600 C 122.104 305.400,119.877 303.120,119.047 302.534 C 115.093 299.736,100.322 282.388,98.554 278.464 C 97.844 276.889,96.791 275.023,96.214 274.318 C 94.402 272.103,87.200 257.364,87.200 255.871 C 87.200 255.087,86.355 252.535,85.322 250.200 C 81.286 241.072,80.784 232.188,80.795 170.071 C 80.807 104.724,80.156 109.168,90.000 107.238 C 92.640 106.721,96.960 105.616,99.600 104.782 C 102.240 103.949,107.640 102.673,111.600 101.948 C 115.560 101.222,120.060 99.987,121.600 99.202 C 123.140 98.418,126.345 97.200,128.723 96.495 C 131.100 95.790,134.185 94.541,135.578 93.719 C 136.971 92.897,139.896 91.632,142.077 90.907 C 144.259 90.183,147.294 88.755,148.822 87.735 C 150.350 86.715,153.220 85.247,155.200 84.473 C 157.180 83.699,159.340 82.586,160.000 82.000 C 160.660 81.414,162.820 80.308,164.800 79.542 C 169.762 77.624,179.025 72.058,196.400 60.556 C 205.307 54.659,206.502 54.711,216.242 61.408 M189.259 154.468 C 184.012 154.867,177.097 155.735,173.893 156.397 C 170.689 157.059,166.996 157.600,165.687 157.600 C 163.431 157.600,160.512 160.379,157.200 165.680 C 156.760 166.385,155.383 168.490,154.140 170.360 C 152.897 172.230,151.817 174.713,151.740 175.880 L 151.600 178.000 203.423 178.206 C 247.421 178.381,255.311 178.241,255.679 177.283 C 256.189 175.953,253.406 170.206,251.167 167.967 C 250.305 167.105,249.600 166.026,249.600 165.569 C 249.600 162.573,243.019 157.981,237.365 157.032 C 220.903 154.267,203.856 153.359,189.259 154.468 M226.727 156.683 C 226.959 157.058,229.814 157.567,233.070 157.813 C 240.402 158.368,245.077 160.549,246.270 163.971 C 246.736 165.307,247.675 166.400,248.358 166.400 C 249.067 166.400,249.600 167.087,249.600 168.000 C 249.600 168.880,249.893 169.600,250.252 169.600 C 250.810 169.600,254.400 175.550,254.400 176.476 C 254.400 177.002,153.112 176.846,152.585 176.318 C 152.320 176.053,153.340 174.077,154.852 171.927 C 156.363 169.776,157.600 167.709,157.600 167.332 C 157.600 166.956,158.320 165.996,159.200 165.200 C 160.080 164.404,160.800 163.300,160.800 162.747 C 160.800 161.015,167.554 158.380,173.294 157.872 C 176.322 157.605,179.340 157.085,180.000 156.717 C 181.585 155.834,226.183 155.801,226.727 156.683 M128.595 171.622 C 125.645 173.627,124.400 176.117,124.937 178.937 C 125.758 183.242,139.200 180.034,139.200 175.532 C 139.200 175.046,139.920 173.996,140.800 173.200 C 145.349 169.083,134.412 167.670,128.595 171.622 M264.800 170.865 C 264.800 172.024,269.716 178.778,271.600 180.207 C 272.040 180.541,274.560 180.721,277.200 180.607 C 284.092 180.310,284.626 176.790,278.539 171.787 C 275.302 169.128,264.800 168.423,264.800 170.865 M138.906 172.388 C 139.157 173.042,138.426 174.689,137.281 176.050 C 136.136 177.410,135.200 178.873,135.200 179.301 C 135.200 180.821,126.044 179.752,125.749 178.198 C 124.930 173.898,137.377 168.403,138.906 172.388 M279.180 174.257 C 282.935 178.012,282.225 179.546,276.592 179.840 C 273.909 179.980,272.000 179.748,272.000 179.281 C 272.000 178.842,271.100 177.511,270.000 176.324 C 264.749 170.658,273.590 168.667,279.180 174.257 M133.533 189.400 C 127.062 200.040,127.048 216.172,133.501 226.600 C 134.523 228.250,135.970 229.600,136.719 229.600 C 139.089 229.600,140.000 231.386,140.000 236.032 C 140.000 242.087,140.782 242.400,155.914 242.400 C 169.957 242.400,170.400 242.174,170.400 235.023 C 170.400 229.202,167.943 229.600,203.905 229.600 C 238.717 229.600,236.800 229.234,236.800 235.872 C 236.800 242.161,237.231 242.349,251.600 242.349 C 265.692 242.349,265.953 242.235,266.611 235.821 C 267.182 230.248,267.544 229.600,270.088 229.600 C 271.603 229.600,272.357 228.940,273.229 226.855 C 273.860 225.345,274.718 223.898,275.135 223.640 C 279.490 220.949,279.191 197.221,274.736 191.999 C 274.173 191.338,273.335 189.808,272.875 188.599 L 272.040 186.400 203.699 186.400 L 135.358 186.400 133.533 189.400 M272.800 190.720 C 272.800 191.146,273.497 192.959,274.349 194.747 C 277.109 200.544,278.059 207.314,276.909 213.000 C 276.353 215.750,275.201 219.464,274.349 221.253 C 273.497 223.041,272.800 224.858,272.800 225.289 C 272.800 225.721,270.910 227.154,268.600 228.474 L 264.400 230.875 264.318 235.637 L 264.236 240.400 251.718 240.620 L 239.200 240.841 239.200 236.075 C 239.200 227.735,240.366 228.000,203.637 228.000 C 166.547 228.000,168.000 227.689,168.000 235.621 L 168.000 240.800 155.200 240.800 L 142.400 240.800 142.400 235.671 L 142.400 230.543 138.862 228.830 C 135.222 227.068,131.200 221.206,131.200 217.662 C 131.200 216.800,130.840 215.872,130.400 215.600 C 127.899 214.054,130.392 197.842,134.152 191.200 L 135.737 188.400 202.069 188.000 C 270.884 187.585,272.800 187.659,272.800 190.720 M137.794 193.000 C 133.456 197.635,132.271 208.659,136.000 209.688 C 138.607 210.408,164.602 210.406,167.200 209.686 C 169.450 209.062,170.662 196.280,168.802 192.803 C 167.397 190.179,140.274 190.351,137.794 193.000 M181.243 193.516 C 178.525 198.773,179.961 209.015,183.542 209.914 C 189.343 211.370,191.570 206.525,189.909 196.065 L 189.200 191.600 185.843 191.356 C 182.813 191.136,182.366 191.346,181.243 193.516 M193.628 192.747 C 192.118 195.569,192.584 207.556,194.263 209.076 C 200.006 214.274,205.002 203.704,201.522 193.719 C 200.437 190.608,195.123 189.954,193.628 192.747 M206.045 192.978 C 204.068 195.801,204.312 206.712,206.400 208.800 C 211.747 214.147,216.163 205.882,213.620 195.285 C 212.475 190.509,208.601 189.330,206.045 192.978 M217.580 193.252 C 216.731 195.486,216.539 204.946,217.287 207.732 C 217.873 209.919,221.136 210.786,224.123 209.549 C 226.901 208.398,227.700 195.014,225.143 192.457 C 223.030 190.344,218.505 190.820,217.580 193.252 M238.560 192.160 C 236.419 194.301,237.322 208.734,239.652 209.620 C 241.947 210.492,268.080 210.549,271.200 209.689 C 274.926 208.661,273.750 198.033,269.390 193.329 L 267.417 191.200 253.468 191.200 C 243.686 191.200,239.233 191.487,238.560 192.160 M166.743 194.057 C 168.298 195.612,168.530 206.350,167.040 207.840 C 164.296 210.584,134.400 208.776,134.400 205.866 C 134.400 203.817,137.326 196.023,138.630 194.600 C 140.792 192.240,164.469 191.783,166.743 194.057 M187.845 193.487 C 191.127 195.569,189.620 208.247,186.041 208.664 C 182.969 209.022,182.427 207.839,182.412 200.760 C 182.397 193.483,184.147 191.142,187.845 193.487 M199.972 194.347 C 201.159 196.566,201.007 205.811,199.755 207.523 C 196.269 212.290,192.677 202.973,194.776 194.609 C 195.355 192.303,198.785 192.130,199.972 194.347 M212.314 194.065 C 214.316 199.280,212.567 208.800,209.608 208.800 C 206.971 208.800,206.427 207.395,206.411 200.547 C 206.395 193.900,210.515 189.377,212.314 194.065 M223.624 194.609 C 225.788 203.231,221.610 213.197,218.369 207.143 C 217.054 204.684,217.696 194.535,219.229 193.565 C 221.264 192.278,223.151 192.726,223.624 194.609 M269.329 195.859 C 271.412 198.952,272.590 205.286,271.425 207.135 C 270.753 208.201,268.295 208.434,255.826 208.617 C 238.376 208.873,238.800 209.068,238.800 200.800 C 238.800 192.610,238.579 192.722,254.283 192.981 L 267.538 193.200 269.329 195.859 " stroke="none" fill="#f15d60" fill-rule="evenodd"></path><path id="path3" d="M201.867 28.429 C 198.860 29.976,193.467 33.662,189.881 36.621 C 183.637 41.774,179.842 44.414,172.365 48.809 C 170.485 49.915,168.284 51.398,167.474 52.107 C 166.663 52.815,164.184 53.985,161.964 54.707 C 159.744 55.429,157.044 56.643,155.964 57.405 C 154.884 58.167,152.201 59.627,150.003 60.650 C 147.804 61.672,145.464 62.984,144.803 63.564 C 144.141 64.144,141.440 65.525,138.800 66.634 C 119.239 74.849,113.402 77.047,107.476 78.429 C 103.768 79.293,99.350 80.707,97.658 81.571 C 93.856 83.510,87.376 84.515,74.400 85.179 C 54.686 86.187,56.699 77.640,56.625 160.642 C 56.561 231.693,56.889 240.165,60.067 249.387 C 60.941 251.924,62.210 256.160,62.887 258.800 C 63.564 261.440,65.009 265.133,66.097 267.008 C 67.186 268.882,68.560 271.787,69.152 273.464 C 69.744 275.141,72.156 279.297,74.514 282.701 C 76.871 286.104,79.523 290.283,80.406 291.986 C 81.289 293.690,82.751 295.920,83.654 296.942 C 84.558 297.964,85.815 299.579,86.449 300.531 C 92.442 309.543,103.704 322.045,111.194 328.000 C 113.130 329.540,117.184 332.960,120.202 335.600 C 123.219 338.240,126.775 341.192,128.102 342.160 C 129.430 343.127,131.890 345.107,133.570 346.560 C 139.491 351.680,160.579 366.400,161.994 366.400 C 162.319 366.400,164.302 367.660,166.400 369.200 C 168.498 370.740,170.568 372.000,170.999 372.000 C 171.431 372.000,173.903 373.439,176.492 375.198 C 179.081 376.957,181.525 378.397,181.922 378.398 C 182.319 378.399,184.119 379.484,185.922 380.809 C 202.181 392.757,206.101 393.898,212.924 388.668 C 217.208 385.384,219.813 383.759,230.163 377.913 C 232.584 376.545,234.799 375.048,235.085 374.586 C 235.371 374.123,237.224 373.117,239.202 372.349 C 241.181 371.580,243.458 370.378,244.262 369.676 C 245.066 368.974,247.476 367.500,249.616 366.400 C 253.500 364.404,261.544 359.057,267.600 354.447 C 269.360 353.107,272.420 350.957,274.400 349.669 C 277.673 347.540,281.999 343.960,286.648 339.532 C 287.612 338.614,289.003 337.534,289.740 337.132 C 290.476 336.729,293.851 333.880,297.238 330.800 C 311.233 318.073,318.359 310.178,325.225 299.792 C 327.191 296.818,328.800 294.141,328.800 293.844 C 328.800 293.546,329.494 292.560,330.342 291.652 C 332.318 289.536,336.994 281.658,339.633 276.000 C 340.762 273.580,342.568 269.800,343.646 267.600 C 345.385 264.052,346.836 258.111,350.874 238.000 C 352.904 227.891,353.577 205.996,353.588 149.653 C 353.603 79.725,355.603 86.302,334.000 85.246 C 321.698 84.645,313.910 83.479,311.331 81.852 C 310.303 81.204,306.163 79.833,302.131 78.806 C 289.609 75.618,267.012 65.443,253.600 56.953 C 252.060 55.978,249.466 54.815,247.836 54.369 C 246.206 53.923,243.814 52.667,242.521 51.579 C 241.227 50.491,239.784 49.600,239.312 49.600 C 238.841 49.600,237.273 48.573,235.828 47.317 C 234.383 46.062,232.413 44.622,231.452 44.117 C 230.490 43.612,226.258 40.319,222.048 36.799 C 217.838 33.280,214.090 30.400,213.721 30.400 C 213.351 30.400,212.366 29.647,211.533 28.726 C 208.591 25.476,207.662 25.447,201.867 28.429 M216.841 35.618 C 221.439 39.369,227.000 43.669,229.200 45.175 C 231.400 46.681,235.360 49.415,238.000 51.251 C 240.640 53.087,244.147 55.070,245.792 55.657 C 247.438 56.244,250.498 57.731,252.592 58.962 C 259.188 62.839,262.563 64.635,271.200 68.866 C 287.789 76.990,290.864 78.324,295.200 79.271 C 297.620 79.800,302.120 81.229,305.200 82.446 C 310.936 84.711,326.376 87.533,338.000 88.439 C 345.838 89.050,349.365 90.066,350.406 92.011 C 351.796 94.608,351.445 214.562,350.016 225.630 C 347.950 241.626,344.263 260.349,342.497 263.810 C 341.567 265.634,340.040 269.172,339.104 271.673 C 338.169 274.173,336.637 277.424,335.702 278.897 C 334.766 280.370,332.740 283.618,331.200 286.115 C 328.075 291.182,321.768 300.735,317.565 306.769 C 314.446 311.246,298.385 327.336,291.580 332.800 C 289.114 334.780,284.113 338.920,280.467 342.000 C 276.821 345.080,272.794 348.225,271.519 348.989 C 270.243 349.753,267.220 351.846,264.800 353.640 C 256.357 359.900,241.949 369.005,235.824 371.950 C 231.497 374.032,216.748 383.031,212.000 386.487 C 207.223 389.964,203.622 389.879,198.060 386.156 C 194.307 383.643,192.254 382.347,186.098 378.601 C 184.831 377.830,182.032 376.017,179.876 374.572 C 177.721 373.127,175.157 371.637,174.179 371.261 C 173.200 370.886,170.559 369.368,168.310 367.889 C 166.060 366.410,163.034 364.480,161.586 363.600 C 160.138 362.720,157.469 361.100,155.656 360.000 C 153.843 358.900,150.274 356.380,147.726 354.400 C 145.177 352.420,141.947 350.007,140.546 349.038 C 137.142 346.682,130.766 341.671,128.028 339.200 C 126.809 338.100,122.300 334.320,118.008 330.800 C 104.250 319.517,99.569 314.762,92.400 304.785 C 91.520 303.560,89.106 300.379,87.036 297.717 C 84.965 295.054,82.493 291.329,81.542 289.438 C 80.592 287.547,79.230 285.337,78.516 284.526 C 76.834 282.616,73.296 276.566,71.190 272.000 C 70.277 270.020,68.470 266.240,67.174 263.600 C 65.878 260.960,64.455 256.867,64.012 254.504 C 63.568 252.141,62.459 247.821,61.546 244.904 C 60.576 241.802,59.577 235.448,59.139 229.600 C 58.092 215.607,58.149 97.505,59.204 93.584 C 60.265 89.646,63.750 88.295,74.525 87.644 C 84.533 87.041,97.835 84.625,102.846 82.502 C 105.021 81.580,109.737 80.135,113.326 79.290 C 116.916 78.445,121.447 76.819,123.397 75.677 C 125.346 74.535,127.485 73.600,128.151 73.600 C 129.331 73.600,157.096 59.814,158.854 58.355 C 159.340 57.952,161.320 57.063,163.253 56.381 C 165.187 55.699,168.576 53.947,170.784 52.487 C 172.993 51.027,177.320 48.266,180.400 46.351 C 183.480 44.435,187.980 41.223,190.400 39.211 C 197.365 33.422,204.561 29.104,207.641 28.865 C 208.104 28.829,212.244 31.868,216.841 35.618 M203.200 56.758 C 202.100 57.099,199.040 58.808,196.400 60.556 C 179.025 72.058,169.762 77.624,164.800 79.542 C 162.820 80.308,160.660 81.414,160.000 82.000 C 159.340 82.586,157.180 83.699,155.200 84.473 C 153.220 85.247,150.350 86.715,148.822 87.735 C 147.294 88.755,144.259 90.183,142.077 90.907 C 139.896 91.632,136.971 92.897,135.578 93.719 C 134.185 94.541,131.100 95.790,128.723 96.495 C 126.345 97.200,123.140 98.418,121.600 99.202 C 120.060 99.987,115.560 101.222,111.600 101.948 C 107.640 102.673,102.240 103.949,99.600 104.782 C 96.960 105.616,92.640 106.721,90.000 107.238 C 80.156 109.168,80.807 104.724,80.795 170.071 C 80.784 232.188,81.286 241.072,85.322 250.200 C 86.355 252.535,87.200 255.087,87.200 255.871 C 87.200 257.364,94.402 272.103,96.214 274.318 C 96.791 275.023,97.844 276.889,98.554 278.464 C 100.322 282.388,115.093 299.736,119.047 302.534 C 119.877 303.120,122.104 305.400,123.997 307.600 C 127.650 311.846,133.381 316.998,139.569 321.600 C 141.640 323.140,144.654 325.498,146.267 326.841 C 150.417 330.295,156.938 334.819,160.105 336.441 C 161.587 337.200,163.957 338.762,165.371 339.911 C 171.092 344.560,173.262 346.106,177.289 348.400 C 179.607 349.720,184.135 352.585,187.352 354.766 C 200.194 363.476,206.465 365.591,210.492 362.568 C 211.541 361.781,213.373 360.716,214.563 360.202 C 215.752 359.689,220.252 356.969,224.563 354.159 C 228.873 351.349,233.930 348.207,235.800 347.178 C 237.670 346.148,239.200 344.993,239.200 344.612 C 239.200 344.230,240.417 343.410,241.903 342.789 C 243.390 342.168,245.640 340.795,246.903 339.739 C 248.167 338.683,250.640 337.047,252.400 336.104 C 254.160 335.161,258.660 332.053,262.400 329.198 C 266.140 326.343,270.814 322.835,272.787 321.404 C 278.043 317.589,295.655 300.296,299.422 295.252 C 302.865 290.642,303.389 289.975,306.945 285.669 C 312.098 279.429,321.061 261.530,322.403 254.800 C 322.930 252.160,324.309 246.940,325.469 243.200 L 327.577 236.400 327.821 174.328 C 328.104 101.973,329.155 109.413,318.335 107.151 C 311.029 105.624,297.195 102.271,290.800 100.478 C 284.778 98.790,272.107 93.430,262.800 88.634 C 261.040 87.727,257.800 86.091,255.600 84.999 C 253.400 83.906,250.700 82.394,249.600 81.639 C 248.500 80.883,245.990 79.636,244.021 78.868 C 240.420 77.461,230.747 71.381,216.242 61.408 C 208.465 56.061,207.062 55.560,203.200 56.758 M210.273 60.045 C 213.277 62.369,217.408 65.165,221.600 67.714 C 223.580 68.917,226.218 70.734,227.461 71.751 C 228.705 72.768,230.168 73.600,230.712 73.600 C 231.256 73.600,232.727 74.672,233.982 75.982 C 235.237 77.291,237.555 78.776,239.132 79.281 C 240.709 79.785,243.980 81.372,246.400 82.806 C 248.820 84.240,251.700 85.684,252.800 86.014 C 253.900 86.345,256.240 87.623,258.000 88.855 C 259.760 90.086,262.683 91.479,264.496 91.950 C 266.308 92.420,268.656 93.486,269.714 94.318 C 270.771 95.149,273.549 96.398,275.887 97.092 C 278.225 97.787,281.333 99.094,282.794 99.997 C 284.256 100.900,288.635 102.350,292.526 103.220 C 296.416 104.091,301.677 105.506,304.215 106.365 C 306.753 107.225,311.793 108.329,315.415 108.818 C 323.169 109.867,325.354 111.059,326.006 114.594 C 327.292 121.569,325.984 231.520,324.564 235.744 C 323.798 238.023,322.498 243.622,321.675 248.187 C 320.822 252.918,319.151 258.702,317.788 261.643 C 316.473 264.479,315.128 267.675,314.799 268.745 C 314.470 269.814,313.165 272.118,311.900 273.865 C 310.635 275.611,309.600 277.504,309.600 278.071 C 309.600 279.015,305.440 284.496,301.762 288.400 C 300.932 289.280,299.583 291.080,298.764 292.400 C 295.030 298.417,272.775 319.563,265.086 324.400 C 263.687 325.280,260.261 327.731,257.471 329.846 C 254.682 331.962,249.340 335.630,245.600 337.998 C 241.860 340.366,237.900 342.996,236.800 343.841 C 235.700 344.687,232.910 346.335,230.600 347.503 C 228.290 348.671,226.400 349.919,226.400 350.277 C 226.400 350.634,224.589 351.775,222.375 352.812 C 220.161 353.849,217.932 355.200,217.422 355.814 C 211.293 363.199,201.362 362.294,189.200 353.241 C 186.560 351.276,182.420 348.565,180.000 347.217 C 177.580 345.869,173.260 342.971,170.400 340.777 C 167.540 338.582,164.023 336.242,162.584 335.576 C 161.146 334.910,158.266 333.097,156.184 331.547 C 135.798 316.361,134.703 315.430,122.349 302.800 C 109.307 289.466,101.439 280.295,100.027 276.782 C 99.411 275.252,98.273 273.166,97.496 272.146 C 95.001 268.869,89.395 256.560,87.956 251.200 C 87.189 248.340,85.929 244.380,85.157 242.400 C 81.890 234.021,81.553 114.447,84.787 111.213 C 85.666 110.334,88.600 109.462,92.696 108.864 C 96.277 108.340,101.275 107.177,103.803 106.280 C 106.332 105.382,111.752 103.978,115.850 103.159 C 119.947 102.339,124.447 100.965,125.850 100.105 C 127.252 99.245,130.445 97.952,132.943 97.230 C 135.442 96.509,138.322 95.267,139.343 94.470 C 140.365 93.672,142.100 92.760,143.200 92.442 C 146.838 91.392,174.757 77.413,177.061 75.488 C 178.305 74.450,179.755 73.600,180.283 73.600 C 180.811 73.600,183.078 72.250,185.322 70.600 C 187.565 68.950,190.435 66.972,191.700 66.205 C 192.965 65.438,195.800 63.678,198.000 62.295 C 204.629 58.127,207.188 57.658,210.273 60.045 M184.400 153.697 C 180.440 154.071,175.580 154.769,173.600 155.248 C 171.620 155.726,168.225 156.395,166.056 156.734 C 162.182 157.339,156.847 161.823,156.812 164.502 C 156.805 164.998,156.266 165.848,155.612 166.390 C 154.959 166.932,153.613 169.000,152.621 170.986 C 151.630 172.972,150.364 174.771,149.809 174.984 C 148.020 175.671,148.691 178.398,150.852 179.220 C 153.081 180.067,252.690 180.329,255.800 179.496 C 257.556 179.025,258.534 175.200,256.899 175.200 C 256.513 175.200,255.415 173.382,254.459 171.160 C 253.503 168.938,252.199 166.919,251.560 166.674 C 250.922 166.429,250.400 165.679,250.400 165.006 C 250.400 164.334,249.590 162.994,248.600 162.028 C 247.610 161.063,246.174 159.492,245.408 158.537 C 244.332 157.195,243.241 156.829,240.608 156.928 C 237.382 157.049,237.349 157.073,240.000 157.380 C 242.752 157.698,249.600 163.541,249.600 165.571 C 249.600 166.027,250.305 167.105,251.167 167.967 C 253.406 170.206,256.189 175.953,255.679 177.283 C 255.311 178.241,247.421 178.381,203.423 178.206 L 151.600 178.000 151.740 175.880 C 151.817 174.713,152.897 172.233,154.140 170.368 C 155.383 168.503,156.832 166.217,157.359 165.289 C 160.617 159.553,162.773 158.067,169.299 157.060 C 184.827 154.662,190.085 154.228,203.600 154.228 C 216.168 154.228,222.464 154.686,234.400 156.468 C 236.735 156.817,236.957 156.733,235.735 155.967 C 231.779 153.485,201.027 152.125,184.400 153.697 M127.457 171.003 C 121.092 176.502,122.611 181.600,130.614 181.600 C 135.622 181.600,135.886 181.432,141.434 174.698 C 146.104 169.030,133.575 165.718,127.457 171.003 M264.533 169.333 C 263.496 170.371,264.019 173.523,265.400 174.555 C 266.170 175.130,267.290 176.550,267.888 177.712 C 269.831 181.483,279.950 183.352,282.406 180.393 C 284.102 178.349,282.800 173.658,279.832 171.117 C 277.242 168.901,266.248 167.619,264.533 169.333 M142.400 170.676 C 142.400 171.268,141.680 172.404,140.800 173.200 C 139.920 173.996,139.200 175.046,139.200 175.532 C 139.200 180.034,125.758 183.242,124.937 178.937 C 123.905 173.519,128.961 169.600,136.986 169.600 C 140.988 169.600,142.400 169.881,142.400 170.676 M278.539 171.787 C 284.626 176.790,284.092 180.310,277.200 180.607 C 271.738 180.842,271.839 180.893,267.800 175.865 C 263.365 170.345,263.667 169.600,270.339 169.600 C 275.191 169.600,276.207 169.871,278.539 171.787 M133.600 187.600 C 133.182 188.700,132.519 189.600,132.128 189.600 C 130.281 189.600,128.000 199.766,128.000 208.000 C 128.000 216.234,130.281 226.400,132.128 226.400 C 132.519 226.400,133.172 227.274,133.578 228.343 C 134.073 229.645,135.057 230.371,136.558 230.543 C 138.731 230.792,138.807 230.960,139.020 236.000 C 139.351 243.846,139.668 244.000,155.496 244.000 C 170.534 244.000,170.498 244.019,171.200 235.600 L 171.600 230.800 203.600 230.800 L 235.600 230.800 235.843 235.984 C 236.218 243.979,236.258 244.000,251.318 244.000 C 267.093 244.000,268.000 243.538,268.000 235.506 L 268.000 230.501 270.593 230.251 C 272.469 230.069,273.252 229.557,273.423 228.400 C 273.639 226.937,273.584 226.920,272.790 228.200 C 272.312 228.970,271.060 229.600,270.007 229.600 C 267.549 229.600,267.179 230.278,266.611 235.821 C 265.953 242.235,265.692 242.349,251.600 242.349 C 237.231 242.349,236.800 242.161,236.800 235.872 C 236.800 229.234,238.717 229.600,203.905 229.600 C 167.864 229.600,170.400 229.179,170.400 235.162 C 170.400 242.154,169.903 242.400,155.775 242.400 C 140.796 242.400,140.000 242.079,140.000 236.032 C 140.000 231.386,139.089 229.600,136.719 229.600 C 135.970 229.600,134.523 228.250,133.501 226.600 C 127.048 216.172,127.062 200.040,133.533 189.400 L 135.358 186.400 203.699 186.400 L 272.040 186.400 272.875 188.599 C 273.335 189.808,274.173 191.338,274.736 191.999 C 279.557 197.650,279.512 218.793,274.667 224.147 C 273.311 225.645,273.807 227.313,275.195 225.925 C 280.449 220.671,280.057 191.907,274.703 189.852 C 274.096 189.619,273.600 188.786,273.600 188.000 C 273.600 185.612,273.239 185.600,202.715 185.600 L 134.360 185.600 133.600 187.600 M138.630 194.600 C 137.326 196.023,134.400 203.817,134.400 205.866 C 134.400 208.776,164.296 210.584,167.040 207.840 C 168.530 206.350,168.298 195.612,166.743 194.057 C 164.469 191.783,140.792 192.240,138.630 194.600 M183.360 193.760 C 182.257 194.863,182.047 206.205,183.099 207.864 C 184.106 209.453,188.325 208.723,188.671 206.900 C 188.938 205.494,188.841 205.480,187.132 206.677 C 184.242 208.702,183.200 207.113,183.200 200.677 C 183.200 194.697,184.047 193.512,187.137 195.167 C 188.460 195.874,188.800 195.823,188.800 194.914 C 188.800 192.905,185.017 192.103,183.360 193.760 M194.776 194.609 C 192.677 202.973,196.269 212.290,199.755 207.523 C 201.007 205.811,201.159 196.566,199.972 194.347 C 198.785 192.130,195.355 192.303,194.776 194.609 M207.228 194.347 C 206.330 196.025,206.124 204.089,206.904 207.000 C 207.485 209.167,211.534 209.567,212.314 207.535 C 214.176 202.684,212.585 192.800,209.943 192.800 C 208.896 192.800,207.687 193.489,207.228 194.347 M219.400 193.330 C 217.546 194.078,218.382 195.262,220.600 195.030 C 222.789 194.801,224.358 203.029,222.866 206.916 C 221.550 210.345,218.402 206.228,218.246 200.872 L 218.092 195.600 217.808 200.582 C 217.459 206.713,218.488 208.991,221.454 208.648 C 223.544 208.406,223.606 208.244,223.839 202.409 C 224.198 193.414,223.373 191.727,219.400 193.330 M239.914 194.104 C 238.409 195.917,238.408 205.682,239.912 207.494 C 241.524 209.437,270.180 209.110,271.425 207.135 C 272.590 205.286,271.412 198.952,269.329 195.859 L 267.538 193.200 254.283 192.981 C 242.683 192.790,240.888 192.930,239.914 194.104 M166.405 199.900 C 167.053 208.047,167.138 208.000,151.708 208.000 C 135.083 208.000,132.852 206.115,138.493 196.839 L 140.001 194.360 153.000 194.580 L 166.000 194.800 166.405 199.900 M199.632 196.243 C 200.871 201.181,199.714 206.787,197.400 207.053 L 195.200 207.306 195.200 200.853 C 195.200 194.516,195.236 194.400,197.185 194.400 C 198.589 194.400,199.305 194.939,199.632 196.243 M211.835 201.056 L 212.069 207.313 209.835 207.056 C 207.589 206.799,206.102 199.214,207.555 195.428 C 209.062 191.502,211.602 194.843,211.835 201.056 M268.735 197.094 C 270.573 200.069,270.960 205.520,269.440 207.040 C 268.770 207.710,264.433 208.000,255.068 208.000 C 239.666 208.000,240.000 208.164,240.000 200.613 C 240.000 194.426,240.061 194.400,254.495 194.400 L 267.070 194.400 268.735 197.094 M189.040 200.800 C 189.040 203.220,189.190 204.210,189.373 203.000 C 189.556 201.790,189.556 199.810,189.373 198.600 C 189.190 197.390,189.040 198.380,189.040 200.800 " stroke="none" fill="#f5a2a4" fill-rule="evenodd"></path><path id="path4" d="M201.818 24.890 C 200.399 25.301,198.882 26.299,198.449 27.108 C 198.016 27.918,196.477 29.061,195.031 29.649 C 193.584 30.236,191.500 31.576,190.400 32.626 C 186.417 36.429,178.779 42.386,177.876 42.393 C 177.367 42.397,175.443 43.660,173.600 45.200 C 171.757 46.740,169.825 48.000,169.307 48.000 C 168.788 48.000,167.077 49.061,165.504 50.358 C 163.931 51.655,160.879 53.143,158.722 53.666 C 156.565 54.189,153.866 55.482,152.725 56.538 C 151.584 57.595,149.345 58.820,147.750 59.261 C 146.155 59.701,143.839 60.912,142.603 61.952 C 141.367 62.992,138.746 64.267,136.778 64.787 C 134.810 65.306,131.760 66.561,130.000 67.576 C 128.240 68.591,124.460 70.149,121.600 71.038 C 118.740 71.926,114.674 73.401,112.565 74.313 C 110.456 75.226,106.316 76.397,103.365 76.914 C 100.414 77.432,96.200 78.655,94.000 79.633 C 86.812 82.828,84.702 83.199,73.281 83.280 C 53.453 83.420,54.986 80.156,54.157 124.000 C 53.222 173.448,53.224 175.381,54.217 205.600 C 55.346 239.929,56.210 249.273,58.713 254.272 C 59.741 256.322,61.036 259.930,61.591 262.288 C 62.764 267.262,70.525 282.827,72.831 284.827 C 73.694 285.575,74.400 286.583,74.400 287.066 C 74.400 287.549,75.429 289.127,76.687 290.572 C 77.946 292.017,79.727 294.914,80.647 297.009 C 81.566 299.105,82.890 301.038,83.589 301.306 C 84.287 301.575,85.428 302.920,86.123 304.297 C 86.818 305.674,88.335 307.796,89.494 309.014 C 90.652 310.231,92.747 312.571,94.150 314.214 C 96.383 316.829,99.679 320.204,109.201 329.625 C 110.521 330.931,112.026 332.000,112.546 332.000 C 113.066 332.000,114.259 333.079,115.199 334.398 C 116.138 335.717,117.769 337.013,118.824 337.278 C 119.879 337.542,120.964 338.457,121.235 339.310 C 121.505 340.162,123.138 341.751,124.863 342.840 C 126.589 343.929,128.000 345.128,128.000 345.504 C 128.000 345.880,130.430 347.874,133.400 349.936 C 141.990 355.899,144.269 357.579,146.400 359.522 C 147.500 360.524,149.558 361.801,150.973 362.358 C 152.389 362.916,154.004 363.923,154.562 364.595 C 155.121 365.268,157.061 366.455,158.875 367.232 C 160.689 368.010,163.093 369.566,164.218 370.690 C 165.342 371.815,167.283 372.976,168.531 373.271 C 169.779 373.565,171.700 374.641,172.800 375.661 C 173.900 376.681,176.060 378.042,177.600 378.686 C 179.140 379.330,182.020 381.146,184.000 382.721 C 185.980 384.296,187.997 385.588,188.483 385.592 C 188.968 385.597,190.408 386.523,191.683 387.652 C 203.261 397.905,206.000 397.947,217.697 388.051 C 219.291 386.703,220.916 385.600,221.309 385.600 C 222.465 385.600,228.024 382.440,229.834 380.754 C 230.751 379.899,231.922 379.200,232.436 379.200 C 232.950 379.200,234.952 378.010,236.885 376.556 C 238.818 375.102,242.137 373.262,244.259 372.467 C 246.382 371.673,248.304 370.540,248.530 369.950 C 248.756 369.360,250.169 368.472,251.668 367.977 C 253.168 367.482,255.870 365.845,257.673 364.339 C 259.476 362.832,261.402 361.600,261.952 361.600 C 262.502 361.600,263.638 360.842,264.476 359.915 C 265.314 358.988,267.317 357.558,268.926 356.736 C 270.536 355.915,271.976 354.942,272.126 354.575 C 272.277 354.207,274.200 352.710,276.400 351.248 C 280.271 348.674,281.884 347.301,288.146 341.248 C 289.767 339.682,291.463 338.400,291.915 338.400 C 292.368 338.400,294.164 336.960,295.906 335.200 C 297.649 333.440,299.385 332.000,299.765 332.000 C 300.144 332.000,301.093 330.920,301.873 329.600 C 302.652 328.280,303.766 327.200,304.347 327.200 C 305.454 327.200,318.400 313.714,318.400 312.560 C 318.400 312.195,319.461 311.004,320.757 309.913 C 322.054 308.822,323.354 307.136,323.647 306.165 C 323.940 305.194,325.065 303.500,326.148 302.400 C 328.007 300.510,336.000 288.441,336.000 287.522 C 336.000 287.286,336.927 285.879,338.059 284.394 C 339.191 282.909,340.794 279.915,341.621 277.739 C 342.447 275.563,344.009 272.479,345.091 270.885 C 346.329 269.060,347.394 265.840,347.966 262.193 C 348.465 259.007,349.361 255.500,349.957 254.400 C 354.177 246.614,355.200 227.128,355.200 154.562 C 355.200 76.281,357.323 83.881,335.253 83.172 C 322.064 82.749,320.905 82.584,316.400 80.497 C 313.760 79.274,308.980 77.766,305.778 77.146 C 302.576 76.526,297.408 74.934,294.294 73.609 C 291.180 72.284,288.167 71.200,287.597 71.200 C 287.028 71.200,284.456 70.080,281.881 68.711 C 279.307 67.342,275.400 65.593,273.200 64.823 C 271.000 64.053,267.800 62.473,266.088 61.312 C 264.377 60.150,262.374 59.200,261.638 59.200 C 260.902 59.200,259.257 58.112,257.984 56.783 C 256.515 55.250,254.531 54.184,252.560 53.869 C 250.850 53.595,248.495 52.567,247.326 51.584 C 246.157 50.600,243.536 49.013,241.502 48.057 C 239.467 47.101,236.975 45.437,235.962 44.360 C 234.950 43.282,233.716 42.400,233.222 42.400 C 232.393 42.400,229.714 40.135,222.400 33.252 C 220.860 31.803,218.445 30.026,217.033 29.305 C 215.621 28.583,213.567 27.094,212.469 25.996 C 210.315 23.842,206.733 23.470,201.818 24.890 M211.533 28.726 C 212.366 29.647,213.351 30.400,213.721 30.400 C 214.090 30.400,217.838 33.280,222.048 36.799 C 226.258 40.319,230.490 43.612,231.452 44.117 C 232.413 44.622,234.383 46.062,235.828 47.317 C 237.273 48.573,238.841 49.600,239.312 49.600 C 239.784 49.600,241.227 50.491,242.521 51.579 C 243.814 52.667,246.206 53.923,247.836 54.369 C 249.466 54.815,252.060 55.978,253.600 56.953 C 267.012 65.443,289.609 75.618,302.131 78.806 C 306.163 79.833,310.303 81.204,311.331 81.852 C 313.910 83.479,321.698 84.645,334.000 85.246 C 355.603 86.302,353.603 79.725,353.588 149.653 C 353.577 205.996,352.904 227.891,350.874 238.000 C 346.836 258.111,345.385 264.052,343.646 267.600 C 342.568 269.800,340.762 273.580,339.633 276.000 C 336.994 281.658,332.318 289.536,330.342 291.652 C 329.494 292.560,328.800 293.546,328.800 293.844 C 328.800 296.327,316.538 312.087,307.898 320.708 C 301.684 326.908,291.358 336.248,289.740 337.132 C 289.003 337.534,287.612 338.614,286.648 339.532 C 281.999 343.960,277.673 347.540,274.400 349.669 C 272.420 350.957,269.360 353.107,267.600 354.447 C 261.544 359.057,253.500 364.404,249.616 366.400 C 247.476 367.500,245.066 368.974,244.262 369.676 C 243.458 370.378,241.181 371.580,239.202 372.349 C 237.224 373.117,235.371 374.123,235.085 374.586 C 234.799 375.048,232.584 376.545,230.163 377.913 C 219.813 383.759,217.208 385.384,212.924 388.668 C 206.101 393.898,202.181 392.757,185.922 380.809 C 184.119 379.484,182.319 378.399,181.922 378.398 C 181.525 378.397,179.081 376.957,176.492 375.198 C 173.903 373.439,171.431 372.000,170.999 372.000 C 170.568 372.000,168.498 370.740,166.400 369.200 C 164.302 367.660,162.319 366.400,161.994 366.400 C 160.579 366.400,139.491 351.680,133.570 346.560 C 131.890 345.107,129.430 343.127,128.102 342.160 C 126.775 341.192,123.219 338.240,120.202 335.600 C 117.184 332.960,113.130 329.540,111.194 328.000 C 103.704 322.045,92.442 309.543,86.449 300.531 C 85.815 299.579,84.558 297.964,83.654 296.942 C 82.751 295.920,81.289 293.690,80.406 291.986 C 79.523 290.283,76.871 286.104,74.514 282.701 C 72.156 279.297,69.744 275.141,69.152 273.464 C 68.560 271.787,67.186 268.882,66.097 267.008 C 65.009 265.133,63.564 261.440,62.887 258.800 C 62.210 256.160,60.941 251.924,60.067 249.387 C 56.889 240.165,56.561 231.693,56.625 160.642 C 56.699 77.640,54.686 86.187,74.400 85.179 C 87.376 84.515,93.856 83.510,97.658 81.571 C 99.350 80.707,103.768 79.293,107.476 78.429 C 113.402 77.047,119.239 74.849,138.800 66.634 C 141.440 65.525,144.141 64.144,144.803 63.564 C 145.464 62.984,147.804 61.672,150.003 60.650 C 152.201 59.627,154.884 58.167,155.964 57.405 C 157.044 56.643,159.744 55.429,161.964 54.707 C 164.184 53.985,166.663 52.815,167.474 52.107 C 168.284 51.398,170.485 49.915,172.365 48.809 C 179.842 44.414,183.637 41.774,189.881 36.621 C 201.876 26.723,207.774 24.572,211.533 28.726 M204.000 59.159 C 202.900 59.500,200.200 60.912,198.000 62.295 C 195.800 63.678,192.965 65.438,191.700 66.205 C 190.435 66.972,187.565 68.950,185.322 70.600 C 183.078 72.250,180.811 73.600,180.283 73.600 C 179.755 73.600,178.305 74.450,177.061 75.488 C 174.757 77.413,146.838 91.392,143.200 92.442 C 142.100 92.760,140.365 93.672,139.343 94.470 C 138.322 95.267,135.442 96.509,132.943 97.230 C 130.445 97.952,127.252 99.245,125.850 100.105 C 124.447 100.965,119.947 102.339,115.850 103.159 C 111.752 103.978,106.332 105.382,103.803 106.280 C 101.275 107.177,96.277 108.340,92.696 108.864 C 88.600 109.462,85.666 110.334,84.787 111.213 C 81.553 114.447,81.890 234.021,85.157 242.400 C 85.929 244.380,87.189 248.340,87.956 251.200 C 89.395 256.560,95.001 268.869,97.496 272.146 C 98.273 273.166,99.411 275.252,100.027 276.782 C 101.439 280.295,109.307 289.466,122.349 302.800 C 134.703 315.430,135.798 316.361,156.184 331.547 C 158.266 333.097,161.146 334.910,162.584 335.576 C 164.023 336.242,167.540 338.582,170.400 340.777 C 173.260 342.971,177.580 345.869,180.000 347.217 C 182.420 348.565,186.560 351.276,189.200 353.241 C 201.362 362.294,211.293 363.199,217.422 355.814 C 217.932 355.200,220.161 353.849,222.375 352.812 C 224.589 351.775,226.400 350.634,226.400 350.277 C 226.400 349.919,228.290 348.671,230.600 347.503 C 232.910 346.335,235.700 344.687,236.800 343.841 C 237.900 342.996,241.860 340.366,245.600 337.998 C 249.340 335.630,254.682 331.962,257.471 329.846 C 260.261 327.731,263.687 325.280,265.086 324.400 C 272.775 319.563,295.030 298.417,298.764 292.400 C 299.583 291.080,300.932 289.280,301.762 288.400 C 305.440 284.496,309.600 279.015,309.600 278.071 C 309.600 277.504,310.635 275.611,311.900 273.865 C 313.165 272.118,314.470 269.814,314.799 268.745 C 315.128 267.675,316.473 264.479,317.788 261.643 C 319.151 258.702,320.822 252.918,321.675 248.187 C 322.498 243.622,323.798 238.023,324.564 235.744 C 325.984 231.520,327.292 121.569,326.006 114.594 C 325.354 111.059,323.169 109.867,315.415 108.818 C 311.793 108.329,306.753 107.225,304.215 106.365 C 301.677 105.506,296.416 104.091,292.526 103.220 C 288.635 102.350,284.256 100.900,282.794 99.997 C 281.333 99.094,278.225 97.787,275.887 97.092 C 273.549 96.398,270.771 95.149,269.714 94.318 C 268.656 93.486,266.308 92.420,264.496 91.950 C 262.683 91.479,259.760 90.086,258.000 88.855 C 256.240 87.623,253.900 86.345,252.800 86.014 C 251.700 85.684,248.820 84.240,246.400 82.806 C 243.980 81.372,240.709 79.785,239.132 79.281 C 237.555 78.776,235.237 77.291,233.982 75.982 C 232.727 74.672,231.256 73.600,230.712 73.600 C 230.168 73.600,228.705 72.768,227.461 71.751 C 226.218 70.734,223.580 68.917,221.600 67.714 C 217.408 65.165,213.277 62.369,210.273 60.045 C 208.010 58.294,207.167 58.175,204.000 59.159 M214.919 66.397 C 216.424 67.719,218.120 68.800,218.688 68.800 C 219.256 68.800,220.539 69.671,221.539 70.735 C 222.539 71.800,225.140 73.438,227.319 74.375 C 229.498 75.312,231.496 76.640,231.759 77.326 C 232.022 78.012,234.434 79.559,237.119 80.764 C 239.804 81.968,242.472 83.523,243.049 84.218 C 243.626 84.913,246.146 86.118,248.649 86.896 C 251.152 87.674,253.667 88.955,254.237 89.744 C 254.808 90.532,257.328 91.771,259.837 92.497 C 262.347 93.222,265.386 94.641,266.592 95.650 C 267.798 96.658,270.858 97.910,273.392 98.432 C 275.926 98.953,278.307 99.913,278.682 100.565 C 279.614 102.186,284.190 103.998,287.374 104.008 C 288.818 104.012,291.980 104.948,294.400 106.088 C 298.579 108.057,305.986 109.806,314.800 110.904 C 317.743 111.271,319.487 112.052,321.400 113.858 L 324.000 116.314 323.988 169.157 C 323.979 211.663,323.757 222.939,322.854 226.800 C 322.236 229.440,321.157 236.333,320.455 242.118 C 319.490 250.077,318.708 253.483,317.243 256.118 C 316.178 258.033,314.873 261.400,314.343 263.600 C 313.813 265.800,312.626 268.432,311.705 269.448 C 310.784 270.464,309.484 272.680,308.815 274.371 C 307.648 277.324,305.835 279.852,300.200 286.381 C 298.770 288.038,297.599 289.710,297.597 290.097 C 297.596 290.484,293.276 295.200,287.997 300.578 C 282.719 305.956,278.400 310.726,278.400 311.178 C 278.400 311.630,277.871 312.000,277.224 312.000 C 276.577 312.000,275.252 313.076,274.279 314.392 C 273.307 315.708,271.780 317.016,270.886 317.300 C 269.992 317.583,268.576 318.687,267.738 319.751 C 266.901 320.816,264.810 322.249,263.093 322.936 C 261.375 323.623,259.330 324.999,258.548 325.993 C 257.766 326.988,255.613 328.573,253.763 329.517 C 251.913 330.460,250.400 331.604,250.400 332.057 C 250.400 332.511,249.050 333.438,247.400 334.118 C 245.750 334.797,243.680 335.993,242.800 336.776 C 241.920 337.558,239.442 339.164,237.292 340.343 C 235.143 341.523,232.803 343.137,232.092 343.929 C 231.382 344.722,229.119 345.981,227.065 346.727 C 225.011 347.473,222.773 348.933,222.092 349.972 C 221.411 351.011,219.799 352.093,218.510 352.376 C 217.221 352.659,215.530 353.593,214.754 354.451 C 210.403 359.259,203.262 359.744,197.525 355.623 C 195.399 354.095,192.765 352.621,191.672 352.347 C 190.579 352.072,189.095 350.949,188.376 349.850 C 187.656 348.752,185.207 347.028,182.933 346.020 C 180.660 345.012,178.114 343.425,177.276 342.493 C 176.438 341.562,175.290 340.800,174.725 340.800 C 174.160 340.800,172.013 339.343,169.955 337.561 C 167.897 335.780,165.216 334.123,163.996 333.879 C 162.777 333.635,161.008 332.393,160.066 331.118 C 159.123 329.843,157.657 328.800,156.808 328.800 C 155.959 328.800,154.408 327.876,153.361 326.747 C 152.314 325.618,150.548 324.088,149.437 323.347 C 142.479 318.708,135.796 313.106,129.217 306.400 C 126.844 303.980,124.069 301.166,123.051 300.146 C 122.033 299.126,120.840 297.918,120.400 297.460 C 119.960 297.002,118.302 295.317,116.715 293.714 C 114.302 291.277,108.998 285.036,103.435 278.089 C 102.770 277.258,101.732 275.397,101.129 273.953 C 100.525 272.509,98.945 269.716,97.616 267.748 C 96.287 265.779,95.200 263.641,95.200 262.997 C 95.200 262.352,94.110 259.783,92.778 257.287 C 91.385 254.676,89.839 249.958,89.136 246.175 C 88.465 242.559,87.158 236.900,86.233 233.600 C 84.598 227.773,84.548 225.988,84.489 171.700 L 84.429 115.800 87.184 113.500 C 88.700 112.235,90.853 111.197,91.970 111.192 C 95.812 111.178,109.208 108.048,114.000 106.045 C 116.640 104.941,119.700 104.027,120.800 104.015 C 124.160 103.975,128.484 102.475,129.970 100.834 C 130.747 99.975,133.402 98.863,135.889 98.356 C 138.370 97.850,141.501 96.607,142.846 95.595 C 144.191 94.582,147.229 93.178,149.596 92.475 C 151.963 91.772,154.642 90.523,155.550 89.699 C 156.457 88.875,159.180 87.570,161.600 86.800 C 164.020 86.030,166.720 84.755,167.600 83.967 C 168.480 83.178,171.231 81.640,173.714 80.549 C 176.197 79.457,178.537 78.073,178.914 77.473 C 179.291 76.873,181.472 75.524,183.760 74.473 C 186.047 73.423,188.112 72.061,188.348 71.446 C 188.584 70.831,190.099 69.776,191.714 69.101 C 193.330 68.426,196.029 66.766,197.713 65.413 C 203.304 60.920,209.055 61.249,214.919 66.397 M182.070 113.835 C 179.376 115.831,181.000 117.600,185.528 117.600 C 189.788 117.600,191.271 116.528,189.484 114.741 C 187.765 113.022,183.817 112.540,182.070 113.835 M186.400 152.445 C 182.660 153.014,177.800 153.516,175.600 153.561 C 173.389 153.606,170.169 154.348,168.400 155.220 C 164.811 156.990,166.480 157.024,173.200 155.318 C 186.263 152.002,229.302 152.415,235.852 155.921 C 236.755 156.404,238.508 156.792,239.747 156.782 C 241.812 156.766,241.708 156.633,238.513 155.182 C 236.595 154.312,233.355 153.594,231.313 153.586 C 229.271 153.578,224.180 153.044,220.000 152.400 C 210.904 150.998,195.775 151.018,186.400 152.445 M158.447 159.701 C 156.129 163.628,156.653 163.706,160.071 159.942 C 162.261 157.531,162.603 156.800,161.541 156.800 C 160.781 156.800,159.388 158.105,158.447 159.701 M245.569 158.551 C 246.466 159.514,247.200 160.581,247.200 160.923 C 247.200 161.264,247.900 161.918,248.756 162.376 C 250.084 163.087,250.005 162.740,248.214 160.005 C 247.060 158.242,245.626 156.800,245.027 156.800 C 244.273 156.800,244.440 157.339,245.569 158.551 M154.600 165.932 C 153.610 166.880,152.800 167.951,152.800 168.312 C 152.800 168.673,151.701 170.597,150.357 172.588 C 148.818 174.868,148.004 176.984,148.157 178.304 L 148.400 180.400 203.600 180.400 L 258.800 180.400 259.069 178.039 C 259.232 176.606,258.868 175.336,258.142 174.805 C 257.485 174.324,256.131 172.327,255.133 170.365 C 253.011 166.192,250.400 163.278,250.400 165.083 C 250.400 165.713,250.922 166.429,251.560 166.674 C 252.199 166.919,253.503 168.938,254.459 171.160 C 255.415 173.382,256.513 175.200,256.899 175.200 C 258.534 175.200,257.556 179.025,255.800 179.496 C 252.690 180.329,153.081 180.067,150.852 179.220 C 148.695 178.400,148.021 175.681,149.800 174.973 C 150.350 174.755,151.501 173.186,152.358 171.488 C 153.215 169.790,154.627 167.591,155.495 166.603 C 157.575 164.235,156.900 163.729,154.600 165.932 M131.157 167.854 C 128.989 168.433,124.800 171.436,124.800 172.410 C 124.800 172.729,126.056 172.032,127.591 170.861 C 133.935 166.022,146.932 169.261,141.495 174.326 C 139.816 175.890,140.208 176.690,142.016 175.388 C 148.387 170.800,140.528 165.347,131.157 167.854 M264.151 168.511 C 262.791 169.616,262.464 170.435,262.914 171.607 C 263.484 173.090,263.559 173.062,263.997 171.200 C 264.770 167.918,276.061 167.846,279.832 171.099 C 282.800 173.659,284.099 178.352,282.406 180.393 C 279.897 183.416,269.559 181.412,267.861 177.575 C 266.836 175.260,264.000 172.942,264.000 174.418 C 264.000 174.876,264.508 175.445,265.128 175.683 C 265.748 175.921,266.456 176.913,266.700 177.887 C 268.088 183.416,278.991 185.697,283.512 181.404 L 285.824 179.209 283.923 175.204 C 282.878 173.002,281.761 171.200,281.442 171.200 C 281.123 171.200,280.169 170.455,279.321 169.545 C 277.022 167.077,266.773 166.379,264.151 168.511 M123.265 175.079 C 119.383 182.333,130.934 187.673,137.255 181.547 C 138.765 180.083,140.000 178.444,140.000 177.905 C 140.000 177.365,138.948 177.975,137.662 179.262 C 132.905 184.018,122.447 182.177,123.981 176.853 C 124.898 173.671,124.519 172.735,123.265 175.079 M132.622 187.233 C 131.448 188.571,130.259 190.461,129.980 191.433 C 129.701 192.405,128.951 194.356,128.314 195.769 C 125.908 201.099,126.287 221.600,128.791 221.600 C 129.126 221.600,129.604 222.619,129.853 223.864 C 130.476 226.980,134.345 231.200,136.578 231.200 C 138.269 231.200,138.400 231.541,138.400 235.948 C 138.400 238.559,138.751 241.619,139.180 242.748 L 139.960 244.800 154.735 244.800 C 172.136 244.800,172.000 244.867,172.000 236.222 L 172.000 231.200 203.600 231.200 L 235.200 231.200 235.200 236.453 C 235.200 245.156,234.503 244.800,251.530 244.800 C 268.681 244.800,268.199 245.028,268.670 236.702 C 268.960 231.564,269.104 231.200,270.843 231.200 C 271.867 231.200,272.882 230.915,273.097 230.567 C 273.312 230.219,272.253 230.079,270.744 230.255 L 268.000 230.575 268.000 235.543 C 268.000 243.533,267.078 244.000,251.318 244.000 C 236.258 244.000,236.218 243.979,235.843 235.984 L 235.600 230.800 203.600 230.800 L 171.600 230.800 171.200 235.600 C 170.498 244.019,170.534 244.000,155.496 244.000 C 139.668 244.000,139.351 243.846,139.020 236.000 C 138.807 230.960,138.731 230.792,136.558 230.543 C 135.057 230.371,134.073 229.645,133.578 228.343 C 133.172 227.274,132.519 226.400,132.128 226.400 C 130.281 226.400,128.000 216.234,128.000 208.000 C 128.000 199.766,130.281 189.600,132.128 189.600 C 132.519 189.600,133.184 188.694,133.605 187.587 L 134.370 185.574 203.909 185.787 C 242.155 185.904,273.032 185.736,272.524 185.412 C 272.016 185.089,240.810 184.819,203.178 184.812 L 134.756 184.800 132.622 187.233 M273.600 188.198 C 273.600 188.875,274.096 189.619,274.703 189.852 C 280.288 191.995,280.291 224.004,274.706 226.147 C 274.098 226.380,273.600 227.125,273.600 227.802 C 273.600 228.664,274.201 228.385,275.600 226.876 C 276.700 225.689,277.600 224.088,277.600 223.319 C 277.600 222.549,278.050 221.470,278.600 220.920 C 279.311 220.209,279.600 216.469,279.600 208.000 C 279.600 199.531,279.311 195.791,278.600 195.080 C 278.050 194.530,277.600 193.451,277.600 192.681 C 277.600 191.912,276.700 190.311,275.600 189.124 C 274.201 187.615,273.600 187.336,273.600 188.198 M138.493 196.839 C 132.852 206.115,135.083 208.000,151.708 208.000 C 167.138 208.000,167.053 208.047,166.405 199.900 L 166.000 194.800 153.000 194.580 L 140.001 194.360 138.493 196.839 M183.733 194.933 C 182.715 195.952,183.153 206.165,184.255 207.079 C 186.594 209.021,188.800 205.965,188.800 200.783 C 188.800 195.638,186.121 192.546,183.733 194.933 M195.200 195.464 C 195.200 196.052,196.004 196.499,197.000 196.464 C 198.624 196.406,198.824 196.824,199.046 200.724 C 199.303 205.245,198.201 207.095,196.227 205.456 C 195.460 204.820,195.200 204.946,195.200 205.955 C 195.200 206.957,195.769 207.241,197.400 207.053 C 199.714 206.787,200.871 201.181,199.632 196.243 C 199.122 194.209,195.200 193.519,195.200 195.464 M207.555 195.428 C 206.102 199.214,207.589 206.799,209.835 207.056 L 212.069 207.313 211.835 201.056 C 211.602 194.843,209.062 191.502,207.555 195.428 M219.800 194.956 C 217.264 195.610,217.795 205.867,220.427 207.067 C 223.048 208.261,223.351 207.485,223.039 200.384 C 222.800 194.923,222.417 194.282,219.800 194.956 M240.960 195.360 C 239.783 196.537,239.691 204.327,240.828 206.453 C 241.839 208.342,267.609 208.871,269.440 207.040 C 270.960 205.520,270.573 200.069,268.735 197.094 L 267.070 194.400 254.495 194.400 C 245.781 194.400,241.625 194.695,240.960 195.360 M164.644 195.886 C 165.359 196.340,165.611 198.035,165.444 201.274 L 165.200 206.000 151.600 206.000 L 138.000 206.000 137.748 203.379 C 137.589 201.729,138.132 199.729,139.213 197.979 L 140.930 195.200 152.265 195.212 C 158.499 195.219,164.070 195.522,164.644 195.886 M186.242 201.614 C 186.109 203.818,185.640 205.706,185.200 205.810 C 184.239 206.038,183.685 199.765,184.410 196.875 C 185.250 193.527,186.530 196.836,186.242 201.614 M222.400 200.847 C 222.400 204.408,222.104 206.312,221.600 206.000 C 220.163 205.112,220.653 195.200,222.133 195.200 C 222.280 195.200,222.400 197.741,222.400 200.847 M267.191 197.190 C 268.510 198.595,269.081 200.184,269.130 202.590 L 269.200 206.000 255.400 206.219 L 241.600 206.438 241.600 201.352 C 241.600 194.823,240.841 195.200,253.994 195.200 C 265.027 195.200,265.370 195.252,267.191 197.190 M211.046 200.732 C 211.277 204.783,210.601 206.347,208.600 206.388 C 208.270 206.394,208.000 204.034,208.000 201.141 C 208.000 194.028,210.644 193.672,211.046 200.732 M167.200 284.800 C 166.232 285.426,166.351 285.578,167.820 285.588 C 168.821 285.594,171.689 286.320,174.192 287.200 C 177.420 288.334,180.795 288.800,185.792 288.800 C 190.789 288.800,194.165 288.334,197.392 287.200 C 199.896 286.320,202.788 285.600,203.819 285.600 C 204.866 285.600,205.476 285.246,205.200 284.800 C 204.549 283.747,168.830 283.747,167.200 284.800 " stroke="none" fill="#f9cfcf" fill-rule="evenodd"></path></g></svg>