<svg id="svg" version="1.1" width="500" height="515" xmlns="http://www.w3.org/2000/svg" xmlns:xlink="http://www.w3.org/1999/xlink" style="display: block;"><g id="svgg"><path id="path0" d="M0.000 206.800 L 0.000 412.000 200.000 412.000 L 400.000 412.000 400.000 206.800 L 400.000 1.600 200.000 1.600 L 0.000 1.600 0.000 206.800 M207.600 35.733 C 209.674 37.388,215.569 41.396,226.400 48.515 C 227.940 49.528,230.280 51.106,231.600 52.022 C 235.646 54.832,246.377 60.668,249.226 61.609 C 250.709 62.098,253.162 63.340,254.678 64.369 C 256.194 65.398,258.282 66.496,259.318 66.809 C 260.353 67.123,263.000 68.376,265.200 69.594 C 267.400 70.813,270.640 72.262,272.400 72.815 C 274.160 73.368,277.580 74.806,280.000 76.011 C 282.420 77.216,285.660 78.473,287.200 78.804 C 288.740 79.135,291.919 80.253,294.264 81.287 C 296.608 82.322,301.468 83.698,305.064 84.345 C 308.659 84.992,313.490 86.258,315.799 87.157 C 320.210 88.875,333.030 90.346,344.400 90.438 C 352.463 90.504,355.842 91.652,358.172 95.118 L 360.000 97.837 360.000 158.815 C 360.000 222.000,359.448 235.323,356.361 246.593 C 355.727 248.907,354.144 254.852,352.842 259.804 C 351.461 265.057,349.668 269.889,348.537 271.404 C 347.470 272.832,346.142 275.422,345.584 277.160 C 344.683 279.970,340.259 287.081,335.864 292.783 C 335.009 293.892,333.520 295.946,332.555 297.346 C 324.523 308.999,314.732 318.924,295.600 334.805 C 293.150 336.838,289.940 339.167,284.600 342.787 C 282.950 343.905,281.600 345.129,281.600 345.507 C 281.600 345.884,279.260 347.394,276.400 348.861 C 273.540 350.327,271.200 351.831,271.200 352.203 C 271.200 352.574,269.849 353.491,268.198 354.239 C 266.547 354.988,264.297 356.248,263.198 357.041 C 258.464 360.454,244.118 368.591,228.126 376.932 C 225.776 378.158,222.716 379.848,221.326 380.689 C 219.937 381.530,217.986 382.464,216.991 382.766 C 215.996 383.067,212.486 385.135,209.191 387.361 C 201.697 392.423,199.032 392.391,190.215 387.131 C 187.017 385.223,183.074 382.928,181.453 382.031 C 179.832 381.134,176.052 379.041,173.053 377.379 C 170.054 375.718,165.436 373.198,162.791 371.779 C 160.146 370.361,156.850 368.390,155.467 367.400 C 154.084 366.410,152.613 365.600,152.197 365.600 C 151.780 365.600,150.011 364.565,148.265 363.300 C 146.518 362.035,144.336 360.761,143.415 360.468 C 142.494 360.176,140.488 358.961,138.958 357.768 C 136.057 355.507,131.021 352.231,125.120 348.766 C 123.215 347.648,120.834 345.983,119.829 345.066 C 118.823 344.150,117.266 343.023,116.368 342.562 C 114.914 341.815,105.049 334.235,97.695 328.214 C 91.014 322.744,86.478 318.552,82.372 314.052 C 79.937 311.384,75.694 306.822,72.943 303.916 C 70.193 301.010,66.785 296.792,65.371 294.543 C 63.957 292.294,61.057 288.037,58.926 285.083 C 56.796 282.129,54.198 277.780,53.153 275.418 C 52.109 273.055,50.571 270.150,49.737 268.961 C 48.902 267.773,47.726 264.820,47.122 262.400 C 46.519 259.980,45.215 256.461,44.225 254.581 C 39.968 246.495,39.088 230.267,39.127 160.559 C 39.171 83.339,36.474 91.114,63.714 89.659 C 76.370 88.982,78.874 88.620,83.283 86.829 C 86.064 85.699,90.333 84.541,92.770 84.256 C 98.500 83.585,130.511 72.159,134.388 69.400 C 135.471 68.630,136.698 68.000,137.117 68.000 C 137.812 68.000,142.728 65.732,155.533 59.502 C 163.765 55.498,167.588 53.450,168.000 52.823 C 168.220 52.489,170.020 51.405,172.000 50.416 C 173.980 49.427,176.860 47.670,178.400 46.512 C 183.381 42.767,188.745 39.200,189.395 39.200 C 189.743 39.200,191.460 38.227,193.209 37.039 C 199.863 32.517,203.191 32.215,207.600 35.733 M196.800 68.686 C 194.820 69.462,191.616 71.245,189.680 72.648 C 187.744 74.052,185.723 75.200,185.188 75.200 C 184.653 75.200,183.251 75.959,182.073 76.886 C 180.894 77.813,177.696 79.647,174.965 80.963 C 172.234 82.278,169.460 83.810,168.800 84.368 C 168.140 84.925,165.800 86.035,163.600 86.834 C 161.400 87.633,158.674 88.921,157.542 89.697 C 156.410 90.472,153.108 92.001,150.204 93.094 C 147.301 94.187,144.087 95.617,143.062 96.272 C 142.038 96.928,139.400 98.011,137.200 98.680 C 135.000 99.350,131.429 100.820,129.264 101.949 C 127.100 103.077,124.615 104.000,123.742 104.000 C 122.869 104.000,119.923 105.055,117.195 106.343 C 114.467 107.632,109.932 109.102,107.117 109.609 C 104.303 110.116,99.840 111.256,97.200 112.141 C 94.560 113.027,88.273 114.447,83.229 115.296 C 72.972 117.022,70.834 118.029,70.149 121.453 C 69.448 124.958,69.574 206.922,70.306 223.600 C 70.968 238.685,75.178 256.567,79.159 261.200 C 79.915 262.080,81.173 264.537,81.955 266.659 C 82.738 268.782,83.913 270.724,84.567 270.975 C 85.221 271.226,86.405 272.946,87.199 274.797 C 88.929 278.832,98.964 290.586,106.230 297.084 C 109.110 299.661,112.630 302.901,114.052 304.284 C 118.140 308.261,120.961 310.728,124.310 313.254 C 132.887 319.724,149.172 330.823,155.454 334.480 C 158.174 336.063,162.560 338.667,165.200 340.265 C 167.840 341.863,172.160 344.220,174.800 345.502 C 177.440 346.784,180.840 348.770,182.355 349.916 C 183.871 351.062,185.388 352.000,185.728 352.000 C 186.067 352.000,188.023 353.064,190.074 354.366 C 198.509 359.715,201.970 359.378,214.800 351.963 C 217.880 350.183,222.380 347.783,224.800 346.630 C 227.220 345.476,230.280 343.733,231.600 342.756 C 232.920 341.779,235.440 340.260,237.200 339.380 C 245.525 335.217,258.809 326.799,260.756 324.453 C 261.328 323.764,262.212 323.200,262.719 323.200 C 264.359 323.200,275.799 314.580,284.800 306.564 C 293.002 299.259,304.800 287.024,304.800 285.823 C 304.800 285.587,306.044 284.017,307.565 282.333 C 309.086 280.650,311.107 277.726,312.056 275.836 C 313.004 273.946,314.416 271.680,315.192 270.800 C 315.968 269.920,317.064 267.760,317.626 266.000 C 318.189 264.240,319.476 261.540,320.485 260.000 C 321.566 258.350,322.871 254.244,323.664 250.000 C 324.403 246.040,325.761 240.100,326.683 236.800 C 328.965 228.627,329.808 124.270,327.626 120.051 C 326.216 117.324,324.114 116.595,313.600 115.186 C 309.860 114.685,303.560 113.243,299.600 111.980 C 295.640 110.717,290.713 109.467,288.651 109.201 C 286.588 108.935,283.630 107.854,282.075 106.799 C 280.521 105.745,277.888 104.627,276.225 104.315 C 272.587 103.634,268.285 101.908,267.646 100.874 C 267.390 100.461,266.016 99.877,264.591 99.576 C 263.166 99.275,256.881 96.535,250.623 93.487 C 244.366 90.439,237.716 87.406,235.846 86.746 C 233.976 86.086,231.710 84.855,230.812 84.011 C 229.913 83.167,227.751 81.880,226.007 81.151 C 224.263 80.423,221.388 78.850,219.618 77.657 C 217.848 76.464,215.256 75.030,213.857 74.471 C 212.459 73.911,211.143 73.005,210.933 72.457 C 210.550 71.461,202.479 67.167,201.120 67.237 C 200.724 67.258,198.780 67.910,196.800 68.686 M244.773 125.361 C 249.226 127.033,252.776 130.448,255.002 135.200 C 259.247 144.265,261.600 149.664,261.600 150.337 C 261.600 150.740,262.109 152.090,262.731 153.335 C 263.352 154.581,264.476 157.040,265.228 158.800 C 265.980 160.560,267.092 163.019,267.698 164.265 C 268.304 165.510,268.800 167.028,268.800 167.637 C 268.800 168.965,273.176 173.600,274.430 173.600 C 274.916 173.600,275.789 174.050,276.368 174.600 C 276.948 175.150,278.363 176.280,279.511 177.112 C 280.660 177.944,281.600 179.114,281.600 179.712 C 281.600 180.310,281.928 180.800,282.329 180.800 C 285.599 180.800,286.400 187.033,286.400 212.493 C 286.400 241.017,286.928 239.200,278.640 239.200 L 272.800 239.200 272.780 245.400 C 272.748 255.680,269.317 264.000,265.110 264.000 C 264.573 264.000,263.995 264.414,263.826 264.921 C 263.259 266.622,255.016 266.733,251.934 265.081 C 244.828 261.273,243.200 258.020,243.200 247.628 L 243.200 239.200 199.200 239.200 L 155.200 239.200 155.200 247.242 C 155.200 259.131,150.694 265.345,141.428 266.236 C 131.130 267.225,124.000 258.597,124.000 245.148 L 124.000 239.381 118.353 239.061 C 110.869 238.639,111.226 239.921,111.212 213.428 C 111.197 184.822,112.516 180.130,122.200 174.335 C 125.756 172.207,128.800 169.008,128.800 167.399 C 128.800 166.765,129.285 165.291,129.879 164.123 C 131.388 161.151,133.134 157.140,135.155 152.000 C 136.107 149.580,137.207 146.880,137.599 146.000 C 137.992 145.120,139.074 142.600,140.005 140.400 C 144.097 130.728,146.910 127.496,153.170 125.273 C 158.455 123.397,239.748 123.475,244.773 125.361 M157.761 140.206 C 156.820 141.340,144.800 168.749,144.800 169.761 C 144.800 170.113,169.230 170.400,199.089 170.400 L 253.378 170.400 253.000 168.424 C 252.793 167.338,252.123 166.034,251.511 165.526 C 250.900 165.019,250.400 163.957,250.400 163.167 C 250.400 162.376,249.904 160.710,249.298 159.465 C 247.843 156.475,246.076 152.504,244.020 147.600 C 243.097 145.400,241.838 142.700,241.222 141.600 L 240.101 139.600 199.354 139.393 C 167.096 139.229,158.431 139.398,157.761 140.206 M135.635 188.673 C 122.856 195.842,130.008 214.481,144.200 210.995 C 147.958 210.072,149.567 208.732,151.570 204.857 C 156.756 194.830,145.335 183.231,135.635 188.673 M251.200 188.400 C 250.652 189.060,249.757 189.600,249.211 189.600 C 248.665 189.600,247.269 190.969,246.109 192.643 C 237.658 204.838,254.099 218.218,264.745 207.810 C 270.022 202.651,268.206 190.829,261.894 189.245 C 260.852 188.983,260.000 188.416,260.000 187.985 C 260.000 186.685,252.322 187.048,251.200 188.400 " stroke="none" fill="#fcfcfc" fill-rule="evenodd"></path><path id="path1" d="M197.200 41.733 C 196.320 42.219,192.604 44.638,188.943 47.108 C 181.319 52.252,174.014 56.850,170.689 58.596 C 156.454 66.073,149.669 69.486,148.000 70.006 C 146.900 70.350,145.157 71.182,144.126 71.856 C 141.482 73.585,131.090 78.205,124.000 80.805 C 120.700 82.014,116.347 83.760,114.327 84.683 C 112.307 85.607,108.707 86.764,106.327 87.255 C 103.947 87.745,99.607 88.993,96.683 90.026 C 88.827 92.803,68.494 96.671,58.628 97.266 C 45.500 98.057,46.731 95.242,45.998 126.146 C 44.617 184.326,45.668 229.258,48.735 243.200 C 51.784 257.056,52.047 257.986,53.501 260.000 C 54.295 261.100,55.587 263.980,56.372 266.400 C 57.158 268.820,58.458 271.524,59.261 272.410 C 60.065 273.295,61.455 275.678,62.352 277.704 C 63.248 279.731,64.509 281.827,65.154 282.362 C 65.800 282.898,67.306 285.015,68.502 287.068 C 71.029 291.405,74.226 295.565,78.997 300.725 C 80.866 302.746,83.566 305.748,84.997 307.397 C 90.553 313.794,95.794 318.536,106.442 326.800 C 108.709 328.560,111.487 330.990,112.615 332.200 C 113.742 333.410,115.148 334.400,115.740 334.400 C 116.331 334.400,117.945 335.480,119.326 336.800 C 120.707 338.120,122.116 339.200,122.457 339.200 C 122.798 339.200,124.201 340.146,125.575 341.302 C 126.949 342.458,129.839 344.348,131.998 345.502 C 134.157 346.656,138.997 349.670,142.754 352.200 C 146.511 354.730,149.797 356.800,150.057 356.800 C 150.317 356.800,152.390 358.004,154.664 359.475 C 161.846 364.120,164.253 365.523,170.000 368.413 C 173.080 369.962,176.860 371.988,178.400 372.914 C 187.381 378.316,189.003 379.200,189.933 379.200 C 190.498 379.200,192.451 380.280,194.273 381.600 C 197.650 384.046,202.570 384.866,203.626 383.159 C 203.912 382.696,206.183 381.288,208.673 380.031 C 211.163 378.773,215.900 376.290,219.200 374.512 C 222.500 372.735,227.720 369.995,230.800 368.424 C 233.880 366.853,236.940 365.229,237.600 364.815 C 238.260 364.401,241.680 362.408,245.200 360.387 C 252.283 356.320,252.404 356.247,255.688 354.061 C 261.313 350.316,266.237 347.287,269.200 345.750 C 270.960 344.837,274.380 342.634,276.800 340.856 C 279.220 339.077,282.563 336.704,284.229 335.583 C 285.895 334.461,288.595 332.352,290.229 330.896 C 291.863 329.441,293.848 327.899,294.639 327.471 C 303.702 322.569,329.395 293.158,336.460 279.600 C 338.065 276.520,339.843 273.460,340.411 272.800 C 340.979 272.140,341.979 269.781,342.632 267.557 C 343.286 265.333,344.566 261.733,345.477 259.557 C 347.898 253.776,349.427 246.913,350.013 239.200 C 350.297 235.460,351.040 229.570,351.665 226.112 C 352.579 221.048,352.800 208.167,352.800 159.957 L 352.800 100.091 351.022 98.845 C 349.777 97.973,347.318 97.595,342.822 97.584 C 333.310 97.560,308.215 93.004,301.175 90.023 C 299.429 89.284,294.760 87.844,290.800 86.823 C 286.840 85.802,281.980 84.034,280.000 82.893 C 278.020 81.753,275.860 80.815,275.200 80.810 C 274.540 80.805,271.840 79.742,269.200 78.447 C 266.560 77.153,262.420 75.182,260.000 74.067 C 257.580 72.953,255.060 71.685,254.400 71.249 C 253.740 70.813,251.760 69.792,250.000 68.980 C 248.240 68.168,246.080 67.080,245.200 66.562 C 244.320 66.045,241.620 64.717,239.200 63.612 C 233.379 60.952,218.352 51.599,216.672 49.589 C 215.941 48.715,215.041 47.996,214.672 47.991 C 214.302 47.987,211.686 46.367,208.858 44.391 C 203.546 40.682,200.401 39.964,197.200 41.733 M210.372 64.504 C 218.218 69.628,234.794 79.200,235.824 79.200 C 236.156 79.200,237.682 80.046,239.214 81.081 C 240.746 82.116,243.440 83.432,245.200 84.006 C 246.960 84.580,252.540 87.109,257.600 89.626 C 262.660 92.143,268.420 94.664,270.400 95.228 C 272.380 95.791,274.720 96.684,275.600 97.212 C 278.648 99.039,301.219 106.227,305.600 106.766 C 314.479 107.859,330.323 112.145,332.318 113.994 C 335.209 116.673,335.391 121.336,334.969 181.600 C 334.567 238.992,334.228 244.297,330.441 252.400 C 329.619 254.160,328.338 257.760,327.595 260.400 C 326.198 265.363,321.887 273.313,315.609 282.501 C 308.839 292.408,299.682 302.119,286.000 313.898 C 281.600 317.686,277.347 321.351,276.549 322.043 C 275.752 322.735,273.412 324.305,271.349 325.533 C 266.936 328.160,258.840 333.653,256.000 335.948 C 254.900 336.837,253.576 337.572,253.057 337.582 C 252.539 337.592,251.595 338.119,250.960 338.754 C 250.326 339.389,247.690 341.047,245.103 342.439 C 242.516 343.831,239.900 345.378,239.288 345.876 C 238.677 346.374,236.337 347.710,234.088 348.845 C 231.840 349.980,226.642 352.802,222.537 355.118 C 218.433 357.433,213.933 359.708,212.537 360.174 C 211.142 360.640,209.280 361.668,208.400 362.458 C 204.353 366.090,196.380 366.300,192.167 362.885 C 190.975 361.919,188.380 360.447,186.400 359.614 C 184.420 358.781,182.260 357.664,181.600 357.130 C 179.917 355.771,172.427 351.573,167.200 349.061 C 164.780 347.898,161.617 345.923,160.172 344.673 C 158.727 343.423,157.162 342.400,156.696 342.400 C 156.229 342.400,154.713 341.590,153.326 340.600 C 151.940 339.610,149.479 338.080,147.858 337.200 C 146.236 336.320,142.491 333.800,139.534 331.600 C 136.578 329.400,133.223 327.093,132.079 326.473 C 120.790 320.356,92.177 293.920,84.123 282.166 C 76.965 271.719,71.249 261.480,71.218 259.047 C 71.208 258.303,70.837 257.470,70.394 257.196 C 64.499 253.553,61.943 220.652,62.657 157.600 C 63.097 118.708,63.386 115.511,66.648 113.373 C 69.005 111.829,81.611 108.430,90.878 106.841 C 97.384 105.725,117.871 99.662,122.000 97.631 C 124.536 96.383,130.676 94.424,132.092 94.412 C 132.803 94.405,134.318 93.666,135.458 92.769 C 136.599 91.871,139.438 90.472,141.766 89.660 C 144.095 88.848,147.620 87.246,149.600 86.101 C 151.580 84.956,153.920 84.013,154.800 84.004 C 155.680 83.996,157.480 83.258,158.800 82.364 C 160.120 81.470,163.720 79.482,166.800 77.948 C 177.792 72.471,180.421 71.037,182.000 69.658 C 182.880 68.888,184.818 67.777,186.306 67.188 C 187.795 66.600,190.066 65.232,191.353 64.148 C 196.479 59.835,203.424 59.965,210.372 64.504 M151.978 128.521 C 149.135 130.419,144.800 134.591,144.800 135.428 C 144.800 135.820,143.720 138.475,142.400 141.326 C 141.080 144.178,140.000 146.690,140.000 146.907 C 140.000 147.125,139.147 149.169,138.104 151.451 C 137.061 153.733,135.211 158.120,133.993 161.200 C 130.384 170.323,128.932 172.697,125.723 174.722 C 115.020 181.479,114.400 183.537,114.400 212.309 C 114.400 238.941,113.816 236.882,121.565 237.549 L 126.800 238.000 127.200 246.927 C 127.663 257.260,129.630 261.005,135.677 263.062 C 145.731 266.483,152.162 260.695,152.661 247.778 C 152.835 243.280,153.342 239.150,153.787 238.600 C 155.156 236.908,243.663 237.167,244.314 238.865 C 244.581 239.561,244.806 243.251,244.812 247.065 C 244.819 250.879,245.143 254.503,245.532 255.117 C 245.953 255.783,246.069 252.706,245.819 247.517 C 245.199 234.665,250.606 236.000,199.184 236.000 C 146.318 236.000,151.200 234.786,151.200 247.935 L 151.200 256.555 148.475 259.360 C 139.039 269.077,128.000 261.173,128.000 244.700 C 128.000 237.102,126.964 236.000,119.822 236.000 L 115.200 236.000 115.200 212.902 C 115.200 184.351,115.967 181.891,127.054 174.892 C 129.424 173.396,130.578 171.784,132.353 167.490 C 133.601 164.470,135.341 160.380,136.220 158.400 C 137.099 156.420,138.109 154.080,138.465 153.200 C 139.535 150.556,142.425 143.762,143.569 141.200 C 146.581 134.454,147.854 132.564,150.728 130.572 L 153.862 128.400 197.917 128.180 C 231.054 128.014,242.570 128.201,244.386 128.931 C 247.673 130.255,250.344 132.209,250.375 133.314 C 250.389 133.817,250.941 134.436,251.603 134.690 C 253.891 135.568,250.305 131.160,247.070 129.118 L 244.032 127.200 198.994 127.200 C 158.460 127.200,153.758 127.332,151.978 128.521 M178.944 135.799 C 189.584 135.925,207.224 135.925,218.144 135.799 C 229.065 135.674,220.360 135.571,198.800 135.570 C 177.240 135.570,168.305 135.673,178.944 135.799 M155.092 137.800 C 153.724 140.054,151.714 144.240,150.000 148.400 C 149.275 150.160,148.195 152.680,147.600 154.000 C 147.005 155.320,145.978 157.660,145.317 159.200 C 144.656 160.740,143.370 163.690,142.458 165.756 C 138.364 175.031,134.222 174.400,199.229 174.400 C 253.691 174.400,255.165 174.360,255.972 172.853 C 257.120 170.707,257.010 169.363,255.535 167.553 C 254.325 166.068,254.320 166.539,255.515 169.600 C 256.796 172.883,257.116 172.864,199.147 172.816 C 137.816 172.766,140.463 172.995,142.720 167.925 C 143.386 166.426,145.794 160.700,148.069 155.200 C 153.770 141.418,155.776 137.641,157.833 136.813 C 159.596 136.103,159.596 136.101,157.892 136.051 C 156.939 136.022,155.701 136.795,155.092 137.800 M240.968 137.561 C 242.060 138.419,243.586 140.781,244.361 142.809 C 245.136 144.838,245.957 146.309,246.187 146.079 C 247.256 145.011,241.728 136.000,240.004 136.000 C 239.443 136.000,239.877 136.702,240.968 137.561 M252.841 136.800 C 252.821 138.229,254.153 140.514,254.691 139.976 C 254.899 139.768,254.571 138.698,253.963 137.599 C 253.322 136.440,252.850 136.104,252.841 136.800 M255.211 142.135 C 255.205 142.650,255.740 144.180,256.400 145.535 C 257.060 146.891,258.140 149.109,258.800 150.465 C 259.460 151.820,260.000 153.296,260.000 153.744 C 260.000 154.562,261.234 157.575,264.073 163.688 C 264.913 165.496,265.600 167.365,265.600 167.842 C 265.600 170.031,269.095 174.265,272.193 175.830 C 275.557 177.528,278.987 180.484,281.208 183.600 C 281.836 184.480,282.361 184.765,282.375 184.232 C 282.414 182.721,276.529 177.102,273.042 175.323 C 268.966 173.244,268.941 173.206,264.476 162.400 C 257.798 146.238,255.229 140.618,255.211 142.135 M246.400 147.653 C 246.400 148.098,247.157 149.888,248.081 151.631 C 249.530 154.361,249.690 154.477,249.232 152.465 C 248.690 150.080,246.400 146.189,246.400 147.653 M250.776 158.000 C 252.245 162.298,254.389 166.299,254.395 164.753 C 254.398 164.067,253.871 162.807,253.225 161.953 C 252.579 161.099,252.039 159.839,252.025 159.153 C 252.011 158.467,251.479 157.207,250.841 156.353 C 249.823 154.988,249.815 155.188,250.776 158.000 M138.745 184.882 C 137.652 185.311,138.195 185.504,140.600 185.544 C 142.470 185.575,144.000 185.462,144.000 185.293 C 144.000 184.614,140.190 184.316,138.745 184.882 M254.200 185.365 C 255.190 185.555,256.810 185.555,257.800 185.365 C 258.790 185.174,257.980 185.018,256.000 185.018 C 254.020 185.018,253.210 185.174,254.200 185.365 M129.863 189.214 C 127.958 191.202,126.400 193.431,126.400 194.167 C 126.400 195.608,128.719 193.214,128.775 191.715 C 128.802 190.970,132.069 188.182,134.733 186.628 C 136.304 185.713,136.311 185.655,134.863 185.628 C 134.017 185.613,131.767 187.226,129.863 189.214 M148.000 187.300 C 160.862 194.940,155.661 213.600,140.670 213.600 C 135.731 213.600,132.046 211.554,128.724 206.967 C 127.446 205.203,126.400 204.230,126.400 204.804 C 126.400 206.712,130.285 210.978,133.590 212.701 C 146.151 219.248,160.715 206.865,155.303 194.239 C 153.672 190.436,148.764 185.589,146.572 185.618 C 145.718 185.630,146.256 186.264,148.000 187.300 M246.200 188.271 C 244.550 189.740,243.200 191.247,243.200 191.620 C 243.200 191.994,244.190 191.387,245.400 190.272 C 246.610 189.158,248.490 187.650,249.578 186.923 C 250.777 186.121,251.092 185.600,250.378 185.601 C 249.730 185.601,247.850 186.803,246.200 188.271 M262.422 186.923 C 263.510 187.650,265.390 189.158,266.600 190.272 C 267.810 191.387,268.800 191.994,268.800 191.620 C 268.800 190.535,262.917 185.601,261.622 185.601 C 260.908 185.600,261.223 186.121,262.422 186.923 M282.800 210.693 L 282.800 235.600 277.631 235.843 C 272.516 236.083,270.341 236.949,270.463 238.698 C 270.503 239.265,270.676 239.228,270.930 238.600 C 271.197 237.938,273.164 237.600,276.743 237.600 C 285.135 237.600,284.802 238.596,284.788 213.537 C 284.780 199.118,284.462 191.349,283.788 189.093 C 282.954 186.302,282.800 189.678,282.800 210.693 M241.770 194.426 C 240.374 196.661,240.597 203.283,242.133 205.200 L 243.415 206.800 242.819 205.200 C 241.656 202.077,241.429 197.014,242.374 195.249 C 243.574 193.006,243.078 192.331,241.770 194.426 M269.222 194.000 C 275.180 208.963,257.564 219.985,245.400 208.905 C 242.983 206.703,242.340 207.140,244.629 209.429 C 252.569 217.369,264.854 215.551,269.957 205.682 C 271.580 202.545,271.529 196.075,269.867 194.000 L 268.585 192.400 269.222 194.000 M125.829 199.600 C 125.835 201.800,125.990 202.605,126.174 201.389 C 126.358 200.173,126.353 198.373,126.163 197.389 C 125.973 196.405,125.823 197.400,125.829 199.600 M269.637 253.200 C 269.141 262.039,255.670 266.099,249.142 259.378 C 247.634 257.825,246.400 256.932,246.400 257.394 C 246.400 260.701,255.155 264.689,260.200 263.680 C 265.496 262.621,271.482 256.000,270.153 252.670 C 269.890 252.010,269.692 252.213,269.637 253.200 " stroke="none" fill="#359fde" fill-rule="evenodd"></path><path id="path2" d="M154.400 128.552 C 151.479 129.589,147.490 132.961,146.332 135.372 C 143.640 140.981,140.864 147.273,138.465 153.200 C 138.109 154.080,137.099 156.420,136.220 158.400 C 135.341 160.380,133.601 164.470,132.353 167.490 C 130.578 171.784,129.424 173.396,127.054 174.892 C 115.967 181.891,115.200 184.351,115.200 212.902 L 115.200 236.000 119.822 236.000 C 126.964 236.000,128.000 237.102,128.000 244.700 C 128.000 261.173,139.039 269.077,148.475 259.360 L 151.200 256.555 151.200 247.935 C 151.200 234.786,146.318 236.000,199.184 236.000 C 249.774 236.000,245.600 235.267,245.600 244.151 C 245.600 256.701,248.210 261.650,255.396 262.728 C 264.953 264.161,269.802 258.652,270.277 245.823 C 270.630 236.280,270.714 236.167,277.631 235.843 L 282.800 235.600 282.800 210.800 C 282.800 181.624,282.741 181.432,271.883 175.625 C 268.968 174.066,265.600 169.908,265.600 167.868 C 265.600 167.377,264.913 165.496,264.073 163.688 C 261.234 157.575,260.000 154.562,260.000 153.744 C 260.000 153.296,259.460 151.820,258.800 150.465 C 258.140 149.109,257.060 146.891,256.400 145.535 C 255.740 144.180,255.200 142.534,255.200 141.878 C 255.200 141.222,254.660 140.146,254.000 139.486 C 253.340 138.826,252.800 137.580,252.800 136.718 C 252.800 135.855,252.260 134.943,251.600 134.689 C 250.940 134.436,250.400 133.857,250.400 133.403 C 250.400 132.313,248.235 130.653,244.902 129.187 C 242.216 128.005,157.613 127.412,154.400 128.552 M241.988 137.200 C 242.678 138.080,243.985 140.420,244.893 142.400 C 245.800 144.380,247.231 147.479,248.071 149.288 C 248.912 151.096,249.600 152.957,249.600 153.423 C 249.600 153.889,250.109 155.290,250.731 156.535 C 251.352 157.781,252.493 160.240,253.266 162.000 C 254.039 163.760,255.219 166.346,255.889 167.746 C 256.863 169.783,256.919 170.703,256.170 172.346 L 255.234 174.400 199.274 174.400 C 134.216 174.400,138.364 175.031,142.458 165.756 C 143.370 163.690,144.656 160.740,145.317 159.200 C 145.978 157.660,147.011 155.320,147.614 154.000 C 148.217 152.680,149.180 150.385,149.755 148.901 C 152.826 140.969,155.743 136.398,158.067 135.877 C 164.796 134.370,240.706 135.566,241.988 137.200 M151.399 188.553 C 161.700 198.259,155.081 214.400,140.800 214.400 C 127.621 214.400,120.712 199.330,129.440 189.624 C 134.823 183.639,145.625 183.112,151.399 188.553 M260.097 185.297 C 276.816 188.062,273.108 214.400,256.000 214.400 C 241.784 214.400,235.768 198.072,246.360 188.238 C 249.704 185.133,253.801 184.255,260.097 185.297 " stroke="none" fill="#0f7efc" fill-rule="evenodd"></path><path id="path3" d="M196.000 39.055 C 191.887 41.088,185.418 45.164,180.800 48.633 C 179.700 49.459,176.100 51.685,172.800 53.578 C 169.500 55.472,164.820 58.188,162.400 59.613 C 159.980 61.037,157.100 62.465,156.000 62.785 C 154.900 63.105,152.467 64.246,150.592 65.321 C 148.718 66.397,145.789 67.769,144.084 68.370 C 142.378 68.972,139.532 70.381,137.758 71.500 C 135.984 72.620,133.513 73.782,132.266 74.083 C 131.020 74.383,128.226 75.516,126.059 76.600 C 123.891 77.683,120.291 79.112,118.059 79.773 C 115.826 80.435,112.740 81.612,111.200 82.389 C 109.660 83.165,104.803 84.615,100.406 85.610 C 96.009 86.606,90.429 88.103,88.006 88.937 C 82.130 90.961,71.171 92.683,60.400 93.275 C 49.144 93.894,45.962 94.703,44.198 97.396 C 41.415 101.642,41.542 227.237,44.342 240.800 C 47.721 257.164,58.891 282.843,64.006 286.004 C 64.459 286.284,65.690 288.198,66.741 290.257 C 68.998 294.681,87.522 315.474,94.307 321.200 C 106.735 331.688,124.262 344.885,128.916 347.259 C 130.689 348.164,134.603 350.662,137.615 352.810 C 140.626 354.959,144.824 357.649,146.945 358.788 C 151.064 361.001,154.600 363.083,159.365 366.100 C 160.996 367.132,166.091 369.949,170.686 372.359 C 175.281 374.769,180.387 377.654,182.032 378.770 C 183.677 379.887,185.342 380.800,185.731 380.800 C 186.121 380.800,188.680 382.194,191.420 383.898 C 198.321 388.190,201.277 388.513,206.036 385.495 C 208.103 384.184,213.981 380.918,219.098 378.236 C 224.214 375.555,229.300 372.757,230.400 372.020 C 231.500 371.283,233.660 370.176,235.200 369.560 C 238.560 368.217,245.723 364.112,258.800 356.032 C 261.880 354.129,265.300 351.904,266.400 351.088 C 267.500 350.272,270.020 348.738,272.000 347.679 C 297.555 334.016,335.273 294.715,344.072 272.584 C 344.907 270.485,346.452 267.065,347.506 264.984 C 348.643 262.741,350.437 255.988,351.913 248.400 C 356.819 223.170,356.769 224.089,356.785 159.045 L 356.800 99.289 354.972 97.164 C 353.245 95.157,352.485 94.978,341.172 93.924 C 325.915 92.502,315.380 90.831,308.800 88.791 C 305.940 87.904,300.720 86.448,297.200 85.555 C 280.924 81.428,242.003 62.801,222.977 50.034 C 216.392 45.615,209.243 40.830,207.091 39.400 C 202.398 36.282,201.656 36.259,196.000 39.055 M208.858 44.391 C 211.686 46.367,214.302 47.987,214.672 47.991 C 215.041 47.996,215.941 48.715,216.672 49.589 C 218.352 51.599,233.379 60.952,239.200 63.612 C 241.620 64.717,244.320 66.045,245.200 66.562 C 246.080 67.080,248.240 68.168,250.000 68.980 C 251.760 69.792,253.740 70.813,254.400 71.249 C 255.060 71.685,257.580 72.953,260.000 74.067 C 262.420 75.182,266.560 77.153,269.200 78.447 C 271.840 79.742,274.540 80.805,275.200 80.810 C 275.860 80.815,278.020 81.753,280.000 82.893 C 281.980 84.034,286.840 85.802,290.800 86.823 C 294.760 87.844,299.429 89.284,301.175 90.023 C 308.215 93.004,333.310 97.560,342.822 97.584 C 347.318 97.595,349.777 97.973,351.022 98.845 L 352.800 100.091 352.800 159.957 C 352.800 208.167,352.579 221.048,351.665 226.112 C 351.040 229.570,350.297 235.460,350.013 239.200 C 349.427 246.913,347.898 253.776,345.477 259.557 C 344.566 261.733,343.286 265.333,342.632 267.557 C 341.979 269.781,340.979 272.140,340.411 272.800 C 339.843 273.460,338.065 276.520,336.460 279.600 C 329.395 293.158,303.702 322.569,294.639 327.471 C 293.848 327.899,291.863 329.441,290.229 330.896 C 288.595 332.352,285.895 334.461,284.229 335.583 C 282.563 336.704,279.220 339.077,276.800 340.856 C 274.380 342.634,270.960 344.837,269.200 345.750 C 266.237 347.287,261.313 350.316,255.688 354.061 C 252.404 356.247,252.283 356.320,245.200 360.387 C 241.680 362.408,238.260 364.401,237.600 364.815 C 236.940 365.229,233.880 366.853,230.800 368.424 C 227.720 369.995,222.500 372.735,219.200 374.512 C 215.900 376.290,211.163 378.773,208.673 380.031 C 206.183 381.288,203.912 382.696,203.626 383.159 C 202.570 384.866,197.650 384.046,194.273 381.600 C 192.451 380.280,190.498 379.200,189.933 379.200 C 189.003 379.200,187.381 378.316,178.400 372.914 C 176.860 371.988,173.080 369.962,170.000 368.413 C 164.253 365.523,161.846 364.120,154.664 359.475 C 152.390 358.004,150.317 356.800,150.057 356.800 C 149.797 356.800,146.511 354.730,142.754 352.200 C 138.997 349.670,134.157 346.656,131.998 345.502 C 129.839 344.348,126.949 342.458,125.575 341.302 C 124.201 340.146,122.798 339.200,122.457 339.200 C 122.116 339.200,120.707 338.120,119.326 336.800 C 117.945 335.480,116.331 334.400,115.740 334.400 C 115.148 334.400,113.742 333.410,112.615 332.200 C 111.487 330.990,108.709 328.560,106.442 326.800 C 95.794 318.536,90.553 313.794,84.997 307.397 C 83.566 305.748,80.866 302.746,78.997 300.725 C 74.226 295.565,71.029 291.405,68.502 287.068 C 67.306 285.015,65.800 282.898,65.154 282.362 C 64.509 281.827,63.248 279.731,62.352 277.704 C 61.455 275.678,60.065 273.295,59.261 272.410 C 58.458 271.524,57.158 268.820,56.372 266.400 C 55.587 263.980,54.295 261.100,53.501 260.000 C 52.047 257.986,51.784 257.056,48.735 243.200 C 45.668 229.258,44.617 184.326,45.998 126.146 C 46.731 95.242,45.500 98.057,58.628 97.266 C 68.494 96.671,88.827 92.803,96.683 90.026 C 99.607 88.993,103.947 87.745,106.327 87.255 C 108.707 86.764,112.307 85.607,114.327 84.683 C 116.347 83.760,120.700 82.014,124.000 80.805 C 131.090 78.205,141.482 73.585,144.126 71.856 C 145.157 71.182,146.900 70.350,148.000 70.006 C 149.669 69.486,156.454 66.073,170.689 58.596 C 174.014 56.850,181.319 52.252,188.943 47.108 C 200.610 39.236,201.335 39.137,208.858 44.391 M196.247 61.530 C 194.843 61.887,192.641 63.065,191.353 64.148 C 190.066 65.232,187.795 66.600,186.306 67.188 C 184.818 67.777,182.880 68.888,182.000 69.658 C 180.421 71.037,177.792 72.471,166.800 77.948 C 163.720 79.482,160.120 81.470,158.800 82.364 C 157.480 83.258,155.680 83.996,154.800 84.004 C 153.920 84.013,151.580 84.956,149.600 86.101 C 147.620 87.246,144.095 88.848,141.766 89.660 C 139.438 90.472,136.599 91.871,135.458 92.769 C 134.318 93.666,132.803 94.405,132.092 94.412 C 130.676 94.424,124.536 96.383,122.000 97.631 C 117.871 99.662,97.384 105.725,90.878 106.841 C 81.611 108.430,69.005 111.829,66.648 113.373 C 63.386 115.511,63.097 118.708,62.657 157.600 C 61.943 220.652,64.499 253.553,70.394 257.196 C 70.837 257.470,71.208 258.303,71.218 259.047 C 71.249 261.480,76.965 271.719,84.123 282.166 C 92.177 293.920,120.790 320.356,132.079 326.473 C 133.223 327.093,136.578 329.400,139.534 331.600 C 142.491 333.800,146.236 336.320,147.858 337.200 C 149.479 338.080,151.940 339.610,153.326 340.600 C 154.713 341.590,156.229 342.400,156.696 342.400 C 157.162 342.400,158.727 343.423,160.172 344.673 C 161.617 345.923,164.780 347.898,167.200 349.061 C 172.427 351.573,179.917 355.771,181.600 357.130 C 182.260 357.664,184.420 358.781,186.400 359.614 C 188.380 360.447,190.975 361.919,192.167 362.885 C 196.380 366.300,204.353 366.090,208.400 362.458 C 209.280 361.668,211.142 360.640,212.537 360.174 C 213.933 359.708,218.433 357.433,222.537 355.118 C 226.642 352.802,231.840 349.980,234.088 348.845 C 236.337 347.710,238.677 346.374,239.288 345.876 C 239.900 345.378,242.516 343.831,245.103 342.439 C 247.690 341.047,250.326 339.389,250.960 338.754 C 251.595 338.119,252.539 337.592,253.057 337.582 C 253.576 337.572,254.900 336.837,256.000 335.948 C 258.840 333.653,266.936 328.160,271.349 325.533 C 273.412 324.305,275.752 322.735,276.549 322.043 C 277.347 321.351,281.600 317.686,286.000 313.898 C 299.682 302.119,308.839 292.408,315.609 282.501 C 317.986 279.022,318.608 278.022,323.624 269.600 C 325.065 267.180,326.852 263.040,327.595 260.400 C 328.338 257.760,329.619 254.160,330.441 252.400 C 334.228 244.297,334.567 238.992,334.969 181.600 C 335.391 121.336,335.209 116.673,332.318 113.994 C 330.323 112.145,314.479 107.859,305.600 106.766 C 301.219 106.227,278.648 99.039,275.600 97.212 C 274.720 96.684,272.380 95.791,270.400 95.228 C 268.420 94.664,262.660 92.143,257.600 89.626 C 252.540 87.109,246.960 84.580,245.200 84.006 C 243.440 83.432,240.746 82.116,239.214 81.081 C 237.682 80.046,236.156 79.200,235.824 79.200 C 234.794 79.200,218.218 69.628,210.372 64.504 C 205.354 61.226,201.031 60.316,196.247 61.530 M208.000 66.736 C 216.239 72.082,220.740 74.753,228.400 78.845 C 230.600 80.021,232.940 81.453,233.600 82.028 C 234.260 82.603,236.714 83.826,239.053 84.746 C 241.392 85.666,247.692 88.532,253.053 91.115 C 258.414 93.698,267.120 97.480,272.400 99.519 C 277.680 101.558,283.877 103.970,286.172 104.878 C 290.255 106.495,303.004 109.586,320.228 113.135 C 325.291 114.179,329.423 115.480,330.228 116.285 C 331.875 117.931,332.791 221.369,331.261 232.943 C 329.319 247.641,321.757 268.179,314.834 277.555 C 313.715 279.071,312.800 280.718,312.800 281.216 C 312.800 281.714,311.863 282.994,310.718 284.061 C 309.573 285.127,306.476 288.700,303.837 292.000 C 301.197 295.300,296.284 300.474,292.919 303.499 C 289.553 306.523,284.782 310.843,282.315 313.099 C 278.040 317.008,274.676 319.435,262.000 327.750 C 258.920 329.770,255.680 332.040,254.800 332.794 C 252.149 335.065,231.341 346.829,211.632 357.199 C 199.290 363.693,199.452 363.714,181.600 353.181 C 178.740 351.494,174.600 349.235,172.400 348.161 C 143.139 333.883,93.659 294.202,85.729 278.654 C 84.791 276.814,83.687 275.101,83.277 274.847 C 80.383 273.059,69.524 248.544,67.963 240.276 C 66.942 234.868,65.901 130.920,66.785 122.664 C 67.503 115.956,68.651 114.839,76.113 113.585 C 79.351 113.040,83.620 112.091,85.600 111.474 C 87.580 110.858,93.340 109.482,98.400 108.417 C 103.460 107.352,111.380 105.064,116.000 103.332 C 120.620 101.600,127.280 99.098,130.800 97.772 C 134.320 96.445,141.160 93.495,146.000 91.215 C 150.840 88.936,156.780 86.329,159.200 85.422 C 161.620 84.516,164.549 83.109,165.708 82.298 C 166.868 81.486,169.388 80.098,171.308 79.213 C 173.229 78.327,177.500 76.013,180.800 74.070 C 201.522 61.869,200.799 62.064,208.000 66.736 M154.274 126.380 C 147.138 128.536,145.733 130.627,135.966 153.623 L 128.400 171.439 123.620 174.934 C 113.486 182.344,112.810 184.743,112.804 213.343 C 112.799 239.394,112.518 238.392,119.857 238.412 C 126.211 238.429,126.205 238.421,126.522 248.128 C 126.854 258.303,128.612 261.414,135.578 264.151 C 145.954 268.226,153.404 261.172,154.326 246.400 L 154.800 238.800 199.200 238.800 L 243.600 238.800 244.000 247.200 C 244.669 261.244,251.962 268.332,261.743 264.446 C 269.162 261.498,270.692 258.772,271.200 247.600 L 271.600 238.800 277.600 238.372 C 286.310 237.751,285.600 239.996,285.600 213.067 L 285.600 189.429 283.251 184.506 C 280.965 179.718,279.357 178.119,272.062 173.379 C 269.804 171.912,268.630 169.947,265.363 162.165 C 263.185 156.976,261.217 152.916,260.990 153.143 C 260.550 153.583,267.723 170.874,269.085 172.658 C 269.529 173.241,271.310 174.440,273.042 175.323 C 283.343 180.579,284.800 185.354,284.800 213.864 C 284.800 238.643,285.159 237.600,276.623 237.600 C 270.335 237.600,270.400 237.500,270.400 247.238 C 270.400 257.488,267.459 262.228,260.200 263.680 C 250.690 265.582,244.800 259.114,244.800 246.768 C 244.800 243.117,244.581 239.561,244.314 238.865 C 243.663 237.167,155.156 236.908,153.787 238.600 C 153.342 239.150,152.835 243.280,152.661 247.778 C 152.162 260.695,145.731 266.483,135.677 263.062 C 129.630 261.005,127.663 257.260,127.200 246.927 L 126.800 238.000 121.565 237.549 C 113.816 236.882,114.400 238.941,114.400 212.309 C 114.400 183.537,115.020 181.479,125.723 174.722 C 128.932 172.697,130.384 170.323,133.993 161.200 C 135.211 158.120,137.061 153.733,138.104 151.451 C 139.147 149.169,140.000 147.125,140.000 146.907 C 140.000 146.690,141.080 144.178,142.400 141.326 C 143.720 138.475,144.800 135.820,144.800 135.428 C 144.800 134.591,149.135 130.419,151.978 128.521 C 153.760 127.331,158.445 127.203,199.178 127.227 L 244.400 127.253 247.593 129.460 C 250.696 131.605,253.195 135.653,257.101 144.861 C 259.625 150.809,260.254 152.013,260.639 151.627 C 260.988 151.279,259.267 146.919,257.543 143.782 C 257.115 143.002,256.037 140.420,255.147 138.043 C 253.151 132.707,248.341 127.592,244.251 126.456 C 240.635 125.452,157.579 125.381,154.274 126.380 M157.833 136.813 C 155.776 137.641,153.770 141.418,148.069 155.200 C 145.794 160.700,143.386 166.426,142.720 167.925 C 140.467 172.987,137.960 172.764,197.612 172.800 C 227.306 172.818,252.371 172.825,253.314 172.816 C 256.463 172.786,256.132 169.067,252.375 162.277 C 251.729 161.109,251.200 159.760,251.200 159.279 C 251.200 158.798,250.165 156.153,248.899 153.402 C 247.634 150.651,245.752 146.291,244.717 143.714 C 241.383 135.415,244.809 135.993,199.292 136.051 C 177.461 136.079,158.805 136.422,157.833 136.813 M240.989 139.000 C 241.670 139.770,244.271 145.260,246.769 151.200 C 249.267 157.140,251.844 163.260,252.495 164.800 C 253.145 166.340,254.016 168.219,254.431 168.976 C 254.997 170.011,254.802 170.557,253.644 171.176 C 251.099 172.539,145.240 172.294,144.102 170.923 C 143.301 169.958,151.353 148.136,153.594 145.200 C 153.929 144.760,154.471 143.500,154.797 142.400 C 156.301 137.323,153.761 137.600,198.800 137.600 C 236.797 137.600,239.841 137.701,240.989 139.000 M134.733 186.628 C 121.156 194.544,125.350 213.600,140.670 213.600 C 155.722 213.600,160.889 194.765,147.891 187.276 C 144.588 185.373,137.486 185.024,134.733 186.628 M247.862 188.235 C 234.255 198.592,247.786 221.214,262.228 212.252 C 275.576 203.969,271.284 185.600,256.000 185.600 C 251.946 185.600,250.864 185.950,247.862 188.235 M147.540 188.213 C 153.764 191.755,155.917 199.273,152.540 205.674 C 147.280 215.645,132.775 214.994,128.429 204.594 C 123.577 192.980,136.481 181.920,147.540 188.213 M262.232 187.945 C 271.522 192.782,271.413 206.641,262.050 211.250 C 254.143 215.141,245.655 211.320,243.306 202.813 C 240.266 191.805,251.977 182.606,262.232 187.945 " stroke="none" fill="#7ac0e8" fill-rule="evenodd"></path><path id="path4" d="M199.195 33.880 C 197.652 34.429,194.959 35.850,193.209 37.039 C 191.460 38.227,189.743 39.200,189.395 39.200 C 188.745 39.200,183.381 42.767,178.400 46.512 C 176.860 47.670,173.980 49.427,172.000 50.416 C 170.020 51.405,168.220 52.489,168.000 52.823 C 167.588 53.450,163.765 55.498,155.533 59.502 C 142.728 65.732,137.812 68.000,137.117 68.000 C 136.698 68.000,135.471 68.630,134.388 69.400 C 130.511 72.159,98.500 83.585,92.770 84.256 C 90.333 84.541,86.064 85.699,83.283 86.829 C 78.874 88.620,76.370 88.982,63.714 89.659 C 36.474 91.114,39.171 83.339,39.127 160.559 C 39.088 230.267,39.968 246.495,44.225 254.581 C 45.215 256.461,46.519 259.980,47.122 262.400 C 47.726 264.820,48.902 267.773,49.737 268.961 C 50.571 270.150,52.109 273.055,53.153 275.418 C 54.198 277.780,56.796 282.129,58.926 285.083 C 61.057 288.037,63.957 292.294,65.371 294.543 C 66.785 296.792,70.193 301.010,72.943 303.916 C 75.694 306.822,79.937 311.384,82.372 314.052 C 86.478 318.552,91.014 322.744,97.695 328.214 C 105.049 334.235,114.914 341.815,116.368 342.562 C 117.266 343.023,118.823 344.150,119.829 345.066 C 120.834 345.983,123.215 347.648,125.120 348.766 C 131.021 352.231,136.057 355.507,138.958 357.768 C 140.488 358.961,142.494 360.176,143.415 360.468 C 144.336 360.761,146.518 362.035,148.265 363.300 C 150.011 364.565,151.780 365.600,152.197 365.600 C 152.613 365.600,154.084 366.410,155.467 367.400 C 156.850 368.390,160.146 370.361,162.791 371.779 C 165.436 373.198,170.054 375.718,173.053 377.379 C 176.052 379.041,179.832 381.134,181.453 382.031 C 183.074 382.928,187.017 385.223,190.215 387.131 C 199.032 392.391,201.697 392.423,209.191 387.361 C 212.486 385.135,215.996 383.067,216.991 382.766 C 217.986 382.464,219.937 381.530,221.326 380.689 C 222.716 379.848,225.776 378.158,228.126 376.932 C 244.118 368.591,258.464 360.454,263.198 357.041 C 264.297 356.248,266.547 354.988,268.198 354.239 C 269.849 353.491,271.200 352.574,271.200 352.203 C 271.200 351.831,273.540 350.327,276.400 348.861 C 279.260 347.394,281.600 345.884,281.600 345.507 C 281.600 345.129,282.950 343.905,284.600 342.787 C 289.940 339.167,293.150 336.838,295.600 334.805 C 314.732 318.924,324.523 308.999,332.555 297.346 C 333.520 295.946,335.009 293.892,335.864 292.783 C 340.259 287.081,344.683 279.970,345.584 277.160 C 346.142 275.422,347.470 272.832,348.537 271.404 C 349.668 269.889,351.461 265.057,352.842 259.804 C 354.144 254.852,355.727 248.907,356.361 246.593 C 359.448 235.323,360.000 222.000,360.000 158.815 L 360.000 97.837 358.172 95.118 C 355.842 91.652,352.463 90.504,344.400 90.438 C 333.030 90.346,320.210 88.875,315.799 87.157 C 313.490 86.258,308.659 84.992,305.064 84.345 C 301.468 83.698,296.608 82.322,294.264 81.287 C 291.919 80.253,288.740 79.135,287.200 78.804 C 285.660 78.473,282.420 77.216,280.000 76.011 C 277.580 74.806,274.160 73.368,272.400 72.815 C 270.640 72.262,267.400 70.813,265.200 69.594 C 263.000 68.376,260.353 67.123,259.318 66.809 C 258.282 66.496,256.194 65.398,254.678 64.369 C 253.162 63.340,250.709 62.098,249.226 61.609 C 246.377 60.668,235.646 54.832,231.600 52.022 C 230.280 51.106,227.940 49.528,226.400 48.515 C 215.569 41.396,209.674 37.388,207.600 35.733 C 204.320 33.116,202.485 32.711,199.195 33.880 M207.091 39.400 C 209.243 40.830,216.392 45.615,222.977 50.034 C 242.003 62.801,280.924 81.428,297.200 85.555 C 300.720 86.448,305.940 87.904,308.800 88.791 C 315.380 90.831,325.915 92.502,341.172 93.924 C 352.485 94.978,353.245 95.157,354.972 97.164 L 356.800 99.289 356.785 159.045 C 356.769 224.089,356.819 223.170,351.913 248.400 C 350.437 255.988,348.643 262.741,347.506 264.984 C 346.452 267.065,344.907 270.485,344.072 272.584 C 335.273 294.715,297.555 334.016,272.000 347.679 C 270.020 348.738,267.500 350.272,266.400 351.088 C 265.300 351.904,261.880 354.129,258.800 356.032 C 245.723 364.112,238.560 368.217,235.200 369.560 C 233.660 370.176,231.500 371.283,230.400 372.020 C 229.300 372.757,224.214 375.555,219.098 378.236 C 213.981 380.918,208.103 384.184,206.036 385.495 C 201.277 388.513,198.321 388.190,191.420 383.898 C 188.680 382.194,186.121 380.800,185.731 380.800 C 185.342 380.800,183.677 379.887,182.032 378.770 C 180.387 377.654,175.281 374.769,170.686 372.359 C 166.091 369.949,160.996 367.132,159.365 366.100 C 154.600 363.083,151.064 361.001,146.945 358.788 C 144.824 357.649,140.626 354.959,137.615 352.810 C 134.603 350.662,130.689 348.164,128.916 347.259 C 124.262 344.885,106.735 331.688,94.307 321.200 C 87.522 315.474,68.998 294.681,66.741 290.257 C 65.690 288.198,64.459 286.284,64.006 286.004 C 58.891 282.843,47.721 257.164,44.342 240.800 C 41.542 227.237,41.415 101.642,44.198 97.396 C 45.962 94.703,49.144 93.894,60.400 93.275 C 71.171 92.683,82.130 90.961,88.006 88.937 C 90.429 88.103,96.009 86.606,100.406 85.610 C 104.803 84.615,109.660 83.165,111.200 82.389 C 112.740 81.612,115.826 80.435,118.059 79.773 C 120.291 79.112,123.891 77.683,126.059 76.600 C 128.226 75.516,131.020 74.383,132.266 74.083 C 133.513 73.782,135.984 72.620,137.758 71.500 C 139.532 70.381,142.378 68.972,144.084 68.370 C 145.789 67.769,148.718 66.397,150.592 65.321 C 152.467 64.246,154.900 63.105,156.000 62.785 C 157.100 62.465,159.980 61.037,162.400 59.613 C 164.820 58.188,169.500 55.472,172.800 53.578 C 176.100 51.685,179.700 49.459,180.800 48.633 C 195.655 37.475,201.241 35.513,207.091 39.400 M199.600 64.014 C 197.298 64.536,193.962 66.320,180.800 74.070 C 177.500 76.013,173.229 78.327,171.308 79.213 C 169.388 80.098,166.868 81.486,165.708 82.298 C 164.549 83.109,161.620 84.516,159.200 85.422 C 156.780 86.329,150.840 88.936,146.000 91.215 C 141.160 93.495,134.320 96.445,130.800 97.772 C 127.280 99.098,120.620 101.600,116.000 103.332 C 111.380 105.064,103.460 107.352,98.400 108.417 C 93.340 109.482,87.580 110.858,85.600 111.474 C 83.620 112.091,79.351 113.040,76.113 113.585 C 68.651 114.839,67.503 115.956,66.785 122.664 C 65.901 130.920,66.942 234.868,67.963 240.276 C 69.524 248.544,80.383 273.059,83.277 274.847 C 83.687 275.101,84.791 276.814,85.729 278.654 C 93.659 294.202,143.139 333.883,172.400 348.161 C 174.600 349.235,178.740 351.494,181.600 353.181 C 199.452 363.714,199.290 363.693,211.632 357.199 C 231.341 346.829,252.149 335.065,254.800 332.794 C 255.680 332.040,258.920 329.770,262.000 327.750 C 274.676 319.435,278.040 317.008,282.315 313.099 C 284.782 310.843,289.553 306.523,292.919 303.499 C 296.284 300.474,301.197 295.300,303.837 292.000 C 306.476 288.700,309.573 285.127,310.718 284.061 C 311.863 282.994,312.800 281.714,312.800 281.216 C 312.800 280.718,313.715 279.071,314.834 277.555 C 321.757 268.179,329.319 247.641,331.261 232.943 C 332.791 221.369,331.875 117.931,330.228 116.285 C 329.423 115.480,325.291 114.179,320.228 113.135 C 303.004 109.586,290.255 106.495,286.172 104.878 C 283.877 103.970,277.680 101.558,272.400 99.519 C 267.120 97.480,258.414 93.698,253.053 91.115 C 247.692 88.532,241.392 85.666,239.053 84.746 C 236.714 83.826,234.260 82.603,233.600 82.028 C 232.940 81.453,230.600 80.021,228.400 78.845 C 220.740 74.753,216.239 72.082,208.000 66.736 C 203.219 63.634,202.420 63.375,199.600 64.014 M206.196 69.331 C 208.591 70.503,210.723 71.910,210.933 72.457 C 211.143 73.005,212.459 73.911,213.857 74.471 C 215.256 75.030,217.848 76.464,219.618 77.657 C 221.388 78.850,224.263 80.423,226.007 81.151 C 227.751 81.880,229.913 83.167,230.812 84.011 C 231.710 84.855,233.976 86.086,235.846 86.746 C 237.716 87.406,244.366 90.439,250.623 93.487 C 256.881 96.535,263.166 99.275,264.591 99.576 C 266.016 99.877,267.390 100.461,267.646 100.874 C 268.285 101.908,272.587 103.634,276.225 104.315 C 277.888 104.627,280.521 105.745,282.075 106.799 C 283.630 107.854,286.588 108.935,288.651 109.201 C 290.713 109.467,295.640 110.717,299.600 111.980 C 303.560 113.243,309.860 114.685,313.600 115.186 C 324.114 116.595,326.216 117.324,327.626 120.051 C 329.808 124.270,328.965 228.627,326.683 236.800 C 325.761 240.100,324.403 246.040,323.664 250.000 C 322.871 254.244,321.566 258.350,320.485 260.000 C 319.476 261.540,318.189 264.240,317.626 266.000 C 317.064 267.760,315.968 269.920,315.192 270.800 C 314.416 271.680,313.004 273.946,312.056 275.836 C 311.107 277.726,309.086 280.650,307.565 282.333 C 306.044 284.017,304.800 285.587,304.800 285.823 C 304.800 287.024,293.002 299.259,284.800 306.564 C 275.799 314.580,264.359 323.200,262.719 323.200 C 262.212 323.200,261.328 323.764,260.756 324.453 C 258.809 326.799,245.525 335.217,237.200 339.380 C 235.440 340.260,232.920 341.779,231.600 342.756 C 230.280 343.733,227.220 345.476,224.800 346.630 C 222.380 347.783,217.880 350.183,214.800 351.963 C 201.970 359.378,198.509 359.715,190.074 354.366 C 188.023 353.064,186.067 352.000,185.728 352.000 C 185.388 352.000,183.871 351.062,182.355 349.916 C 180.840 348.770,177.440 346.784,174.800 345.502 C 172.160 344.220,167.840 341.863,165.200 340.265 C 162.560 338.667,158.174 336.063,155.454 334.480 C 149.172 330.823,132.887 319.724,124.310 313.254 C 120.961 310.728,118.140 308.261,114.052 304.284 C 112.630 302.901,109.110 299.661,106.230 297.084 C 98.964 290.586,88.929 278.832,87.199 274.797 C 86.405 272.946,85.221 271.226,84.567 270.975 C 83.913 270.724,82.738 268.782,81.955 266.659 C 81.173 264.537,79.915 262.080,79.159 261.200 C 75.178 256.567,70.968 238.685,70.306 223.600 C 69.574 206.922,69.448 124.958,70.149 121.453 C 70.834 118.029,72.972 117.022,83.229 115.296 C 88.273 114.447,94.560 113.027,97.200 112.141 C 99.840 111.256,104.303 110.116,107.117 109.609 C 109.932 109.102,114.467 107.632,117.195 106.343 C 119.923 105.055,122.869 104.000,123.742 104.000 C 124.615 104.000,127.100 103.077,129.264 101.949 C 131.429 100.820,135.000 99.350,137.200 98.680 C 139.400 98.011,142.038 96.928,143.062 96.272 C 144.087 95.617,147.301 94.187,150.204 93.094 C 153.108 92.001,156.410 90.472,157.542 89.697 C 158.674 88.921,161.400 87.633,163.600 86.834 C 165.800 86.035,168.140 84.925,168.800 84.368 C 169.460 83.810,172.234 82.278,174.965 80.963 C 177.696 79.647,180.894 77.813,182.073 76.886 C 183.251 75.959,184.653 75.200,185.188 75.200 C 185.723 75.200,187.744 74.052,189.680 72.648 C 192.835 70.361,199.232 67.336,201.120 67.237 C 201.516 67.217,203.800 68.159,206.196 69.331 M153.170 125.273 C 146.910 127.496,144.097 130.728,140.005 140.400 C 139.074 142.600,137.992 145.120,137.599 146.000 C 137.207 146.880,136.107 149.580,135.155 152.000 C 133.134 157.140,131.388 161.151,129.879 164.123 C 129.285 165.291,128.800 166.765,128.800 167.399 C 128.800 169.008,125.756 172.207,122.200 174.335 C 112.516 180.130,111.197 184.822,111.212 213.428 C 111.226 239.921,110.869 238.639,118.353 239.061 L 124.000 239.381 124.000 245.148 C 124.000 258.597,131.130 267.225,141.428 266.236 C 150.694 265.345,155.200 259.131,155.200 247.242 L 155.200 239.200 199.200 239.200 L 243.200 239.200 243.200 247.628 C 243.200 258.020,244.828 261.273,251.934 265.081 C 255.016 266.733,263.259 266.622,263.826 264.921 C 263.995 264.414,264.573 264.000,265.110 264.000 C 269.317 264.000,272.748 255.680,272.780 245.400 L 272.800 239.200 278.640 239.200 C 286.928 239.200,286.400 241.017,286.400 212.493 C 286.400 187.033,285.599 180.800,282.329 180.800 C 281.928 180.800,281.600 180.310,281.600 179.712 C 281.600 179.114,280.660 177.944,279.511 177.112 C 278.363 176.280,276.948 175.150,276.368 174.600 C 275.789 174.050,274.916 173.600,274.430 173.600 C 273.176 173.600,268.800 168.965,268.800 167.637 C 268.800 167.028,268.304 165.510,267.698 164.265 C 267.092 163.019,265.980 160.560,265.228 158.800 C 264.476 157.040,263.352 154.581,262.731 153.335 C 262.109 152.090,261.600 150.740,261.600 150.337 C 261.600 149.664,259.247 144.265,255.002 135.200 C 252.776 130.448,249.226 127.033,244.773 125.361 C 239.748 123.475,158.455 123.397,153.170 125.273 M244.251 126.456 C 248.341 127.592,253.151 132.707,255.147 138.043 C 256.037 140.420,257.115 143.002,257.543 143.782 C 257.972 144.562,258.845 146.460,259.484 148.000 C 268.892 170.681,269.347 171.597,272.076 173.379 C 279.400 178.161,280.967 179.722,283.251 184.506 L 285.600 189.429 285.600 213.067 C 285.600 239.996,286.310 237.751,277.600 238.372 L 271.600 238.800 271.200 247.600 C 270.692 258.772,269.162 261.498,261.743 264.446 C 251.962 268.332,244.669 261.244,244.000 247.200 L 243.600 238.800 199.200 238.800 L 154.800 238.800 154.326 246.400 C 153.404 261.172,145.954 268.226,135.578 264.151 C 128.612 261.414,126.854 258.303,126.522 248.128 C 126.205 238.421,126.211 238.429,119.857 238.412 C 112.518 238.392,112.799 239.394,112.804 213.343 C 112.810 184.743,113.486 182.344,123.620 174.934 L 128.400 171.439 135.966 153.623 C 145.733 130.627,147.138 128.536,154.274 126.380 C 157.579 125.381,240.635 125.452,244.251 126.456 M156.619 139.000 C 155.942 139.770,155.123 141.300,154.797 142.400 C 154.471 143.500,153.929 144.760,153.594 145.200 C 151.353 148.136,143.301 169.958,144.102 170.923 C 145.240 172.294,251.099 172.539,253.644 171.176 C 254.802 170.557,254.997 170.011,254.431 168.976 C 254.016 168.219,253.145 166.340,252.495 164.800 C 251.844 163.260,249.267 157.140,246.769 151.200 C 244.271 145.260,241.670 139.770,240.989 139.000 C 239.841 137.701,236.797 137.600,198.800 137.600 C 160.800 137.600,157.759 137.701,156.619 139.000 M241.222 141.600 C 241.838 142.700,243.097 145.400,244.020 147.600 C 246.076 152.504,247.843 156.475,249.298 159.465 C 249.904 160.710,250.400 162.376,250.400 163.167 C 250.400 163.957,250.900 165.019,251.511 165.526 C 252.123 166.034,252.793 167.338,253.000 168.424 L 253.378 170.400 199.089 170.400 C 169.230 170.400,144.800 170.113,144.800 169.761 C 144.800 168.749,156.820 141.340,157.761 140.206 C 158.431 139.398,167.096 139.229,199.354 139.393 L 240.101 139.600 241.222 141.600 M133.482 188.703 C 122.234 195.836,127.513 212.838,140.960 212.787 C 145.778 212.768,150.245 210.025,152.540 205.674 C 158.955 193.514,145.205 181.269,133.482 188.703 M248.993 188.246 C 238.114 195.564,242.748 212.633,255.650 212.766 C 269.440 212.909,274.382 194.271,262.232 187.945 C 258.187 185.839,252.374 185.971,248.993 188.246 M145.688 188.600 C 152.439 192.210,154.774 198.663,151.570 204.857 C 144.895 217.767,125.177 209.961,129.508 196.123 C 131.789 188.835,139.459 185.269,145.688 188.600 M260.000 187.985 C 260.000 188.416,260.852 188.983,261.894 189.245 C 268.206 190.829,270.022 202.651,264.745 207.810 C 254.099 218.218,237.658 204.838,246.109 192.643 C 247.269 190.969,248.665 189.600,249.211 189.600 C 249.757 189.600,250.652 189.060,251.200 188.400 C 252.322 187.048,260.000 186.685,260.000 187.985 " stroke="none" fill="#b4dbf1" fill-rule="evenodd"></path></g></svg>