<svg id="svg" version="1.1" width="500" height="562" xmlns="http://www.w3.org/2000/svg" xmlns:xlink="http://www.w3.org/1999/xlink" style="display: block;"><g id="svgg"><path id="path0" d="M0.000 224.800 L 0.000 449.600 200.000 449.600 L 400.000 449.600 400.000 224.800 L 400.000 0.000 200.000 0.000 L 0.000 0.000 0.000 224.800 M207.475 38.200 C 208.861 38.970,210.357 39.994,210.798 40.476 C 211.239 40.958,212.860 42.184,214.400 43.200 C 215.940 44.216,217.560 45.473,218.000 45.993 C 218.440 46.513,220.240 47.909,222.000 49.097 C 223.760 50.284,227.360 52.860,230.000 54.821 C 232.640 56.782,235.700 58.823,236.800 59.358 C 237.900 59.892,240.124 61.345,241.742 62.586 C 243.360 63.827,245.880 65.243,247.342 65.732 C 248.804 66.221,251.080 67.407,252.400 68.367 C 253.720 69.327,256.481 70.916,258.535 71.897 C 260.590 72.877,262.704 74.202,263.233 74.840 C 263.763 75.478,264.680 76.000,265.271 76.000 C 266.486 76.000,271.782 78.291,273.600 79.603 C 274.260 80.079,276.240 80.948,278.000 81.533 C 279.760 82.118,283.000 83.410,285.200 84.403 C 298.168 90.258,323.084 96.700,336.400 97.641 C 354.028 98.887,355.947 99.603,357.597 105.541 C 358.664 109.381,358.661 236.553,357.594 249.684 C 356.762 259.919,355.189 269.808,353.726 274.000 C 353.265 275.320,352.281 279.460,351.540 283.200 C 350.799 286.940,349.576 290.900,348.824 292.000 C 348.071 293.100,346.820 295.980,346.043 298.400 C 345.266 300.820,343.838 304.060,342.871 305.600 C 341.904 307.140,340.492 309.735,339.735 311.366 C 338.977 312.997,338.041 314.527,337.655 314.766 C 337.269 315.005,335.835 317.180,334.470 319.600 C 333.104 322.020,331.654 324.000,331.247 324.000 C 330.840 324.000,330.282 324.710,330.007 325.578 C 328.389 330.675,307.649 353.525,294.405 364.800 C 292.080 366.780,287.369 370.830,283.938 373.800 C 280.507 376.770,277.345 379.200,276.911 379.200 C 276.478 379.200,275.105 380.049,273.861 381.087 C 272.618 382.126,270.411 383.585,268.957 384.330 C 267.503 385.076,265.435 386.449,264.362 387.383 C 263.289 388.316,261.198 389.827,259.715 390.740 C 258.233 391.653,254.901 393.809,252.310 395.530 C 240.618 403.300,237.865 405.052,234.447 406.897 C 232.441 407.980,228.460 410.302,225.600 412.056 C 222.740 413.810,218.510 416.162,216.200 417.281 C 213.890 418.401,212.000 419.601,212.000 419.947 C 212.000 420.294,209.866 421.715,207.257 423.105 C 201.197 426.335,194.810 425.206,188.400 419.773 C 187.960 419.400,185.800 418.036,183.600 416.743 C 181.400 415.449,178.883 413.943,178.007 413.395 C 174.200 411.016,167.940 407.188,162.000 403.608 C 158.480 401.486,154.880 399.127,154.000 398.365 C 153.120 397.604,150.960 396.244,149.200 395.344 C 147.440 394.445,145.026 392.784,143.835 391.654 C 142.644 390.524,141.384 389.593,141.035 389.585 C 140.686 389.576,138.964 388.316,137.209 386.785 C 135.454 385.253,133.650 384.000,133.201 384.000 C 132.751 384.000,131.487 383.179,130.392 382.176 C 129.296 381.173,126.732 379.383,124.694 378.198 C 122.655 377.012,120.777 375.493,120.519 374.821 C 120.261 374.150,119.531 373.600,118.896 373.600 C 118.262 373.600,116.833 372.520,115.723 371.200 C 114.612 369.880,113.357 368.800,112.935 368.800 C 112.512 368.800,111.059 367.540,109.707 366.000 C 108.355 364.460,107.033 363.200,106.769 363.200 C 104.936 363.200,81.600 339.046,81.600 337.149 C 81.600 336.870,80.610 335.662,79.400 334.464 C 75.042 330.149,68.038 320.688,65.342 315.474 C 64.624 314.087,63.531 312.445,62.911 311.826 C 62.292 311.206,60.977 309.102,59.988 307.150 C 59.000 305.197,57.594 302.700,56.865 301.600 C 56.135 300.500,54.861 297.620,54.034 295.200 C 53.207 292.780,52.088 290.080,51.548 289.200 C 44.089 277.054,43.029 263.218,43.070 178.557 C 43.113 90.972,41.190 98.861,62.800 97.621 C 74.521 96.948,80.434 95.788,92.400 91.812 C 96.360 90.496,101.580 88.903,104.000 88.271 C 106.420 87.638,110.200 86.279,112.400 85.249 C 114.600 84.219,118.560 82.729,121.200 81.937 C 123.840 81.144,126.540 80.100,127.200 79.617 C 128.987 78.306,134.299 76.000,135.529 76.000 C 136.120 76.000,137.048 75.466,137.590 74.812 C 138.132 74.159,140.246 72.809,142.288 71.812 C 144.329 70.816,147.188 69.212,148.639 68.249 C 150.091 67.286,152.611 66.065,154.239 65.536 C 155.868 65.007,158.512 63.545,160.115 62.287 C 161.718 61.029,163.264 60.000,163.550 60.000 C 164.814 60.000,176.994 51.753,182.748 47.000 C 184.213 45.790,185.758 44.800,186.182 44.800 C 186.605 44.800,187.604 44.080,188.400 43.200 C 189.196 42.320,190.332 41.600,190.924 41.600 C 191.516 41.600,192.000 41.249,192.000 40.819 C 192.000 37.661,203.116 35.780,207.475 38.200 M199.200 75.158 C 198.100 75.499,194.874 77.358,192.032 79.289 C 186.836 82.819,183.618 84.657,174.442 89.335 C 171.708 90.729,168.870 92.410,168.135 93.071 C 167.401 93.733,164.823 95.051,162.408 96.001 C 159.992 96.951,157.832 97.969,157.608 98.264 C 156.812 99.311,152.361 101.424,149.800 101.971 C 148.370 102.277,147.200 102.878,147.200 103.308 C 147.200 103.737,145.130 105.011,142.600 106.139 C 140.070 107.267,135.872 109.227,133.272 110.495 C 130.672 111.763,127.972 112.801,127.272 112.802 C 126.572 112.803,124.020 113.835,121.600 115.096 C 119.180 116.357,115.220 117.851,112.800 118.416 C 110.380 118.981,106.960 120.056,105.200 120.806 C 103.440 121.555,97.320 123.339,91.600 124.770 C 77.487 128.301,75.418 129.417,74.888 133.791 C 73.309 146.812,74.136 249.657,75.889 258.400 C 77.704 267.449,81.220 279.168,83.091 282.400 C 83.473 283.060,84.739 285.580,85.904 288.000 C 89.833 296.157,97.310 309.324,99.305 311.600 C 100.076 312.480,102.675 315.540,105.079 318.400 C 109.783 323.994,121.351 335.363,127.200 340.141 C 132.742 344.667,137.195 348.203,140.119 350.400 C 141.583 351.500,144.225 353.693,145.991 355.274 C 147.756 356.855,152.338 360.200,156.173 362.707 C 160.008 365.214,163.364 367.618,163.630 368.048 C 163.896 368.478,165.798 369.688,167.857 370.736 C 169.915 371.784,172.465 373.397,173.522 374.321 C 174.580 375.244,175.840 376.001,176.322 376.002 C 176.805 376.003,179.319 377.443,181.908 379.202 C 184.497 380.961,187.055 382.400,187.591 382.400 C 188.128 382.400,189.480 383.246,190.596 384.281 C 194.879 388.250,201.621 389.283,206.524 386.721 C 208.436 385.722,212.206 383.788,214.903 382.423 C 217.600 381.057,220.446 379.233,221.227 378.370 C 222.009 377.506,223.137 376.800,223.735 376.800 C 225.132 376.800,227.780 375.280,230.352 373.000 C 231.470 372.010,232.801 371.200,233.311 371.200 C 233.822 371.200,236.156 369.760,238.498 368.000 C 240.840 366.240,242.986 364.800,243.266 364.800 C 243.546 364.800,245.355 363.543,247.287 362.008 C 249.219 360.472,251.190 359.212,251.668 359.208 C 252.145 359.203,253.470 358.210,254.612 357.000 C 255.754 355.790,259.079 353.180,262.001 351.200 C 264.923 349.220,268.638 346.438,270.257 345.019 C 271.875 343.599,273.445 342.429,273.744 342.419 C 275.076 342.373,296.161 320.419,298.653 316.482 C 299.459 315.208,302.131 311.644,304.588 308.564 C 307.046 305.483,309.842 301.486,310.801 299.681 C 316.918 288.167,320.796 279.742,320.818 277.919 C 320.828 277.084,321.987 272.080,323.393 266.800 L 325.949 257.200 326.202 193.835 L 326.455 130.469 324.160 129.283 C 321.800 128.063,302.792 123.200,300.381 123.200 C 299.639 123.200,297.360 122.370,295.316 121.354 C 293.272 120.339,289.456 119.037,286.835 118.460 C 284.214 117.883,280.759 116.584,279.157 115.573 C 277.556 114.562,274.378 113.180,272.095 112.502 C 269.813 111.825,266.964 110.571,265.765 109.718 C 264.566 108.864,262.075 107.759,260.229 107.262 C 258.383 106.765,255.866 105.535,254.636 104.529 C 253.406 103.523,250.642 102.044,248.493 101.243 C 246.344 100.441,243.914 99.114,243.093 98.293 C 242.272 97.472,241.286 96.800,240.902 96.800 C 239.497 96.800,232.983 93.584,232.008 92.409 C 231.456 91.744,230.663 91.200,230.246 91.200 C 229.829 91.200,227.892 90.102,225.941 88.760 C 223.990 87.417,221.046 85.699,219.397 84.940 C 217.749 84.182,213.300 81.500,209.512 78.981 C 205.723 76.461,202.303 74.431,201.912 74.469 C 201.520 74.507,200.300 74.817,199.200 75.158 M168.216 134.839 C 169.434 135.419,172.494 136.318,175.016 136.838 C 179.925 137.850,184.000 139.612,184.000 140.723 C 184.000 141.099,185.134 141.876,186.520 142.450 C 188.683 143.346,191.927 145.941,195.473 149.613 C 195.983 150.140,197.750 151.891,199.400 153.504 C 201.050 155.116,202.413 156.967,202.428 157.618 C 202.447 158.385,202.798 158.196,203.428 157.080 C 204.383 155.390,205.975 153.654,212.452 147.243 C 215.558 144.168,219.788 141.404,225.373 138.801 C 233.278 135.115,257.115 135.093,264.878 138.764 C 272.723 142.473,282.051 148.966,284.259 152.253 C 284.905 153.214,286.157 154.759,287.043 155.687 C 287.928 156.616,289.448 158.956,290.420 160.887 C 291.391 162.819,292.644 164.940,293.203 165.600 C 297.805 171.032,296.969 203.720,291.963 214.098 C 290.663 216.792,289.600 219.411,289.600 219.917 C 289.600 220.424,288.430 222.584,287.000 224.717 C 285.570 226.850,283.684 229.811,282.809 231.298 C 278.808 238.094,277.638 239.786,275.070 242.484 C 273.561 244.070,270.903 245.837,269.163 246.410 C 265.454 247.632,264.289 248.977,263.632 252.800 C 262.983 256.566,260.752 261.600,259.731 261.600 C 259.277 261.600,256.514 264.030,253.591 267.000 C 250.669 269.970,246.505 273.908,244.339 275.751 C 242.172 277.594,238.960 280.383,237.200 281.950 C 235.440 283.517,233.739 284.799,233.419 284.799 C 233.100 284.800,231.692 286.060,230.291 287.600 C 228.889 289.140,227.285 290.400,226.726 290.400 C 226.167 290.400,224.940 291.480,224.000 292.800 C 223.060 294.120,221.788 295.200,221.172 295.200 C 220.144 295.200,218.606 296.470,211.452 303.228 C 202.750 311.448,193.881 308.741,177.940 293.000 C 176.492 291.570,174.949 290.400,174.512 290.400 C 174.074 290.400,172.957 289.410,172.028 288.200 C 171.100 286.990,169.364 285.438,168.170 284.752 C 166.977 284.065,165.653 282.735,165.229 281.796 C 164.805 280.856,163.666 279.889,162.697 279.646 C 161.728 279.403,160.466 278.142,159.891 276.844 C 159.317 275.547,158.026 274.279,157.023 274.027 C 156.021 273.775,155.200 273.250,155.200 272.859 C 155.200 271.932,144.868 261.600,143.941 261.600 C 143.550 261.600,142.985 260.610,142.686 259.400 C 142.386 258.190,141.525 256.762,140.772 256.226 C 140.019 255.690,139.004 253.668,138.517 251.733 C 137.713 248.539,137.205 248.002,133.016 245.907 C 129.242 244.021,128.035 242.895,126.400 239.735 C 125.300 237.610,123.797 235.537,123.060 235.129 C 122.323 234.721,121.299 233.113,120.785 231.556 C 120.271 229.998,119.037 227.909,118.042 226.914 C 117.047 225.920,115.785 223.237,115.237 220.953 C 114.689 218.669,113.926 216.800,113.541 216.800 C 112.162 216.800,110.522 212.234,109.575 205.757 C 109.045 202.133,107.934 197.839,107.106 196.215 C 104.954 191.996,104.952 179.265,107.102 175.694 C 107.928 174.322,109.062 170.700,109.622 167.644 C 110.307 163.903,111.234 161.493,112.458 160.269 C 113.458 159.269,114.502 157.739,114.778 156.869 C 115.565 154.389,126.138 144.028,129.177 142.758 C 130.681 142.130,132.202 141.124,132.556 140.524 C 133.549 138.842,136.357 137.627,141.397 136.699 C 143.929 136.233,146.455 135.477,147.011 135.019 C 149.615 132.873,163.831 132.752,168.216 134.839 M190.843 203.763 C 190.197 215.446,190.578 218.312,192.560 216.668 C 193.596 215.807,193.697 214.178,193.214 206.082 C 192.388 192.250,191.527 191.407,190.843 203.763 M202.400 255.153 C 202.400 256.939,202.541 258.400,202.712 258.400 C 203.353 258.400,203.665 252.687,203.045 252.304 C 202.690 252.085,202.400 253.367,202.400 255.153 " stroke="none" fill="#fcfcfc" fill-rule="evenodd"></path><path id="path1" d="M147.777 140.746 C 145.234 141.102,142.534 141.950,141.777 142.630 C 141.020 143.310,138.780 144.489,136.800 145.250 C 134.820 146.011,131.925 147.841,130.366 149.317 C 128.808 150.793,126.925 152.000,126.182 152.000 C 125.415 152.000,124.618 152.848,124.339 153.958 C 124.069 155.035,122.970 156.491,121.898 157.193 C 120.826 157.896,119.048 160.525,117.947 163.035 C 116.847 165.546,115.328 168.065,114.573 168.634 C 112.575 170.140,112.488 202.204,114.476 204.516 C 115.998 206.286,118.400 212.250,118.400 214.259 C 118.400 215.043,119.435 217.106,120.699 218.842 C 121.964 220.579,123.272 222.900,123.606 224.000 C 123.940 225.100,125.255 227.324,126.528 228.942 C 127.801 230.560,129.223 232.976,129.688 234.310 C 130.153 235.643,131.228 236.955,132.076 237.224 C 132.924 237.493,134.163 238.768,134.829 240.057 L 136.041 242.400 155.897 242.400 C 173.799 242.400,175.874 242.262,176.996 241.000 C 179.694 237.965,180.901 233.095,181.630 222.307 C 183.711 191.512,188.651 178.231,195.359 185.400 C 199.408 189.727,199.741 191.341,201.182 213.600 C 203.004 241.746,203.547 243.211,212.147 243.189 C 217.891 243.174,219.847 242.547,220.483 240.514 C 224.649 227.198,237.630 223.386,239.997 234.784 C 241.478 241.918,241.558 241.962,253.506 242.263 L 263.944 242.526 267.572 239.494 C 269.568 237.826,271.200 236.001,271.200 235.438 C 271.200 234.875,272.280 233.382,273.600 232.120 C 274.920 230.859,276.000 229.378,276.000 228.829 C 276.000 228.281,277.102 226.199,278.450 224.202 C 279.797 222.206,281.784 218.222,282.865 215.349 C 283.947 212.477,285.176 209.711,285.597 209.203 C 289.971 203.934,289.988 172.667,285.621 167.600 C 284.862 166.720,283.436 164.293,282.452 162.206 C 281.468 160.119,279.614 157.664,278.331 156.751 C 277.049 155.838,276.000 154.567,276.000 153.926 C 276.000 153.285,275.010 152.387,273.800 151.931 C 272.590 151.475,270.520 150.087,269.200 148.846 C 267.880 147.605,265.360 146.138,263.600 145.586 C 261.840 145.033,258.625 143.691,256.455 142.604 C 251.731 140.236,238.926 140.184,235.200 142.518 C 234.100 143.207,231.042 144.424,228.404 145.222 C 225.767 146.019,221.807 148.036,219.604 149.702 C 215.175 153.054,214.956 153.262,210.479 158.400 C 204.904 164.797,203.426 165.236,198.537 161.943 C 196.261 160.411,194.400 158.867,194.400 158.512 C 194.400 157.786,189.779 152.871,185.576 149.126 C 184.049 147.766,181.360 146.198,179.600 145.643 C 177.840 145.087,175.061 143.773,173.425 142.721 C 170.043 140.549,156.589 139.513,147.777 140.746 M190.611 249.139 C 189.278 258.639,184.862 260.994,176.568 256.626 C 170.048 253.192,150.400 253.608,150.400 257.180 C 150.400 258.310,161.979 270.109,170.046 277.200 C 173.050 279.840,176.892 283.260,178.584 284.800 C 180.276 286.340,182.960 288.680,184.549 290.000 C 186.138 291.320,188.680 293.570,190.199 295.000 C 191.718 296.430,193.171 297.600,193.428 297.600 C 193.686 297.600,194.640 298.272,195.548 299.094 C 198.331 301.612,202.714 301.820,204.859 299.537 C 205.860 298.472,207.079 297.600,207.567 297.600 C 208.055 297.600,209.093 296.520,209.873 295.200 C 210.652 293.880,211.731 292.800,212.269 292.800 C 212.807 292.800,214.436 291.540,215.889 290.000 C 217.342 288.460,219.041 287.200,219.665 287.200 C 220.289 287.200,220.800 286.857,220.800 286.438 C 220.800 286.020,222.330 284.597,224.200 283.276 C 226.070 281.956,228.860 279.760,230.400 278.396 C 231.940 277.032,234.754 274.585,236.653 272.958 C 238.552 271.331,242.159 268.020,244.669 265.600 C 247.179 263.180,250.270 260.445,251.538 259.521 L 253.843 257.843 252.121 256.121 C 250.819 254.819,249.427 254.400,246.403 254.400 C 242.671 254.400,233.522 251.871,231.504 250.282 C 230.918 249.821,229.842 250.581,228.398 252.473 C 225.588 256.158,221.511 257.918,217.334 257.250 C 212.031 256.402,209.050 257.923,207.092 262.474 C 205.138 267.015,203.173 267.925,198.402 266.495 C 194.621 265.362,193.853 263.455,193.109 253.353 C 192.343 242.933,191.647 241.759,190.611 249.139 " stroke="none" fill="#0465a3" fill-rule="evenodd"></path><path id="path2" d="M199.111 46.370 C 197.963 46.717,193.934 49.387,190.158 52.301 C 186.382 55.215,183.049 57.600,182.752 57.600 C 182.455 57.600,180.981 58.680,179.478 60.000 C 177.974 61.320,176.350 62.400,175.868 62.400 C 175.386 62.400,173.237 63.660,171.094 65.200 C 168.950 66.740,166.891 68.000,166.518 68.000 C 166.145 68.000,164.436 69.007,162.720 70.237 C 161.004 71.468,158.340 72.966,156.800 73.565 C 155.260 74.165,152.920 75.408,151.600 76.328 C 150.280 77.248,147.760 78.702,146.000 79.560 C 144.240 80.419,142.260 81.563,141.600 82.102 C 140.940 82.642,138.600 83.690,136.400 84.431 C 134.200 85.172,130.214 86.795,127.542 88.038 C 124.871 89.281,121.631 90.549,120.342 90.856 C 119.054 91.164,117.460 91.875,116.800 92.437 C 116.140 92.999,112.720 94.248,109.200 95.211 C 105.680 96.175,100.280 97.966,97.200 99.191 C 94.120 100.417,89.620 101.680,87.200 101.998 C 84.780 102.317,81.638 103.056,80.217 103.641 C 77.945 104.576,72.018 105.408,57.016 106.896 C 52.977 107.297,52.806 107.413,52.088 110.256 C 50.234 117.601,50.791 252.539,52.713 261.600 C 55.058 272.653,58.474 284.205,60.683 288.555 C 62.068 291.280,63.200 294.229,63.200 295.108 C 63.200 295.987,63.503 296.893,63.874 297.122 C 64.508 297.514,71.072 308.131,73.512 312.712 C 74.988 315.481,79.715 322.100,82.757 325.657 C 88.413 332.270,89.319 333.387,92.119 337.200 C 97.155 344.057,100.311 347.690,102.782 349.472 C 104.930 351.022,111.015 356.305,118.132 362.800 C 119.579 364.120,122.400 366.460,124.402 368.000 C 126.404 369.540,129.202 371.740,130.621 372.889 C 132.039 374.038,134.423 375.605,135.918 376.371 C 137.413 377.136,139.499 378.626,140.554 379.681 C 141.609 380.737,142.863 381.600,143.339 381.600 C 143.816 381.600,145.566 382.770,147.229 384.200 C 148.891 385.630,152.653 388.240,155.588 390.000 C 158.523 391.760,162.023 394.081,163.365 395.158 C 164.707 396.234,167.469 397.955,169.503 398.982 C 171.536 400.009,175.392 402.188,178.070 403.824 C 180.749 405.461,184.121 407.520,185.563 408.400 C 187.006 409.280,190.215 411.349,192.693 412.998 C 198.734 417.016,202.275 417.063,207.891 413.200 C 210.130 411.660,212.240 410.398,212.581 410.397 C 212.921 410.395,214.820 409.295,216.800 407.954 C 222.384 404.169,234.358 397.621,235.714 397.608 C 236.217 397.604,236.830 397.076,237.075 396.436 C 237.321 395.796,238.890 394.574,240.561 393.719 C 244.027 391.949,250.858 387.563,255.678 384.014 C 257.481 382.686,259.337 381.600,259.803 381.600 C 260.268 381.600,262.109 380.430,263.894 379.000 C 265.678 377.570,269.241 375.053,271.810 373.408 C 274.380 371.762,277.188 369.782,278.052 369.008 C 278.915 368.233,282.137 365.527,285.211 362.993 C 288.285 360.460,291.160 358.018,291.600 357.568 C 293.529 355.593,296.369 352.774,302.568 346.679 C 306.215 343.093,310.460 338.618,312.000 336.736 C 313.540 334.854,316.155 331.731,317.811 329.795 C 319.468 327.860,321.321 325.313,321.930 324.136 C 322.538 322.959,323.793 321.311,324.718 320.474 C 325.643 319.637,326.400 318.526,326.400 318.006 C 326.400 317.486,327.840 315.050,329.600 312.592 C 331.360 310.134,332.800 307.859,332.800 307.537 C 332.800 307.215,333.641 305.837,334.668 304.476 C 335.695 303.114,336.752 301.280,337.015 300.400 C 337.911 297.410,339.644 293.207,340.807 291.200 C 343.477 286.594,347.573 265.937,349.531 247.200 C 350.465 238.268,350.806 115.032,349.910 110.551 C 349.285 107.426,348.767 107.257,337.223 106.399 C 331.930 106.006,325.620 105.105,323.200 104.398 C 320.780 103.690,316.130 102.599,312.867 101.974 C 306.476 100.748,302.145 99.495,299.600 98.134 C 298.720 97.663,295.019 96.497,291.377 95.542 C 287.734 94.587,284.105 93.219,283.314 92.503 C 282.522 91.786,281.445 91.200,280.921 91.200 C 280.397 91.200,277.005 89.785,273.384 88.055 C 269.763 86.325,265.720 84.655,264.400 84.345 C 263.080 84.034,261.610 83.474,261.132 83.101 C 260.655 82.729,257.685 80.978,254.532 79.212 C 248.913 76.063,241.157 71.673,234.800 68.042 C 233.040 67.037,231.420 65.970,231.200 65.671 C 230.980 65.372,227.360 62.744,223.155 59.833 C 218.951 56.921,215.037 53.967,214.458 53.269 C 213.878 52.571,212.971 52.000,212.441 52.000 C 211.912 52.000,210.606 51.066,209.539 49.924 C 205.960 46.092,203.170 45.141,199.111 46.370 M206.800 67.559 C 208.560 68.621,211.173 70.098,212.607 70.840 C 214.041 71.582,216.021 73.040,217.007 74.081 C 217.993 75.121,219.077 75.979,219.416 75.986 C 219.755 75.994,221.555 76.990,223.416 78.200 C 228.510 81.512,234.574 84.910,245.193 90.403 C 250.469 93.133,255.744 96.048,256.916 96.883 C 258.088 97.717,259.291 98.400,259.590 98.400 C 259.888 98.400,263.040 99.840,266.593 101.600 C 270.147 103.360,273.562 104.800,274.184 104.800 C 274.805 104.800,277.358 105.847,279.857 107.128 C 282.355 108.408,286.560 110.115,289.200 110.921 C 291.840 111.727,295.246 113.020,296.769 113.793 C 298.292 114.567,300.272 115.204,301.169 115.208 C 303.322 115.219,316.546 118.015,319.600 119.106 C 320.920 119.577,323.422 120.181,325.160 120.447 C 327.365 120.786,329.248 121.860,331.387 123.999 L 334.453 127.064 334.226 193.732 C 334.015 255.727,333.899 260.652,332.561 264.000 C 331.769 265.980,330.401 270.840,329.519 274.800 C 328.638 278.760,327.035 283.868,325.958 286.150 C 324.881 288.433,323.998 290.773,323.995 291.350 C 323.992 291.928,323.253 293.480,322.353 294.800 C 321.453 296.120,319.642 299.180,318.328 301.600 C 317.015 304.020,315.137 307.080,314.155 308.400 C 313.174 309.720,310.458 313.410,308.121 316.600 C 305.784 319.790,303.565 322.400,303.190 322.400 C 302.815 322.400,302.268 323.156,301.975 324.079 C 301.084 326.888,277.401 349.673,270.065 354.779 C 266.289 357.408,263.200 359.814,263.200 360.125 C 263.200 360.437,262.470 360.924,261.578 361.207 C 260.687 361.490,258.325 363.134,256.330 364.861 C 254.335 366.587,252.399 368.000,252.027 368.000 C 251.655 368.000,249.843 369.260,248.000 370.800 C 246.157 372.340,244.195 373.600,243.641 373.600 C 243.087 373.600,241.611 374.548,240.362 375.706 C 239.112 376.864,236.812 378.345,235.252 378.997 C 233.691 379.649,231.393 381.042,230.145 382.091 C 228.898 383.141,227.435 384.000,226.894 384.000 C 226.353 384.000,224.671 384.941,223.155 386.091 C 221.640 387.240,218.517 389.064,216.215 390.142 C 213.914 391.221,211.829 392.430,211.582 392.829 C 208.644 397.582,192.091 397.477,189.130 392.687 C 188.835 392.209,187.110 391.162,185.297 390.358 C 183.484 389.555,181.224 388.174,180.276 387.289 C 179.328 386.404,176.866 384.887,174.805 383.918 C 172.743 382.949,170.870 381.671,170.643 381.078 C 170.415 380.485,169.857 380.000,169.402 380.000 C 167.727 380.000,161.446 376.407,160.707 375.026 C 160.287 374.242,159.429 373.600,158.800 373.600 C 158.170 373.600,156.473 372.601,155.028 371.379 C 153.583 370.158,151.379 368.641,150.131 368.007 C 148.883 367.374,146.961 366.020,145.858 364.999 C 144.756 363.977,142.897 362.531,141.727 361.785 C 140.557 361.038,139.128 359.789,138.551 359.009 C 137.975 358.229,136.355 357.000,134.951 356.278 C 133.548 355.555,131.680 354.313,130.800 353.517 C 129.920 352.721,126.860 350.179,124.000 347.868 C 116.286 341.635,95.042 319.856,93.201 316.294 C 92.322 314.592,91.198 312.840,90.702 312.400 C 89.507 311.338,82.494 300.404,81.857 298.610 C 81.582 297.834,80.925 296.660,80.397 296.000 C 78.533 293.669,71.200 278.374,71.200 276.818 C 71.200 276.275,70.319 272.899,69.243 269.316 C 65.811 257.893,65.600 253.316,65.600 190.195 C 65.600 131.156,65.629 130.046,67.248 126.701 C 68.944 123.197,73.766 120.000,77.355 120.000 C 78.262 120.000,80.219 119.497,81.702 118.882 C 83.186 118.267,88.180 116.991,92.800 116.046 C 97.420 115.102,103.854 113.265,107.098 111.964 C 110.343 110.664,113.583 109.600,114.298 109.600 C 115.014 109.600,117.580 108.534,120.000 107.232 C 122.420 105.929,124.871 104.849,125.448 104.832 C 126.501 104.800,138.669 99.346,142.400 97.234 C 143.500 96.611,149.080 93.733,154.800 90.837 C 160.520 87.942,166.757 84.694,168.660 83.621 C 170.563 82.548,172.824 81.446,173.686 81.173 C 174.547 80.899,176.193 79.804,177.343 78.738 C 178.493 77.672,179.856 76.800,180.372 76.800 C 180.889 76.800,183.241 75.360,185.600 73.600 C 187.959 71.840,190.308 70.400,190.820 70.400 C 191.333 70.400,192.409 69.675,193.211 68.788 C 196.296 65.379,202.292 64.836,206.800 67.559 M145.070 140.290 C 142.799 140.790,140.279 141.762,139.470 142.450 C 138.662 143.137,136.380 144.392,134.400 145.237 C 128.843 147.610,120.160 156.010,117.294 161.785 C 116.362 163.663,114.940 166.172,114.134 167.361 C 113.327 168.549,112.836 170.169,113.041 170.961 C 113.334 172.092,113.434 172.015,113.507 170.600 C 113.558 169.610,113.983 168.800,114.450 168.800 C 114.918 168.800,116.358 166.468,117.650 163.619 C 118.942 160.769,120.865 157.870,121.923 157.177 C 122.982 156.483,124.069 155.035,124.339 153.958 C 124.618 152.848,125.415 152.000,126.182 152.000 C 126.925 152.000,128.808 150.793,130.366 149.317 C 131.925 147.841,134.820 146.011,136.800 145.250 C 138.780 144.489,141.003 143.324,141.740 142.663 C 145.456 139.329,168.259 139.407,173.501 142.772 C 175.096 143.795,177.840 145.087,179.600 145.643 C 181.360 146.198,184.049 147.766,185.576 149.126 C 189.779 152.871,194.400 157.786,194.400 158.512 C 194.400 158.867,196.261 160.411,198.537 161.943 C 203.426 165.236,204.904 164.797,210.479 158.400 C 214.956 153.262,215.175 153.054,219.604 149.702 C 221.807 148.036,225.767 146.019,228.404 145.222 C 231.042 144.424,234.100 143.212,235.200 142.529 C 236.403 141.782,240.228 141.063,244.800 140.724 L 252.400 140.162 243.401 140.415 C 235.969 140.624,233.933 140.958,231.707 142.334 C 230.224 143.250,228.514 144.004,227.906 144.008 C 225.687 144.025,212.800 152.224,212.800 153.618 C 212.800 153.899,211.090 155.965,209.000 158.209 C 203.745 163.851,202.471 163.937,197.457 158.987 C 195.556 157.109,193.227 154.679,192.283 153.587 C 189.394 150.244,184.197 146.397,180.200 144.642 C 178.110 143.724,176.176 142.627,175.903 142.205 C 174.204 139.584,153.975 138.327,145.070 140.290 M256.000 142.399 C 257.540 143.242,260.600 144.530,262.800 145.262 C 265.000 145.994,267.880 147.608,269.200 148.848 C 270.520 150.087,272.590 151.475,273.800 151.931 C 275.010 152.387,276.000 153.285,276.000 153.926 C 276.000 154.567,277.049 155.838,278.331 156.751 C 279.614 157.664,281.468 160.119,282.452 162.206 C 283.436 164.293,284.862 166.720,285.621 167.600 C 289.988 172.667,289.971 203.934,285.597 209.203 C 285.176 209.711,283.947 212.477,282.865 215.349 C 281.784 218.222,279.797 222.206,278.450 224.202 C 277.102 226.199,276.000 228.281,276.000 228.829 C 276.000 229.378,274.920 230.859,273.600 232.120 C 272.280 233.382,271.200 234.875,271.200 235.438 C 271.200 236.001,269.568 237.826,267.572 239.494 L 263.944 242.526 253.506 242.263 C 241.558 241.962,241.478 241.918,239.997 234.784 C 237.630 223.386,224.649 227.198,220.483 240.514 C 219.847 242.547,217.891 243.174,212.147 243.189 C 203.547 243.211,203.004 241.746,201.182 213.600 C 199.741 191.341,199.408 189.727,195.359 185.400 C 188.651 178.231,183.711 191.512,181.630 222.307 C 180.901 233.095,179.694 237.965,176.996 241.000 C 175.874 242.262,173.799 242.400,155.897 242.400 L 136.041 242.400 134.829 240.057 C 134.163 238.768,132.924 237.493,132.076 237.224 C 131.228 236.955,130.153 235.643,129.688 234.310 C 129.223 232.976,127.801 230.560,126.528 228.942 C 125.255 227.324,123.940 225.100,123.606 224.000 C 123.272 222.900,121.964 220.579,120.699 218.842 C 119.435 217.106,118.400 215.043,118.400 214.259 C 118.400 212.446,116.063 206.376,114.758 204.800 C 114.212 204.140,113.590 202.880,113.375 202.000 C 113.058 200.696,112.968 200.775,112.893 202.431 C 112.842 203.548,113.490 205.815,114.334 207.470 C 115.177 209.125,116.527 212.346,117.334 214.629 C 118.140 216.912,119.970 220.531,121.400 222.670 C 122.830 224.810,124.000 227.016,124.000 227.572 C 124.000 228.128,125.074 229.802,126.387 231.292 C 127.700 232.781,128.780 234.373,128.787 234.829 C 128.794 235.286,130.403 237.356,132.362 239.429 L 135.923 243.200 156.673 243.200 C 183.218 243.200,180.605 245.027,182.521 225.125 C 183.321 216.806,184.512 207.804,185.167 205.119 C 185.822 202.435,186.588 198.115,186.868 195.519 C 187.358 190.992,190.287 184.800,191.940 184.800 C 193.038 184.800,196.750 189.502,197.198 191.462 C 198.588 197.531,200.002 208.195,200.016 212.705 C 200.040 220.371,202.222 241.742,203.068 242.588 C 204.262 243.782,213.795 245.093,216.959 244.499 C 219.493 244.023,220.335 243.258,222.812 239.181 C 227.379 231.661,229.529 229.875,233.548 230.258 C 237.198 230.606,237.658 231.234,240.097 239.200 L 241.200 242.800 253.349 243.021 L 265.497 243.241 268.231 240.841 C 286.967 224.391,297.046 181.554,286.008 165.288 C 284.914 163.675,283.477 161.309,282.815 160.028 C 280.536 155.622,270.651 147.297,264.800 144.858 C 262.380 143.849,259.832 142.524,259.137 141.912 C 258.442 141.300,256.822 140.815,255.537 140.834 L 253.200 140.867 256.000 142.399 M111.709 176.512 C 111.047 181.342,111.174 191.336,111.963 196.400 C 112.406 199.244,112.617 196.413,112.693 186.600 C 112.803 172.357,112.585 170.118,111.709 176.512 M190.532 241.927 C 190.019 244.708,189.600 247.951,189.600 249.132 C 189.600 254.876,184.766 258.281,179.200 256.459 C 178.100 256.099,176.708 255.409,176.107 254.927 C 173.427 252.776,168.779 252.024,158.095 252.012 L 146.991 252.000 147.462 254.902 C 148.124 258.987,169.081 279.466,189.517 296.000 C 191.420 297.540,194.030 299.790,195.316 301.000 C 198.290 303.797,202.320 303.963,205.032 301.400 C 206.709 299.815,212.262 294.944,216.137 291.659 C 216.872 291.036,219.932 288.623,222.937 286.296 C 228.933 281.654,239.782 272.327,243.684 268.461 C 245.050 267.108,248.217 264.205,250.721 262.010 C 254.827 258.412,255.251 257.745,255.037 255.210 L 254.800 252.400 246.400 251.898 C 241.780 251.622,237.600 251.352,237.112 251.298 C 236.623 251.244,234.923 250.318,233.335 249.240 L 230.446 247.280 228.223 250.381 C 225.083 254.763,222.596 256.000,216.929 256.000 C 210.550 256.000,208.708 256.825,206.840 260.517 C 204.126 265.879,203.498 266.342,200.269 265.351 C 196.634 264.235,195.248 262.066,194.745 256.701 C 192.910 237.153,192.000 233.962,190.532 241.927 M193.109 253.353 C 193.853 263.455,194.621 265.362,198.402 266.495 C 203.173 267.925,205.138 267.015,207.092 262.474 C 209.050 257.923,212.031 256.402,217.334 257.250 C 221.511 257.918,225.588 256.158,228.398 252.473 C 229.842 250.581,230.918 249.821,231.504 250.282 C 233.522 251.871,242.671 254.400,246.403 254.400 C 249.427 254.400,250.819 254.819,252.121 256.121 L 253.843 257.843 251.538 259.521 C 250.270 260.445,247.179 263.180,244.669 265.600 C 242.159 268.020,238.552 271.331,236.653 272.958 C 234.754 274.585,231.940 277.032,230.400 278.396 C 228.860 279.760,226.070 281.956,224.200 283.276 C 222.330 284.597,220.800 286.020,220.800 286.438 C 220.800 286.857,220.289 287.200,219.665 287.200 C 219.041 287.200,217.342 288.460,215.889 290.000 C 214.436 291.540,212.807 292.800,212.269 292.800 C 211.731 292.800,210.652 293.880,209.873 295.200 C 209.093 296.520,208.055 297.600,207.567 297.600 C 207.079 297.600,205.860 298.472,204.859 299.537 C 202.714 301.820,198.331 301.612,195.548 299.094 C 194.640 298.272,193.686 297.600,193.428 297.600 C 193.171 297.600,191.718 296.430,190.199 295.000 C 188.680 293.570,186.138 291.320,184.549 290.000 C 182.960 288.680,180.276 286.340,178.584 284.800 C 176.892 283.260,173.050 279.840,170.046 277.200 C 161.979 270.109,150.400 258.310,150.400 257.180 C 150.400 253.608,170.048 253.192,176.568 256.626 C 184.862 260.994,189.278 258.639,190.611 249.139 C 191.647 241.759,192.343 242.933,193.109 253.353 " stroke="none" fill="#36a0de" fill-rule="evenodd"></path><path id="path3" d="M196.597 44.210 C 194.065 45.634,191.271 47.430,190.388 48.200 C 189.504 48.970,188.553 49.600,188.273 49.600 C 187.994 49.600,186.288 50.799,184.482 52.264 C 182.677 53.729,178.500 56.653,175.200 58.763 C 171.900 60.872,168.300 63.179,167.200 63.889 C 164.197 65.829,163.071 66.459,155.012 70.711 C 150.935 72.862,146.700 75.231,145.600 75.976 C 142.372 78.161,130.993 83.732,128.579 84.310 C 127.357 84.602,124.477 85.669,122.179 86.681 C 101.301 95.871,82.787 101.035,67.200 102.015 C 49.953 103.100,48.794 104.069,47.805 118.223 C 46.309 139.652,47.591 250.403,49.461 261.200 C 52.123 276.570,57.354 292.095,63.085 301.636 C 63.808 302.839,65.660 305.882,67.200 308.397 C 68.740 310.912,70.901 314.530,72.003 316.437 C 73.822 319.586,83.132 331.343,88.931 337.814 C 90.206 339.236,92.386 342.122,93.777 344.228 C 95.168 346.333,98.214 349.627,100.546 351.547 C 104.433 354.746,114.239 363.341,117.632 366.521 C 120.466 369.176,129.369 375.839,131.682 377.036 C 132.991 377.712,136.588 380.218,139.676 382.605 C 142.765 384.991,147.971 388.658,151.246 390.753 C 154.521 392.848,158.100 395.190,159.200 395.957 C 161.027 397.231,178.220 407.765,182.000 409.926 C 184.970 411.624,190.779 415.335,194.131 417.675 C 198.408 420.661,202.439 420.770,206.071 418.000 C 207.513 416.900,208.890 416.000,209.131 416.000 C 209.372 416.000,211.539 414.740,213.946 413.200 C 216.353 411.660,218.549 410.400,218.826 410.400 C 219.103 410.400,221.190 409.203,223.464 407.739 C 229.247 404.019,230.932 403.014,236.400 400.025 C 239.040 398.581,241.920 396.777,242.800 396.016 C 243.680 395.254,245.660 393.949,247.200 393.115 C 248.740 392.282,250.180 391.412,250.400 391.182 C 250.804 390.759,254.477 388.301,256.934 386.810 C 257.667 386.364,260.727 384.346,263.734 382.324 C 266.740 380.301,271.180 377.352,273.600 375.770 C 283.997 368.972,306.716 347.713,318.726 333.544 C 323.239 328.219,334.459 311.156,338.415 303.600 C 339.567 301.400,340.927 298.880,341.438 298.000 C 344.760 292.279,348.445 277.511,351.760 256.634 L 353.957 242.800 354.230 180.000 C 354.381 145.460,354.273 114.962,353.991 112.228 C 353.244 104.983,351.719 104.209,334.541 102.363 C 320.283 100.831,314.077 99.755,309.600 98.039 C 308.060 97.449,304.460 96.352,301.600 95.600 C 295.565 94.014,294.418 93.587,280.000 87.564 C 266.855 82.073,257.917 77.885,255.063 75.881 C 253.888 75.056,251.008 73.360,248.663 72.113 C 240.919 67.992,237.082 65.714,232.034 62.237 C 229.290 60.347,225.720 57.900,224.102 56.800 C 222.484 55.700,219.009 53.147,216.380 51.127 C 202.559 40.509,202.938 40.641,196.597 44.210 M205.440 46.724 C 206.628 47.342,208.473 48.782,209.539 49.924 C 210.606 51.066,211.912 52.000,212.441 52.000 C 212.971 52.000,213.878 52.571,214.458 53.269 C 215.037 53.967,218.951 56.921,223.155 59.833 C 227.360 62.744,230.980 65.372,231.200 65.671 C 231.420 65.970,233.040 67.037,234.800 68.042 C 241.157 71.673,248.913 76.063,254.532 79.212 C 257.685 80.978,260.655 82.729,261.132 83.101 C 261.610 83.474,263.080 84.034,264.400 84.345 C 265.720 84.655,269.763 86.325,273.384 88.055 C 277.005 89.785,280.397 91.200,280.921 91.200 C 281.445 91.200,282.522 91.786,283.314 92.503 C 284.105 93.219,287.734 94.587,291.377 95.542 C 295.019 96.497,298.720 97.663,299.600 98.134 C 302.145 99.495,306.476 100.748,312.867 101.974 C 316.130 102.599,320.780 103.690,323.200 104.398 C 325.620 105.105,331.930 106.006,337.223 106.399 C 348.767 107.257,349.285 107.426,349.910 110.551 C 350.806 115.032,350.465 238.268,349.531 247.200 C 347.573 265.937,343.477 286.594,340.807 291.200 C 339.644 293.207,337.911 297.410,337.015 300.400 C 336.752 301.280,335.695 303.114,334.668 304.476 C 333.641 305.837,332.800 307.215,332.800 307.537 C 332.800 307.859,331.360 310.134,329.600 312.592 C 327.840 315.050,326.400 317.486,326.400 318.006 C 326.400 318.526,325.643 319.637,324.718 320.474 C 323.793 321.311,322.538 322.959,321.930 324.136 C 321.321 325.313,319.468 327.860,317.811 329.795 C 316.155 331.731,313.540 334.854,312.000 336.736 C 310.460 338.618,306.215 343.093,302.568 346.679 C 296.369 352.774,293.529 355.593,291.600 357.568 C 291.160 358.018,288.285 360.460,285.211 362.993 C 282.137 365.527,278.915 368.233,278.052 369.008 C 277.188 369.782,274.380 371.762,271.810 373.408 C 269.241 375.053,265.678 377.570,263.894 379.000 C 262.109 380.430,260.268 381.600,259.803 381.600 C 259.337 381.600,257.481 382.686,255.678 384.014 C 250.858 387.563,244.027 391.949,240.561 393.719 C 238.890 394.574,237.321 395.796,237.075 396.436 C 236.830 397.076,236.217 397.604,235.714 397.608 C 234.358 397.621,222.384 404.169,216.800 407.954 C 214.820 409.295,212.921 410.395,212.581 410.397 C 212.240 410.398,210.130 411.660,207.891 413.200 C 202.275 417.063,198.734 417.016,192.693 412.998 C 190.215 411.349,187.006 409.280,185.563 408.400 C 184.121 407.520,180.749 405.461,178.070 403.824 C 175.392 402.188,171.536 400.009,169.503 398.982 C 167.469 397.955,164.707 396.234,163.365 395.158 C 162.023 394.081,158.523 391.760,155.588 390.000 C 152.653 388.240,148.891 385.630,147.229 384.200 C 145.566 382.770,143.816 381.600,143.339 381.600 C 142.863 381.600,141.609 380.737,140.554 379.681 C 139.499 378.626,137.413 377.136,135.918 376.371 C 134.423 375.605,132.039 374.038,130.621 372.889 C 129.202 371.740,126.404 369.540,124.402 368.000 C 122.400 366.460,119.579 364.120,118.132 362.800 C 111.015 356.305,104.930 351.022,102.782 349.472 C 100.311 347.690,97.155 344.057,92.119 337.200 C 89.319 333.387,88.413 332.270,82.757 325.657 C 79.715 322.100,74.988 315.481,73.512 312.712 C 71.072 308.131,64.508 297.514,63.874 297.122 C 63.503 296.893,63.200 295.987,63.200 295.108 C 63.200 294.229,62.068 291.280,60.683 288.555 C 58.474 284.205,55.058 272.653,52.713 261.600 C 50.791 252.539,50.234 117.601,52.088 110.256 C 52.806 107.413,52.977 107.297,57.016 106.896 C 72.018 105.408,77.945 104.576,80.217 103.641 C 81.638 103.056,84.780 102.317,87.200 101.998 C 89.620 101.680,94.120 100.417,97.200 99.191 C 100.280 97.966,105.680 96.175,109.200 95.211 C 112.720 94.248,116.140 92.999,116.800 92.437 C 117.460 91.875,119.054 91.164,120.342 90.856 C 121.631 90.549,124.871 89.281,127.542 88.038 C 130.214 86.795,134.200 85.172,136.400 84.431 C 138.600 83.690,140.940 82.642,141.600 82.102 C 142.260 81.563,144.240 80.419,146.000 79.560 C 147.760 78.702,150.280 77.248,151.600 76.328 C 152.920 75.408,155.260 74.165,156.800 73.565 C 158.340 72.966,161.004 71.468,162.720 70.237 C 164.436 69.007,166.145 68.000,166.518 68.000 C 166.891 68.000,168.950 66.740,171.094 65.200 C 173.237 63.660,175.386 62.400,175.868 62.400 C 176.350 62.400,177.974 61.320,179.478 60.000 C 180.981 58.680,182.455 57.600,182.752 57.600 C 183.049 57.600,186.382 55.215,190.158 52.301 C 198.786 45.641,201.473 44.660,205.440 46.724 M197.135 66.460 C 195.779 66.854,194.013 67.901,193.211 68.788 C 192.409 69.675,191.333 70.400,190.820 70.400 C 190.308 70.400,187.959 71.840,185.600 73.600 C 183.241 75.360,180.889 76.800,180.372 76.800 C 179.856 76.800,178.493 77.672,177.343 78.738 C 176.193 79.804,174.547 80.899,173.686 81.173 C 172.824 81.446,170.563 82.548,168.660 83.621 C 166.757 84.694,160.520 87.942,154.800 90.837 C 149.080 93.733,143.500 96.611,142.400 97.234 C 138.669 99.346,126.501 104.800,125.448 104.832 C 124.871 104.849,122.420 105.929,120.000 107.232 C 117.580 108.534,115.014 109.600,114.298 109.600 C 113.583 109.600,110.343 110.664,107.098 111.964 C 103.854 113.265,97.420 115.102,92.800 116.046 C 88.180 116.991,83.186 118.267,81.702 118.882 C 80.219 119.497,78.262 120.000,77.355 120.000 C 73.766 120.000,68.944 123.197,67.248 126.701 C 65.629 130.046,65.600 131.156,65.600 190.195 C 65.600 253.316,65.811 257.893,69.243 269.316 C 70.319 272.899,71.200 276.275,71.200 276.818 C 71.200 278.374,78.533 293.669,80.397 296.000 C 80.925 296.660,81.582 297.834,81.857 298.610 C 82.494 300.404,89.507 311.338,90.702 312.400 C 91.198 312.840,92.322 314.592,93.201 316.294 C 95.042 319.856,116.286 341.635,124.000 347.868 C 126.860 350.179,129.920 352.721,130.800 353.517 C 131.680 354.313,133.548 355.555,134.951 356.278 C 136.355 357.000,137.975 358.229,138.551 359.009 C 139.128 359.789,140.557 361.038,141.727 361.785 C 142.897 362.531,144.756 363.977,145.858 364.999 C 146.961 366.020,148.883 367.374,150.131 368.007 C 151.379 368.641,153.583 370.158,155.028 371.379 C 156.473 372.601,158.170 373.600,158.800 373.600 C 159.429 373.600,160.287 374.242,160.707 375.026 C 161.446 376.407,167.727 380.000,169.402 380.000 C 169.857 380.000,170.415 380.485,170.643 381.078 C 170.870 381.671,172.743 382.949,174.805 383.918 C 176.866 384.887,179.328 386.404,180.276 387.289 C 181.224 388.174,183.484 389.555,185.297 390.358 C 187.110 391.162,188.835 392.209,189.130 392.687 C 192.091 397.477,208.644 397.582,211.582 392.829 C 211.829 392.430,213.914 391.221,216.215 390.142 C 218.517 389.064,221.640 387.240,223.155 386.091 C 224.671 384.941,226.353 384.000,226.894 384.000 C 227.435 384.000,228.898 383.141,230.145 382.091 C 231.393 381.042,233.691 379.649,235.252 378.997 C 236.812 378.345,239.112 376.864,240.362 375.706 C 241.611 374.548,243.087 373.600,243.641 373.600 C 244.195 373.600,246.157 372.340,248.000 370.800 C 249.843 369.260,251.655 368.000,252.027 368.000 C 252.399 368.000,254.335 366.587,256.330 364.861 C 258.325 363.134,260.687 361.490,261.578 361.207 C 262.470 360.924,263.200 360.437,263.200 360.125 C 263.200 359.814,266.289 357.408,270.065 354.779 C 277.401 349.673,301.084 326.888,301.975 324.079 C 302.268 323.156,302.815 322.400,303.190 322.400 C 303.565 322.400,305.784 319.790,308.121 316.600 C 310.458 313.410,313.174 309.720,314.155 308.400 C 315.137 307.080,317.015 304.020,318.328 301.600 C 319.642 299.180,321.453 296.120,322.353 294.800 C 323.253 293.480,323.992 291.928,323.995 291.350 C 323.998 290.773,324.881 288.433,325.958 286.150 C 327.035 283.868,328.638 278.760,329.519 274.800 C 330.401 270.840,331.769 265.980,332.561 264.000 C 333.899 260.652,334.015 255.727,334.226 193.732 L 334.453 127.064 331.387 123.999 C 329.248 121.860,327.365 120.786,325.160 120.447 C 323.422 120.181,320.920 119.577,319.600 119.106 C 316.546 118.015,303.322 115.219,301.169 115.208 C 300.272 115.204,298.292 114.567,296.769 113.793 C 295.246 113.020,291.840 111.727,289.200 110.921 C 286.560 110.115,282.355 108.408,279.857 107.128 C 277.358 105.847,274.805 104.800,274.184 104.800 C 273.562 104.800,270.147 103.360,266.593 101.600 C 263.040 99.840,259.888 98.400,259.590 98.400 C 259.291 98.400,258.088 97.717,256.916 96.883 C 255.744 96.048,250.469 93.133,245.193 90.403 C 234.574 84.910,228.510 81.512,223.416 78.200 C 221.555 76.990,219.755 75.994,219.416 75.986 C 219.077 75.979,217.993 75.121,217.007 74.081 C 216.021 73.040,214.041 71.582,212.607 70.840 C 211.173 70.098,208.560 68.621,206.800 67.559 C 203.439 65.529,201.213 65.276,197.135 66.460 M205.040 70.122 C 206.448 70.848,211.887 74.268,217.128 77.722 C 222.368 81.175,227.020 84.000,227.465 84.000 C 227.910 84.000,228.842 84.494,229.537 85.097 C 230.965 86.338,235.064 88.608,250.000 96.431 C 255.720 99.427,261.480 102.534,262.800 103.336 C 264.120 104.138,265.658 104.795,266.217 104.797 C 266.776 104.799,269.476 105.837,272.217 107.105 C 286.752 113.828,294.947 116.544,312.400 120.423 C 326.612 123.581,326.606 123.579,329.155 126.728 L 331.600 129.750 331.596 191.075 L 331.591 252.400 329.367 262.800 C 324.604 285.064,317.848 299.875,305.372 315.403 C 303.517 317.712,301.024 320.908,299.832 322.505 C 293.689 330.735,266.961 355.200,264.114 355.200 C 263.685 355.200,263.213 355.491,263.067 355.847 C 262.920 356.203,260.640 358.091,258.000 360.043 C 255.360 361.994,253.020 363.809,252.800 364.076 C 252.580 364.343,250.788 365.571,248.818 366.805 C 246.848 368.040,244.821 369.444,244.314 369.925 C 243.808 370.406,241.639 371.861,239.496 373.157 C 226.702 380.896,221.356 384.000,220.821 384.000 C 220.488 384.000,219.352 384.679,218.296 385.510 C 206.523 394.771,199.858 395.683,189.517 389.449 C 185.823 387.222,182.075 384.995,181.189 384.500 C 180.303 384.005,178.503 382.837,177.189 381.904 C 175.875 380.972,173.180 379.391,171.200 378.392 C 169.220 377.393,166.700 375.879,165.600 375.028 C 164.500 374.178,159.420 370.538,154.311 366.941 C 124.157 345.708,101.882 325.360,93.293 311.200 C 92.092 309.220,89.712 305.440,88.004 302.800 C 70.265 275.385,69.200 269.044,69.200 190.800 C 69.200 118.516,67.866 125.110,83.200 121.615 C 87.380 120.663,91.700 119.505,92.800 119.042 C 93.900 118.579,98.220 117.371,102.400 116.356 C 112.305 113.952,127.646 107.931,140.800 101.285 C 144.540 99.395,149.580 96.870,152.000 95.673 C 164.066 89.706,175.272 83.682,180.400 80.406 C 182.600 79.000,185.525 77.164,186.899 76.325 C 188.274 75.486,190.844 73.831,192.611 72.646 C 195.339 70.816,199.428 69.144,201.840 68.872 C 202.192 68.832,203.632 69.395,205.040 70.122 M145.933 137.950 C 142.816 138.471,139.036 139.680,137.533 140.637 C 136.030 141.593,133.327 143.064,131.528 143.905 C 122.110 148.305,111.951 162.946,109.983 174.955 C 107.874 187.821,109.872 205.923,114.124 212.464 C 114.719 213.378,115.740 215.929,116.395 218.132 C 117.049 220.335,118.308 222.792,119.192 223.593 C 120.076 224.393,120.800 225.482,120.800 226.013 C 120.800 227.665,128.866 239.464,131.886 242.230 C 135.930 245.933,136.426 246.000,159.778 246.000 C 185.665 246.000,183.389 247.354,184.665 231.200 C 185.169 224.820,186.119 217.080,186.776 214.000 C 187.432 210.920,188.397 204.517,188.919 199.770 C 191.484 176.437,196.716 193.960,199.074 233.780 C 199.885 247.478,200.278 248.357,205.333 247.787 C 208.006 247.486,209.326 247.810,211.529 249.307 C 214.268 251.168,214.390 251.179,217.211 249.834 C 219.717 248.639,220.193 248.612,220.846 249.629 C 222.605 252.368,221.386 253.192,215.212 253.439 C 208.557 253.705,207.217 254.466,204.691 259.415 C 202.173 264.349,198.073 260.941,197.215 253.200 C 193.759 222.015,191.229 217.548,188.418 237.668 C 186.702 249.946,186.619 250.254,184.404 252.469 C 181.764 255.109,180.380 254.904,177.171 251.400 L 174.424 248.400 161.551 248.129 C 143.774 247.754,141.427 248.803,144.251 255.860 C 145.926 260.047,172.593 286.361,183.200 294.294 C 184.740 295.445,188.439 298.460,191.421 300.994 C 199.346 307.729,202.600 307.518,210.977 299.725 C 212.834 297.997,215.174 296.015,216.177 295.322 C 227.443 287.527,255.289 262.760,258.540 257.643 C 263.270 250.200,261.159 248.468,247.045 248.211 C 237.254 248.032,236.519 247.906,234.267 246.011 C 230.829 243.118,227.663 243.477,226.359 246.909 C 225.939 248.012,224.984 248.800,224.067 248.800 C 222.297 248.800,221.181 247.553,222.321 246.849 C 222.731 246.595,224.393 243.705,226.013 240.426 C 229.701 232.962,230.064 232.665,233.703 234.127 C 236.335 235.185,236.654 235.651,237.112 239.106 C 238.017 245.930,238.172 246.003,251.736 245.982 C 265.933 245.960,274.387 243.197,274.402 238.572 C 274.403 238.258,275.482 236.740,276.800 235.200 C 278.118 233.660,279.197 232.068,279.198 231.663 C 279.199 231.258,279.703 230.358,280.318 229.663 C 290.401 218.270,296.683 189.305,292.466 173.651 C 289.461 162.495,278.453 148.273,269.929 144.531 C 268.208 143.776,265.720 142.573,264.400 141.858 C 263.080 141.144,261.036 140.060,259.858 139.449 C 255.208 137.042,232.181 138.174,227.702 141.030 C 226.766 141.627,224.481 142.712,222.625 143.441 C 218.056 145.236,215.143 147.699,206.442 157.125 L 202.885 160.980 197.586 155.490 C 191.169 148.840,185.684 144.000,184.566 144.000 C 184.112 144.000,182.043 142.911,179.969 141.580 C 173.311 137.308,158.935 135.774,145.933 137.950 M170.703 140.331 C 173.289 140.940,175.629 141.783,175.903 142.205 C 176.176 142.627,178.110 143.724,180.200 144.642 C 184.197 146.397,189.394 150.244,192.283 153.587 C 201.310 164.031,203.113 164.530,209.000 158.209 C 211.090 155.965,212.800 153.899,212.800 153.618 C 212.800 152.224,225.687 144.025,227.906 144.008 C 228.514 144.004,230.314 143.190,231.906 142.200 C 235.740 139.815,256.349 139.443,258.916 141.712 C 259.732 142.434,262.380 143.849,264.800 144.858 C 270.651 147.297,280.536 155.622,282.815 160.028 C 283.477 161.309,284.914 163.675,286.008 165.288 C 291.142 172.853,292.277 193.160,288.284 206.000 C 284.964 216.677,273.942 235.827,268.231 240.841 L 265.497 243.241 253.349 243.021 L 241.200 242.800 240.097 239.200 C 237.658 231.234,237.198 230.606,233.548 230.258 C 229.529 229.875,227.379 231.661,222.812 239.181 C 220.335 243.258,219.493 244.023,216.959 244.499 C 213.795 245.093,204.262 243.782,203.068 242.588 C 202.222 241.742,200.040 220.371,200.016 212.705 C 200.002 208.195,198.588 197.531,197.198 191.462 C 196.750 189.502,193.038 184.800,191.940 184.800 C 190.287 184.800,187.358 190.992,186.868 195.519 C 186.588 198.115,185.822 202.435,185.167 205.119 C 184.512 207.804,183.321 216.806,182.521 225.125 C 180.605 245.027,183.218 243.200,156.673 243.200 L 135.923 243.200 132.362 239.429 C 130.403 237.356,128.794 235.286,128.787 234.829 C 128.780 234.373,127.700 232.781,126.387 231.292 C 125.074 229.802,124.000 228.128,124.000 227.572 C 124.000 227.016,122.830 224.810,121.400 222.670 C 119.970 220.531,118.109 216.804,117.265 214.390 C 116.421 211.975,115.215 209.198,114.585 208.218 C 110.509 201.877,110.299 173.258,114.284 167.200 C 115.008 166.100,116.362 163.663,117.294 161.785 C 120.160 156.010,128.843 147.610,134.400 145.237 C 136.380 144.392,138.662 143.137,139.470 142.450 C 143.012 139.439,161.561 138.181,170.703 140.331 M193.465 244.982 C 193.947 249.062,194.523 254.336,194.745 256.701 C 195.248 262.066,196.634 264.235,200.269 265.351 C 203.498 266.342,204.126 265.879,206.840 260.517 C 208.708 256.825,210.550 256.000,216.929 256.000 C 222.596 256.000,225.083 254.763,228.223 250.381 L 230.446 247.280 233.335 249.240 C 234.923 250.318,236.623 251.244,237.112 251.298 C 237.600 251.352,241.780 251.622,246.400 251.898 L 254.800 252.400 255.037 255.210 C 255.251 257.745,254.827 258.412,250.721 262.010 C 248.217 264.205,245.050 267.108,243.684 268.461 C 239.782 272.327,228.933 281.654,222.937 286.296 C 219.932 288.623,216.872 291.036,216.137 291.659 C 212.262 294.944,206.709 299.815,205.032 301.400 C 202.320 303.963,198.290 303.797,195.316 301.000 C 194.030 299.790,191.420 297.540,189.517 296.000 C 169.081 279.466,148.124 258.987,147.462 254.902 L 146.991 252.000 158.095 252.012 C 168.779 252.024,173.427 252.776,176.107 254.927 C 180.024 258.071,186.439 257.392,188.385 253.628 C 189.053 252.336,189.600 250.313,189.600 249.132 C 189.600 245.712,191.408 236.834,192.027 237.216 C 192.336 237.408,192.983 240.902,193.465 244.982 " stroke="none" fill="#7cabcd" fill-rule="evenodd"></path><path id="path4" d="M195.000 38.454 C 193.350 39.326,192.000 40.390,192.000 40.819 C 192.000 41.249,191.516 41.600,190.924 41.600 C 190.332 41.600,189.196 42.320,188.400 43.200 C 187.604 44.080,186.605 44.800,186.182 44.800 C 185.758 44.800,184.213 45.790,182.748 47.000 C 176.994 51.753,164.814 60.000,163.550 60.000 C 163.264 60.000,161.718 61.029,160.115 62.287 C 158.512 63.545,155.868 65.007,154.239 65.536 C 152.611 66.065,150.091 67.286,148.639 68.249 C 147.188 69.212,144.329 70.816,142.288 71.812 C 140.246 72.809,138.132 74.159,137.590 74.812 C 137.048 75.466,136.120 76.000,135.529 76.000 C 134.299 76.000,128.987 78.306,127.200 79.617 C 126.540 80.100,123.840 81.144,121.200 81.937 C 118.560 82.729,114.600 84.219,112.400 85.249 C 110.200 86.279,106.420 87.638,104.000 88.271 C 101.580 88.903,96.360 90.496,92.400 91.812 C 80.434 95.788,74.521 96.948,62.800 97.621 C 41.190 98.861,43.113 90.972,43.070 178.557 C 43.029 263.218,44.089 277.054,51.548 289.200 C 52.088 290.080,53.207 292.780,54.034 295.200 C 54.861 297.620,56.135 300.500,56.865 301.600 C 57.594 302.700,59.000 305.197,59.988 307.150 C 60.977 309.102,62.292 311.206,62.911 311.826 C 63.531 312.445,64.624 314.087,65.342 315.474 C 68.038 320.688,75.042 330.149,79.400 334.464 C 80.610 335.662,81.600 336.870,81.600 337.149 C 81.600 339.046,104.936 363.200,106.769 363.200 C 107.033 363.200,108.355 364.460,109.707 366.000 C 111.059 367.540,112.512 368.800,112.935 368.800 C 113.357 368.800,114.612 369.880,115.723 371.200 C 116.833 372.520,118.262 373.600,118.896 373.600 C 119.531 373.600,120.261 374.150,120.519 374.821 C 120.777 375.493,122.655 377.012,124.694 378.198 C 126.732 379.383,129.296 381.173,130.392 382.176 C 131.487 383.179,132.751 384.000,133.201 384.000 C 133.650 384.000,135.454 385.253,137.209 386.785 C 138.964 388.316,140.686 389.576,141.035 389.585 C 141.384 389.593,142.644 390.524,143.835 391.654 C 145.026 392.784,147.440 394.445,149.200 395.344 C 150.960 396.244,153.120 397.604,154.000 398.365 C 154.880 399.127,158.480 401.486,162.000 403.608 C 167.940 407.188,174.200 411.016,178.007 413.395 C 178.883 413.943,181.400 415.449,183.600 416.743 C 185.800 418.036,187.960 419.400,188.400 419.773 C 194.810 425.206,201.197 426.335,207.257 423.105 C 209.866 421.715,212.000 420.294,212.000 419.947 C 212.000 419.601,213.890 418.401,216.200 417.281 C 218.510 416.162,222.740 413.810,225.600 412.056 C 228.460 410.302,232.441 407.980,234.447 406.897 C 237.865 405.052,240.618 403.300,252.310 395.530 C 254.901 393.809,258.233 391.653,259.715 390.740 C 261.198 389.827,263.289 388.316,264.362 387.383 C 265.435 386.449,267.503 385.076,268.957 384.330 C 270.411 383.585,272.618 382.126,273.861 381.087 C 275.105 380.049,276.478 379.200,276.911 379.200 C 277.345 379.200,280.507 376.770,283.938 373.800 C 287.369 370.830,292.080 366.780,294.405 364.800 C 298.493 361.320,315.465 344.610,318.871 340.713 C 322.738 336.288,329.543 327.039,330.007 325.578 C 330.282 324.710,330.840 324.000,331.247 324.000 C 331.654 324.000,333.104 322.020,334.470 319.600 C 335.835 317.180,337.269 315.005,337.655 314.766 C 338.041 314.527,338.977 312.997,339.735 311.366 C 340.492 309.735,341.904 307.140,342.871 305.600 C 343.838 304.060,345.266 300.820,346.043 298.400 C 346.820 295.980,348.071 293.100,348.824 292.000 C 349.576 290.900,350.799 286.940,351.540 283.200 C 352.281 279.460,353.265 275.320,353.726 274.000 C 355.189 269.808,356.762 259.919,357.594 249.684 C 358.661 236.553,358.664 109.381,357.597 105.541 C 355.947 99.603,354.028 98.887,336.400 97.641 C 323.084 96.700,298.168 90.258,285.200 84.403 C 283.000 83.410,279.760 82.118,278.000 81.533 C 276.240 80.948,274.260 80.079,273.600 79.603 C 271.782 78.291,266.486 76.000,265.271 76.000 C 264.680 76.000,263.763 75.478,263.233 74.840 C 262.704 74.202,260.590 72.877,258.535 71.897 C 256.481 70.916,253.720 69.327,252.400 68.367 C 251.080 67.407,248.804 66.221,247.342 65.732 C 245.880 65.243,243.360 63.827,241.742 62.586 C 240.124 61.345,237.900 59.892,236.800 59.358 C 235.700 58.823,232.640 56.782,230.000 54.821 C 227.360 52.860,223.760 50.284,222.000 49.097 C 220.240 47.909,218.440 46.513,218.000 45.993 C 217.560 45.473,215.940 44.216,214.400 43.200 C 212.860 42.184,211.239 40.958,210.798 40.476 C 207.367 36.729,200.043 35.792,195.000 38.454 M207.408 44.527 C 209.714 46.137,213.751 49.107,216.380 51.127 C 219.009 53.147,222.484 55.700,224.102 56.800 C 225.720 57.900,229.290 60.347,232.034 62.237 C 237.082 65.714,240.919 67.992,248.663 72.113 C 251.008 73.360,253.888 75.056,255.063 75.881 C 257.917 77.885,266.855 82.073,280.000 87.564 C 294.418 93.587,295.565 94.014,301.600 95.600 C 304.460 96.352,308.060 97.449,309.600 98.039 C 314.077 99.755,320.283 100.831,334.541 102.363 C 351.719 104.209,353.244 104.983,353.991 112.228 C 354.273 114.962,354.381 145.460,354.230 180.000 L 353.957 242.800 351.760 256.634 C 348.445 277.511,344.760 292.279,341.438 298.000 C 340.927 298.880,339.567 301.400,338.415 303.600 C 334.459 311.156,323.239 328.219,318.726 333.544 C 306.716 347.713,283.997 368.972,273.600 375.770 C 271.180 377.352,266.740 380.301,263.734 382.324 C 260.727 384.346,257.667 386.364,256.934 386.810 C 254.477 388.301,250.804 390.759,250.400 391.182 C 250.180 391.412,248.740 392.282,247.200 393.115 C 245.660 393.949,243.680 395.254,242.800 396.016 C 241.920 396.777,239.040 398.581,236.400 400.025 C 230.932 403.014,229.247 404.019,223.464 407.739 C 221.190 409.203,219.103 410.400,218.826 410.400 C 218.549 410.400,216.353 411.660,213.946 413.200 C 211.539 414.740,209.372 416.000,209.131 416.000 C 208.890 416.000,207.513 416.900,206.071 418.000 C 202.439 420.770,198.408 420.661,194.131 417.675 C 190.779 415.335,184.970 411.624,182.000 409.926 C 178.220 407.765,161.027 397.231,159.200 395.957 C 158.100 395.190,154.521 392.848,151.246 390.753 C 147.971 388.658,142.765 384.991,139.676 382.605 C 136.588 380.218,132.991 377.712,131.682 377.036 C 129.369 375.839,120.466 369.176,117.632 366.521 C 114.239 363.341,104.433 354.746,100.546 351.547 C 98.214 349.627,95.168 346.333,93.777 344.228 C 92.386 342.122,90.206 339.236,88.931 337.814 C 83.132 331.343,73.822 319.586,72.003 316.437 C 70.901 314.530,68.740 310.912,67.200 308.397 C 65.660 305.882,63.808 302.839,63.085 301.636 C 57.354 292.095,52.123 276.570,49.461 261.200 C 47.591 250.403,46.309 139.652,47.805 118.223 C 48.794 104.069,49.953 103.100,67.200 102.015 C 82.787 101.035,101.301 95.871,122.179 86.681 C 124.477 85.669,127.357 84.602,128.579 84.310 C 130.993 83.732,142.372 78.161,145.600 75.976 C 146.700 75.231,150.935 72.862,155.012 70.711 C 163.071 66.459,164.197 65.829,167.200 63.889 C 168.300 63.179,171.900 60.872,175.200 58.763 C 178.500 56.653,182.677 53.729,184.482 52.264 C 186.288 50.799,187.994 49.600,188.273 49.600 C 188.553 49.600,189.504 48.970,190.388 48.200 C 192.567 46.300,200.959 41.621,202.208 41.610 C 202.763 41.604,205.103 42.917,207.408 44.527 M198.512 69.718 C 197.033 70.143,194.378 71.461,192.611 72.646 C 190.844 73.831,188.274 75.486,186.899 76.325 C 185.525 77.164,182.600 79.000,180.400 80.406 C 175.272 83.682,164.066 89.706,152.000 95.673 C 149.580 96.870,144.540 99.395,140.800 101.285 C 127.646 107.931,112.305 113.952,102.400 116.356 C 98.220 117.371,93.900 118.579,92.800 119.042 C 91.700 119.505,87.380 120.663,83.200 121.615 C 67.866 125.110,69.200 118.516,69.200 190.800 C 69.200 269.044,70.265 275.385,88.004 302.800 C 89.712 305.440,92.092 309.220,93.293 311.200 C 101.882 325.360,124.157 345.708,154.311 366.941 C 159.420 370.538,164.500 374.178,165.600 375.028 C 166.700 375.879,169.220 377.393,171.200 378.392 C 173.180 379.391,175.875 380.972,177.189 381.904 C 178.503 382.837,180.303 384.005,181.189 384.500 C 182.075 384.995,185.823 387.222,189.517 389.449 C 199.858 395.683,206.523 394.771,218.296 385.510 C 219.352 384.679,220.488 384.000,220.821 384.000 C 221.356 384.000,226.702 380.896,239.496 373.157 C 241.639 371.861,243.808 370.406,244.314 369.925 C 244.821 369.444,246.848 368.040,248.818 366.805 C 250.788 365.571,252.580 364.343,252.800 364.076 C 253.020 363.809,255.360 361.994,258.000 360.043 C 260.640 358.091,262.920 356.203,263.067 355.847 C 263.213 355.491,263.685 355.200,264.114 355.200 C 266.961 355.200,293.689 330.735,299.832 322.505 C 301.024 320.908,303.517 317.712,305.372 315.403 C 317.848 299.875,324.604 285.064,329.367 262.800 L 331.591 252.400 331.596 191.075 L 331.600 129.750 329.155 126.728 C 326.606 123.579,326.612 123.581,312.400 120.423 C 294.947 116.544,286.752 113.828,272.217 107.105 C 269.476 105.837,266.776 104.799,266.217 104.797 C 265.658 104.795,264.120 104.138,262.800 103.336 C 261.480 102.534,255.720 99.427,250.000 96.431 C 235.064 88.608,230.965 86.338,229.537 85.097 C 228.842 84.494,227.910 84.000,227.465 84.000 C 227.020 84.000,222.368 81.175,217.128 77.722 C 207.372 71.293,202.970 68.745,201.840 68.872 C 201.488 68.912,199.990 69.292,198.512 69.718 M209.512 78.981 C 213.300 81.500,217.749 84.182,219.397 84.940 C 221.046 85.699,223.990 87.417,225.941 88.760 C 227.892 90.102,229.829 91.200,230.246 91.200 C 230.663 91.200,231.456 91.744,232.008 92.409 C 232.983 93.584,239.497 96.800,240.902 96.800 C 241.286 96.800,242.272 97.472,243.093 98.293 C 243.914 99.114,246.344 100.441,248.493 101.243 C 250.642 102.044,253.406 103.523,254.636 104.529 C 255.866 105.535,258.383 106.765,260.229 107.262 C 262.075 107.759,264.566 108.864,265.765 109.718 C 266.964 110.571,269.813 111.825,272.095 112.502 C 274.378 113.180,277.556 114.562,279.157 115.573 C 280.759 116.584,284.214 117.883,286.835 118.460 C 289.456 119.037,293.272 120.339,295.316 121.354 C 297.360 122.370,299.639 123.200,300.381 123.200 C 302.792 123.200,321.800 128.063,324.160 129.283 L 326.455 130.469 326.202 193.835 L 325.949 257.200 323.393 266.800 C 321.987 272.080,320.828 277.084,320.818 277.919 C 320.796 279.742,316.918 288.167,310.801 299.681 C 309.842 301.486,307.046 305.483,304.588 308.564 C 302.131 311.644,299.459 315.208,298.653 316.482 C 296.161 320.419,275.076 342.373,273.744 342.419 C 273.445 342.429,271.875 343.599,270.257 345.019 C 268.638 346.438,264.923 349.220,262.001 351.200 C 259.079 353.180,255.754 355.790,254.612 357.000 C 253.470 358.210,252.145 359.203,251.668 359.208 C 251.190 359.212,249.219 360.472,247.287 362.008 C 245.355 363.543,243.546 364.800,243.266 364.800 C 242.986 364.800,240.840 366.240,238.498 368.000 C 236.156 369.760,233.822 371.200,233.311 371.200 C 232.801 371.200,231.470 372.010,230.352 373.000 C 227.780 375.280,225.132 376.800,223.735 376.800 C 223.137 376.800,222.009 377.506,221.227 378.370 C 220.446 379.233,217.600 381.057,214.903 382.423 C 212.206 383.788,208.436 385.722,206.524 386.721 C 201.621 389.283,194.879 388.250,190.596 384.281 C 189.480 383.246,188.128 382.400,187.591 382.400 C 187.055 382.400,184.497 380.961,181.908 379.202 C 179.319 377.443,176.805 376.003,176.322 376.002 C 175.840 376.001,174.580 375.244,173.522 374.321 C 172.465 373.397,169.915 371.784,167.857 370.736 C 165.798 369.688,163.896 368.478,163.630 368.048 C 163.364 367.618,160.008 365.214,156.173 362.707 C 152.338 360.200,147.756 356.855,145.991 355.274 C 144.225 353.693,141.583 351.500,140.119 350.400 C 137.195 348.203,132.742 344.667,127.200 340.141 C 121.351 335.363,109.783 323.994,105.079 318.400 C 102.675 315.540,100.076 312.480,99.305 311.600 C 97.310 309.324,89.833 296.157,85.904 288.000 C 84.739 285.580,83.473 283.060,83.091 282.400 C 81.220 279.168,77.704 267.449,75.889 258.400 C 74.136 249.657,73.309 146.812,74.888 133.791 C 75.418 129.417,77.487 128.301,91.600 124.770 C 97.320 123.339,103.440 121.555,105.200 120.806 C 106.960 120.056,110.380 118.981,112.800 118.416 C 115.220 117.851,119.180 116.357,121.600 115.096 C 124.020 113.835,126.572 112.803,127.272 112.802 C 127.972 112.801,130.672 111.763,133.272 110.495 C 135.872 109.227,140.070 107.267,142.600 106.139 C 145.130 105.011,147.200 103.737,147.200 103.308 C 147.200 102.878,148.370 102.277,149.800 101.971 C 152.361 101.424,156.812 99.311,157.608 98.264 C 157.832 97.969,159.992 96.951,162.408 96.001 C 164.823 95.051,167.401 93.733,168.135 93.071 C 168.870 92.410,171.708 90.729,174.442 89.335 C 183.618 84.657,186.836 82.819,192.032 79.289 C 196.617 76.174,199.668 74.686,201.912 74.469 C 202.303 74.431,205.723 76.461,209.512 78.981 M152.611 133.607 C 150.086 133.926,147.566 134.561,147.011 135.019 C 146.455 135.477,143.929 136.233,141.397 136.699 C 136.357 137.627,133.549 138.842,132.556 140.524 C 132.202 141.124,130.681 142.130,129.177 142.758 C 126.138 144.028,115.565 154.389,114.778 156.869 C 114.502 157.739,113.458 159.269,112.458 160.269 C 111.234 161.493,110.307 163.903,109.622 167.644 C 109.062 170.700,107.928 174.322,107.102 175.694 C 104.952 179.265,104.954 191.996,107.106 196.215 C 107.934 197.839,109.045 202.133,109.575 205.757 C 110.522 212.234,112.162 216.800,113.541 216.800 C 113.926 216.800,114.689 218.669,115.237 220.953 C 115.785 223.237,117.047 225.920,118.042 226.914 C 119.037 227.909,120.271 229.998,120.785 231.556 C 121.299 233.113,122.323 234.721,123.060 235.129 C 123.797 235.537,125.300 237.610,126.400 239.735 C 128.035 242.895,129.242 244.021,133.016 245.907 C 137.205 248.002,137.713 248.539,138.517 251.733 C 139.004 253.668,140.019 255.690,140.772 256.226 C 141.525 256.762,142.386 258.190,142.686 259.400 C 142.985 260.610,143.550 261.600,143.941 261.600 C 144.868 261.600,155.200 271.932,155.200 272.859 C 155.200 273.250,156.021 273.775,157.023 274.027 C 158.026 274.279,159.317 275.547,159.891 276.844 C 160.466 278.142,161.728 279.403,162.697 279.646 C 163.666 279.889,164.805 280.856,165.229 281.796 C 165.653 282.735,166.977 284.065,168.170 284.752 C 169.364 285.438,171.100 286.990,172.028 288.200 C 172.957 289.410,174.074 290.400,174.512 290.400 C 174.949 290.400,176.492 291.570,177.940 293.000 C 193.881 308.741,202.750 311.448,211.452 303.228 C 218.606 296.470,220.144 295.200,221.172 295.200 C 221.788 295.200,223.060 294.120,224.000 292.800 C 224.940 291.480,226.167 290.400,226.726 290.400 C 227.285 290.400,228.889 289.140,230.291 287.600 C 231.692 286.060,233.100 284.800,233.419 284.799 C 233.739 284.799,235.440 283.517,237.200 281.950 C 238.960 280.383,242.172 277.594,244.339 275.751 C 246.505 273.908,250.669 269.970,253.591 267.000 C 256.514 264.030,259.277 261.600,259.731 261.600 C 260.752 261.600,262.983 256.566,263.632 252.800 C 264.289 248.977,265.454 247.632,269.163 246.410 C 270.903 245.837,273.561 244.070,275.070 242.484 C 277.638 239.786,278.808 238.094,282.809 231.298 C 283.684 229.811,285.570 226.850,287.000 224.717 C 288.430 222.584,289.600 220.424,289.600 219.917 C 289.600 219.411,290.663 216.792,291.963 214.098 C 296.969 203.720,297.805 171.032,293.203 165.600 C 292.644 164.940,291.391 162.819,290.420 160.887 C 289.448 158.956,287.928 156.616,287.043 155.687 C 286.157 154.759,284.905 153.214,284.259 152.253 C 282.051 148.966,272.723 142.473,264.878 138.764 C 257.115 135.093,233.278 135.115,225.373 138.801 C 219.788 141.404,215.558 144.168,212.452 147.243 C 205.975 153.654,204.383 155.390,203.428 157.080 C 202.798 158.196,202.447 158.385,202.428 157.618 C 202.413 156.967,201.050 155.116,199.400 153.504 C 197.750 151.891,195.983 150.140,195.473 149.613 C 191.927 145.941,188.683 143.346,186.520 142.450 C 185.134 141.876,184.000 141.099,184.000 140.723 C 184.000 139.612,179.925 137.850,175.016 136.838 C 172.494 136.318,169.434 135.419,168.216 134.839 C 165.279 133.442,158.291 132.890,152.611 133.607 M169.499 137.981 C 174.158 138.801,177.346 139.897,179.969 141.580 C 182.043 142.911,184.112 144.000,184.566 144.000 C 185.684 144.000,191.169 148.840,197.586 155.490 L 202.885 160.980 206.442 157.125 C 215.143 147.699,218.056 145.236,222.625 143.441 C 224.481 142.712,226.766 141.627,227.702 141.030 C 232.181 138.174,255.208 137.042,259.858 139.449 C 261.036 140.060,263.080 141.144,264.400 141.858 C 265.720 142.573,268.208 143.776,269.929 144.531 C 278.453 148.273,289.461 162.495,292.466 173.651 C 296.683 189.305,290.401 218.270,280.318 229.663 C 279.703 230.358,279.199 231.258,279.198 231.663 C 279.197 232.068,278.118 233.660,276.800 235.200 C 275.482 236.740,274.403 238.258,274.402 238.572 C 274.387 243.197,265.933 245.960,251.736 245.982 C 238.172 246.003,238.017 245.930,237.112 239.106 C 236.654 235.651,236.335 235.185,233.703 234.127 C 230.064 232.665,229.701 232.962,226.013 240.426 C 224.393 243.705,222.731 246.595,222.321 246.849 C 221.181 247.553,222.297 248.800,224.067 248.800 C 224.984 248.800,225.939 248.012,226.359 246.909 C 227.663 243.477,230.829 243.118,234.267 246.011 C 236.519 247.906,237.254 248.032,247.045 248.211 C 267.812 248.589,265.438 254.463,233.600 281.479 C 230.039 284.501,218.052 294.024,216.177 295.322 C 215.174 296.015,212.834 297.997,210.977 299.725 C 202.600 307.518,199.346 307.729,191.421 300.994 C 188.439 298.460,184.740 295.445,183.200 294.294 C 172.593 286.361,145.926 260.047,144.251 255.860 C 141.427 248.803,143.774 247.754,161.551 248.129 L 174.424 248.400 177.171 251.400 C 180.380 254.904,181.764 255.109,184.404 252.469 C 186.619 250.254,186.702 249.946,188.418 237.668 C 191.229 217.548,193.759 222.015,197.215 253.200 C 198.073 260.941,202.173 264.349,204.691 259.415 C 207.217 254.466,208.557 253.705,215.212 253.439 C 221.386 253.192,222.605 252.368,220.846 249.629 C 220.193 248.612,219.717 248.639,217.211 249.834 C 214.390 251.179,214.268 251.168,211.529 249.307 C 209.326 247.810,208.006 247.486,205.333 247.787 C 200.278 248.357,199.885 247.478,199.074 233.780 C 196.716 193.960,191.484 176.437,188.919 199.770 C 188.397 204.517,187.432 210.920,186.776 214.000 C 186.119 217.080,185.169 224.820,184.665 231.200 C 183.389 247.354,185.665 246.000,159.778 246.000 C 136.426 246.000,135.930 245.933,131.886 242.230 C 128.866 239.464,120.800 227.665,120.800 226.013 C 120.800 225.482,120.076 224.393,119.192 223.593 C 118.308 222.792,117.049 220.335,116.395 218.132 C 115.740 215.929,114.719 213.378,114.124 212.464 C 109.872 205.923,107.874 187.821,109.983 174.955 C 111.951 162.946,122.110 148.305,131.528 143.905 C 133.327 143.064,136.030 141.593,137.533 140.637 C 142.944 137.193,157.941 135.947,169.499 137.981 M193.214 206.082 C 193.697 214.178,193.596 215.807,192.560 216.668 C 190.578 218.312,190.197 215.446,190.843 203.763 C 191.527 191.407,192.388 192.250,193.214 206.082 M203.358 255.551 C 202.911 259.374,202.400 259.161,202.400 255.153 C 202.400 253.367,202.690 252.085,203.045 252.304 C 203.400 252.523,203.540 253.985,203.358 255.551 " stroke="none" fill="#afd8f0" fill-rule="evenodd"></path></g></svg>