<svg id="svg" version="1.1" width="500" height="562" xmlns="http://www.w3.org/2000/svg" xmlns:xlink="http://www.w3.org/1999/xlink" style="display: block;"><g id="svgg"><path id="path0" d="M0.000 224.800 L 0.000 449.600 198.307 449.600 L 396.613 449.600 397.096 447.800 C 397.361 446.810,397.583 345.650,397.589 223.000 L 397.600 0.000 198.800 0.000 L 0.000 0.000 0.000 224.800 M204.628 36.591 C 207.290 38.296,214.944 44.137,217.416 46.350 C 218.415 47.244,220.305 48.530,221.616 49.208 C 222.927 49.886,224.000 50.726,224.000 51.074 C 224.000 52.316,237.434 60.544,247.800 65.652 C 250.550 67.007,252.800 68.415,252.800 68.780 C 252.800 69.145,253.790 69.850,255.000 70.347 C 257.959 71.561,260.483 73.065,262.257 74.671 C 263.065 75.402,264.144 76.000,264.655 76.000 C 266.069 76.000,273.600 79.421,273.600 80.063 C 273.600 80.373,274.590 80.873,275.800 81.174 C 277.010 81.475,280.160 82.747,282.800 84.001 C 285.440 85.255,290.300 86.993,293.600 87.864 C 296.900 88.734,302.300 90.358,305.600 91.473 C 312.843 93.919,329.163 96.800,335.780 96.800 C 346.550 96.800,350.822 98.558,353.685 104.168 C 355.736 108.186,356.049 234.213,354.039 246.754 C 353.400 250.739,352.282 258.500,351.553 264.000 C 350.824 269.500,349.593 275.620,348.816 277.600 C 348.040 279.580,346.785 283.360,346.028 286.000 C 345.270 288.640,343.938 292.036,343.066 293.546 C 342.195 295.056,340.931 297.936,340.258 299.946 C 339.584 301.956,338.573 304.140,338.010 304.800 C 337.447 305.460,336.184 307.620,335.203 309.600 C 334.222 311.580,332.800 313.920,332.043 314.800 C 331.285 315.680,329.691 318.110,328.499 320.200 C 327.308 322.290,326.018 324.000,325.633 324.000 C 325.248 324.000,324.633 324.845,324.267 325.878 C 323.900 326.911,322.340 329.298,320.800 331.182 C 313.886 339.638,309.372 344.800,308.888 344.800 C 308.600 344.800,307.685 346.060,306.856 347.600 C 306.027 349.140,305.048 350.400,304.681 350.400 C 304.314 350.400,303.021 351.427,301.807 352.682 C 300.593 353.937,298.160 355.874,296.400 356.986 C 294.640 358.099,292.327 359.952,291.261 361.104 C 290.194 362.257,289.035 363.200,288.686 363.200 C 288.078 363.200,285.478 365.428,279.687 370.909 C 278.229 372.288,276.263 373.663,275.318 373.963 C 274.373 374.262,273.600 374.828,273.600 375.220 C 273.600 375.612,271.890 376.928,269.800 378.144 C 267.710 379.360,265.280 381.025,264.400 381.845 C 263.520 382.665,261.720 383.899,260.400 384.587 C 259.080 385.275,257.592 386.416,257.092 387.123 C 255.693 389.102,246.019 395.374,230.800 404.169 C 227.720 405.948,223.339 408.619,221.064 410.102 C 218.790 411.586,216.543 412.800,216.071 412.800 C 215.188 412.800,209.432 416.820,205.212 420.383 C 200.990 423.948,195.369 422.780,185.667 416.322 C 183.748 415.045,180.878 413.334,179.289 412.520 C 177.700 411.706,175.680 410.423,174.800 409.669 C 173.920 408.915,171.490 407.421,169.400 406.350 C 167.310 405.279,165.600 404.149,165.600 403.839 C 165.600 403.529,163.941 402.541,161.913 401.644 C 159.885 400.747,157.088 399.020,155.696 397.807 C 154.304 396.593,151.080 394.340,148.531 392.800 C 145.981 391.260,142.427 388.920,140.633 387.600 C 138.839 386.280,136.679 384.795,135.834 384.301 C 134.989 383.806,133.311 382.456,132.105 381.301 C 130.899 380.145,129.508 379.200,129.013 379.200 C 128.519 379.200,127.639 378.725,127.057 378.145 C 126.476 377.565,124.020 375.713,121.600 374.030 C 119.180 372.347,116.660 370.509,116.000 369.945 C 110.659 365.383,107.351 362.419,105.120 360.200 C 103.683 358.770,102.193 357.600,101.809 357.600 C 100.734 357.600,90.616 349.049,87.329 345.363 C 85.718 343.556,83.770 341.430,83.000 340.639 C 82.230 339.847,81.600 338.997,81.600 338.750 C 81.600 338.381,73.445 328.639,69.252 324.000 C 68.656 323.340,66.863 320.640,65.269 318.000 C 63.674 315.360,60.901 310.860,59.105 308.000 C 57.309 305.140,55.100 300.820,54.196 298.400 C 53.292 295.980,52.092 293.280,51.529 292.400 C 50.966 291.520,49.714 288.640,48.746 286.000 C 47.779 283.360,46.659 280.784,46.259 280.276 C 44.925 278.585,42.400 268.455,42.400 264.797 C 42.400 262.813,42.036 259.932,41.592 258.395 C 39.444 250.972,39.084 238.845,39.114 174.961 L 39.145 108.722 41.238 104.060 C 43.853 98.233,44.949 97.716,56.739 96.748 C 71.426 95.542,82.714 93.506,89.735 90.798 C 91.349 90.175,95.125 89.096,98.127 88.399 C 101.129 87.703,105.758 86.107,108.413 84.853 C 111.068 83.598,114.851 82.101,116.820 81.525 C 118.789 80.949,120.593 80.203,120.830 79.867 C 121.066 79.531,123.766 78.315,126.830 77.164 C 129.893 76.013,132.940 74.647,133.600 74.127 C 135.712 72.464,139.810 70.400,140.999 70.400 C 141.633 70.400,142.792 69.693,143.574 68.829 C 144.356 67.965,146.662 66.635,148.698 65.874 C 150.734 65.114,153.480 63.719,154.800 62.774 C 156.120 61.829,158.820 60.252,160.800 59.269 C 162.780 58.287,164.760 57.042,165.200 56.504 C 165.640 55.966,167.170 55.049,168.600 54.466 C 170.030 53.883,171.201 53.180,171.202 52.903 C 171.202 52.626,173.092 51.140,175.402 49.600 C 177.711 48.060,181.764 45.149,184.409 43.130 C 190.279 38.651,192.162 37.619,196.795 36.339 C 201.701 34.984,202.140 34.998,204.628 36.591 M193.043 75.916 C 191.285 77.189,188.621 78.860,187.123 79.627 C 185.625 80.395,184.154 81.406,183.852 81.874 C 183.285 82.756,176.833 86.532,170.168 89.883 C 168.061 90.943,165.721 92.325,164.968 92.955 C 164.216 93.584,161.980 94.792,160.000 95.638 C 158.020 96.484,155.187 97.987,153.705 98.977 C 152.223 99.967,149.883 101.090,148.505 101.472 C 147.127 101.855,144.638 103.094,142.973 104.226 C 141.309 105.358,138.789 106.539,137.373 106.849 C 135.958 107.160,133.000 108.407,130.800 109.621 C 128.600 110.835,124.910 112.295,122.600 112.866 C 120.290 113.436,118.400 114.140,118.400 114.430 C 118.400 115.353,112.578 117.591,107.200 118.736 C 104.340 119.345,100.900 120.410,99.556 121.102 C 98.211 121.795,93.531 123.081,89.156 123.959 C 69.071 127.993,70.861 120.820,71.437 194.989 C 71.904 255.093,72.338 261.384,76.781 272.481 C 78.112 275.803,79.200 278.985,79.200 279.553 C 79.200 280.120,80.010 281.607,81.000 282.856 C 81.990 284.106,83.729 286.944,84.865 289.164 C 88.880 297.011,92.142 302.421,94.258 304.747 C 95.436 306.041,97.480 308.438,98.800 310.074 C 100.120 311.710,102.280 314.211,103.600 315.633 C 108.417 320.822,110.141 322.856,112.051 325.600 C 113.123 327.140,115.170 329.751,116.600 331.402 C 118.030 333.054,119.200 334.757,119.200 335.187 C 119.200 335.617,120.190 336.214,121.400 336.513 C 122.610 336.812,125.004 337.988,126.720 339.128 C 128.435 340.268,130.415 341.560,131.120 342.000 C 131.824 342.440,133.707 343.880,135.305 345.200 C 138.971 348.228,146.105 353.215,149.353 355.019 C 152.966 357.027,158.386 360.707,161.582 363.323 C 163.113 364.575,164.767 365.600,165.258 365.600 C 165.750 365.600,166.802 366.319,167.597 367.197 C 168.392 368.075,170.884 369.637,173.134 370.667 C 175.385 371.697,177.778 373.092,178.452 373.766 C 179.126 374.441,180.921 375.622,182.439 376.391 C 183.958 377.160,186.280 378.577,187.600 379.540 C 194.418 384.515,200.487 385.068,206.009 381.217 C 208.204 379.686,211.260 377.844,212.800 377.124 C 214.340 376.403,216.912 374.776,218.515 373.507 C 220.118 372.238,221.867 371.200,222.402 371.200 C 223.257 371.200,233.960 364.541,236.587 362.375 C 237.129 361.928,238.929 360.766,240.587 359.793 C 242.244 358.821,245.392 356.849,247.582 355.412 C 249.772 353.976,251.806 352.800,252.102 352.800 C 252.398 352.800,254.026 351.505,255.720 349.922 C 261.924 344.125,272.421 336.800,274.525 336.800 C 275.336 336.800,276.000 336.331,276.000 335.757 C 276.000 335.183,277.260 333.493,278.800 332.000 C 280.340 330.507,281.600 328.894,281.600 328.416 C 281.600 327.937,283.622 325.578,286.093 323.173 C 288.564 320.768,291.815 316.910,293.317 314.600 C 294.820 312.290,296.332 310.400,296.677 310.400 C 297.023 310.400,298.111 308.967,299.095 307.216 C 300.079 305.465,301.326 303.755,301.865 303.416 C 302.404 303.077,303.532 301.180,304.371 299.200 C 305.210 297.220,306.495 294.880,307.226 294.000 C 307.958 293.120,309.176 290.780,309.933 288.800 C 310.689 286.820,312.159 283.940,313.199 282.400 C 314.238 280.860,315.344 278.160,315.656 276.400 C 315.968 274.640,317.318 269.060,318.656 264.000 L 321.089 254.800 321.402 193.684 C 321.574 160.071,321.503 131.723,321.244 130.689 C 320.612 128.171,316.918 126.691,305.316 124.304 C 300.099 123.232,294.803 121.822,293.546 121.172 C 292.289 120.522,288.372 119.300,284.841 118.457 C 281.309 117.613,277.426 116.216,276.210 115.351 C 274.995 114.486,272.059 113.203,269.686 112.499 C 267.314 111.795,263.829 110.314,261.944 109.209 C 260.058 108.104,258.115 107.200,257.626 107.200 C 257.137 107.200,254.866 105.940,252.579 104.400 C 250.292 102.860,248.037 101.600,247.567 101.600 C 247.098 101.600,245.113 100.591,243.157 99.357 C 241.200 98.123,238.160 96.537,236.400 95.832 C 233.104 94.512,225.433 90.153,221.200 87.195 C 219.880 86.273,216.008 83.783,212.596 81.662 C 209.185 79.542,205.648 76.860,204.738 75.703 C 202.357 72.676,197.392 72.766,193.043 75.916 M200.359 118.676 C 201.482 120.147,202.400 121.687,202.400 122.097 C 202.400 122.508,203.454 123.997,204.741 125.407 C 206.029 126.817,207.341 128.787,207.656 129.785 C 207.972 130.783,208.868 132.049,209.648 132.599 C 210.428 133.148,211.694 135.308,212.461 137.399 C 213.229 139.489,214.276 141.560,214.788 142.000 C 216.485 143.456,218.198 146.761,218.719 149.583 C 219.002 151.114,220.126 153.094,221.217 153.983 C 222.576 155.091,223.445 156.916,223.976 159.780 C 224.402 162.079,225.620 165.319,226.682 166.980 C 227.873 168.844,228.968 172.318,229.541 176.053 C 230.051 179.382,231.313 183.773,232.344 185.811 C 233.815 188.715,234.347 191.467,234.810 198.557 C 235.377 207.242,236.629 213.753,236.749 208.639 C 236.930 200.930,240.149 194.688,243.463 195.621 C 248.413 197.014,250.137 198.599,251.611 203.113 C 252.417 205.581,253.551 207.997,254.130 208.482 C 255.439 209.579,257.600 214.645,257.600 216.619 C 257.600 217.428,258.473 219.273,259.541 220.720 C 260.804 222.432,261.795 225.348,262.379 229.075 C 262.873 232.224,263.801 236.600,264.443 238.800 C 266.476 245.770,267.160 249.854,267.180 255.134 C 267.202 260.778,265.788 270.315,264.733 271.644 C 264.364 272.108,263.649 275.168,263.143 278.444 C 262.184 284.656,260.971 287.799,258.853 289.556 C 258.164 290.128,257.600 291.251,257.600 292.052 C 257.600 293.727,254.551 299.200,253.618 299.200 C 253.275 299.200,252.534 300.312,251.971 301.670 C 250.932 304.178,238.271 317.600,236.944 317.600 C 236.546 317.600,234.860 318.681,233.198 320.001 C 231.536 321.322,228.697 322.824,226.888 323.339 C 225.080 323.855,223.032 324.754,222.337 325.338 C 220.897 326.549,213.793 326.751,212.023 325.631 C 211.376 325.222,211.016 324.758,211.223 324.601 C 211.430 324.444,212.590 323.696,213.800 322.939 C 215.010 322.182,216.000 321.082,216.000 320.493 C 216.000 319.905,217.260 318.088,218.800 316.455 C 220.340 314.822,221.600 312.998,221.600 312.401 C 221.600 311.804,222.500 310.608,223.600 309.743 C 225.387 308.337,225.600 307.585,225.596 302.685 L 225.591 297.200 220.596 297.130 C 211.420 297.001,202.683 291.864,199.239 284.573 C 197.705 281.325,197.171 280.825,195.716 281.270 C 192.529 282.243,191.661 283.046,189.600 286.928 L 187.545 290.800 183.039 290.527 C 175.159 290.050,171.600 303.198,177.781 309.951 C 178.561 310.804,179.200 311.997,179.200 312.602 C 179.200 313.987,185.694 321.599,186.876 321.600 C 190.238 321.601,191.073 327.155,187.961 328.821 C 185.159 330.320,173.600 327.598,173.600 325.438 C 173.600 325.121,172.179 324.479,170.443 324.012 C 168.706 323.544,166.585 322.270,165.728 321.181 C 164.871 320.091,163.788 319.200,163.321 319.200 C 162.262 319.200,153.600 310.944,153.600 309.935 C 153.600 309.528,152.520 308.175,151.200 306.930 C 149.880 305.684,148.800 304.211,148.800 303.656 C 148.800 303.102,148.029 301.962,147.087 301.124 C 145.062 299.323,142.442 293.915,142.418 291.486 C 142.408 290.543,141.903 289.581,141.296 289.348 C 139.845 288.791,137.690 282.354,137.100 276.814 C 136.842 274.386,135.859 270.780,134.917 268.800 C 131.587 261.802,132.190 230.030,135.707 227.111 C 136.308 226.612,136.800 225.232,136.800 224.043 C 136.800 219.372,139.389 206.691,140.730 204.800 C 141.635 203.522,142.347 200.488,142.700 196.400 C 144.032 180.987,144.870 178.799,149.755 177.974 C 152.851 177.451,163.200 185.855,163.200 188.893 C 163.200 189.260,164.460 190.708,166.000 192.109 C 167.540 193.511,168.800 195.211,168.800 195.889 C 168.800 199.353,170.401 194.869,171.057 189.567 C 171.489 186.072,172.638 181.866,173.787 179.567 C 174.878 177.385,176.006 173.812,176.294 171.627 C 176.582 169.441,177.747 166.248,178.883 164.532 C 180.116 162.667,181.217 159.512,181.614 156.698 C 182.442 150.845,183.831 146.425,185.413 144.613 C 186.294 143.605,186.821 140.003,187.343 131.425 C 188.217 117.075,188.707 116.000,194.378 116.000 C 197.906 116.000,198.532 116.280,200.359 118.676 M195.475 256.936 C 194.323 259.501,193.071 261.600,192.691 261.600 C 192.311 261.600,192.000 262.304,192.000 263.164 C 192.000 265.658,202.209 266.358,207.725 264.241 C 210.497 263.178,208.931 257.240,205.200 254.669 C 200.094 251.149,197.835 251.676,195.475 256.936 " stroke="none" fill="#fcfcfc" fill-rule="evenodd"></path><path id="path1" d="M195.547 129.925 C 194.985 132.167,196.476 135.439,197.854 134.987 C 199.170 134.555,199.517 130.546,198.360 129.152 C 196.979 127.488,196.098 127.730,195.547 129.925 M191.771 145.600 C 190.401 150.591,191.379 156.711,193.293 155.122 C 194.622 154.020,194.624 151.135,193.298 146.800 C 192.377 143.787,192.288 143.717,191.771 145.600 M198.515 156.391 C 195.544 159.076,195.285 159.656,194.841 164.639 C 194.578 167.588,194.226 171.350,194.058 173.000 C 193.787 175.656,193.955 176.000,195.525 176.000 C 197.205 176.000,200.799 178.610,200.801 179.831 C 200.802 180.144,201.735 181.480,202.876 182.800 C 205.993 186.406,207.115 188.999,207.695 193.931 C 207.984 196.389,208.499 198.400,208.839 198.400 C 209.489 198.400,212.278 203.926,213.180 207.000 C 213.794 209.093,214.239 209.173,216.353 207.575 C 220.117 204.728,224.208 207.041,225.015 212.472 C 225.205 213.752,225.414 208.209,225.480 200.153 C 225.559 190.562,225.324 185.676,224.800 186.000 C 224.360 186.272,224.000 186.882,224.000 187.355 C 224.000 187.829,223.044 189.103,221.875 190.186 C 219.148 192.713,218.571 191.815,217.650 183.606 C 217.067 178.410,216.655 177.307,214.569 175.358 C 212.465 173.392,210.418 168.722,210.404 165.857 C 210.402 165.339,209.770 164.300,209.000 163.550 C 208.230 162.800,206.700 160.363,205.600 158.134 C 203.073 153.014,202.429 152.855,198.515 156.391 M186.086 162.065 C 185.048 164.769,185.548 172.800,186.753 172.800 C 188.359 172.800,188.906 171.655,189.158 167.763 C 189.479 162.796,187.333 158.816,186.086 162.065 M218.859 169.334 C 218.578 170.067,218.719 171.039,219.174 171.494 C 219.742 172.062,220.000 171.646,220.000 170.160 C 220.000 167.692,219.600 167.403,218.859 169.334 M191.380 177.009 C 189.985 178.735,189.372 186.079,190.454 188.101 C 191.722 190.471,192.336 189.066,193.167 181.889 C 193.735 176.987,193.006 174.997,191.380 177.009 M180.499 181.231 C 179.750 183.182,179.899 187.043,180.742 187.564 C 181.718 188.168,182.372 185.780,182.012 182.929 C 181.656 180.109,181.148 179.539,180.499 181.231 M152.500 190.967 C 152.249 191.218,152.235 191.733,152.469 192.112 C 153.031 193.020,155.200 193.000,155.200 192.086 C 155.200 191.203,153.124 190.342,152.500 190.967 M184.960 192.960 C 183.558 194.362,183.692 203.710,185.122 204.259 C 186.918 204.949,187.200 204.081,187.200 197.867 C 187.200 192.028,186.790 191.130,184.960 192.960 M154.600 212.025 C 152.122 213.021,152.336 213.964,155.602 216.456 C 158.722 218.835,160.800 218.198,160.800 214.862 C 160.800 211.589,158.408 210.494,154.600 212.025 M178.113 213.939 C 177.414 215.006,176.203 216.084,175.421 216.334 C 174.640 216.584,172.793 218.563,171.318 220.732 L 168.635 224.674 170.109 227.337 C 170.920 228.802,171.947 230.501,172.392 231.113 C 172.836 231.725,173.598 233.525,174.085 235.113 C 175.163 238.628,175.505 237.828,176.788 228.800 C 177.830 221.462,179.140 216.800,180.161 216.800 C 180.512 216.800,180.800 215.720,180.800 214.400 C 180.800 211.497,179.823 211.329,178.113 213.939 M151.328 228.992 C 149.354 230.966,150.611 237.600,152.960 237.600 C 153.815 237.600,153.785 229.009,152.928 228.479 C 152.559 228.251,151.839 228.481,151.328 228.992 M230.284 233.400 C 230.128 235.050,230.223 237.660,230.495 239.200 C 230.767 240.740,231.037 241.308,231.095 240.463 C 231.153 239.618,231.775 238.290,232.479 237.513 C 233.553 236.326,233.607 235.644,232.817 233.250 C 231.602 229.569,230.641 229.626,230.284 233.400 M252.533 240.533 C 251.742 241.325,251.910 245.023,252.800 246.400 C 253.361 247.268,253.579 246.548,253.588 243.800 C 253.600 239.942,253.484 239.582,252.533 240.533 M141.786 263.200 C 141.786 264.740,141.950 265.370,142.151 264.600 C 142.353 263.830,142.353 262.570,142.151 261.800 C 141.950 261.030,141.786 261.660,141.786 263.200 M146.973 271.694 C 146.272 272.394,146.237 279.309,146.913 283.400 C 147.536 287.165,149.245 287.299,149.840 283.628 C 150.324 280.649,147.939 270.727,146.973 271.694 M153.029 294.000 C 153.035 296.200,153.190 297.005,153.374 295.789 C 153.558 294.573,153.553 292.773,153.363 291.789 C 153.173 290.805,153.023 291.800,153.029 294.000 " stroke="none" fill="#0796d6" fill-rule="evenodd"></path><path id="path2" d="M195.246 46.231 C 193.731 46.984,191.401 48.590,190.068 49.800 C 188.734 51.010,187.204 52.000,186.667 52.000 C 186.130 52.000,185.211 52.684,184.626 53.521 C 184.040 54.357,182.129 55.857,180.380 56.854 C 178.631 57.850,176.300 59.466,175.200 60.443 C 174.100 61.421,172.390 62.465,171.401 62.764 C 170.411 63.063,167.850 64.453,165.710 65.854 C 161.099 68.871,157.947 70.709,152.000 73.847 C 149.580 75.123,147.240 76.456,146.800 76.808 C 144.559 78.601,124.615 88.110,118.400 90.349 C 116.860 90.904,113.791 92.224,111.581 93.283 C 109.370 94.342,105.230 95.707,102.381 96.318 C 99.531 96.928,95.445 98.192,93.301 99.128 C 91.157 100.063,86.117 101.329,82.101 101.940 C 78.085 102.552,73.720 103.476,72.400 103.993 C 71.080 104.510,66.580 105.117,62.400 105.341 C 50.259 105.991,48.226 107.054,47.594 113.088 C 47.312 115.790,47.204 146.980,47.355 182.400 L 47.629 246.800 50.281 261.200 C 52.155 271.372,53.582 276.892,55.142 280.000 C 56.356 282.420,57.592 285.387,57.889 286.594 C 58.185 287.800,59.501 290.481,60.814 292.550 C 62.126 294.620,63.200 296.804,63.200 297.405 C 63.200 298.005,64.460 300.146,66.000 302.163 C 67.540 304.180,68.800 306.498,68.800 307.315 C 68.800 308.132,69.143 308.800,69.562 308.800 C 69.981 308.800,71.550 310.893,73.049 313.451 C 74.549 316.010,76.727 319.160,77.891 320.451 C 79.054 321.743,80.895 323.880,81.983 325.200 C 89.221 333.984,96.268 341.917,97.551 342.724 C 98.184 343.122,99.906 344.562,101.379 345.924 C 104.299 348.625,107.064 350.976,113.200 355.977 C 118.339 360.164,118.196 360.053,122.846 363.548 C 125.021 365.182,127.700 367.224,128.800 368.085 C 129.900 368.946,132.060 370.470,133.600 371.472 C 138.333 374.552,145.144 379.434,146.257 380.545 C 146.839 381.125,147.764 381.600,148.313 381.600 C 148.863 381.600,150.784 382.860,152.583 384.400 C 154.382 385.940,156.165 387.200,156.545 387.200 C 156.925 387.200,158.487 388.229,160.018 389.487 C 161.548 390.744,164.292 392.533,166.117 393.460 C 167.941 394.388,169.932 395.609,170.541 396.174 C 171.150 396.738,173.357 398.100,175.444 399.200 C 177.532 400.300,182.734 403.360,187.004 406.000 C 196.987 412.172,200.834 412.531,206.573 407.828 C 208.568 406.194,211.235 404.394,212.500 403.828 C 213.765 403.263,216.592 401.630,218.782 400.200 C 220.972 398.770,223.178 397.600,223.684 397.600 C 224.190 397.600,225.067 397.043,225.632 396.362 C 226.197 395.681,228.902 394.042,231.644 392.720 C 234.385 391.397,237.263 389.615,238.038 388.758 C 238.814 387.901,239.965 387.200,240.597 387.200 C 241.229 387.200,243.218 385.940,245.017 384.400 C 246.816 382.860,248.773 381.600,249.367 381.600 C 249.960 381.600,251.605 380.511,253.023 379.180 C 256.732 375.697,262.448 371.200,263.166 371.200 C 264.060 371.200,274.091 363.692,277.011 360.837 C 278.382 359.497,279.834 358.400,280.237 358.400 C 280.640 358.400,281.678 357.500,282.543 356.400 C 283.408 355.300,284.682 354.400,285.375 354.400 C 286.938 354.400,310.400 330.805,310.400 329.233 C 310.400 328.605,311.186 327.540,312.147 326.867 C 313.108 326.194,314.818 324.240,315.947 322.524 C 322.804 312.106,324.268 309.959,324.762 309.600 C 325.063 309.380,326.151 307.400,327.178 305.200 C 328.206 303.000,329.458 300.660,329.961 300.000 C 330.464 299.340,331.722 296.640,332.757 294.000 C 333.792 291.360,335.050 288.660,335.553 288.000 C 336.056 287.340,337.126 284.640,337.931 282.000 C 338.736 279.360,339.943 275.760,340.612 274.000 C 344.733 263.166,348.651 111.531,344.907 107.787 C 344.440 107.320,339.994 106.642,335.029 106.280 C 330.063 105.919,324.020 105.077,321.600 104.410 C 319.180 103.743,315.220 102.828,312.800 102.377 C 304.907 100.907,301.253 99.930,298.000 98.418 C 296.240 97.600,292.100 96.319,288.800 95.570 C 285.500 94.821,281.844 93.531,280.677 92.704 C 279.509 91.877,278.119 91.200,277.588 91.200 C 277.057 91.200,273.225 89.580,269.072 87.600 C 264.919 85.620,261.306 84.000,261.044 84.000 C 260.633 84.000,257.863 82.319,250.793 77.777 C 244.436 73.694,236.004 68.909,234.184 68.351 C 233.203 68.051,230.899 66.589,229.065 65.102 C 227.231 63.616,225.354 62.400,224.893 62.400 C 224.433 62.400,222.826 61.320,221.322 60.000 C 219.819 58.680,218.327 57.600,218.008 57.600 C 217.262 57.600,207.351 49.826,205.038 47.427 C 204.069 46.422,202.809 45.595,202.238 45.589 C 201.667 45.583,200.480 45.417,199.600 45.220 C 198.720 45.023,196.761 45.478,195.246 46.231 M207.798 67.427 C 209.449 68.872,212.186 70.762,213.879 71.627 C 215.573 72.492,217.373 73.778,217.879 74.485 C 218.386 75.192,219.700 76.043,220.800 76.375 C 221.900 76.708,223.700 77.762,224.800 78.719 C 225.900 79.675,228.420 81.308,230.400 82.348 C 232.380 83.387,234.540 84.694,235.200 85.252 C 235.860 85.809,238.020 86.896,240.000 87.665 C 241.980 88.435,244.500 89.663,245.600 90.393 C 246.700 91.123,248.781 92.192,250.225 92.768 C 251.669 93.344,254.149 94.847,255.735 96.108 C 257.322 97.368,258.952 98.400,259.358 98.400 C 259.763 98.400,263.112 99.840,266.800 101.600 C 270.488 103.360,273.983 104.800,274.567 104.800 C 275.151 104.800,276.882 105.652,278.414 106.693 C 279.946 107.734,282.460 108.860,284.000 109.195 C 288.241 110.119,296.141 112.723,297.127 113.523 C 297.607 113.912,301.863 114.796,306.585 115.486 C 314.279 116.612,319.561 118.163,325.600 121.070 C 330.538 123.447,330.398 121.440,330.394 189.600 C 330.390 256.756,330.177 260.820,326.036 272.585 C 324.916 275.767,324.000 278.966,324.000 279.695 C 324.000 280.818,320.056 289.096,313.194 302.376 C 312.311 304.085,310.866 306.320,309.984 307.342 C 309.101 308.364,307.681 310.460,306.828 312.000 C 303.946 317.204,294.448 328.796,288.902 333.880 C 288.494 334.254,287.449 335.289,286.580 336.180 C 285.711 337.071,284.505 338.301,283.900 338.914 C 276.586 346.324,264.033 355.920,259.968 357.210 C 259.147 357.471,257.271 358.835,255.798 360.242 C 252.279 363.602,248.526 366.515,245.801 368.000 C 244.591 368.660,242.306 370.190,240.724 371.400 C 239.143 372.610,237.522 373.600,237.122 373.600 C 236.722 373.600,234.673 374.824,232.568 376.321 C 230.464 377.817,227.855 379.264,226.771 379.536 C 225.687 379.808,224.800 380.378,224.800 380.802 C 224.800 381.226,222.910 382.519,220.600 383.676 C 218.290 384.833,215.254 386.639,213.853 387.689 C 212.453 388.740,210.972 389.600,210.563 389.600 C 210.155 389.600,208.421 390.714,206.710 392.076 C 202.585 395.361,195.225 395.225,189.816 391.765 C 187.955 390.574,186.022 389.600,185.522 389.600 C 185.021 389.600,183.442 388.610,182.014 387.400 C 180.585 386.190,177.497 384.120,175.151 382.800 C 172.805 381.480,169.422 379.500,167.633 378.400 C 165.844 377.300,163.140 375.680,161.624 374.800 C 160.108 373.920,157.878 372.253,156.669 371.097 C 155.459 369.940,152.834 368.034,150.835 366.863 C 148.836 365.691,147.200 364.388,147.200 363.966 C 147.200 363.545,146.712 363.200,146.115 363.200 C 145.518 363.200,143.448 361.993,141.515 360.517 C 139.582 359.042,136.470 357.055,134.600 356.101 C 132.730 355.148,131.200 354.015,131.200 353.584 C 131.200 353.153,130.746 352.800,130.191 352.800 C 129.637 352.800,126.000 350.190,122.109 347.000 C 118.218 343.810,113.992 340.537,112.717 339.726 C 111.443 338.916,110.400 337.819,110.400 337.289 C 110.400 336.759,106.591 332.306,101.936 327.394 C 94.303 319.340,89.873 314.114,87.600 310.483 C 87.160 309.780,85.900 308.083,84.800 306.711 C 83.700 305.339,81.811 302.458,80.603 300.308 C 79.395 298.159,78.073 295.860,77.667 295.200 C 77.260 294.540,76.242 292.560,75.404 290.800 C 74.566 289.040,73.296 286.520,72.581 285.200 C 62.979 267.474,60.444 235.948,62.193 156.000 C 63.005 118.895,63.398 118.269,87.794 115.175 C 91.129 114.753,96.066 113.523,98.765 112.443 C 101.464 111.364,105.356 110.103,107.414 109.642 C 109.473 109.180,112.336 108.078,113.778 107.192 C 115.220 106.305,117.840 105.199,119.600 104.733 C 123.413 103.724,127.841 101.686,146.400 92.397 C 165.889 82.642,169.542 80.661,171.833 78.600 C 172.933 77.610,174.241 76.800,174.738 76.800 C 175.236 76.800,177.560 75.360,179.902 73.600 C 182.244 71.840,184.509 70.400,184.934 70.400 C 185.359 70.400,186.919 69.475,188.401 68.345 C 194.313 63.836,203.212 63.415,207.798 67.427 M194.472 125.124 C 192.322 127.412,191.444 130.951,190.030 143.033 C 189.168 150.393,188.587 152.621,186.894 155.065 C 185.674 156.825,184.617 159.703,184.335 162.032 C 183.717 167.135,182.484 171.271,181.111 172.850 C 180.513 173.538,179.449 177.138,178.747 180.850 C 178.046 184.563,176.818 188.680,176.020 190.000 C 175.222 191.320,174.211 195.141,173.773 198.492 C 172.312 209.687,168.467 211.807,165.632 202.980 C 165.099 201.318,163.843 198.978,162.841 197.780 C 161.839 196.581,160.748 194.736,160.418 193.681 C 159.651 191.234,153.637 185.472,152.163 185.772 C 150.865 186.037,148.830 191.398,148.812 194.600 C 148.805 195.810,148.440 196.800,148.000 196.800 C 147.554 196.800,147.193 199.011,147.184 201.800 C 147.157 210.037,145.876 216.704,143.682 220.020 C 138.319 228.123,137.932 266.004,143.075 279.447 C 143.948 281.731,145.134 285.197,145.709 287.149 C 146.284 289.102,147.575 291.674,148.577 292.865 C 149.580 294.056,150.400 295.442,150.400 295.944 C 150.400 297.161,152.668 300.644,155.386 303.600 C 156.600 304.920,157.594 306.430,157.596 306.956 C 157.598 307.482,158.590 308.384,159.800 308.960 C 161.010 309.536,162.344 310.790,162.765 311.747 C 163.544 313.518,169.254 316.308,170.510 315.532 C 171.703 314.794,171.281 313.487,168.490 309.283 C 163.783 302.191,163.343 299.211,164.703 283.684 L 165.888 270.168 164.098 268.719 C 163.094 267.905,160.255 267.037,157.631 266.740 C 153.387 266.260,152.597 265.849,149.114 262.313 L 145.275 258.415 144.947 250.924 C 144.508 240.880,145.979 237.979,149.649 241.649 C 153.938 245.938,156.360 241.809,155.606 231.491 C 155.123 224.866,155.959 222.377,158.657 222.412 C 161.767 222.454,170.543 233.332,173.308 240.573 C 174.028 242.458,174.862 244.000,175.161 244.000 C 176.165 244.000,178.449 238.267,178.939 234.517 C 179.206 232.473,179.878 229.899,180.431 228.797 C 180.984 227.696,182.073 223.736,182.851 219.997 C 183.629 216.259,184.913 212.470,185.705 211.577 C 187.310 209.770,189.600 203.828,189.600 201.473 C 189.600 200.634,190.454 198.249,191.498 196.173 C 192.541 194.098,193.986 190.348,194.708 187.841 C 196.634 181.153,197.071 181.139,201.757 187.613 C 203.849 190.502,204.922 193.078,205.592 196.813 C 206.454 201.625,212.122 217.172,213.554 218.652 C 213.901 219.011,214.763 217.859,215.470 216.092 C 217.960 209.869,222.055 211.022,223.671 218.400 C 223.912 219.500,224.763 221.840,225.562 223.600 C 226.467 225.592,227.183 229.620,227.460 234.268 C 227.762 239.338,228.343 242.404,229.268 243.816 L 230.631 245.897 234.527 241.548 C 236.669 239.157,239.036 236.207,239.788 234.992 C 242.317 230.906,246.350 235.803,246.480 243.118 C 246.601 249.936,247.261 251.558,250.032 251.850 C 256.216 252.502,255.934 262.400,249.731 262.400 C 248.546 262.400,246.277 263.096,244.689 263.948 L 241.802 265.495 239.163 263.687 C 236.406 261.798,225.940 262.540,223.696 264.784 C 223.247 265.233,222.043 265.600,221.020 265.600 C 218.489 265.600,217.164 269.016,218.471 272.172 C 219.367 274.334,219.468 274.373,220.475 272.935 C 221.059 272.102,222.631 270.967,223.968 270.413 C 225.706 269.694,226.400 268.867,226.400 267.518 C 226.400 265.261,229.373 264.194,231.898 265.546 C 233.405 266.352,234.003 267.811,235.691 274.800 C 236.010 276.120,236.928 278.280,237.732 279.600 C 238.536 280.920,239.221 283.440,239.253 285.200 C 239.286 286.960,239.592 289.116,239.934 289.991 C 240.709 291.977,239.248 297.653,236.423 303.624 C 234.260 308.197,234.458 310.142,236.987 309.171 C 237.678 308.906,238.424 307.994,238.646 307.145 C 238.883 306.239,239.743 305.600,240.725 305.600 C 241.646 305.600,242.400 305.285,242.400 304.901 C 242.400 304.516,243.690 302.806,245.267 301.101 C 246.844 299.395,248.831 296.650,249.683 295.000 C 250.535 293.350,251.519 292.000,251.868 292.000 C 252.781 292.000,255.200 286.658,255.200 284.643 C 255.200 283.707,256.083 281.433,257.163 279.591 C 262.129 271.117,261.722 242.774,256.485 232.301 C 255.412 230.156,254.292 226.960,253.997 225.200 C 252.972 219.089,252.892 218.976,249.917 219.458 C 248.423 219.701,247.200 219.562,247.200 219.150 C 247.200 218.737,247.560 218.400,248.000 218.400 C 249.332 218.400,248.995 207.557,247.627 206.422 C 244.794 204.071,242.111 206.467,240.584 212.711 C 237.818 224.020,232.487 223.726,231.221 212.194 C 230.882 209.106,230.369 206.197,230.081 205.731 C 229.793 205.265,228.692 198.765,227.635 191.286 C 226.199 181.132,225.304 177.119,224.100 175.444 C 223.213 174.210,221.966 170.617,221.330 167.459 C 220.645 164.063,219.499 160.996,218.524 159.949 C 217.617 158.975,216.345 156.622,215.696 154.719 C 215.048 152.816,213.754 150.440,212.822 149.440 C 211.890 148.439,210.749 146.115,210.285 144.276 C 209.822 142.437,208.578 140.119,207.522 139.126 C 206.465 138.133,205.600 137.017,205.600 136.646 C 205.600 135.651,197.482 123.200,196.833 123.200 C 196.528 123.200,195.466 124.066,194.472 125.124 M198.360 129.152 C 199.517 130.546,199.170 134.555,197.854 134.987 C 196.476 135.439,194.985 132.167,195.547 129.925 C 196.098 127.730,196.979 127.488,198.360 129.152 M194.339 152.102 C 194.415 154.708,192.437 156.692,191.693 154.755 C 191.041 153.056,191.083 148.105,191.771 145.600 C 192.401 143.303,194.216 147.896,194.339 152.102 M205.600 158.134 C 206.700 160.363,208.230 162.800,209.000 163.550 C 209.770 164.300,210.402 165.339,210.404 165.857 C 210.418 168.722,212.465 173.392,214.569 175.358 C 216.655 177.307,217.067 178.410,217.650 183.606 C 218.571 191.815,219.148 192.713,221.875 190.186 C 223.044 189.103,224.000 187.829,224.000 187.355 C 224.000 186.882,224.360 186.272,224.800 186.000 C 225.324 185.676,225.559 190.562,225.480 200.153 C 225.414 208.209,225.205 213.752,225.015 212.472 C 224.208 207.041,220.117 204.728,216.353 207.575 C 214.239 209.173,213.794 209.093,213.180 207.000 C 212.278 203.926,209.489 198.400,208.839 198.400 C 208.499 198.400,207.984 196.389,207.695 193.931 C 207.115 188.999,205.993 186.406,202.876 182.800 C 201.735 181.480,200.802 180.144,200.801 179.831 C 200.799 178.610,197.205 176.000,195.525 176.000 C 193.955 176.000,193.787 175.656,194.058 173.000 C 194.226 171.350,194.578 167.588,194.841 164.639 C 195.285 159.656,195.544 159.076,198.515 156.391 C 202.429 152.855,203.073 153.014,205.600 158.134 M188.559 162.600 C 189.409 164.475,189.321 170.510,188.423 171.963 C 186.892 174.441,185.600 172.657,185.600 168.065 C 185.600 161.103,186.841 158.811,188.559 162.600 M220.000 170.160 C 220.000 171.646,219.742 172.062,219.174 171.494 C 218.719 171.039,218.578 170.067,218.859 169.334 C 219.600 167.403,220.000 167.692,220.000 170.160 M193.167 181.889 C 192.854 184.590,192.337 187.507,192.019 188.370 C 190.880 191.454,189.395 186.809,190.024 182.130 C 191.085 174.234,194.081 174.004,193.167 181.889 M182.012 182.929 C 182.372 185.780,181.718 188.168,180.742 187.564 C 179.899 187.043,179.750 183.182,180.499 181.231 C 181.148 179.539,181.656 180.109,182.012 182.929 M155.200 192.086 C 155.200 193.000,153.031 193.020,152.469 192.112 C 152.235 191.733,152.249 191.218,152.500 190.967 C 153.124 190.342,155.200 191.203,155.200 192.086 M187.200 197.867 C 187.200 204.081,186.918 204.949,185.122 204.259 C 183.692 203.710,183.558 194.362,184.960 192.960 C 186.790 191.130,187.200 192.028,187.200 197.867 M159.840 212.160 C 161.169 213.489,161.042 216.403,159.602 217.598 C 158.349 218.638,152.800 215.322,152.800 213.534 C 152.800 211.708,158.313 210.633,159.840 212.160 M180.800 214.400 C 180.800 215.720,180.512 216.800,180.161 216.800 C 179.140 216.800,177.830 221.462,176.788 228.800 C 175.505 237.828,175.163 238.628,174.085 235.113 C 173.598 233.525,172.836 231.725,172.392 231.113 C 171.947 230.501,170.920 228.802,170.109 227.337 L 168.635 224.674 171.318 220.732 C 172.793 218.563,174.640 216.584,175.421 216.334 C 176.203 216.084,177.414 215.006,178.113 213.939 C 179.823 211.329,180.800 211.497,180.800 214.400 M153.600 233.247 C 153.600 237.645,153.109 238.389,151.360 236.640 C 150.133 235.413,150.112 230.208,151.328 228.992 C 152.906 227.414,153.600 228.714,153.600 233.247 M232.817 233.250 C 233.607 235.644,233.553 236.326,232.479 237.513 C 231.775 238.290,231.153 239.618,231.095 240.463 C 231.037 241.308,230.767 240.740,230.495 239.200 C 229.303 232.455,231.065 227.942,232.817 233.250 M253.588 243.800 C 253.579 246.548,253.361 247.268,252.800 246.400 C 251.525 244.427,251.894 240.000,253.333 240.000 C 253.480 240.000,253.594 241.710,253.588 243.800 M142.151 264.600 C 141.950 265.370,141.786 264.740,141.786 263.200 C 141.786 261.660,141.950 261.030,142.151 261.800 C 142.353 262.570,142.353 263.830,142.151 264.600 M149.840 283.628 C 149.245 287.299,147.536 287.165,146.913 283.400 C 146.237 279.309,146.272 272.394,146.973 271.694 C 147.939 270.727,150.324 280.649,149.840 283.628 M153.374 295.789 C 153.190 297.005,153.035 296.200,153.029 294.000 C 153.023 291.800,153.173 290.805,153.363 291.789 C 153.553 292.773,153.558 294.573,153.374 295.789 " stroke="none" fill="#37a0de" fill-rule="evenodd"></path><path id="path3" d="M193.153 42.858 C 190.539 44.430,185.880 47.593,182.800 49.888 C 177.208 54.053,164.453 62.400,163.680 62.400 C 163.455 62.400,161.936 63.306,160.305 64.413 C 158.673 65.520,154.215 68.016,150.397 69.958 C 146.579 71.901,141.688 74.505,139.528 75.745 C 135.963 77.791,131.334 80.001,117.200 86.402 C 114.560 87.597,108.440 89.839,103.600 91.384 C 79.114 99.199,78.356 99.366,60.571 100.819 C 42.909 102.262,44.519 97.885,43.947 146.000 C 43.264 203.485,44.334 254.840,46.402 263.809 C 49.083 275.433,50.781 281.001,52.925 285.200 C 54.048 287.400,55.624 291.000,56.427 293.200 C 57.229 295.400,58.542 298.156,59.343 299.323 C 60.144 300.491,60.800 301.690,60.800 301.988 C 60.800 302.503,63.122 306.247,69.491 316.000 C 76.867 327.295,96.573 348.971,104.038 354.000 C 105.997 355.320,108.865 357.549,110.410 358.953 C 114.705 362.855,123.227 369.597,126.800 371.920 C 128.560 373.064,131.458 375.080,133.241 376.400 C 139.243 380.846,140.378 381.637,148.000 386.691 C 152.180 389.463,158.120 393.449,161.200 395.547 C 164.280 397.646,167.520 399.685,168.400 400.079 C 170.302 400.931,171.403 401.610,178.973 406.597 C 182.148 408.689,184.967 410.400,185.237 410.400 C 185.508 410.400,187.590 411.619,189.864 413.110 C 196.840 417.680,201.608 417.840,206.087 413.654 C 207.418 412.410,209.743 410.761,211.254 409.989 C 213.428 408.877,223.933 402.686,233.600 396.818 C 234.260 396.418,238.220 394.040,242.400 391.533 C 246.580 389.027,251.980 385.285,254.400 383.217 C 258.200 379.970,262.009 377.206,267.114 373.990 C 270.215 372.038,273.231 370.004,273.600 369.618 C 274.949 368.207,284.576 360.350,290.003 356.230 C 298.060 350.115,309.410 338.202,317.876 326.976 C 321.885 321.660,326.400 315.231,326.400 314.838 C 326.400 314.641,327.470 312.895,328.778 310.957 C 331.410 307.056,339.200 291.821,339.200 290.572 C 339.200 290.136,340.257 287.489,341.550 284.690 C 343.981 279.424,345.054 274.339,348.420 252.138 L 350.400 239.077 350.400 173.316 C 350.400 101.301,350.670 105.385,345.751 102.907 C 344.568 102.310,339.640 101.593,334.800 101.312 C 311.666 99.972,269.370 86.184,255.251 75.381 C 252.322 73.140,251.103 72.436,240.889 67.088 C 231.239 62.035,210.555 47.573,204.922 41.941 C 202.163 39.181,198.837 39.440,193.153 42.858 M202.238 45.589 C 202.809 45.595,204.069 46.422,205.038 47.427 C 207.351 49.826,217.262 57.600,218.008 57.600 C 218.327 57.600,219.819 58.680,221.322 60.000 C 222.826 61.320,224.433 62.400,224.893 62.400 C 225.354 62.400,227.231 63.616,229.065 65.102 C 230.899 66.589,233.203 68.051,234.184 68.351 C 236.004 68.909,244.436 73.694,250.793 77.777 C 257.863 82.319,260.633 84.000,261.044 84.000 C 261.306 84.000,264.919 85.620,269.072 87.600 C 273.225 89.580,277.057 91.200,277.588 91.200 C 278.119 91.200,279.509 91.877,280.677 92.704 C 281.844 93.531,285.500 94.821,288.800 95.570 C 292.100 96.319,296.240 97.600,298.000 98.418 C 301.253 99.930,304.907 100.907,312.800 102.377 C 315.220 102.828,319.180 103.743,321.600 104.410 C 324.020 105.077,330.063 105.919,335.029 106.280 C 339.994 106.642,344.440 107.320,344.907 107.787 C 348.651 111.531,344.733 263.166,340.612 274.000 C 339.943 275.760,338.736 279.360,337.931 282.000 C 337.126 284.640,336.056 287.340,335.553 288.000 C 335.050 288.660,333.792 291.360,332.757 294.000 C 331.722 296.640,330.464 299.340,329.961 300.000 C 329.458 300.660,328.206 303.000,327.178 305.200 C 326.151 307.400,325.063 309.380,324.762 309.600 C 324.268 309.959,322.804 312.106,315.947 322.524 C 314.818 324.240,313.108 326.194,312.147 326.867 C 311.186 327.540,310.400 328.605,310.400 329.233 C 310.400 330.805,286.938 354.400,285.375 354.400 C 284.682 354.400,283.408 355.300,282.543 356.400 C 281.678 357.500,280.640 358.400,280.237 358.400 C 279.834 358.400,278.382 359.497,277.011 360.837 C 274.091 363.692,264.060 371.200,263.166 371.200 C 262.448 371.200,256.732 375.697,253.023 379.180 C 251.605 380.511,249.960 381.600,249.367 381.600 C 248.773 381.600,246.816 382.860,245.017 384.400 C 243.218 385.940,241.229 387.200,240.597 387.200 C 239.965 387.200,238.814 387.901,238.038 388.758 C 237.263 389.615,234.385 391.397,231.644 392.720 C 228.902 394.042,226.197 395.681,225.632 396.362 C 225.067 397.043,224.190 397.600,223.684 397.600 C 223.178 397.600,220.972 398.770,218.782 400.200 C 216.592 401.630,213.765 403.263,212.500 403.828 C 211.235 404.394,208.568 406.194,206.573 407.828 C 200.834 412.531,196.987 412.172,187.004 406.000 C 182.734 403.360,177.532 400.300,175.444 399.200 C 173.357 398.100,171.150 396.738,170.541 396.174 C 169.932 395.609,167.941 394.388,166.117 393.460 C 164.292 392.533,161.548 390.744,160.018 389.487 C 158.487 388.229,156.925 387.200,156.545 387.200 C 156.165 387.200,154.382 385.940,152.583 384.400 C 150.784 382.860,148.863 381.600,148.313 381.600 C 147.764 381.600,146.839 381.125,146.257 380.545 C 145.144 379.434,138.333 374.552,133.600 371.472 C 132.060 370.470,129.900 368.946,128.800 368.085 C 127.700 367.224,125.021 365.182,122.846 363.548 C 118.196 360.053,118.339 360.164,113.200 355.977 C 107.064 350.976,104.299 348.625,101.379 345.924 C 99.906 344.562,98.184 343.122,97.551 342.724 C 96.268 341.917,89.221 333.984,81.983 325.200 C 80.895 323.880,79.054 321.743,77.891 320.451 C 76.727 319.160,74.549 316.010,73.049 313.451 C 71.550 310.893,69.981 308.800,69.562 308.800 C 69.143 308.800,68.800 308.132,68.800 307.315 C 68.800 306.498,67.540 304.180,66.000 302.163 C 64.460 300.146,63.200 298.005,63.200 297.405 C 63.200 296.804,62.126 294.620,60.814 292.550 C 59.501 290.481,58.185 287.800,57.889 286.594 C 57.592 285.387,56.356 282.420,55.142 280.000 C 53.582 276.892,52.155 271.372,50.281 261.200 L 47.629 246.800 47.355 182.400 C 47.204 146.980,47.312 115.790,47.594 113.088 C 48.226 107.054,50.259 105.991,62.400 105.341 C 66.580 105.117,71.080 104.510,72.400 103.993 C 73.720 103.476,78.085 102.552,82.101 101.940 C 86.117 101.329,91.157 100.063,93.301 99.128 C 95.445 98.192,99.531 96.928,102.381 96.318 C 105.230 95.707,109.370 94.342,111.581 93.283 C 113.791 92.224,116.860 90.904,118.400 90.349 C 124.615 88.110,144.559 78.601,146.800 76.808 C 147.240 76.456,149.580 75.123,152.000 73.847 C 157.947 70.709,161.099 68.871,165.710 65.854 C 167.850 64.453,170.411 63.063,171.401 62.764 C 172.390 62.465,174.100 61.421,175.200 60.443 C 176.300 59.466,178.631 57.850,180.380 56.854 C 182.129 55.857,184.040 54.357,184.626 53.521 C 185.211 52.684,186.130 52.000,186.667 52.000 C 187.204 52.000,188.734 51.010,190.068 49.800 C 193.309 46.858,197.634 44.780,199.600 45.220 C 200.480 45.417,201.667 45.583,202.238 45.589 M193.348 65.613 C 192.109 65.985,189.883 67.214,188.401 68.345 C 186.919 69.475,185.359 70.400,184.934 70.400 C 184.509 70.400,182.244 71.840,179.902 73.600 C 177.560 75.360,175.236 76.800,174.738 76.800 C 174.241 76.800,172.933 77.610,171.833 78.600 C 169.542 80.661,165.889 82.642,146.400 92.397 C 127.841 101.686,123.413 103.724,119.600 104.733 C 117.840 105.199,115.220 106.305,113.778 107.192 C 112.336 108.078,109.473 109.180,107.414 109.642 C 105.356 110.103,101.464 111.364,98.765 112.443 C 96.066 113.523,91.129 114.753,87.794 115.175 C 63.398 118.269,63.005 118.895,62.193 156.000 C 60.444 235.948,62.979 267.474,72.581 285.200 C 73.296 286.520,74.566 289.040,75.404 290.800 C 76.242 292.560,77.260 294.540,77.667 295.200 C 78.073 295.860,79.395 298.159,80.603 300.308 C 81.811 302.458,83.700 305.339,84.800 306.711 C 85.900 308.083,87.160 309.780,87.600 310.483 C 89.873 314.114,94.303 319.340,101.936 327.394 C 106.591 332.306,110.400 336.759,110.400 337.289 C 110.400 337.819,111.443 338.916,112.717 339.726 C 113.992 340.537,118.218 343.810,122.109 347.000 C 126.000 350.190,129.637 352.800,130.191 352.800 C 130.746 352.800,131.200 353.153,131.200 353.584 C 131.200 354.015,132.730 355.148,134.600 356.101 C 136.470 357.055,139.582 359.042,141.515 360.517 C 143.448 361.993,145.518 363.200,146.115 363.200 C 146.712 363.200,147.200 363.545,147.200 363.966 C 147.200 364.388,148.836 365.691,150.835 366.863 C 152.834 368.034,155.459 369.940,156.669 371.097 C 157.878 372.253,160.108 373.920,161.624 374.800 C 163.140 375.680,165.844 377.300,167.633 378.400 C 169.422 379.500,172.805 381.480,175.151 382.800 C 177.497 384.120,180.585 386.190,182.014 387.400 C 183.442 388.610,185.021 389.600,185.522 389.600 C 186.022 389.600,187.955 390.574,189.816 391.765 C 195.225 395.225,202.585 395.361,206.710 392.076 C 208.421 390.714,210.155 389.600,210.563 389.600 C 210.972 389.600,212.453 388.740,213.853 387.689 C 215.254 386.639,218.290 384.833,220.600 383.676 C 222.910 382.519,224.800 381.226,224.800 380.802 C 224.800 380.378,225.687 379.808,226.771 379.536 C 227.855 379.264,230.464 377.817,232.568 376.321 C 234.673 374.824,236.722 373.600,237.122 373.600 C 237.522 373.600,239.143 372.610,240.724 371.400 C 242.306 370.190,244.591 368.660,245.801 368.000 C 248.526 366.515,252.279 363.602,255.798 360.242 C 257.271 358.835,259.147 357.471,259.968 357.210 C 264.033 355.920,276.586 346.324,283.900 338.914 C 284.505 338.301,285.711 337.071,286.580 336.180 C 287.449 335.289,288.494 334.254,288.902 333.880 C 294.448 328.796,303.946 317.204,306.828 312.000 C 307.681 310.460,309.101 308.364,309.984 307.342 C 310.866 306.320,312.311 304.085,313.194 302.376 C 320.056 289.096,324.000 280.818,324.000 279.695 C 324.000 278.966,324.916 275.767,326.036 272.585 C 330.177 260.820,330.390 256.756,330.394 189.600 C 330.398 121.440,330.538 123.447,325.600 121.070 C 319.561 118.163,314.279 116.612,306.585 115.486 C 301.863 114.796,297.607 113.912,297.127 113.523 C 296.141 112.723,288.241 110.119,284.000 109.195 C 282.460 108.860,279.946 107.734,278.414 106.693 C 276.882 105.652,275.151 104.800,274.567 104.800 C 273.983 104.800,270.488 103.360,266.800 101.600 C 263.112 99.840,259.763 98.400,259.358 98.400 C 258.952 98.400,257.322 97.368,255.735 96.108 C 254.149 94.847,251.669 93.344,250.225 92.768 C 248.781 92.192,246.700 91.123,245.600 90.393 C 244.500 89.663,241.980 88.435,240.000 87.665 C 238.020 86.896,235.860 85.809,235.200 85.252 C 234.540 84.694,232.380 83.387,230.400 82.348 C 228.420 81.308,225.900 79.675,224.800 78.719 C 223.700 77.762,221.900 76.708,220.800 76.375 C 219.700 76.043,218.386 75.192,217.879 74.485 C 217.373 73.778,215.573 72.492,213.879 71.627 C 212.186 70.762,209.449 68.872,207.798 67.427 C 204.614 64.641,198.954 63.931,193.348 65.613 M201.554 68.800 C 202.336 68.800,205.097 70.452,207.688 72.471 C 215.344 78.436,231.216 88.137,243.670 94.463 C 250.062 97.710,255.901 100.931,256.646 101.621 C 257.391 102.311,259.620 103.521,261.600 104.310 C 263.580 105.099,267.000 106.573,269.200 107.586 C 271.400 108.599,275.356 110.214,277.990 111.174 C 280.625 112.134,283.150 113.227,283.602 113.602 C 284.422 114.282,301.769 118.843,314.131 121.629 C 327.568 124.656,326.400 118.186,326.400 189.606 C 326.400 254.908,326.543 252.475,321.546 272.293 C 318.864 282.929,304.271 310.517,298.426 316.000 C 298.192 316.220,296.581 318.165,294.846 320.322 C 293.112 322.479,290.232 325.798,288.446 327.698 C 286.661 329.597,284.120 332.468,282.800 334.079 C 281.480 335.689,278.420 338.474,276.000 340.268 C 273.580 342.062,270.910 344.168,270.067 344.948 C 269.224 345.728,267.065 347.364,265.271 348.583 C 260.819 351.607,250.892 358.694,250.400 359.200 C 250.040 359.570,238.070 367.343,227.559 374.033 C 225.336 375.448,222.096 377.383,220.359 378.334 C 212.622 382.567,208.050 385.295,206.680 386.497 C 201.825 390.754,193.740 390.304,188.348 385.478 C 187.440 384.665,186.412 384.000,186.064 384.000 C 185.717 384.000,183.832 382.920,181.876 381.600 C 179.920 380.280,178.154 379.200,177.952 379.200 C 177.749 379.200,175.870 378.030,173.776 376.600 C 171.683 375.170,168.716 373.312,167.185 372.471 C 165.653 371.630,161.377 368.777,157.682 366.132 C 149.043 359.945,141.933 355.200,141.302 355.200 C 140.644 355.200,129.790 347.442,127.667 345.453 C 126.750 344.595,123.601 342.310,120.668 340.374 C 117.383 338.207,113.852 334.926,111.468 331.828 C 109.341 329.063,105.748 324.820,103.485 322.400 C 97.462 315.960,89.209 305.870,87.920 303.371 C 87.304 302.177,85.863 299.760,84.717 298.000 C 83.571 296.240,81.557 292.820,80.241 290.400 C 78.924 287.980,77.065 284.740,76.108 283.200 C 68.341 270.699,67.097 259.430,66.626 197.333 C 66.049 121.300,65.483 124.919,78.422 121.809 C 82.590 120.808,87.800 119.471,90.000 118.838 C 92.200 118.206,97.060 116.970,100.800 116.092 C 107.080 114.617,115.622 111.557,123.688 107.893 C 125.496 107.072,127.244 106.400,127.573 106.400 C 128.685 106.400,150.096 95.989,158.800 91.216 C 161.000 90.010,164.960 87.845,167.600 86.407 C 170.240 84.968,174.111 82.578,176.202 81.096 C 178.293 79.613,180.230 78.400,180.506 78.400 C 180.783 78.400,182.821 77.098,185.035 75.507 C 190.521 71.566,197.763 67.891,199.063 68.390 C 199.650 68.616,200.771 68.800,201.554 68.800 M191.330 122.034 C 190.801 123.196,190.004 127.803,189.559 132.273 C 188.464 143.279,187.245 149.610,185.766 151.978 C 185.086 153.065,183.725 157.025,182.740 160.778 C 181.755 164.530,180.044 170.120,178.938 173.200 C 175.647 182.365,174.363 186.514,173.123 192.000 C 170.318 204.405,169.950 204.990,167.791 200.464 C 165.243 195.120,154.623 182.400,152.710 182.400 C 148.270 182.400,146.166 187.097,144.829 200.000 C 144.350 204.613,143.096 210.272,141.636 214.400 C 140.314 218.140,139.212 222.280,139.187 223.600 C 139.163 224.920,138.617 228.160,137.974 230.800 C 134.503 245.048,136.495 269.693,142.328 284.677 C 143.639 288.045,144.903 291.340,145.137 292.000 C 145.686 293.547,151.674 302.782,154.890 307.040 C 162.302 316.853,176.073 325.299,178.476 321.504 C 179.520 319.855,179.402 319.487,176.908 316.628 C 173.971 313.262,171.200 307.799,171.200 305.377 C 171.200 304.339,170.633 301.580,169.940 299.246 C 168.519 294.461,168.125 278.665,169.371 276.438 C 170.504 274.413,169.139 267.264,167.230 265.232 C 166.333 264.278,165.594 262.800,165.588 261.948 C 165.565 259.020,164.560 258.327,161.831 259.358 C 157.839 260.865,153.030 259.085,152.142 255.773 C 151.150 252.071,151.749 251.200,155.286 251.200 C 158.437 251.200,159.966 252.196,162.613 255.976 C 163.688 257.511,164.145 257.675,165.109 256.875 C 168.194 254.316,174.772 254.818,178.152 257.871 L 181.330 260.742 183.914 258.571 C 186.090 256.743,186.731 255.350,187.975 249.745 C 188.787 246.085,190.014 242.468,190.702 241.708 C 191.390 240.948,192.513 237.642,193.196 234.363 C 195.091 225.266,197.502 224.329,203.903 230.204 C 208.489 234.414,211.996 241.162,213.240 248.171 C 213.530 249.806,214.293 251.580,214.936 252.113 C 218.895 255.399,218.805 258.550,214.482 268.000 C 211.561 274.385,212.281 276.587,217.712 277.882 C 219.404 278.286,220.327 277.871,222.355 275.797 C 229.471 268.519,232.522 270.844,233.644 284.400 C 234.564 295.517,232.471 305.002,227.470 312.378 C 226.881 313.246,226.400 314.442,226.400 315.035 C 226.400 315.629,225.860 316.654,225.200 317.314 C 224.540 317.974,224.000 318.849,224.000 319.257 C 224.000 320.477,226.413 320.098,226.911 318.800 C 227.164 318.140,228.043 317.600,228.864 317.600 C 232.994 317.600,247.153 305.487,249.975 299.540 C 250.670 298.075,252.056 295.870,253.055 294.638 C 254.054 293.407,255.528 290.780,256.330 288.800 C 257.132 286.820,258.423 283.940,259.199 282.400 C 264.517 271.851,263.865 238.533,258.100 226.252 C 257.002 223.914,255.867 220.920,255.578 219.600 C 255.289 218.280,254.047 215.040,252.819 212.400 C 251.591 209.760,250.035 206.302,249.361 204.716 C 246.787 198.656,240.697 199.872,239.559 206.674 C 239.254 208.503,238.358 211.620,237.570 213.600 L 236.137 217.200 234.848 214.177 C 234.140 212.515,233.178 208.195,232.711 204.577 C 232.245 200.960,231.350 195.952,230.722 193.448 C 230.094 190.944,229.077 186.006,228.460 182.475 C 227.843 178.943,226.618 174.512,225.737 172.627 C 224.856 170.742,223.337 166.582,222.362 163.382 C 221.386 160.181,220.241 157.349,219.818 157.088 C 219.395 156.826,217.988 154.404,216.690 151.706 C 212.845 143.707,211.185 140.622,208.451 136.400 C 207.026 134.200,205.612 131.860,205.309 131.200 C 201.143 122.136,193.551 117.159,191.330 122.034 M201.494 129.586 C 203.752 133.098,205.600 136.275,205.600 136.646 C 205.600 137.017,206.465 138.133,207.522 139.126 C 208.578 140.119,209.822 142.437,210.285 144.276 C 210.749 146.115,211.890 148.439,212.822 149.440 C 213.754 150.440,215.048 152.816,215.696 154.719 C 216.345 156.622,217.617 158.975,218.524 159.949 C 219.499 160.996,220.645 164.063,221.330 167.459 C 221.966 170.617,223.213 174.210,224.100 175.444 C 225.304 177.119,226.199 181.132,227.635 191.286 C 228.692 198.765,229.793 205.265,230.081 205.731 C 230.369 206.197,230.882 209.106,231.221 212.194 C 232.487 223.726,237.818 224.020,240.584 212.711 C 242.111 206.467,244.794 204.071,247.627 206.422 C 248.995 207.557,249.332 218.400,248.000 218.400 C 247.560 218.400,247.200 218.737,247.200 219.150 C 247.200 219.562,248.423 219.701,249.917 219.458 C 252.892 218.976,252.972 219.089,253.997 225.200 C 254.292 226.960,255.412 230.156,256.485 232.301 C 261.722 242.774,262.129 271.117,257.163 279.591 C 256.083 281.433,255.200 283.707,255.200 284.643 C 255.200 286.658,252.781 292.000,251.868 292.000 C 251.519 292.000,250.535 293.350,249.683 295.000 C 248.831 296.650,246.844 299.395,245.267 301.101 C 243.690 302.806,242.400 304.516,242.400 304.901 C 242.400 305.285,241.646 305.600,240.725 305.600 C 239.743 305.600,238.883 306.239,238.646 307.145 C 238.424 307.994,237.678 308.906,236.987 309.171 C 234.458 310.142,234.260 308.197,236.423 303.624 C 239.248 297.653,240.709 291.977,239.934 289.991 C 239.592 289.116,239.286 286.960,239.253 285.200 C 239.221 283.440,238.536 280.920,237.732 279.600 C 236.928 278.280,236.010 276.120,235.691 274.800 C 234.003 267.811,233.405 266.352,231.898 265.546 C 229.373 264.194,226.400 265.261,226.400 267.518 C 226.400 268.867,225.706 269.694,223.968 270.413 C 222.631 270.967,221.059 272.102,220.475 272.935 C 219.468 274.373,219.367 274.334,218.471 272.172 C 217.164 269.016,218.489 265.600,221.020 265.600 C 222.043 265.600,223.247 265.233,223.696 264.784 C 225.940 262.540,236.406 261.798,239.163 263.687 L 241.802 265.495 244.689 263.948 C 246.277 263.096,248.546 262.400,249.731 262.400 C 255.934 262.400,256.216 252.502,250.032 251.850 C 247.261 251.558,246.601 249.936,246.480 243.118 C 246.350 235.803,242.317 230.906,239.788 234.992 C 239.036 236.207,236.669 239.157,234.527 241.548 L 230.631 245.897 229.268 243.816 C 228.343 242.404,227.762 239.338,227.460 234.268 C 227.183 229.620,226.467 225.592,225.562 223.600 C 224.763 221.840,223.912 219.500,223.671 218.400 C 222.055 211.022,217.960 209.869,215.470 216.092 C 214.763 217.859,213.901 219.011,213.554 218.652 C 212.122 217.172,206.454 201.625,205.592 196.813 C 204.922 193.078,203.849 190.502,201.757 187.613 C 197.071 181.139,196.634 181.153,194.708 187.841 C 193.986 190.348,192.541 194.098,191.498 196.173 C 190.454 198.249,189.600 200.634,189.600 201.473 C 189.600 203.828,187.310 209.770,185.705 211.577 C 184.913 212.470,183.629 216.259,182.851 219.997 C 182.073 223.736,180.984 227.696,180.431 228.797 C 179.878 229.899,179.206 232.473,178.939 234.517 C 178.449 238.267,176.165 244.000,175.161 244.000 C 174.862 244.000,174.028 242.458,173.308 240.573 C 170.543 233.332,161.767 222.454,158.657 222.412 C 155.959 222.377,155.123 224.866,155.606 231.491 C 156.360 241.809,153.938 245.938,149.649 241.649 C 145.979 237.979,144.508 240.880,144.947 250.924 L 145.275 258.415 149.114 262.313 C 152.597 265.849,153.387 266.260,157.631 266.740 C 160.255 267.037,163.094 267.905,164.098 268.719 L 165.888 270.168 164.703 283.684 C 163.343 299.211,163.783 302.191,168.490 309.283 C 171.281 313.487,171.703 314.794,170.510 315.532 C 169.254 316.308,163.544 313.518,162.765 311.747 C 162.344 310.790,161.010 309.536,159.800 308.960 C 158.590 308.384,157.598 307.482,157.596 306.956 C 157.594 306.430,156.600 304.920,155.386 303.600 C 152.668 300.644,150.400 297.161,150.400 295.944 C 150.400 295.442,149.580 294.056,148.577 292.865 C 147.575 291.674,146.284 289.102,145.709 287.149 C 145.134 285.197,143.948 281.731,143.075 279.447 C 137.932 266.004,138.319 228.123,143.682 220.020 C 145.876 216.704,147.157 210.037,147.184 201.800 C 147.193 199.011,147.554 196.800,148.000 196.800 C 148.440 196.800,148.805 195.810,148.812 194.600 C 148.830 191.398,150.865 186.037,152.163 185.772 C 153.637 185.472,159.651 191.234,160.418 193.681 C 160.748 194.736,161.839 196.581,162.841 197.780 C 163.843 198.978,165.099 201.318,165.632 202.980 C 168.467 211.807,172.312 209.687,173.773 198.492 C 174.211 195.141,175.222 191.320,176.020 190.000 C 176.818 188.680,178.046 184.563,178.747 180.850 C 179.449 177.138,180.513 173.538,181.111 172.850 C 182.484 171.271,183.717 167.135,184.335 162.032 C 184.617 159.703,185.674 156.825,186.894 155.065 C 188.587 152.621,189.168 150.393,190.030 143.033 C 191.444 130.951,192.322 127.412,194.472 125.124 C 196.963 122.472,196.889 122.426,201.494 129.586 M198.804 191.207 C 199.503 192.338,198.445 195.322,197.542 194.764 C 196.569 194.163,196.578 190.400,197.553 190.400 C 197.967 190.400,198.530 190.763,198.804 191.207 M220.788 222.935 C 220.802 226.814,220.134 228.977,219.116 228.348 C 218.284 227.834,218.136 218.931,218.945 218.121 C 219.893 217.174,220.775 219.478,220.788 222.935 M164.788 237.000 C 164.803 239.717,163.547 239.891,162.887 237.264 C 162.254 234.739,163.126 232.198,164.099 233.733 C 164.471 234.320,164.781 235.790,164.788 237.000 M242.538 247.472 L 242.277 253.510 239.222 251.918 C 235.396 249.924,234.632 247.609,237.237 245.902 C 238.282 245.217,239.380 243.879,239.677 242.928 C 241.350 237.562,242.864 239.966,242.538 247.472 " stroke="none" fill="#70bbe6" fill-rule="evenodd"></path><path id="path4" d="M196.795 36.339 C 192.162 37.619,190.279 38.651,184.409 43.130 C 181.764 45.149,177.711 48.060,175.402 49.600 C 173.092 51.140,171.202 52.626,171.202 52.903 C 171.201 53.180,170.030 53.883,168.600 54.466 C 167.170 55.049,165.640 55.966,165.200 56.504 C 164.760 57.042,162.780 58.287,160.800 59.269 C 158.820 60.252,156.120 61.829,154.800 62.774 C 153.480 63.719,150.734 65.114,148.698 65.874 C 146.662 66.635,144.356 67.965,143.574 68.829 C 142.792 69.693,141.633 70.400,140.999 70.400 C 139.810 70.400,135.712 72.464,133.600 74.127 C 132.940 74.647,129.893 76.013,126.830 77.164 C 123.766 78.315,121.066 79.531,120.830 79.867 C 120.593 80.203,118.789 80.949,116.820 81.525 C 114.851 82.101,111.068 83.598,108.413 84.853 C 105.758 86.107,101.129 87.703,98.127 88.399 C 95.125 89.096,91.349 90.175,89.735 90.798 C 82.714 93.506,71.426 95.542,56.739 96.748 C 44.949 97.716,43.853 98.233,41.238 104.060 L 39.145 108.722 39.114 174.961 C 39.084 238.845,39.444 250.972,41.592 258.395 C 42.036 259.932,42.400 262.813,42.400 264.797 C 42.400 268.455,44.925 278.585,46.259 280.276 C 46.659 280.784,47.779 283.360,48.746 286.000 C 49.714 288.640,50.966 291.520,51.529 292.400 C 52.092 293.280,53.292 295.980,54.196 298.400 C 55.100 300.820,57.309 305.140,59.105 308.000 C 60.901 310.860,63.674 315.360,65.269 318.000 C 66.863 320.640,68.656 323.340,69.252 324.000 C 73.445 328.639,81.600 338.381,81.600 338.750 C 81.600 338.997,82.230 339.847,83.000 340.639 C 83.770 341.430,85.718 343.556,87.329 345.363 C 90.616 349.049,100.734 357.600,101.809 357.600 C 102.193 357.600,103.683 358.770,105.120 360.200 C 107.351 362.419,110.659 365.383,116.000 369.945 C 116.660 370.509,119.180 372.347,121.600 374.030 C 124.020 375.713,126.476 377.565,127.057 378.145 C 127.639 378.725,128.519 379.200,129.013 379.200 C 129.508 379.200,130.899 380.145,132.105 381.301 C 133.311 382.456,134.989 383.806,135.834 384.301 C 136.679 384.795,138.839 386.280,140.633 387.600 C 142.427 388.920,145.981 391.260,148.531 392.800 C 151.080 394.340,154.304 396.593,155.696 397.807 C 157.088 399.020,159.885 400.747,161.913 401.644 C 163.941 402.541,165.600 403.529,165.600 403.839 C 165.600 404.149,167.310 405.279,169.400 406.350 C 171.490 407.421,173.920 408.915,174.800 409.669 C 175.680 410.423,177.700 411.706,179.289 412.520 C 180.878 413.334,183.748 415.045,185.667 416.322 C 195.369 422.780,200.990 423.948,205.212 420.383 C 209.432 416.820,215.188 412.800,216.071 412.800 C 216.543 412.800,218.790 411.586,221.064 410.102 C 223.339 408.619,227.720 405.948,230.800 404.169 C 246.019 395.374,255.693 389.102,257.092 387.123 C 257.592 386.416,259.080 385.275,260.400 384.587 C 261.720 383.899,263.520 382.665,264.400 381.845 C 265.280 381.025,267.710 379.360,269.800 378.144 C 271.890 376.928,273.600 375.612,273.600 375.220 C 273.600 374.828,274.373 374.262,275.318 373.963 C 276.263 373.663,278.229 372.288,279.687 370.909 C 285.478 365.428,288.078 363.200,288.686 363.200 C 289.035 363.200,290.194 362.257,291.261 361.104 C 292.327 359.952,294.640 358.099,296.400 356.986 C 298.160 355.874,300.593 353.937,301.807 352.682 C 303.021 351.427,304.314 350.400,304.681 350.400 C 305.048 350.400,306.027 349.140,306.856 347.600 C 307.685 346.060,308.600 344.800,308.888 344.800 C 309.372 344.800,313.886 339.638,320.800 331.182 C 322.340 329.298,323.900 326.911,324.267 325.878 C 324.633 324.845,325.248 324.000,325.633 324.000 C 326.018 324.000,327.308 322.290,328.499 320.200 C 329.691 318.110,331.285 315.680,332.043 314.800 C 332.800 313.920,334.222 311.580,335.203 309.600 C 336.184 307.620,337.447 305.460,338.010 304.800 C 338.573 304.140,339.584 301.956,340.258 299.946 C 340.931 297.936,342.195 295.056,343.066 293.546 C 343.938 292.036,345.270 288.640,346.028 286.000 C 346.785 283.360,348.040 279.580,348.816 277.600 C 349.593 275.620,350.824 269.500,351.553 264.000 C 352.282 258.500,353.400 250.739,354.039 246.754 C 356.049 234.213,355.736 108.186,353.685 104.168 C 350.822 98.558,346.550 96.800,335.780 96.800 C 329.163 96.800,312.843 93.919,305.600 91.473 C 302.300 90.358,296.900 88.734,293.600 87.864 C 290.300 86.993,285.440 85.255,282.800 84.001 C 280.160 82.747,277.010 81.475,275.800 81.174 C 274.590 80.873,273.600 80.373,273.600 80.063 C 273.600 79.421,266.069 76.000,264.655 76.000 C 264.144 76.000,263.065 75.402,262.257 74.671 C 260.483 73.065,257.959 71.561,255.000 70.347 C 253.790 69.850,252.800 69.145,252.800 68.780 C 252.800 68.415,250.550 67.007,247.800 65.652 C 237.434 60.544,224.000 52.316,224.000 51.074 C 224.000 50.726,222.927 49.886,221.616 49.208 C 220.305 48.530,218.415 47.244,217.416 46.350 C 214.944 44.137,207.290 38.296,204.628 36.591 C 202.140 34.998,201.701 34.984,196.795 36.339 M204.922 41.941 C 210.555 47.573,231.239 62.035,240.889 67.088 C 251.103 72.436,252.322 73.140,255.251 75.381 C 269.370 86.184,311.666 99.972,334.800 101.312 C 339.640 101.593,344.568 102.310,345.751 102.907 C 350.670 105.385,350.400 101.301,350.400 173.316 L 350.400 239.077 348.420 252.138 C 345.054 274.339,343.981 279.424,341.550 284.690 C 340.257 287.489,339.200 290.136,339.200 290.572 C 339.200 291.821,331.410 307.056,328.778 310.957 C 327.470 312.895,326.400 314.641,326.400 314.838 C 326.400 315.231,321.885 321.660,317.876 326.976 C 309.410 338.202,298.060 350.115,290.003 356.230 C 284.576 360.350,274.949 368.207,273.600 369.618 C 273.231 370.004,270.215 372.038,267.114 373.990 C 262.009 377.206,258.200 379.970,254.400 383.217 C 251.980 385.285,246.580 389.027,242.400 391.533 C 238.220 394.040,234.260 396.418,233.600 396.818 C 223.933 402.686,213.428 408.877,211.254 409.989 C 209.743 410.761,207.418 412.410,206.087 413.654 C 201.608 417.840,196.840 417.680,189.864 413.110 C 187.590 411.619,185.508 410.400,185.237 410.400 C 184.967 410.400,182.148 408.689,178.973 406.597 C 171.403 401.610,170.302 400.931,168.400 400.079 C 167.520 399.685,164.280 397.646,161.200 395.547 C 158.120 393.449,152.180 389.463,148.000 386.691 C 140.378 381.637,139.243 380.846,133.241 376.400 C 131.458 375.080,128.560 373.064,126.800 371.920 C 123.227 369.597,114.705 362.855,110.410 358.953 C 108.865 357.549,105.997 355.320,104.038 354.000 C 96.573 348.971,76.867 327.295,69.491 316.000 C 63.122 306.247,60.800 302.503,60.800 301.988 C 60.800 301.690,60.144 300.491,59.343 299.323 C 58.542 298.156,57.229 295.400,56.427 293.200 C 55.624 291.000,54.048 287.400,52.925 285.200 C 50.781 281.001,49.083 275.433,46.402 263.809 C 44.334 254.840,43.264 203.485,43.947 146.000 C 44.519 97.885,42.909 102.262,60.571 100.819 C 78.356 99.366,79.114 99.199,103.600 91.384 C 108.440 89.839,114.560 87.597,117.200 86.402 C 131.334 80.001,135.963 77.791,139.528 75.745 C 141.688 74.505,146.579 71.901,150.397 69.958 C 154.215 68.016,158.673 65.520,160.305 64.413 C 161.936 63.306,163.455 62.400,163.680 62.400 C 164.453 62.400,177.208 54.053,182.800 49.888 C 196.099 39.981,201.149 38.167,204.922 41.941 M193.528 70.297 C 191.072 71.572,187.250 73.916,185.035 75.507 C 182.821 77.098,180.783 78.400,180.506 78.400 C 180.230 78.400,178.293 79.613,176.202 81.096 C 174.111 82.578,170.240 84.968,167.600 86.407 C 164.960 87.845,161.000 90.010,158.800 91.216 C 150.096 95.989,128.685 106.400,127.573 106.400 C 127.244 106.400,125.496 107.072,123.688 107.893 C 115.622 111.557,107.080 114.617,100.800 116.092 C 97.060 116.970,92.200 118.206,90.000 118.838 C 87.800 119.471,82.590 120.808,78.422 121.809 C 65.483 124.919,66.049 121.300,66.626 197.333 C 67.097 259.430,68.341 270.699,76.108 283.200 C 77.065 284.740,78.924 287.980,80.241 290.400 C 81.557 292.820,83.571 296.240,84.717 298.000 C 85.863 299.760,87.304 302.177,87.920 303.371 C 89.209 305.870,97.462 315.960,103.485 322.400 C 105.748 324.820,109.341 329.063,111.468 331.828 C 113.852 334.926,117.383 338.207,120.668 340.374 C 123.601 342.310,126.750 344.595,127.667 345.453 C 129.790 347.442,140.644 355.200,141.302 355.200 C 141.933 355.200,149.043 359.945,157.682 366.132 C 161.377 368.777,165.653 371.630,167.185 372.471 C 168.716 373.312,171.683 375.170,173.776 376.600 C 175.870 378.030,177.749 379.200,177.952 379.200 C 178.154 379.200,179.920 380.280,181.876 381.600 C 183.832 382.920,185.717 384.000,186.064 384.000 C 186.412 384.000,187.440 384.665,188.348 385.478 C 193.740 390.304,201.825 390.754,206.680 386.497 C 208.050 385.295,212.622 382.567,220.359 378.334 C 222.096 377.383,225.336 375.448,227.559 374.033 C 238.070 367.343,250.040 359.570,250.400 359.200 C 250.892 358.694,260.819 351.607,265.271 348.583 C 267.065 347.364,269.224 345.728,270.067 344.948 C 270.910 344.168,273.580 342.062,276.000 340.268 C 278.420 338.474,281.480 335.689,282.800 334.079 C 284.120 332.468,286.661 329.597,288.446 327.698 C 290.232 325.798,293.112 322.479,294.846 320.322 C 296.581 318.165,298.192 316.220,298.426 316.000 C 304.271 310.517,318.864 282.929,321.546 272.293 C 326.543 252.475,326.400 254.908,326.400 189.606 C 326.400 118.186,327.568 124.656,314.131 121.629 C 301.769 118.843,284.422 114.282,283.602 113.602 C 283.150 113.227,280.625 112.134,277.990 111.174 C 275.356 110.214,271.400 108.599,269.200 107.586 C 267.000 106.573,263.580 105.099,261.600 104.310 C 259.620 103.521,257.391 102.311,256.646 101.621 C 255.901 100.931,250.062 97.710,243.670 94.463 C 231.216 88.137,215.344 78.436,207.688 72.471 C 205.097 70.452,202.336 68.800,201.554 68.800 C 200.771 68.800,199.650 68.616,199.063 68.390 C 198.475 68.165,195.984 69.023,193.528 70.297 M204.738 75.703 C 205.648 76.860,209.185 79.542,212.596 81.662 C 216.008 83.783,219.880 86.273,221.200 87.195 C 225.433 90.153,233.104 94.512,236.400 95.832 C 238.160 96.537,241.200 98.123,243.157 99.357 C 245.113 100.591,247.098 101.600,247.567 101.600 C 248.037 101.600,250.292 102.860,252.579 104.400 C 254.866 105.940,257.137 107.200,257.626 107.200 C 258.115 107.200,260.058 108.104,261.944 109.209 C 263.829 110.314,267.314 111.795,269.686 112.499 C 272.059 113.203,274.995 114.486,276.210 115.351 C 277.426 116.216,281.309 117.613,284.841 118.457 C 288.372 119.300,292.289 120.522,293.546 121.172 C 294.803 121.822,300.099 123.232,305.316 124.304 C 316.918 126.691,320.612 128.171,321.244 130.689 C 321.503 131.723,321.574 160.071,321.402 193.684 L 321.089 254.800 318.656 264.000 C 317.318 269.060,315.968 274.640,315.656 276.400 C 315.344 278.160,314.238 280.860,313.199 282.400 C 312.159 283.940,310.689 286.820,309.933 288.800 C 309.176 290.780,307.958 293.120,307.226 294.000 C 306.495 294.880,305.210 297.220,304.371 299.200 C 303.532 301.180,302.404 303.077,301.865 303.416 C 301.326 303.755,300.079 305.465,299.095 307.216 C 298.111 308.967,297.023 310.400,296.677 310.400 C 296.332 310.400,294.820 312.290,293.317 314.600 C 291.815 316.910,288.564 320.768,286.093 323.173 C 283.622 325.578,281.600 327.937,281.600 328.416 C 281.600 328.894,280.340 330.507,278.800 332.000 C 277.260 333.493,276.000 335.183,276.000 335.757 C 276.000 336.331,275.336 336.800,274.525 336.800 C 272.421 336.800,261.924 344.125,255.720 349.922 C 254.026 351.505,252.398 352.800,252.102 352.800 C 251.806 352.800,249.772 353.976,247.582 355.412 C 245.392 356.849,242.244 358.821,240.587 359.793 C 238.929 360.766,237.129 361.928,236.587 362.375 C 233.960 364.541,223.257 371.200,222.402 371.200 C 221.867 371.200,220.118 372.238,218.515 373.507 C 216.912 374.776,214.340 376.403,212.800 377.124 C 211.260 377.844,208.204 379.686,206.009 381.217 C 200.487 385.068,194.418 384.515,187.600 379.540 C 186.280 378.577,183.958 377.160,182.439 376.391 C 180.921 375.622,179.126 374.441,178.452 373.766 C 177.778 373.092,175.385 371.697,173.134 370.667 C 170.884 369.637,168.392 368.075,167.597 367.197 C 166.802 366.319,165.750 365.600,165.258 365.600 C 164.767 365.600,163.113 364.575,161.582 363.323 C 158.386 360.707,152.966 357.027,149.353 355.019 C 146.105 353.215,138.971 348.228,135.305 345.200 C 133.707 343.880,131.824 342.440,131.120 342.000 C 130.415 341.560,128.435 340.268,126.720 339.128 C 125.004 337.988,122.610 336.812,121.400 336.513 C 120.190 336.214,119.200 335.617,119.200 335.187 C 119.200 334.757,118.030 333.054,116.600 331.402 C 115.170 329.751,113.123 327.140,112.051 325.600 C 110.141 322.856,108.417 320.822,103.600 315.633 C 102.280 314.211,100.120 311.710,98.800 310.074 C 97.480 308.438,95.436 306.041,94.258 304.747 C 92.142 302.421,88.880 297.011,84.865 289.164 C 83.729 286.944,81.990 284.106,81.000 282.856 C 80.010 281.607,79.200 280.120,79.200 279.553 C 79.200 278.985,78.112 275.803,76.781 272.481 C 72.338 261.384,71.904 255.093,71.437 194.989 C 70.861 120.820,69.071 127.993,89.156 123.959 C 93.531 123.081,98.211 121.795,99.556 121.102 C 100.900 120.410,104.340 119.345,107.200 118.736 C 112.578 117.591,118.400 115.353,118.400 114.430 C 118.400 114.140,120.290 113.436,122.600 112.866 C 124.910 112.295,128.600 110.835,130.800 109.621 C 133.000 108.407,135.958 107.160,137.373 106.849 C 138.789 106.539,141.309 105.358,142.973 104.226 C 144.638 103.094,147.127 101.855,148.505 101.472 C 149.883 101.090,152.223 99.967,153.705 98.977 C 155.187 97.987,158.020 96.484,160.000 95.638 C 161.980 94.792,164.216 93.584,164.968 92.955 C 165.721 92.325,168.061 90.943,170.168 89.883 C 176.833 86.532,183.285 82.756,183.852 81.874 C 184.154 81.406,185.625 80.395,187.123 79.627 C 188.621 78.860,191.285 77.189,193.043 75.916 C 197.392 72.766,202.357 72.676,204.738 75.703 M189.249 117.812 C 188.440 119.048,187.834 123.376,187.343 131.425 C 186.821 140.003,186.294 143.605,185.413 144.613 C 183.831 146.425,182.442 150.845,181.614 156.698 C 181.217 159.512,180.116 162.667,178.883 164.532 C 177.747 166.248,176.582 169.441,176.294 171.627 C 176.006 173.812,174.878 177.385,173.787 179.567 C 172.638 181.866,171.489 186.072,171.057 189.567 C 170.401 194.869,168.800 199.353,168.800 195.889 C 168.800 195.211,167.540 193.511,166.000 192.109 C 164.460 190.708,163.200 189.260,163.200 188.893 C 163.200 185.855,152.851 177.451,149.755 177.974 C 144.870 178.799,144.032 180.987,142.700 196.400 C 142.347 200.488,141.635 203.522,140.730 204.800 C 139.389 206.691,136.800 219.372,136.800 224.043 C 136.800 225.232,136.308 226.612,135.707 227.111 C 132.190 230.030,131.587 261.802,134.917 268.800 C 135.859 270.780,136.842 274.386,137.100 276.814 C 137.690 282.354,139.845 288.791,141.296 289.348 C 141.903 289.581,142.408 290.543,142.418 291.486 C 142.442 293.915,145.062 299.323,147.087 301.124 C 148.029 301.962,148.800 303.102,148.800 303.656 C 148.800 304.211,149.880 305.684,151.200 306.930 C 152.520 308.175,153.600 309.528,153.600 309.935 C 153.600 310.944,162.262 319.200,163.321 319.200 C 163.788 319.200,164.871 320.091,165.728 321.181 C 166.585 322.270,168.706 323.544,170.443 324.012 C 172.179 324.479,173.600 325.121,173.600 325.438 C 173.600 327.598,185.159 330.320,187.961 328.821 C 191.073 327.155,190.238 321.601,186.876 321.600 C 185.694 321.599,179.200 313.987,179.200 312.602 C 179.200 311.997,178.561 310.804,177.781 309.951 C 171.600 303.198,175.159 290.050,183.039 290.527 L 187.545 290.800 189.600 286.928 C 191.661 283.046,192.529 282.243,195.716 281.270 C 197.171 280.825,197.705 281.325,199.239 284.573 C 202.683 291.864,211.420 297.001,220.596 297.130 L 225.591 297.200 225.596 302.685 C 225.600 307.585,225.387 308.337,223.600 309.743 C 222.500 310.608,221.600 311.804,221.600 312.401 C 221.600 312.998,220.340 314.822,218.800 316.455 C 217.260 318.088,216.000 319.905,216.000 320.493 C 216.000 321.082,215.010 322.182,213.800 322.939 C 212.590 323.696,211.430 324.444,211.223 324.601 C 211.016 324.758,211.376 325.222,212.023 325.631 C 213.793 326.751,220.897 326.549,222.337 325.338 C 223.032 324.754,225.080 323.855,226.888 323.339 C 228.697 322.824,231.536 321.322,233.198 320.001 C 234.860 318.681,236.546 317.600,236.944 317.600 C 238.271 317.600,250.932 304.178,251.971 301.670 C 252.534 300.312,253.275 299.200,253.618 299.200 C 254.551 299.200,257.600 293.727,257.600 292.052 C 257.600 291.251,258.164 290.128,258.853 289.556 C 260.971 287.799,262.184 284.656,263.143 278.444 C 263.649 275.168,264.364 272.108,264.733 271.644 C 265.788 270.315,267.202 260.778,267.180 255.134 C 267.160 249.854,266.476 245.770,264.443 238.800 C 263.801 236.600,262.873 232.224,262.379 229.075 C 261.795 225.348,260.804 222.432,259.541 220.720 C 258.473 219.273,257.600 217.428,257.600 216.619 C 257.600 214.645,255.439 209.579,254.130 208.482 C 253.551 207.997,252.417 205.581,251.611 203.113 C 250.137 198.599,248.413 197.014,243.463 195.621 C 240.149 194.688,236.930 200.930,236.749 208.639 C 236.629 213.753,235.377 207.242,234.810 198.557 C 234.347 191.467,233.815 188.715,232.344 185.811 C 231.313 183.773,230.051 179.382,229.541 176.053 C 228.968 172.318,227.873 168.844,226.682 166.980 C 225.620 165.319,224.402 162.079,223.976 159.780 C 223.445 156.916,222.576 155.091,221.217 153.983 C 220.126 153.094,219.002 151.114,218.719 149.583 C 218.198 146.761,216.485 143.456,214.788 142.000 C 214.276 141.560,213.229 139.489,212.461 137.399 C 211.694 135.308,210.428 133.148,209.648 132.599 C 208.868 132.049,207.972 130.783,207.656 129.785 C 207.341 128.787,206.029 126.817,204.741 125.407 C 203.454 123.997,202.400 122.508,202.400 122.097 C 202.400 117.014,191.994 113.623,189.249 117.812 M201.332 125.200 C 203.216 127.840,205.006 130.540,205.309 131.200 C 205.612 131.860,207.026 134.200,208.451 136.400 C 211.185 140.622,212.845 143.707,216.690 151.706 C 217.988 154.404,219.395 156.826,219.818 157.088 C 220.241 157.349,221.386 160.181,222.362 163.382 C 223.337 166.582,224.856 170.742,225.737 172.627 C 226.618 174.512,227.843 178.943,228.460 182.475 C 229.077 186.006,230.094 190.944,230.722 193.448 C 231.350 195.952,232.245 200.960,232.711 204.577 C 233.178 208.195,234.140 212.515,234.848 214.177 L 236.137 217.200 237.570 213.600 C 238.358 211.620,239.254 208.503,239.559 206.674 C 240.697 199.872,246.787 198.656,249.361 204.716 C 250.035 206.302,251.591 209.760,252.819 212.400 C 254.047 215.040,255.289 218.280,255.578 219.600 C 255.867 220.920,257.002 223.914,258.100 226.252 C 263.865 238.533,264.517 271.851,259.199 282.400 C 258.423 283.940,257.132 286.820,256.330 288.800 C 255.528 290.780,254.054 293.407,253.055 294.638 C 252.056 295.870,250.670 298.075,249.975 299.540 C 247.153 305.487,232.994 317.600,228.864 317.600 C 228.043 317.600,227.164 318.140,226.911 318.800 C 226.413 320.098,224.000 320.477,224.000 319.257 C 224.000 318.849,224.540 317.974,225.200 317.314 C 225.860 316.654,226.400 315.629,226.400 315.035 C 226.400 314.442,226.881 313.246,227.470 312.378 C 232.471 305.002,234.564 295.517,233.644 284.400 C 232.522 270.844,229.471 268.519,222.355 275.797 C 220.327 277.871,219.404 278.286,217.712 277.882 C 212.281 276.587,211.561 274.385,214.482 268.000 C 218.805 258.550,218.895 255.399,214.936 252.113 C 214.293 251.580,213.530 249.806,213.240 248.171 C 211.996 241.162,208.489 234.414,203.903 230.204 C 197.502 224.329,195.091 225.266,193.196 234.363 C 192.513 237.642,191.390 240.948,190.702 241.708 C 190.014 242.468,188.787 246.085,187.975 249.745 C 186.731 255.350,186.090 256.743,183.914 258.571 L 181.330 260.742 178.152 257.871 C 174.772 254.818,168.194 254.316,165.109 256.875 C 164.145 257.675,163.688 257.511,162.613 255.976 C 157.840 249.162,150.331 249.016,152.142 255.773 C 153.030 259.085,157.839 260.865,161.831 259.358 C 164.560 258.327,165.565 259.020,165.588 261.948 C 165.594 262.800,166.333 264.278,167.230 265.232 C 169.139 267.264,170.504 274.413,169.371 276.438 C 168.125 278.665,168.519 294.461,169.940 299.246 C 170.633 301.580,171.200 304.339,171.200 305.377 C 171.200 307.799,173.971 313.262,176.908 316.628 C 179.402 319.487,179.520 319.855,178.476 321.504 C 176.073 325.299,162.302 316.853,154.890 307.040 C 151.674 302.782,145.686 293.547,145.137 292.000 C 144.903 291.340,143.639 288.045,142.328 284.677 C 136.495 269.693,134.503 245.048,137.974 230.800 C 138.617 228.160,139.163 224.920,139.187 223.600 C 139.212 222.280,140.314 218.140,141.636 214.400 C 143.096 210.272,144.350 204.613,144.829 200.000 C 146.166 187.097,148.270 182.400,152.710 182.400 C 154.623 182.400,165.243 195.120,167.791 200.464 C 169.950 204.990,170.318 204.405,173.123 192.000 C 174.363 186.514,175.647 182.365,178.938 173.200 C 180.044 170.120,181.755 164.530,182.740 160.778 C 183.725 157.025,185.086 153.065,185.766 151.978 C 187.245 149.610,188.464 143.279,189.559 132.273 C 190.984 117.949,194.604 115.774,201.332 125.200 M196.800 192.353 C 196.800 193.427,197.134 194.512,197.542 194.764 C 198.445 195.322,199.503 192.338,198.804 191.207 C 197.898 189.740,196.800 190.368,196.800 192.353 M218.945 218.121 C 218.136 218.931,218.284 227.834,219.116 228.348 C 220.134 228.977,220.802 226.814,220.788 222.935 C 220.775 219.478,219.893 217.174,218.945 218.121 M162.912 233.996 C 162.291 235.616,163.100 239.200,164.087 239.200 C 164.990 239.200,164.999 235.152,164.099 233.733 C 163.559 232.881,163.319 232.935,162.912 233.996 M241.087 240.642 C 240.608 240.949,239.973 241.978,239.677 242.928 C 239.380 243.879,238.282 245.217,237.237 245.902 C 234.632 247.609,235.396 249.924,239.222 251.918 L 242.277 253.510 242.538 247.472 C 242.814 241.119,242.518 239.726,241.087 240.642 M205.200 254.669 C 208.931 257.240,210.497 263.178,207.725 264.241 C 202.209 266.358,192.000 265.658,192.000 263.164 C 192.000 262.304,192.311 261.600,192.691 261.600 C 193.071 261.600,194.323 259.501,195.475 256.936 C 197.835 251.676,200.094 251.149,205.200 254.669 " stroke="none" fill="#b6dbf1" fill-rule="evenodd"></path></g></svg>