<svg id="svg" version="1.1" width="500" height="520" xmlns="http://www.w3.org/2000/svg" xmlns:xlink="http://www.w3.org/1999/xlink" style="display: block;"><g id="svgg"><path id="path0" d="M0.800 207.600 L 0.800 415.200 200.400 415.200 L 400.000 415.200 400.000 207.600 L 400.000 0.000 200.400 0.000 L 0.800 0.000 0.800 207.600 M213.013 26.363 C 213.556 27.133,215.260 28.394,216.800 29.167 C 218.340 29.940,220.860 31.762,222.400 33.217 C 228.276 38.767,232.608 42.400,233.350 42.400 C 233.774 42.400,234.950 43.282,235.962 44.360 C 236.975 45.437,239.467 47.101,241.502 48.057 C 243.536 49.013,246.157 50.600,247.326 51.584 C 248.495 52.567,250.879 53.600,252.624 53.879 C 254.567 54.190,256.689 55.277,258.098 56.685 C 259.364 57.949,261.480 59.240,262.800 59.554 C 264.120 59.868,266.280 60.942,267.600 61.941 C 268.920 62.940,271.440 64.215,273.200 64.774 C 274.960 65.333,278.244 66.827,280.497 68.095 C 282.751 69.363,285.037 70.400,285.577 70.400 C 286.117 70.400,290.033 71.793,294.280 73.495 C 298.526 75.197,303.800 76.848,306.000 77.165 C 308.200 77.481,312.520 78.852,315.600 80.211 C 320.984 82.587,321.762 82.702,335.764 83.185 C 357.438 83.933,355.355 76.143,355.232 156.000 C 355.122 227.960,354.211 246.126,350.339 253.600 C 349.541 255.140,348.476 259.007,347.973 262.193 C 347.427 265.651,346.320 269.074,345.227 270.684 C 344.220 272.168,342.946 274.781,342.395 276.491 C 341.845 278.201,340.180 281.311,338.697 283.402 C 337.214 285.493,336.000 287.422,336.000 287.688 C 336.000 288.319,328.428 299.986,326.860 301.773 C 326.197 302.528,324.738 304.597,323.618 306.372 C 322.498 308.146,320.865 310.045,319.990 310.592 C 319.116 311.138,318.400 312.019,318.400 312.551 C 318.400 313.865,305.566 327.200,304.301 327.200 C 303.745 327.200,302.652 328.280,301.873 329.600 C 301.093 330.920,300.181 332.000,299.847 332.000 C 299.512 332.000,298.100 333.252,296.708 334.782 C 295.315 336.311,293.440 337.797,292.539 338.083 C 291.638 338.369,289.740 339.727,288.321 341.101 C 281.339 347.862,275.434 352.580,269.089 356.466 C 267.592 357.383,265.641 358.913,264.753 359.866 C 263.864 360.820,262.624 361.600,261.997 361.600 C 261.369 361.600,259.624 362.681,258.119 364.003 C 256.614 365.324,254.106 366.939,252.545 367.591 C 250.985 368.243,248.755 369.659,247.591 370.739 C 246.426 371.818,244.339 372.950,242.953 373.254 C 241.566 373.559,238.843 375.021,236.901 376.504 C 234.959 377.987,232.972 379.200,232.485 379.201 C 231.998 379.202,230.520 380.149,229.200 381.307 C 227.880 382.464,225.180 384.135,223.200 385.019 C 219.533 386.658,216.585 388.758,211.438 393.400 C 207.251 397.176,205.706 396.985,196.807 391.600 C 195.353 390.720,192.999 389.010,191.576 387.800 C 190.153 386.590,188.633 385.600,188.199 385.600 C 187.764 385.600,185.652 384.208,183.505 382.507 C 181.357 380.806,178.766 379.154,177.747 378.836 C 176.729 378.519,174.749 377.265,173.347 376.050 C 171.946 374.835,169.796 373.596,168.568 373.297 C 167.341 372.998,165.217 371.683,163.848 370.375 C 162.479 369.067,160.011 367.634,158.362 367.190 C 156.713 366.746,155.152 365.828,154.892 365.151 C 154.632 364.473,152.792 363.199,150.803 362.319 C 148.814 361.439,146.550 360.036,145.772 359.200 C 144.261 357.579,141.982 355.881,133.400 349.986 C 130.430 347.946,128.000 345.949,128.000 345.549 C 128.000 345.148,126.589 343.929,124.863 342.840 C 123.138 341.751,121.505 340.162,121.235 339.310 C 120.964 338.457,119.879 337.542,118.824 337.278 C 117.769 337.013,116.138 335.717,115.199 334.398 C 114.259 333.079,113.066 332.000,112.546 332.000 C 112.026 332.000,110.521 330.931,109.201 329.625 C 107.880 328.318,104.550 325.107,101.800 322.489 C 99.050 319.870,96.800 317.331,96.800 316.847 C 96.800 316.362,95.924 315.567,94.854 315.079 C 93.784 314.591,92.474 313.145,91.944 311.866 C 91.414 310.586,90.314 309.182,89.499 308.746 C 88.683 308.309,87.424 306.807,86.700 305.406 C 85.975 304.005,84.573 302.223,83.584 301.445 C 82.595 300.667,81.179 298.514,80.438 296.662 C 79.697 294.810,78.125 292.101,76.945 290.642 C 75.765 289.184,73.864 286.822,72.721 285.395 C 69.705 281.631,62.737 267.147,61.571 262.223 C 61.022 259.900,59.740 256.380,58.723 254.400 C 56.188 249.463,55.289 239.736,54.401 207.600 C 54.000 193.080,53.280 178.193,52.801 174.517 C 52.102 169.157,52.174 166.077,53.165 158.950 C 54.088 152.312,54.400 142.912,54.400 121.786 C 54.400 81.426,53.249 83.807,73.082 83.137 C 80.627 82.882,87.520 82.386,88.400 82.035 C 89.280 81.684,91.800 80.586,94.000 79.595 C 96.200 78.603,100.347 77.393,103.216 76.905 C 106.085 76.416,111.485 74.760,115.216 73.223 C 118.947 71.687,122.511 70.423,123.135 70.415 C 123.760 70.407,126.100 69.381,128.335 68.136 C 130.571 66.890,134.200 65.389,136.400 64.800 C 138.600 64.211,141.406 62.899,142.636 61.885 C 143.866 60.872,146.206 59.673,147.836 59.222 C 149.466 58.771,151.588 57.563,152.551 56.539 C 153.598 55.425,156.109 54.272,158.802 53.669 C 161.278 53.115,163.495 52.163,163.729 51.553 C 163.963 50.942,166.042 49.550,168.348 48.459 C 170.654 47.368,173.026 45.892,173.617 45.179 C 174.209 44.466,176.034 43.199,177.674 42.362 C 180.321 41.012,184.069 38.130,190.400 32.576 C 191.500 31.611,193.480 30.352,194.800 29.777 C 196.120 29.203,197.773 27.987,198.472 27.076 C 201.330 23.352,210.566 22.899,213.013 26.363 M200.580 63.568 C 199.359 64.205,197.761 65.324,197.030 66.056 C 196.299 66.787,194.140 68.054,192.233 68.871 C 190.326 69.689,188.555 70.907,188.297 71.579 C 188.039 72.251,186.162 73.538,184.124 74.440 C 182.087 75.341,179.695 76.751,178.810 77.572 C 177.924 78.394,175.220 79.938,172.800 81.004 C 170.380 82.069,167.913 83.531,167.317 84.253 C 166.721 84.974,164.129 86.155,161.555 86.877 C 158.982 87.599,156.256 88.875,155.498 89.713 C 154.739 90.551,152.112 91.817,149.659 92.527 C 147.207 93.236,144.265 94.598,143.122 95.553 C 141.980 96.509,138.920 97.757,136.322 98.328 C 133.725 98.899,130.880 100.025,130.000 100.830 C 127.905 102.746,124.516 103.995,121.348 104.019 C 119.947 104.029,116.640 104.941,114.000 106.045 C 109.280 108.018,95.920 111.157,92.000 111.214 C 90.900 111.230,88.770 112.263,87.267 113.510 L 84.534 115.776 84.545 170.888 C 84.555 220.371,84.696 226.531,85.928 231.200 C 86.683 234.060,87.980 240.064,88.811 244.542 C 89.789 249.812,91.182 254.296,92.761 257.255 C 94.102 259.768,95.200 262.340,95.200 262.968 C 95.200 263.597,96.279 265.679,97.597 267.595 C 98.915 269.511,100.333 271.973,100.749 273.065 C 101.164 274.158,103.419 277.515,105.760 280.526 C 111.815 288.315,112.792 289.463,116.600 293.263 C 118.470 295.130,120.000 297.049,120.000 297.529 C 120.000 298.008,120.514 298.400,121.142 298.400 C 121.770 298.400,123.039 299.390,123.962 300.600 C 129.002 307.206,148.370 324.000,150.948 324.000 C 151.546 324.000,152.455 324.923,152.968 326.050 C 153.547 327.321,154.780 328.276,156.210 328.562 C 157.479 328.816,159.279 330.053,160.209 331.312 C 161.140 332.570,162.388 333.600,162.982 333.600 C 164.607 333.600,170.400 336.721,170.400 337.596 C 170.400 338.015,171.570 338.949,173.000 339.671 C 174.430 340.392,176.500 341.804,177.600 342.808 C 178.700 343.813,181.478 345.431,183.774 346.404 C 186.069 347.378,188.154 348.825,188.406 349.620 C 188.659 350.416,189.962 351.448,191.301 351.916 C 192.641 352.383,195.465 354.033,197.576 355.582 C 203.275 359.766,212.381 358.808,215.542 353.694 C 215.804 353.270,217.106 352.684,218.436 352.392 C 219.766 352.100,221.411 351.011,222.092 349.972 C 222.773 348.933,225.011 347.473,227.065 346.727 C 229.119 345.981,231.520 344.563,232.400 343.575 C 233.280 342.587,235.865 340.846,238.143 339.705 C 240.422 338.564,242.532 337.234,242.832 336.749 C 243.131 336.264,244.957 335.190,246.888 334.362 C 248.820 333.534,250.400 332.493,250.400 332.049 C 250.400 331.605,251.570 330.652,253.000 329.931 C 254.430 329.210,256.680 327.599,258.000 326.351 C 259.320 325.103,261.697 323.540,263.283 322.879 C 264.869 322.217,266.767 320.759,267.501 319.638 C 268.236 318.517,269.360 317.600,269.999 317.600 C 270.638 317.600,272.308 316.340,273.709 314.800 C 275.111 313.260,276.739 312.000,277.329 312.000 C 277.918 312.000,278.400 311.634,278.400 311.186 C 278.400 310.739,282.628 306.051,287.796 300.768 C 292.964 295.486,297.374 290.684,297.596 290.099 C 297.818 289.513,299.004 287.811,300.230 286.317 C 301.457 284.823,303.839 281.923,305.525 279.873 C 307.211 277.823,308.843 275.123,309.152 273.873 C 309.461 272.623,310.532 270.700,311.531 269.600 C 312.531 268.500,313.986 265.167,314.765 262.192 C 315.544 259.218,316.832 255.959,317.626 254.949 C 318.662 253.632,319.447 249.960,320.405 241.957 C 321.140 235.821,322.244 228.640,322.859 226.000 C 323.755 222.152,323.979 210.795,323.988 168.757 L 324.000 116.314 321.400 113.849 C 319.439 111.990,317.817 111.279,314.800 110.955 C 306.574 110.072,300.272 108.658,296.110 106.761 C 293.750 105.686,289.720 104.468,287.153 104.054 C 282.144 103.248,280.049 102.387,278.473 100.488 C 277.925 99.828,275.521 98.882,273.131 98.386 C 270.740 97.889,267.798 96.658,266.592 95.650 C 265.386 94.641,262.393 93.236,259.941 92.527 C 257.488 91.817,254.863 90.553,254.106 89.717 C 253.349 88.881,250.788 87.586,248.414 86.840 C 246.040 86.093,243.657 84.951,243.118 84.301 C 242.098 83.072,235.908 80.000,234.451 80.000 C 233.990 80.000,233.161 79.249,232.607 78.332 C 232.053 77.414,229.800 75.746,227.600 74.625 C 225.400 73.503,222.655 71.824,221.501 70.893 C 220.346 69.962,218.366 68.570,217.101 67.799 C 215.835 67.029,213.577 65.499,212.082 64.399 C 208.942 62.090,204.085 61.739,200.580 63.568 M189.306 114.451 C 191.683 115.602,193.154 117.025,194.159 119.145 C 194.951 120.819,196.596 122.762,197.814 123.465 C 199.032 124.167,200.259 125.385,200.542 126.171 C 200.824 126.957,202.168 128.759,203.528 130.176 C 208.515 135.371,211.452 138.891,214.061 142.800 C 219.943 151.613,220.914 152.894,222.034 153.324 C 222.675 153.570,223.200 154.112,223.200 154.529 C 223.200 155.933,226.310 162.129,227.517 163.131 C 228.174 163.677,229.292 165.868,230.000 168.000 C 230.708 170.132,231.864 172.355,232.568 172.938 C 234.158 174.257,235.995 178.541,236.015 180.974 C 236.023 181.978,237.094 184.371,238.396 186.292 C 239.697 188.213,241.000 191.054,241.291 192.605 C 241.582 194.156,242.515 197.265,243.365 199.513 C 247.492 210.437,247.597 211.083,247.598 225.600 L 247.600 239.600 244.722 246.000 C 243.139 249.520,241.617 253.330,241.340 254.467 C 241.063 255.604,239.796 257.843,238.526 259.442 C 237.255 261.041,235.768 263.429,235.222 264.748 C 234.675 266.067,233.543 267.364,232.705 267.630 C 231.868 267.896,230.637 269.168,229.971 270.457 C 229.304 271.746,228.409 272.800,227.982 272.800 C 227.554 272.800,225.811 274.059,224.107 275.599 C 222.403 277.138,219.342 279.135,217.304 280.036 C 215.267 280.938,213.600 282.036,213.600 282.478 C 213.600 283.695,208.956 285.340,203.743 285.968 C 201.181 286.277,197.761 287.094,196.143 287.785 C 191.968 289.566,179.900 289.584,175.199 287.816 C 172.287 286.720,163.148 284.833,160.628 284.806 C 160.313 284.803,158.873 283.769,157.428 282.508 C 155.983 281.247,153.920 279.941,152.844 279.605 C 151.768 279.268,149.843 278.050,148.565 276.897 C 143.330 272.170,139.110 267.804,137.809 265.764 C 137.049 264.574,135.848 263.169,135.139 262.642 C 134.430 262.115,133.205 259.955,132.418 257.842 C 131.630 255.729,130.336 253.280,129.542 252.400 C 127.975 250.664,126.451 245.122,126.420 241.046 C 126.409 239.641,125.626 237.180,124.681 235.577 C 122.260 231.475,122.204 222.991,124.551 216.000 C 125.511 213.140,126.642 207.790,127.064 204.111 C 127.586 199.550,128.351 196.718,129.468 195.207 C 130.369 193.988,131.687 190.698,132.396 187.895 C 133.105 185.093,134.413 181.788,135.302 180.552 C 136.192 179.315,137.562 176.435,138.348 174.152 C 139.134 171.868,140.705 168.632,141.839 166.961 C 142.974 165.289,144.301 162.711,144.790 161.231 C 145.278 159.752,146.209 158.337,146.860 158.088 C 147.510 157.838,148.757 155.967,149.630 153.929 C 150.504 151.892,152.204 149.212,153.409 147.973 C 154.614 146.735,157.040 143.877,158.800 141.622 C 160.560 139.368,162.745 136.731,163.655 135.762 C 164.566 134.793,166.450 132.323,167.843 130.274 C 169.235 128.225,171.371 125.481,172.587 124.178 C 173.804 122.874,176.600 119.785,178.800 117.312 C 183.232 112.332,184.317 112.036,189.306 114.451 M251.616 124.006 C 254.090 124.947,259.761 130.784,260.512 133.162 C 260.797 134.063,261.700 135.272,262.519 135.849 C 263.339 136.425,264.597 138.045,265.316 139.449 C 266.034 140.852,267.647 143.177,268.899 144.615 C 270.152 146.053,271.396 148.104,271.665 149.173 C 271.933 150.241,273.004 151.674,274.045 152.356 C 275.157 153.084,276.310 154.999,276.840 156.998 C 277.337 158.869,278.386 161.120,279.172 162.000 C 281.373 164.466,282.193 166.451,282.805 170.800 C 283.115 173.000,284.084 177.626,284.959 181.080 C 287.706 191.934,280.976 216.000,275.193 216.000 C 274.831 216.000,273.515 217.091,272.268 218.424 C 265.445 225.714,258.285 227.032,253.188 221.935 C 248.302 217.049,249.654 210.876,256.980 204.621 C 265.987 196.931,269.040 186.888,264.512 179.849 C 263.857 178.832,262.797 175.962,262.155 173.470 C 261.514 170.979,260.047 167.706,258.897 166.198 C 257.746 164.689,256.353 162.198,255.802 160.662 C 252.255 150.778,246.931 149.438,241.977 157.182 C 240.423 159.612,238.532 161.633,237.775 161.674 C 227.926 162.205,226.968 161.357,226.547 151.726 L 226.219 144.234 229.110 141.344 C 230.699 139.754,232.000 137.947,232.000 137.327 C 232.000 136.708,233.287 134.806,234.859 133.101 C 236.431 131.395,238.303 129.020,239.019 127.822 C 241.200 124.168,247.234 122.340,251.616 124.006 M184.090 151.381 C 183.645 151.941,182.002 153.884,180.440 155.697 C 178.878 157.510,177.600 159.351,177.600 159.787 C 177.600 160.223,176.487 161.979,175.128 163.690 C 173.768 165.400,172.129 168.060,171.485 169.600 C 170.842 171.140,169.478 173.300,168.454 174.400 C 167.430 175.500,166.179 177.697,165.673 179.282 C 165.167 180.868,163.874 182.991,162.799 184.001 C 161.724 185.011,160.301 187.707,159.637 189.992 C 158.972 192.278,157.673 195.109,156.749 196.283 C 153.220 200.769,148.829 224.007,150.192 230.977 C 151.683 238.593,154.599 246.236,156.379 247.189 C 157.273 247.667,158.620 249.132,159.373 250.443 C 160.126 251.755,161.370 253.069,162.138 253.364 C 162.906 253.658,164.269 254.751,165.167 255.792 C 166.090 256.862,168.365 258.034,170.400 258.487 C 172.380 258.929,174.900 259.893,176.000 260.631 C 178.572 262.355,185.006 264.065,185.850 263.249 C 186.207 262.903,185.417 262.403,184.094 262.139 C 175.745 260.469,178.402 244.071,187.442 241.474 C 193.272 239.800,198.270 234.840,203.335 225.705 C 205.560 221.691,214.887 220.331,217.618 223.621 C 222.008 228.912,221.933 208.958,217.541 203.351 C 216.745 202.335,215.684 199.533,215.185 197.126 C 214.632 194.463,213.544 192.055,212.406 190.975 C 211.378 189.999,209.986 187.315,209.314 185.011 C 208.642 182.707,207.014 179.467,205.697 177.811 C 204.379 176.155,203.053 173.788,202.751 172.551 C 202.449 171.314,201.166 169.536,199.901 168.600 C 198.635 167.665,197.600 166.330,197.600 165.635 C 197.600 164.940,196.136 162.600,194.348 160.435 C 192.559 158.270,190.759 155.872,190.349 155.105 C 189.006 152.596,185.012 150.219,184.090 151.381 " stroke="none" fill="#fcfcfc" fill-rule="evenodd"></path><path id="path1" d="M203.778 33.606 C 202.555 33.973,200.332 35.292,198.838 36.537 C 195.681 39.166,190.487 42.913,186.828 45.200 C 185.421 46.080,183.101 47.790,181.673 49.000 C 180.245 50.210,178.616 51.200,178.051 51.200 C 177.487 51.200,175.458 52.440,173.542 53.956 C 171.627 55.472,169.227 56.921,168.208 57.177 C 167.190 57.432,164.657 58.672,162.578 59.931 C 160.500 61.191,157.900 62.489,156.800 62.816 C 155.700 63.142,153.827 64.095,152.639 64.932 C 151.450 65.769,148.417 67.365,145.899 68.478 C 143.381 69.592,140.436 71.200,139.353 72.052 C 138.270 72.903,136.743 73.600,135.959 73.600 C 135.174 73.600,132.126 74.877,129.184 76.438 C 126.242 77.998,121.622 79.837,118.917 80.524 C 116.213 81.211,111.863 82.667,109.250 83.759 C 106.638 84.852,101.238 86.392,97.250 87.182 C 93.263 87.972,88.920 89.063,87.600 89.608 C 86.280 90.152,80.674 90.867,75.142 91.195 C 60.169 92.084,61.954 86.320,61.322 135.817 C 61.026 159.082,60.994 189.251,61.252 202.859 C 61.728 227.932,61.709 227.733,65.885 250.639 C 66.511 254.070,67.565 257.490,68.228 258.239 C 69.373 259.532,72.000 266.363,72.000 268.047 C 72.000 268.482,73.260 270.670,74.800 272.909 C 76.340 275.148,77.600 277.467,77.600 278.062 C 77.600 278.657,78.629 280.327,79.887 281.772 C 81.146 283.217,82.947 286.020,83.890 288.000 C 85.848 292.111,88.523 296.085,91.762 299.695 C 92.993 301.068,95.440 304.101,97.200 306.437 C 101.021 311.507,111.889 322.336,117.635 326.800 C 119.901 328.560,122.970 331.080,124.455 332.400 C 125.940 333.720,128.515 335.948,130.178 337.351 C 131.840 338.754,134.640 341.135,136.400 342.642 C 138.160 344.149,140.860 346.012,142.400 346.783 C 143.940 347.554,146.036 349.223,147.058 350.492 C 148.080 351.761,149.446 352.800,150.094 352.800 C 150.742 352.800,152.177 353.705,153.283 354.810 C 154.388 355.916,157.162 357.764,159.446 358.917 C 161.731 360.071,164.618 361.866,165.861 362.907 C 167.105 363.948,168.572 364.800,169.122 364.800 C 169.671 364.800,170.942 365.674,171.945 366.741 C 172.948 367.809,175.684 369.460,178.025 370.410 C 180.366 371.360,182.473 372.635,182.706 373.244 C 182.939 373.852,184.491 374.918,186.154 375.613 C 187.817 376.308,189.908 377.562,190.800 378.400 C 191.692 379.238,193.857 380.515,195.611 381.238 C 197.365 381.962,199.520 383.200,200.400 383.990 C 203.229 386.531,206.673 386.740,209.298 384.531 C 210.572 383.460,213.046 381.985,214.796 381.253 C 216.546 380.522,218.703 379.250,219.589 378.426 C 220.475 377.602,222.730 376.320,224.600 375.577 C 226.470 374.834,228.000 373.883,228.000 373.463 C 228.000 373.043,230.250 371.641,233.000 370.347 C 235.750 369.053,238.900 367.321,240.000 366.498 C 241.919 365.062,246.513 362.272,252.776 358.741 C 254.394 357.829,256.501 356.299,257.459 355.341 C 258.416 354.384,259.473 353.600,259.806 353.600 C 260.139 353.600,262.386 351.980,264.800 350.000 C 267.214 348.020,269.627 346.400,270.162 346.400 C 270.697 346.400,272.139 345.504,273.367 344.408 C 275.881 342.165,282.930 336.208,288.048 332.000 C 297.653 324.103,304.471 317.680,309.531 311.761 C 319.379 300.240,319.970 299.468,321.221 296.472 C 321.897 294.854,322.951 293.338,323.563 293.103 C 324.175 292.869,325.217 291.324,325.879 289.670 C 326.540 288.016,327.985 285.590,329.089 284.278 C 330.193 282.966,331.719 280.297,332.480 278.346 C 333.242 276.396,334.527 273.842,335.337 272.671 C 336.146 271.499,337.565 268.079,338.489 265.071 C 339.413 262.062,340.635 258.700,341.206 257.600 C 343.036 254.069,343.913 249.475,345.176 236.800 C 345.856 229.980,346.944 222.240,347.594 219.600 C 348.582 215.584,348.777 204.920,348.788 154.297 L 348.800 93.794 346.600 92.962 C 345.390 92.505,340.151 91.918,334.957 91.659 C 328.977 91.361,323.843 90.632,320.957 89.671 C 318.451 88.836,313.340 87.551,309.600 86.814 C 305.860 86.078,301.360 84.818,299.600 84.015 C 297.840 83.211,295.140 82.169,293.600 81.699 C 292.060 81.229,288.966 80.284,286.724 79.599 C 284.482 78.914,281.502 77.508,280.101 76.474 C 278.700 75.441,275.962 74.149,274.017 73.605 C 272.072 73.060,269.865 71.935,269.113 71.104 C 268.361 70.273,266.453 69.244,264.873 68.817 C 263.293 68.390,260.032 66.772,257.627 65.221 C 255.222 63.669,252.863 62.400,252.385 62.400 C 251.906 62.400,250.094 61.383,248.358 60.139 C 246.621 58.896,243.492 57.247,241.403 56.475 C 239.315 55.702,237.335 54.608,237.003 54.044 C 236.672 53.479,235.235 52.421,233.811 51.693 C 232.387 50.966,230.047 49.345,228.611 48.093 C 227.175 46.841,225.199 45.566,224.221 45.261 C 223.242 44.955,221.688 43.647,220.766 42.353 C 219.845 41.059,218.620 40.000,218.043 40.000 C 217.467 40.000,216.502 39.400,215.898 38.667 C 214.069 36.446,208.643 32.796,207.280 32.869 C 206.576 32.907,205.000 33.238,203.778 33.606 M210.716 54.368 C 211.827 54.790,213.456 55.856,214.335 56.735 C 215.214 57.614,217.406 59.085,219.206 60.003 C 221.005 60.921,222.666 62.163,222.896 62.763 C 223.127 63.363,224.459 64.304,225.857 64.855 C 227.256 65.405,229.480 66.644,230.800 67.606 C 235.636 71.134,245.437 76.744,249.382 78.244 C 251.611 79.090,254.176 80.474,255.082 81.318 C 255.988 82.162,258.095 83.333,259.765 83.920 C 261.434 84.507,263.700 85.775,264.800 86.738 C 265.900 87.701,268.600 88.937,270.800 89.486 C 273.000 90.035,276.060 91.317,277.600 92.337 C 279.140 93.356,282.200 94.651,284.400 95.214 C 286.600 95.777,290.380 97.047,292.800 98.035 C 295.220 99.024,300.800 100.429,305.200 101.157 C 309.600 101.885,315.180 103.142,317.600 103.951 C 320.020 104.759,323.125 105.660,324.500 105.952 C 325.874 106.244,327.854 107.393,328.900 108.506 L 330.800 110.529 330.800 171.465 C 330.800 237.165,330.622 240.353,326.342 251.503 C 325.477 253.757,324.213 257.760,323.532 260.400 C 322.850 263.040,321.488 266.460,320.503 268.000 C 319.519 269.540,318.063 272.537,317.268 274.659 C 316.473 276.782,315.309 278.715,314.681 278.956 C 314.054 279.197,313.039 280.594,312.426 282.060 C 311.814 283.526,309.006 287.537,306.186 290.974 C 303.366 294.410,300.623 298.037,300.089 299.034 C 299.310 300.490,294.558 305.457,289.486 310.116 C 289.077 310.492,288.125 311.406,287.371 312.147 C 285.877 313.614,278.965 319.996,276.400 322.275 C 275.520 323.057,273.360 324.550,271.600 325.594 C 268.215 327.600,263.393 331.376,259.892 334.761 C 258.733 335.883,257.448 336.800,257.037 336.800 C 256.625 336.800,254.359 338.240,252.000 340.000 C 249.641 341.760,247.401 343.200,247.022 343.200 C 246.643 343.200,244.818 344.293,242.966 345.629 C 237.380 349.659,229.368 354.876,226.475 356.366 C 224.977 357.138,223.028 358.443,222.145 359.266 C 221.262 360.089,219.248 361.174,217.670 361.678 C 216.091 362.181,213.900 363.403,212.800 364.393 C 209.106 367.719,200.776 367.593,197.582 364.165 C 196.751 363.273,195.065 362.322,193.835 362.051 C 192.606 361.781,190.090 360.399,188.244 358.980 C 186.399 357.561,181.944 354.600,178.344 352.400 C 174.744 350.200,170.450 347.230,168.802 345.800 C 167.154 344.370,165.434 343.200,164.979 343.200 C 164.524 343.200,162.643 341.940,160.800 340.400 C 158.957 338.860,156.965 337.600,156.373 337.600 C 155.363 337.600,150.092 333.606,145.611 329.446 C 144.517 328.431,142.344 326.855,140.782 325.944 C 133.950 321.958,112.088 301.065,104.722 291.481 C 102.785 288.961,100.390 286.083,99.400 285.086 C 98.410 284.089,97.600 282.840,97.600 282.312 C 97.600 281.783,96.677 280.141,95.549 278.662 C 94.421 277.183,92.773 274.334,91.887 272.330 C 91.000 270.327,89.446 267.465,88.432 265.971 C 87.418 264.477,86.335 261.903,86.025 260.251 C 85.715 258.600,84.592 255.765,83.529 253.951 C 81.687 250.808,81.021 247.540,78.400 228.800 C 75.786 210.111,76.836 113.164,79.695 109.239 C 81.376 106.931,90.900 103.186,98.123 101.993 C 106.968 100.532,114.106 98.946,114.960 98.252 C 115.488 97.822,118.908 96.645,122.560 95.636 C 126.212 94.627,130.541 93.006,132.180 92.034 C 133.819 91.061,137.013 89.777,139.279 89.179 C 141.545 88.581,144.174 87.364,145.122 86.473 C 146.070 85.583,148.283 84.347,150.040 83.727 C 151.797 83.107,154.619 81.660,156.312 80.511 C 158.005 79.363,160.555 78.101,161.978 77.708 C 164.258 77.079,168.693 74.672,177.657 69.200 C 179.098 68.320,181.596 66.835,183.207 65.901 C 184.817 64.966,187.689 63.076,189.588 61.701 C 191.487 60.325,193.463 59.200,193.981 59.200 C 194.498 59.200,195.774 58.292,196.816 57.182 C 199.775 54.034,206.340 52.704,210.716 54.368 M178.409 129.347 C 175.114 133.165,171.478 137.754,170.330 139.545 C 169.182 141.335,167.468 143.486,166.521 144.324 C 165.574 145.162,164.800 146.324,164.800 146.906 C 164.800 147.487,163.879 148.566,162.754 149.304 C 161.629 150.041,160.001 152.029,159.138 153.722 C 158.274 155.415,157.222 156.800,156.800 156.800 C 156.378 156.800,155.264 158.330,154.325 160.200 C 153.386 162.070,151.780 164.718,150.756 166.084 C 149.733 167.450,148.163 170.652,147.268 173.199 C 146.373 175.745,145.094 178.433,144.427 179.170 C 143.759 179.908,142.536 182.466,141.709 184.856 C 140.882 187.245,139.437 190.492,138.499 192.072 C 137.561 193.652,136.415 197.072,135.953 199.672 C 135.491 202.272,134.346 206.560,133.409 209.200 C 130.374 217.751,130.432 232.279,133.535 240.655 C 134.891 244.315,136.000 247.976,136.000 248.791 C 136.000 250.674,143.606 261.678,148.172 266.400 C 166.658 285.520,203.491 286.117,222.215 267.600 C 223.549 266.280,225.021 264.840,225.484 264.400 C 228.640 261.404,231.925 256.717,232.773 254.000 C 233.323 252.240,234.609 249.540,235.632 248.000 C 240.211 241.108,240.356 210.138,235.851 201.308 C 234.983 199.606,233.560 195.496,232.691 192.175 C 231.821 188.854,230.481 185.338,229.714 184.363 C 228.946 183.387,227.818 181.017,227.206 179.095 C 226.594 177.173,225.103 174.125,223.893 172.323 C 222.682 170.520,221.465 168.142,221.188 167.038 C 220.911 165.933,219.630 163.876,218.342 162.466 C 217.054 161.055,216.000 159.467,216.000 158.936 C 216.000 158.405,214.560 156.228,212.800 154.098 C 211.040 151.968,209.600 149.927,209.600 149.562 C 209.600 148.910,205.696 143.948,200.819 138.400 C 199.465 136.860,196.499 133.440,194.228 130.800 C 190.465 126.427,185.963 122.397,184.845 122.402 C 184.600 122.403,181.704 125.528,178.409 129.347 M245.000 133.396 C 243.570 134.108,242.400 134.984,242.400 135.343 C 242.400 135.702,241.142 137.388,239.604 139.090 C 235.015 144.170,233.182 149.993,235.553 151.961 C 236.501 152.748,236.986 152.374,238.273 149.859 C 241.030 144.476,247.673 140.678,250.776 142.711 C 253.342 144.392,259.200 150.330,259.200 151.250 C 259.200 151.684,260.460 153.870,262.000 156.109 C 263.540 158.348,264.800 160.617,264.800 161.153 C 264.800 161.688,265.867 163.736,267.170 165.704 C 268.976 168.430,269.851 171.178,270.845 177.241 C 271.563 181.619,272.472 185.818,272.865 186.574 C 273.315 187.437,273.165 189.665,272.461 192.574 C 271.846 195.118,271.104 198.265,270.814 199.567 C 270.500 200.972,268.356 203.800,265.541 206.520 C 259.753 212.114,257.487 217.600,260.965 217.600 C 263.306 217.600,272.782 208.207,274.281 204.400 C 275.147 202.200,276.426 199.320,277.123 198.000 C 279.144 194.171,278.830 183.819,276.496 177.387 C 275.449 174.500,274.134 170.217,273.574 167.869 C 273.013 165.521,271.919 163.150,271.142 162.600 C 270.364 162.049,269.145 159.842,268.431 157.694 C 267.718 155.546,266.390 153.116,265.482 152.294 C 264.573 151.472,263.151 149.469,262.320 147.843 C 261.490 146.216,260.317 144.596,259.714 144.243 C 259.111 143.889,258.009 142.411,257.266 140.958 C 255.722 137.938,249.855 131.975,248.504 132.051 C 248.007 132.079,246.430 132.685,245.000 133.396 M188.346 142.726 C 189.907 143.378,192.367 145.649,194.198 148.127 C 195.935 150.478,197.951 152.896,198.678 153.499 C 199.405 154.102,200.000 155.037,200.000 155.575 C 200.000 156.114,201.170 157.827,202.600 159.382 C 208.740 166.057,222.129 191.337,224.750 201.200 C 225.568 204.280,226.877 208.420,227.658 210.400 C 228.767 213.209,229.093 216.462,229.140 225.200 L 229.200 236.400 225.469 244.000 C 221.416 252.258,214.766 260.285,209.200 263.638 C 195.716 271.764,175.642 272.245,165.242 264.693 C 163.506 263.432,161.600 262.400,161.008 262.400 C 159.469 262.400,152.088 255.302,150.637 252.425 C 149.964 251.091,148.678 249.196,147.779 248.213 C 141.067 240.871,141.227 209.795,148.043 196.866 C 149.337 194.410,150.397 191.820,150.398 191.112 C 150.399 190.403,151.241 188.583,152.270 187.068 C 153.298 185.553,155.102 182.352,156.278 179.956 C 159.119 174.171,163.765 166.387,165.564 164.400 C 166.361 163.520,167.644 161.540,168.415 160.000 C 169.187 158.460,171.029 155.849,172.509 154.198 C 173.989 152.546,175.200 150.883,175.200 150.501 C 175.200 149.257,183.115 141.600,184.401 141.600 C 185.089 141.600,186.864 142.107,188.346 142.726 M207.819 232.600 C 207.142 233.370,206.354 234.772,206.067 235.716 C 205.227 238.480,195.889 246.445,191.002 248.567 C 186.727 250.422,187.523 254.064,191.993 253.102 C 195.286 252.393,198.400 251.051,198.400 250.340 C 198.400 249.975,199.603 249.104,201.073 248.407 C 205.196 246.450,208.608 242.409,210.307 237.469 C 212.212 231.934,210.811 229.193,207.819 232.600 " stroke="none" fill="#ed2722" fill-rule="evenodd"></path><path id="path2" d="M204.000 30.125 C 200.333 31.690,195.829 34.699,190.400 39.211 C 187.980 41.223,183.480 44.435,180.400 46.351 C 177.320 48.266,172.993 51.027,170.784 52.487 C 168.576 53.947,165.187 55.699,163.253 56.381 C 161.320 57.063,159.340 57.952,158.854 58.355 C 157.096 59.814,129.331 73.600,128.151 73.600 C 127.485 73.600,125.346 74.535,123.397 75.677 C 121.447 76.819,116.916 78.445,113.326 79.290 C 109.737 80.135,105.021 81.580,102.846 82.502 C 97.835 84.625,84.533 87.041,74.525 87.644 C 63.750 88.295,60.265 89.646,59.204 93.584 C 58.149 97.505,58.092 215.607,59.139 229.600 C 59.577 235.448,60.576 241.802,61.546 244.904 C 62.459 247.821,63.568 252.141,64.012 254.504 C 64.455 256.867,65.878 260.960,67.174 263.600 C 68.470 266.240,70.277 270.020,71.190 272.000 C 73.296 276.566,76.834 282.616,78.516 284.526 C 79.230 285.337,80.592 287.547,81.542 289.438 C 82.493 291.329,84.965 295.054,87.036 297.717 C 89.106 300.379,91.520 303.560,92.400 304.785 C 99.569 314.762,104.250 319.517,118.008 330.800 C 122.300 334.320,126.809 338.100,128.028 339.200 C 130.766 341.671,137.142 346.682,140.546 349.038 C 141.947 350.007,145.177 352.420,147.726 354.400 C 150.274 356.380,153.843 358.900,155.656 360.000 C 157.469 361.100,160.138 362.720,161.586 363.600 C 163.034 364.480,166.060 366.410,168.310 367.889 C 170.559 369.368,173.200 370.886,174.179 371.261 C 175.157 371.637,177.721 373.127,179.876 374.572 C 182.032 376.017,184.831 377.830,186.098 378.601 C 192.254 382.347,194.307 383.643,198.060 386.156 C 203.622 389.879,207.223 389.964,212.000 386.487 C 216.748 383.031,231.497 374.032,235.824 371.950 C 241.949 369.005,256.357 359.900,264.800 353.640 C 267.220 351.846,270.243 349.753,271.519 348.989 C 272.794 348.225,276.821 345.080,280.467 342.000 C 284.113 338.920,289.114 334.780,291.580 332.800 C 298.385 327.336,314.446 311.246,317.565 306.769 C 321.768 300.735,328.075 291.182,331.200 286.115 C 332.740 283.618,334.766 280.370,335.702 278.897 C 336.637 277.424,338.169 274.173,339.104 271.673 C 340.040 269.172,341.567 265.634,342.497 263.810 C 344.263 260.349,347.950 241.626,350.016 225.630 C 351.445 214.562,351.796 94.608,350.406 92.011 C 349.365 90.066,345.838 89.050,338.000 88.439 C 326.376 87.533,310.936 84.711,305.200 82.446 C 302.120 81.229,297.620 79.800,295.200 79.271 C 290.864 78.324,287.789 76.990,271.200 68.866 C 262.563 64.635,259.188 62.839,252.592 58.962 C 250.498 57.731,247.438 56.244,245.792 55.657 C 244.147 55.070,240.640 53.087,238.000 51.251 C 235.360 49.415,231.400 46.681,229.200 45.175 C 227.000 43.669,221.439 39.369,216.841 35.618 C 207.797 28.241,208.106 28.373,204.000 30.125 M211.680 35.067 C 213.396 36.313,215.294 37.933,215.898 38.667 C 216.502 39.400,217.467 40.000,218.043 40.000 C 218.620 40.000,219.845 41.059,220.766 42.353 C 221.688 43.647,223.242 44.955,224.221 45.261 C 225.199 45.566,227.175 46.841,228.611 48.093 C 230.047 49.345,232.387 50.966,233.811 51.693 C 235.235 52.421,236.672 53.479,237.003 54.044 C 237.335 54.608,239.315 55.702,241.403 56.475 C 243.492 57.247,246.621 58.896,248.358 60.139 C 250.094 61.383,251.906 62.400,252.385 62.400 C 252.863 62.400,255.222 63.669,257.627 65.221 C 260.032 66.772,263.293 68.390,264.873 68.817 C 266.453 69.244,268.361 70.273,269.113 71.104 C 269.865 71.935,272.072 73.060,274.017 73.605 C 275.962 74.149,278.700 75.441,280.101 76.474 C 281.502 77.508,284.482 78.914,286.724 79.599 C 288.966 80.284,292.060 81.229,293.600 81.699 C 295.140 82.169,297.840 83.211,299.600 84.015 C 301.360 84.818,305.860 86.078,309.600 86.814 C 313.340 87.551,318.451 88.836,320.957 89.671 C 323.843 90.632,328.977 91.361,334.957 91.659 C 340.151 91.918,345.390 92.505,346.600 92.962 L 348.800 93.794 348.788 154.297 C 348.777 204.920,348.582 215.584,347.594 219.600 C 346.944 222.240,345.856 229.980,345.176 236.800 C 343.913 249.475,343.036 254.069,341.206 257.600 C 340.635 258.700,339.413 262.062,338.489 265.071 C 337.565 268.079,336.146 271.499,335.337 272.671 C 334.527 273.842,333.242 276.396,332.480 278.346 C 331.719 280.297,330.193 282.966,329.089 284.278 C 327.985 285.590,326.540 288.016,325.879 289.670 C 325.217 291.324,324.175 292.869,323.563 293.103 C 322.951 293.338,321.897 294.854,321.221 296.472 C 319.970 299.468,319.379 300.240,309.531 311.761 C 304.471 317.680,297.653 324.103,288.048 332.000 C 282.930 336.208,275.881 342.165,273.367 344.408 C 272.139 345.504,270.697 346.400,270.162 346.400 C 269.627 346.400,267.214 348.020,264.800 350.000 C 262.386 351.980,260.139 353.600,259.806 353.600 C 259.473 353.600,258.416 354.384,257.459 355.341 C 256.501 356.299,254.394 357.829,252.776 358.741 C 246.513 362.272,241.919 365.062,240.000 366.498 C 238.900 367.321,235.750 369.053,233.000 370.347 C 230.250 371.641,228.000 373.043,228.000 373.463 C 228.000 373.883,226.470 374.834,224.600 375.577 C 222.730 376.320,220.475 377.602,219.589 378.426 C 218.703 379.250,216.546 380.522,214.796 381.253 C 213.046 381.985,210.572 383.460,209.298 384.531 C 206.673 386.740,203.229 386.531,200.400 383.990 C 199.520 383.200,197.365 381.962,195.611 381.238 C 193.857 380.515,191.692 379.238,190.800 378.400 C 189.908 377.562,187.817 376.308,186.154 375.613 C 184.491 374.918,182.939 373.852,182.706 373.244 C 182.473 372.635,180.366 371.360,178.025 370.410 C 175.684 369.460,172.948 367.809,171.945 366.741 C 170.942 365.674,169.671 364.800,169.122 364.800 C 168.572 364.800,167.105 363.948,165.861 362.907 C 164.618 361.866,161.731 360.071,159.446 358.917 C 157.162 357.764,154.388 355.916,153.283 354.810 C 152.177 353.705,150.742 352.800,150.094 352.800 C 149.446 352.800,148.080 351.761,147.058 350.492 C 146.036 349.223,143.940 347.554,142.400 346.783 C 140.860 346.012,138.160 344.149,136.400 342.642 C 134.640 341.135,131.840 338.754,130.178 337.351 C 128.515 335.948,125.940 333.720,124.455 332.400 C 122.970 331.080,119.901 328.560,117.635 326.800 C 111.889 322.336,101.021 311.507,97.200 306.437 C 95.440 304.101,92.993 301.068,91.762 299.695 C 88.523 296.085,85.848 292.111,83.890 288.000 C 82.947 286.020,81.146 283.217,79.887 281.772 C 78.629 280.327,77.600 278.657,77.600 278.062 C 77.600 277.467,76.340 275.148,74.800 272.909 C 73.260 270.670,72.000 268.482,72.000 268.047 C 72.000 266.363,69.373 259.532,68.228 258.239 C 67.565 257.490,66.511 254.070,65.885 250.639 C 61.709 227.733,61.728 227.932,61.252 202.859 C 60.994 189.251,61.026 159.082,61.322 135.817 C 61.954 86.320,60.169 92.084,75.142 91.195 C 80.674 90.867,86.280 90.152,87.600 89.608 C 88.920 89.063,93.263 87.972,97.250 87.182 C 101.238 86.392,106.638 84.852,109.250 83.759 C 111.863 82.667,116.213 81.211,118.917 80.524 C 121.622 79.837,126.242 77.998,129.184 76.438 C 132.126 74.877,135.174 73.600,135.959 73.600 C 136.743 73.600,138.270 72.903,139.353 72.052 C 140.436 71.200,143.381 69.592,145.899 68.478 C 148.417 67.365,151.450 65.769,152.639 64.932 C 153.827 64.095,155.700 63.142,156.800 62.816 C 157.900 62.489,160.500 61.191,162.578 59.931 C 164.657 58.672,167.190 57.432,168.208 57.177 C 169.227 56.921,171.627 55.472,173.542 53.956 C 175.458 52.440,177.487 51.200,178.051 51.200 C 178.616 51.200,180.245 50.210,181.673 49.000 C 183.101 47.790,185.421 46.080,186.828 45.200 C 190.487 42.913,195.681 39.166,198.838 36.537 C 201.444 34.366,204.554 33.015,207.280 32.869 C 207.984 32.831,209.964 33.820,211.680 35.067 M201.156 54.455 C 199.812 54.845,197.859 56.073,196.816 57.182 C 195.774 58.292,194.498 59.200,193.981 59.200 C 193.463 59.200,191.487 60.325,189.588 61.701 C 187.689 63.076,184.817 64.966,183.207 65.901 C 181.596 66.835,179.098 68.320,177.657 69.200 C 168.693 74.672,164.258 77.079,161.978 77.708 C 160.555 78.101,158.005 79.363,156.312 80.511 C 154.619 81.660,151.797 83.107,150.040 83.727 C 148.283 84.347,146.070 85.583,145.122 86.473 C 144.174 87.364,141.545 88.581,139.279 89.179 C 137.013 89.777,133.819 91.061,132.180 92.034 C 130.541 93.006,126.212 94.627,122.560 95.636 C 118.908 96.645,115.488 97.822,114.960 98.252 C 114.106 98.946,106.968 100.532,98.123 101.993 C 90.900 103.186,81.376 106.931,79.695 109.239 C 76.836 113.164,75.786 210.111,78.400 228.800 C 81.021 247.540,81.687 250.808,83.529 253.951 C 84.592 255.765,85.715 258.600,86.025 260.251 C 86.335 261.903,87.418 264.477,88.432 265.971 C 89.446 267.465,91.000 270.327,91.887 272.330 C 92.773 274.334,94.421 277.183,95.549 278.662 C 96.677 280.141,97.600 281.783,97.600 282.312 C 97.600 282.840,98.410 284.089,99.400 285.086 C 100.390 286.083,102.785 288.961,104.722 291.481 C 112.088 301.065,133.950 321.958,140.782 325.944 C 142.344 326.855,144.517 328.431,145.611 329.446 C 150.092 333.606,155.363 337.600,156.373 337.600 C 156.965 337.600,158.957 338.860,160.800 340.400 C 162.643 341.940,164.524 343.200,164.979 343.200 C 165.434 343.200,167.154 344.370,168.802 345.800 C 170.450 347.230,174.744 350.200,178.344 352.400 C 181.944 354.600,186.399 357.561,188.244 358.980 C 190.090 360.399,192.606 361.781,193.835 362.051 C 195.065 362.322,196.751 363.273,197.582 364.165 C 200.776 367.593,209.106 367.719,212.800 364.393 C 213.900 363.403,216.091 362.181,217.670 361.678 C 219.248 361.174,221.262 360.089,222.145 359.266 C 223.028 358.443,224.977 357.138,226.475 356.366 C 229.368 354.876,237.380 349.659,242.966 345.629 C 244.818 344.293,246.643 343.200,247.022 343.200 C 247.401 343.200,249.641 341.760,252.000 340.000 C 254.359 338.240,256.625 336.800,257.037 336.800 C 257.448 336.800,258.733 335.883,259.892 334.761 C 263.393 331.376,268.215 327.600,271.600 325.594 C 273.360 324.550,275.520 323.057,276.400 322.275 C 278.965 319.996,285.877 313.614,287.371 312.147 C 288.125 311.406,289.077 310.492,289.486 310.116 C 294.558 305.457,299.310 300.490,300.089 299.034 C 300.623 298.037,303.366 294.410,306.186 290.974 C 309.006 287.537,311.814 283.526,312.426 282.060 C 313.039 280.594,314.054 279.197,314.681 278.956 C 315.309 278.715,316.473 276.782,317.268 274.659 C 318.063 272.537,319.519 269.540,320.503 268.000 C 321.488 266.460,322.850 263.040,323.532 260.400 C 324.213 257.760,325.477 253.757,326.342 251.503 C 330.622 240.353,330.800 237.165,330.800 171.465 L 330.800 110.529 328.900 108.506 C 327.854 107.393,325.874 106.244,324.500 105.952 C 323.125 105.660,320.020 104.759,317.600 103.951 C 315.180 103.142,309.600 101.885,305.200 101.157 C 300.800 100.429,295.220 99.024,292.800 98.035 C 290.380 97.047,286.600 95.777,284.400 95.214 C 282.200 94.651,279.140 93.356,277.600 92.337 C 276.060 91.317,273.000 90.035,270.800 89.486 C 268.600 88.937,265.900 87.701,264.800 86.738 C 263.700 85.775,261.434 84.507,259.765 83.920 C 258.095 83.333,255.988 82.162,255.082 81.318 C 254.176 80.474,251.611 79.090,249.382 78.244 C 245.437 76.744,235.636 71.134,230.800 67.606 C 229.480 66.644,227.256 65.405,225.857 64.855 C 224.459 64.304,223.127 63.363,222.896 62.763 C 222.666 62.163,221.005 60.921,219.206 60.003 C 217.406 59.085,215.214 57.614,214.335 56.735 C 211.309 53.709,206.554 52.886,201.156 54.455 M216.242 61.408 C 230.747 71.381,240.420 77.461,244.021 78.868 C 245.990 79.636,248.500 80.883,249.600 81.639 C 250.700 82.394,253.400 83.906,255.600 84.999 C 257.800 86.091,261.040 87.727,262.800 88.634 C 272.107 93.430,284.778 98.790,290.800 100.478 C 297.195 102.271,311.029 105.624,318.335 107.151 C 329.155 109.413,328.104 101.973,327.821 174.328 L 327.577 236.400 325.469 243.200 C 324.309 246.940,322.930 252.160,322.403 254.800 C 321.061 261.530,312.098 279.429,306.945 285.669 C 303.389 289.975,302.865 290.642,299.422 295.252 C 295.655 300.296,278.043 317.589,272.787 321.404 C 270.814 322.835,266.140 326.343,262.400 329.198 C 258.660 332.053,254.160 335.161,252.400 336.104 C 250.640 337.047,248.167 338.683,246.903 339.739 C 245.640 340.795,243.390 342.168,241.903 342.789 C 240.417 343.410,239.200 344.230,239.200 344.612 C 239.200 344.993,237.670 346.148,235.800 347.178 C 233.930 348.207,228.873 351.349,224.563 354.159 C 220.252 356.969,215.752 359.689,214.563 360.202 C 213.373 360.716,211.541 361.781,210.492 362.568 C 206.465 365.591,200.194 363.476,187.352 354.766 C 184.135 352.585,179.607 349.720,177.289 348.400 C 173.262 346.106,171.092 344.560,165.371 339.911 C 163.957 338.762,161.587 337.200,160.105 336.441 C 156.938 334.819,150.417 330.295,146.267 326.841 C 144.654 325.498,141.640 323.140,139.569 321.600 C 133.381 316.998,127.650 311.846,123.997 307.600 C 122.104 305.400,119.877 303.120,119.047 302.534 C 115.093 299.736,100.322 282.388,98.554 278.464 C 97.844 276.889,96.791 275.023,96.214 274.318 C 94.402 272.103,87.200 257.364,87.200 255.871 C 87.200 255.087,86.355 252.535,85.322 250.200 C 81.286 241.072,80.784 232.188,80.795 170.071 C 80.807 104.724,80.156 109.168,90.000 107.238 C 92.640 106.721,96.960 105.616,99.600 104.782 C 102.240 103.949,107.640 102.673,111.600 101.948 C 115.560 101.222,120.060 99.987,121.600 99.202 C 123.140 98.418,126.345 97.200,128.723 96.495 C 131.100 95.790,134.185 94.541,135.578 93.719 C 136.971 92.897,139.896 91.632,142.077 90.907 C 144.259 90.183,147.294 88.755,148.822 87.735 C 150.350 86.715,153.220 85.247,155.200 84.473 C 157.180 83.699,159.340 82.586,160.000 82.000 C 160.660 81.414,162.820 80.308,164.800 79.542 C 169.762 77.624,179.025 72.058,196.400 60.556 C 205.307 54.659,206.502 54.711,216.242 61.408 M177.160 126.568 C 173.662 130.620,170.173 134.850,169.406 135.968 C 167.992 138.030,166.292 140.200,158.400 150.016 C 155.980 153.026,152.829 157.314,151.399 159.545 C 148.883 163.466,147.827 165.535,141.767 178.400 C 140.213 181.700,137.920 186.528,136.671 189.128 C 135.422 191.728,134.400 194.510,134.400 195.310 C 134.400 196.109,133.536 199.059,132.480 201.865 C 125.846 219.489,128.641 246.495,138.400 259.064 C 151.301 275.680,162.880 282.485,180.296 283.684 C 227.677 286.948,255.341 242.872,236.374 194.335 C 234.848 190.429,233.600 186.829,233.600 186.333 C 233.600 185.232,225.584 168.560,224.785 168.000 C 224.471 167.780,223.484 166.160,222.591 164.400 C 221.697 162.640,219.468 159.040,217.636 156.400 C 215.804 153.760,213.337 150.147,212.153 148.370 C 207.267 141.042,191.427 122.704,188.167 120.604 C 184.686 118.362,183.853 118.813,177.160 126.568 M187.694 124.200 C 189.016 125.190,191.957 128.160,194.228 130.800 C 196.499 133.440,199.465 136.860,200.819 138.400 C 205.696 143.948,209.600 148.910,209.600 149.562 C 209.600 149.927,211.040 151.968,212.800 154.098 C 214.560 156.228,216.000 158.405,216.000 158.936 C 216.000 159.467,217.054 161.055,218.342 162.466 C 219.630 163.876,220.911 165.933,221.188 167.038 C 221.465 168.142,222.682 170.520,223.893 172.323 C 225.103 174.125,226.594 177.173,227.206 179.095 C 227.818 181.017,228.946 183.387,229.714 184.363 C 230.481 185.338,231.821 188.854,232.691 192.175 C 233.560 195.496,234.983 199.606,235.851 201.308 C 240.356 210.138,240.211 241.108,235.632 248.000 C 234.609 249.540,233.323 252.240,232.773 254.000 C 231.925 256.717,228.640 261.404,225.484 264.400 C 225.021 264.840,223.549 266.280,222.215 267.600 C 214.297 275.430,198.200 281.600,185.689 281.600 C 172.875 281.600,156.424 274.935,148.172 266.400 C 143.606 261.678,136.000 250.674,136.000 248.791 C 136.000 247.976,134.891 244.315,133.535 240.655 C 130.432 232.279,130.374 217.751,133.409 209.200 C 134.346 206.560,135.491 202.272,135.953 199.672 C 136.415 197.072,137.561 193.652,138.499 192.072 C 139.437 190.492,140.882 187.245,141.709 184.856 C 142.536 182.466,143.759 179.908,144.427 179.170 C 145.094 178.433,146.373 175.745,147.268 173.199 C 148.163 170.652,149.733 167.450,150.756 166.084 C 151.780 164.718,153.386 162.070,154.325 160.200 C 155.264 158.330,156.378 156.800,156.800 156.800 C 157.222 156.800,158.274 155.415,159.138 153.722 C 160.001 152.029,161.629 150.041,162.754 149.304 C 163.879 148.566,164.800 147.487,164.800 146.906 C 164.800 146.324,165.574 145.162,166.521 144.324 C 167.468 143.486,169.182 141.335,170.330 139.545 C 172.591 136.019,184.118 122.405,184.845 122.402 C 185.089 122.401,186.371 123.210,187.694 124.200 M244.800 129.961 C 239.475 132.883,230.112 147.052,230.563 151.507 C 231.094 156.757,240.800 155.751,240.800 150.445 C 240.800 149.448,247.008 145.600,248.616 145.600 C 249.414 145.600,251.564 147.130,253.393 149.000 C 257.571 153.271,260.420 158.264,267.203 173.200 C 272.861 185.662,270.050 201.646,261.238 207.110 C 256.890 209.807,255.446 216.676,258.769 218.853 C 260.995 220.312,268.000 218.189,268.000 216.056 C 268.000 215.635,269.089 214.647,270.419 213.861 C 280.275 208.040,284.157 182.363,277.232 168.800 C 276.671 167.700,274.459 163.278,272.318 158.973 C 270.177 154.669,267.520 150.099,266.413 148.818 C 265.306 147.537,262.600 143.859,260.400 140.644 C 252.984 129.809,249.468 127.401,244.800 129.961 M252.661 135.158 C 254.451 136.895,256.523 139.505,257.266 140.958 C 258.009 142.411,259.111 143.889,259.714 144.243 C 260.317 144.596,261.490 146.216,262.320 147.843 C 263.151 149.469,264.573 151.472,265.482 152.294 C 266.390 153.116,267.718 155.546,268.431 157.694 C 269.145 159.842,270.364 162.049,271.142 162.600 C 271.919 163.150,273.013 165.521,273.574 167.869 C 274.134 170.217,275.449 174.500,276.496 177.387 C 278.830 183.819,279.144 194.171,277.123 198.000 C 276.426 199.320,275.147 202.200,274.281 204.400 C 272.782 208.207,263.306 217.600,260.965 217.600 C 257.487 217.600,259.753 212.114,265.541 206.520 C 268.356 203.800,270.500 200.972,270.814 199.567 C 271.104 198.265,271.846 195.118,272.461 192.574 C 273.165 189.665,273.315 187.437,272.865 186.574 C 272.472 185.818,271.563 181.619,270.845 177.241 C 269.851 171.178,268.976 168.430,267.170 165.704 C 265.867 163.736,264.800 161.688,264.800 161.153 C 264.800 160.617,263.540 158.348,262.000 156.109 C 260.460 153.870,259.200 151.684,259.200 151.250 C 259.200 150.330,253.342 144.392,250.776 142.711 C 247.673 140.678,241.030 144.476,238.273 149.859 C 236.986 152.374,236.501 152.748,235.553 151.961 C 233.182 149.993,235.015 144.170,239.604 139.090 C 241.142 137.388,242.400 135.702,242.400 135.343 C 242.400 134.634,247.035 132.134,248.504 132.051 C 249.000 132.023,250.872 133.421,252.661 135.158 M179.175 145.703 C 176.989 147.959,175.200 150.118,175.200 150.501 C 175.200 150.883,173.989 152.546,172.509 154.198 C 171.029 155.849,169.187 158.460,168.415 160.000 C 167.644 161.540,166.361 163.520,165.564 164.400 C 163.765 166.387,159.119 174.171,156.278 179.956 C 155.102 182.352,153.298 185.553,152.270 187.068 C 151.241 188.583,150.399 190.403,150.398 191.112 C 150.397 191.820,149.337 194.410,148.043 196.866 C 141.227 209.795,141.067 240.871,147.779 248.213 C 148.678 249.196,149.964 251.091,150.637 252.425 C 152.088 255.302,159.469 262.400,161.008 262.400 C 161.600 262.400,163.506 263.432,165.242 264.693 C 175.642 272.245,195.716 271.764,209.200 263.638 C 214.766 260.285,221.416 252.258,225.469 244.000 L 229.200 236.400 229.140 225.200 C 229.093 216.462,228.767 213.209,227.658 210.400 C 226.877 208.420,225.568 204.280,224.750 201.200 C 222.129 191.337,208.740 166.057,202.600 159.382 C 201.170 157.827,200.000 156.114,200.000 155.575 C 200.000 155.037,199.405 154.102,198.678 153.499 C 197.951 152.896,195.935 150.478,194.198 148.127 C 191.238 144.119,187.456 141.600,184.401 141.600 C 183.713 141.600,181.362 143.446,179.175 145.703 M188.790 146.889 C 190.526 148.037,192.683 150.107,193.583 151.489 C 194.484 152.870,196.824 156.160,198.784 158.800 C 217.066 183.424,229.523 215.965,226.557 231.352 C 223.710 246.122,215.711 257.144,203.359 263.320 L 196.400 266.800 185.991 266.800 L 175.582 266.800 168.471 263.200 C 160.213 259.019,154.317 253.658,150.141 246.532 C 142.645 233.743,144.065 209.013,153.293 191.600 C 153.992 190.280,155.682 187.040,157.047 184.400 C 158.412 181.760,160.535 178.196,161.765 176.480 C 162.994 174.764,164.000 172.902,164.000 172.341 C 164.000 171.781,164.849 170.305,165.887 169.061 C 166.926 167.818,168.413 165.540,169.193 164.000 C 172.036 158.386,182.929 144.800,184.587 144.800 C 185.163 144.800,187.055 145.740,188.790 146.889 M208.314 227.183 C 207.385 227.558,206.012 229.421,205.257 231.332 C 203.595 235.534,198.354 241.140,194.000 243.373 C 183.066 248.981,181.584 252.846,188.847 256.812 C 193.032 259.097,207.968 248.310,212.793 239.518 C 218.271 229.537,216.252 223.975,208.314 227.183 M210.967 232.087 C 213.514 234.634,206.817 245.681,201.073 248.407 C 199.603 249.104,198.400 249.975,198.400 250.340 C 198.400 251.051,195.286 252.393,191.993 253.102 C 187.523 254.064,186.727 250.422,191.002 248.567 C 195.889 246.445,205.227 238.480,206.067 235.716 C 207.138 232.195,209.400 230.520,210.967 232.087 " stroke="none" fill="#f15d60" fill-rule="evenodd"></path><path id="path3" d="M200.440 29.202 C 196.963 31.184,192.110 34.552,189.655 36.687 C 184.865 40.854,177.916 45.705,172.625 48.578 C 170.823 49.556,168.596 51.041,167.675 51.878 C 166.754 52.715,164.184 53.989,161.964 54.710 C 159.744 55.430,157.044 56.643,155.964 57.405 C 154.884 58.167,152.258 59.600,150.129 60.591 C 148.000 61.582,145.244 63.114,144.005 63.996 C 142.767 64.878,141.324 65.600,140.800 65.600 C 140.276 65.600,137.272 66.849,134.124 68.375 C 125.161 72.719,112.760 77.378,107.640 78.325 C 105.071 78.800,101.085 80.051,98.782 81.106 C 93.648 83.456,86.732 84.562,73.422 85.163 C 61.456 85.704,59.850 86.186,58.219 89.734 C 55.395 95.874,55.814 232.759,58.693 244.400 C 61.001 253.737,64.639 264.751,66.305 267.446 C 67.233 268.947,68.495 271.601,69.110 273.344 C 69.725 275.087,72.156 279.297,74.514 282.701 C 76.871 286.104,79.523 290.283,80.406 291.986 C 81.289 293.690,82.819 295.943,83.806 296.993 C 84.793 298.044,85.600 299.217,85.600 299.600 C 85.600 299.983,86.956 301.940,88.613 303.949 C 90.271 305.957,92.643 308.969,93.885 310.641 C 96.805 314.571,106.608 324.468,111.106 328.027 C 114.389 330.623,125.401 339.870,132.214 345.750 C 133.871 347.181,135.845 348.697,136.600 349.120 C 137.354 349.542,141.121 352.253,144.969 355.144 C 148.818 358.035,154.340 361.840,157.241 363.600 C 160.142 365.360,164.281 367.970,166.438 369.400 C 168.596 370.830,170.690 372.000,171.091 372.000 C 171.492 372.000,173.571 373.200,175.710 374.667 C 177.850 376.134,180.562 377.844,181.739 378.467 C 184.819 380.099,190.572 383.877,195.997 387.832 C 203.076 392.993,206.977 393.218,212.800 388.802 C 215.220 386.967,218.885 384.603,220.943 383.548 C 223.002 382.493,224.906 381.276,225.174 380.842 C 225.442 380.408,227.538 379.114,229.831 377.967 C 232.124 376.819,234.720 375.232,235.600 374.439 C 236.480 373.646,238.545 372.566,240.189 372.040 C 241.833 371.514,243.389 370.741,243.647 370.324 C 243.905 369.906,246.160 368.486,248.658 367.167 C 253.363 364.684,267.287 355.239,270.544 352.322 C 271.565 351.407,273.840 349.828,275.600 348.813 C 278.594 347.086,279.872 346.025,286.000 340.177 C 287.320 338.917,289.050 337.526,289.845 337.086 C 293.470 335.079,314.598 314.685,317.148 310.730 C 317.975 309.449,319.138 308.111,319.732 307.757 C 320.325 307.404,321.493 305.784,322.326 304.157 C 323.159 302.531,324.867 299.884,326.120 298.276 C 327.374 296.668,329.120 294.150,330.000 292.679 C 330.880 291.209,332.933 287.845,334.563 285.203 C 341.005 274.758,345.558 264.044,347.290 255.257 C 348.206 250.606,349.467 244.820,350.092 242.400 C 352.960 231.289,353.600 215.106,353.600 153.724 C 353.600 79.147,355.612 86.323,334.400 85.254 C 321.676 84.612,315.603 83.643,310.705 81.473 C 308.557 80.521,304.100 79.114,300.800 78.347 C 294.867 76.967,282.076 72.014,276.223 68.830 C 274.560 67.925,271.220 66.281,268.800 65.177 C 262.666 62.376,256.293 58.904,254.615 57.447 C 253.837 56.772,251.400 55.564,249.200 54.764 C 247.000 53.963,243.760 52.371,242.000 51.226 C 240.240 50.080,238.232 48.796,237.537 48.371 C 235.264 46.983,228.608 42.058,225.143 39.200 C 206.764 24.041,208.362 24.688,200.440 29.202 M216.841 35.618 C 221.439 39.369,227.000 43.669,229.200 45.175 C 231.400 46.681,235.360 49.415,238.000 51.251 C 240.640 53.087,244.147 55.070,245.792 55.657 C 247.438 56.244,250.498 57.731,252.592 58.962 C 259.188 62.839,262.563 64.635,271.200 68.866 C 287.789 76.990,290.864 78.324,295.200 79.271 C 297.620 79.800,302.120 81.229,305.200 82.446 C 310.936 84.711,326.376 87.533,338.000 88.439 C 345.838 89.050,349.365 90.066,350.406 92.011 C 351.796 94.608,351.445 214.562,350.016 225.630 C 347.950 241.626,344.263 260.349,342.497 263.810 C 341.567 265.634,340.040 269.172,339.104 271.673 C 338.169 274.173,336.637 277.424,335.702 278.897 C 334.766 280.370,332.740 283.618,331.200 286.115 C 328.075 291.182,321.768 300.735,317.565 306.769 C 314.446 311.246,298.385 327.336,291.580 332.800 C 289.114 334.780,284.113 338.920,280.467 342.000 C 276.821 345.080,272.794 348.225,271.519 348.989 C 270.243 349.753,267.220 351.846,264.800 353.640 C 256.357 359.900,241.949 369.005,235.824 371.950 C 231.497 374.032,216.748 383.031,212.000 386.487 C 207.223 389.964,203.622 389.879,198.060 386.156 C 194.307 383.643,192.254 382.347,186.098 378.601 C 184.831 377.830,182.032 376.017,179.876 374.572 C 177.721 373.127,175.157 371.637,174.179 371.261 C 173.200 370.886,170.559 369.368,168.310 367.889 C 166.060 366.410,163.034 364.480,161.586 363.600 C 160.138 362.720,157.469 361.100,155.656 360.000 C 153.843 358.900,150.274 356.380,147.726 354.400 C 145.177 352.420,141.947 350.007,140.546 349.038 C 137.142 346.682,130.766 341.671,128.028 339.200 C 126.809 338.100,122.300 334.320,118.008 330.800 C 104.250 319.517,99.569 314.762,92.400 304.785 C 91.520 303.560,89.106 300.379,87.036 297.717 C 84.965 295.054,82.493 291.329,81.542 289.438 C 80.592 287.547,79.230 285.337,78.516 284.526 C 76.834 282.616,73.296 276.566,71.190 272.000 C 70.277 270.020,68.470 266.240,67.174 263.600 C 65.878 260.960,64.455 256.867,64.012 254.504 C 63.568 252.141,62.459 247.821,61.546 244.904 C 60.576 241.802,59.577 235.448,59.139 229.600 C 58.092 215.607,58.149 97.505,59.204 93.584 C 60.265 89.646,63.750 88.295,74.525 87.644 C 84.533 87.041,97.835 84.625,102.846 82.502 C 105.021 81.580,109.737 80.135,113.326 79.290 C 116.916 78.445,121.447 76.819,123.397 75.677 C 125.346 74.535,127.485 73.600,128.151 73.600 C 129.331 73.600,157.096 59.814,158.854 58.355 C 159.340 57.952,161.320 57.063,163.253 56.381 C 165.187 55.699,168.576 53.947,170.784 52.487 C 172.993 51.027,177.320 48.266,180.400 46.351 C 183.480 44.435,187.980 41.223,190.400 39.211 C 197.365 33.422,204.561 29.104,207.641 28.865 C 208.104 28.829,212.244 31.868,216.841 35.618 M203.200 56.758 C 202.100 57.099,199.040 58.808,196.400 60.556 C 179.025 72.058,169.762 77.624,164.800 79.542 C 162.820 80.308,160.660 81.414,160.000 82.000 C 159.340 82.586,157.180 83.699,155.200 84.473 C 153.220 85.247,150.350 86.715,148.822 87.735 C 147.294 88.755,144.259 90.183,142.077 90.907 C 139.896 91.632,136.971 92.897,135.578 93.719 C 134.185 94.541,131.100 95.790,128.723 96.495 C 126.345 97.200,123.140 98.418,121.600 99.202 C 120.060 99.987,115.560 101.222,111.600 101.948 C 107.640 102.673,102.240 103.949,99.600 104.782 C 96.960 105.616,92.640 106.721,90.000 107.238 C 80.156 109.168,80.807 104.724,80.795 170.071 C 80.784 232.188,81.286 241.072,85.322 250.200 C 86.355 252.535,87.200 255.087,87.200 255.871 C 87.200 257.364,94.402 272.103,96.214 274.318 C 96.791 275.023,97.844 276.889,98.554 278.464 C 100.322 282.388,115.093 299.736,119.047 302.534 C 119.877 303.120,122.104 305.400,123.997 307.600 C 127.650 311.846,133.381 316.998,139.569 321.600 C 141.640 323.140,144.654 325.498,146.267 326.841 C 150.417 330.295,156.938 334.819,160.105 336.441 C 161.587 337.200,163.957 338.762,165.371 339.911 C 171.092 344.560,173.262 346.106,177.289 348.400 C 179.607 349.720,184.135 352.585,187.352 354.766 C 200.194 363.476,206.465 365.591,210.492 362.568 C 211.541 361.781,213.373 360.716,214.563 360.202 C 215.752 359.689,220.252 356.969,224.563 354.159 C 228.873 351.349,233.930 348.207,235.800 347.178 C 237.670 346.148,239.200 344.993,239.200 344.612 C 239.200 344.230,240.417 343.410,241.903 342.789 C 243.390 342.168,245.640 340.795,246.903 339.739 C 248.167 338.683,250.640 337.047,252.400 336.104 C 254.160 335.161,258.660 332.053,262.400 329.198 C 266.140 326.343,270.814 322.835,272.787 321.404 C 278.043 317.589,295.655 300.296,299.422 295.252 C 302.865 290.642,303.389 289.975,306.945 285.669 C 312.098 279.429,321.061 261.530,322.403 254.800 C 322.930 252.160,324.309 246.940,325.469 243.200 L 327.577 236.400 327.821 174.328 C 328.104 101.973,329.155 109.413,318.335 107.151 C 311.029 105.624,297.195 102.271,290.800 100.478 C 284.778 98.790,272.107 93.430,262.800 88.634 C 261.040 87.727,257.800 86.091,255.600 84.999 C 253.400 83.906,250.700 82.394,249.600 81.639 C 248.500 80.883,245.990 79.636,244.021 78.868 C 240.420 77.461,230.747 71.381,216.242 61.408 C 208.465 56.061,207.062 55.560,203.200 56.758 M210.963 60.600 C 212.927 61.810,215.674 63.740,217.067 64.889 C 218.460 66.038,220.860 67.619,222.400 68.402 C 223.940 69.185,226.218 70.674,227.461 71.713 C 228.705 72.751,230.168 73.600,230.712 73.600 C 231.256 73.600,232.727 74.672,233.982 75.982 C 235.237 77.291,237.555 78.769,239.132 79.265 C 240.709 79.761,243.308 81.007,244.907 82.034 C 246.506 83.060,250.147 84.958,252.999 86.251 C 255.850 87.543,258.427 88.997,258.726 89.480 C 259.024 89.963,261.066 90.892,263.262 91.544 C 265.458 92.196,268.232 93.426,269.427 94.276 C 270.622 95.126,273.502 96.386,275.827 97.076 C 278.152 97.766,281.032 99.023,282.227 99.871 C 283.422 100.718,287.280 102.027,290.800 102.780 C 294.320 103.533,299.720 104.989,302.800 106.016 C 305.880 107.042,311.138 108.258,314.484 108.717 C 327.610 110.518,326.551 104.680,326.248 173.600 L 326.000 230.000 323.906 238.400 C 322.754 243.020,321.371 249.140,320.833 252.000 C 319.919 256.863,317.392 263.286,313.438 270.800 C 312.512 272.560,311.016 275.440,310.115 277.200 C 309.213 278.960,306.408 282.816,303.883 285.768 C 301.357 288.720,298.853 291.953,298.319 292.952 C 295.759 297.735,271.300 320.759,264.293 324.982 C 263.032 325.742,260.380 327.640,258.400 329.200 C 256.420 330.760,253.777 332.658,252.527 333.418 C 251.276 334.178,248.603 335.880,246.585 337.200 C 244.568 338.520,242.351 339.960,241.659 340.400 C 240.966 340.840,238.780 342.325,236.800 343.700 C 234.820 345.074,231.670 346.972,229.800 347.916 C 227.930 348.860,226.400 349.942,226.400 350.319 C 226.400 350.697,225.262 351.477,223.871 352.053 C 222.480 352.630,219.690 354.223,217.671 355.594 C 208.517 361.809,206.525 362.224,199.600 359.361 C 196.119 357.921,185.190 350.877,184.364 349.541 C 184.083 349.087,181.996 347.838,179.726 346.767 C 177.457 345.696,173.260 343.012,170.400 340.803 C 167.540 338.595,164.023 336.242,162.584 335.576 C 160.148 334.449,156.236 331.706,149.692 326.539 C 148.202 325.362,146.402 324.074,145.692 323.675 C 144.484 322.997,142.586 321.470,134.914 315.002 C 133.217 313.571,127.411 307.900,122.012 302.400 C 113.383 293.610,109.910 289.804,103.033 281.600 C 102.111 280.500,100.836 278.340,100.200 276.800 C 99.563 275.260,98.164 272.836,97.090 271.413 C 96.017 269.990,94.620 267.356,93.986 265.560 C 93.352 263.764,92.110 261.278,91.226 260.037 C 90.342 258.795,89.081 255.489,88.424 252.689 C 87.767 249.890,86.450 245.620,85.497 243.200 C 83.226 237.431,82.071 194.742,82.859 145.704 C 83.470 107.718,82.944 110.096,90.934 109.220 C 93.500 108.939,98.660 107.778,102.400 106.640 C 106.140 105.503,112.359 103.927,116.220 103.139 C 120.081 102.351,124.401 100.996,125.820 100.129 C 127.239 99.262,130.215 98.020,132.434 97.369 C 134.653 96.718,138.253 95.272,140.434 94.156 C 142.615 93.040,148.360 90.274,153.200 88.009 C 158.040 85.744,162.540 83.559,163.200 83.153 C 163.860 82.748,166.674 81.344,169.454 80.034 C 172.234 78.723,175.591 76.740,176.915 75.626 C 178.239 74.512,179.755 73.600,180.283 73.600 C 180.811 73.600,183.078 72.250,185.322 70.600 C 187.565 68.950,190.435 66.972,191.700 66.205 C 192.965 65.438,195.800 63.678,198.000 62.295 C 201.586 60.040,204.712 58.665,206.696 58.469 C 207.079 58.431,208.999 59.390,210.963 60.600 M183.416 116.524 C 182.419 116.928,171.097 129.931,168.549 133.600 C 167.785 134.700,165.819 137.254,164.180 139.275 C 162.541 141.296,158.770 145.942,155.800 149.600 C 152.830 153.257,150.400 156.591,150.400 157.010 C 150.400 157.428,149.368 159.082,148.107 160.685 C 146.846 162.288,145.545 164.500,145.218 165.600 C 144.890 166.700,143.597 169.580,142.344 172.000 C 138.170 180.063,133.600 190.043,133.600 191.095 C 133.600 191.666,132.501 194.877,131.159 198.230 C 116.774 234.154,135.909 276.428,170.205 284.494 C 181.201 287.081,204.154 285.217,211.104 281.173 C 239.354 264.738,250.747 238.532,242.916 208.000 C 239.322 193.991,239.103 193.264,237.898 191.378 C 237.258 190.376,235.993 187.136,235.087 184.178 C 234.181 181.220,232.973 178.260,232.402 177.600 C 231.831 176.940,230.248 174.060,228.883 171.200 C 227.518 168.340,225.629 164.740,224.685 163.200 C 218.688 153.418,216.169 149.655,213.836 146.998 C 212.386 145.346,211.200 143.652,211.200 143.232 C 211.200 142.473,200.590 129.793,196.111 125.200 C 194.824 123.880,193.384 122.035,192.911 121.100 C 192.241 119.776,185.618 115.758,184.609 116.063 C 184.494 116.098,183.957 116.305,183.416 116.524 M188.167 120.604 C 191.427 122.704,207.267 141.042,212.153 148.370 C 213.337 150.147,215.804 153.760,217.636 156.400 C 219.468 159.040,221.697 162.640,222.591 164.400 C 223.484 166.160,224.471 167.780,224.785 168.000 C 225.584 168.560,233.600 185.232,233.600 186.333 C 233.600 186.829,234.848 190.429,236.374 194.335 C 255.341 242.872,227.677 286.948,180.296 283.684 C 162.880 282.485,151.301 275.680,138.400 259.064 C 128.641 246.495,125.846 219.489,132.480 201.865 C 133.536 199.059,134.400 196.109,134.400 195.310 C 134.400 194.510,135.422 191.728,136.671 189.128 C 137.920 186.528,140.213 181.700,141.767 178.400 C 147.827 165.535,148.883 163.466,151.399 159.545 C 152.829 157.314,155.980 153.026,158.400 150.016 C 166.292 140.200,167.992 138.030,169.406 135.968 C 172.775 131.056,183.633 119.200,184.760 119.204 C 185.442 119.207,186.975 119.837,188.167 120.604 M240.123 131.129 C 237.154 134.171,233.875 138.311,232.836 140.329 C 231.798 142.348,230.703 144.000,230.403 144.000 C 228.045 144.000,227.263 153.313,229.400 155.951 C 232.976 160.365,237.800 159.348,241.472 153.407 C 245.832 146.353,253.300 148.542,257.267 158.037 C 257.878 159.500,259.261 161.998,260.340 163.588 C 261.419 165.178,262.708 167.811,263.204 169.439 C 263.701 171.068,264.883 173.840,265.831 175.600 C 267.182 178.110,267.621 180.541,267.863 186.873 C 268.234 196.563,267.844 197.521,260.561 204.800 C 252.971 212.386,251.936 217.547,257.334 220.883 C 260.865 223.065,266.035 221.460,270.400 216.828 C 271.940 215.193,273.581 213.709,274.047 213.528 C 282.358 210.307,285.880 178.474,279.138 167.512 C 278.297 166.144,277.093 163.564,276.463 161.779 C 275.388 158.733,273.229 155.193,267.003 146.268 C 265.571 144.216,263.140 140.662,261.600 138.369 C 252.136 124.284,248.128 122.932,240.123 131.129 M253.366 131.800 C 255.035 133.450,258.200 137.430,260.400 140.644 C 262.600 143.859,265.306 147.537,266.413 148.818 C 267.520 150.099,270.177 154.669,272.318 158.973 C 274.459 163.278,276.671 167.700,277.232 168.800 C 284.157 182.363,280.275 208.040,270.419 213.861 C 269.089 214.647,268.000 215.635,268.000 216.056 C 268.000 218.189,260.995 220.312,258.769 218.853 C 255.446 216.676,256.890 209.807,261.238 207.110 C 270.050 201.646,272.861 185.662,267.203 173.200 C 255.800 148.089,251.138 142.971,243.983 147.706 C 242.232 148.865,240.800 150.097,240.800 150.445 C 240.800 155.751,231.094 156.757,230.563 151.507 C 230.259 148.504,234.189 141.069,239.096 135.365 C 245.456 127.971,248.680 127.165,253.366 131.800 M180.369 148.589 C 175.359 154.580,170.734 160.957,169.193 164.000 C 168.413 165.540,166.926 167.818,165.887 169.061 C 164.849 170.305,164.000 171.781,164.000 172.341 C 164.000 172.902,162.994 174.764,161.765 176.480 C 160.535 178.196,158.412 181.760,157.047 184.400 C 155.682 187.040,153.992 190.280,153.293 191.600 C 144.065 209.013,142.645 233.743,150.141 246.532 C 154.317 253.658,160.213 259.019,168.471 263.200 L 175.582 266.800 185.991 266.800 L 196.400 266.800 203.359 263.320 C 215.711 257.144,223.710 246.122,226.557 231.352 C 229.523 215.965,217.066 183.424,198.784 158.800 C 196.824 156.160,194.484 152.870,193.583 151.489 C 191.878 148.872,186.401 144.800,184.587 144.800 C 184.010 144.800,182.113 146.505,180.369 148.589 M188.101 149.405 C 190.429 150.950,195.220 156.686,197.285 160.400 C 198.019 161.720,200.010 164.557,201.710 166.705 C 203.409 168.852,204.800 171.046,204.800 171.581 C 204.800 172.115,205.504 173.190,206.366 173.969 C 207.227 174.748,208.868 177.838,210.013 180.834 C 211.158 183.831,212.600 186.702,213.217 187.214 C 213.835 187.727,215.074 190.110,215.972 192.510 C 216.870 194.910,218.307 198.250,219.165 199.932 C 225.124 211.611,224.745 239.240,218.520 247.009 C 212.833 254.108,208.182 258.275,203.988 260.031 C 201.575 261.042,199.060 262.321,198.400 262.874 C 185.198 273.938,152.535 255.995,148.082 235.234 C 145.628 223.793,150.198 199.627,156.489 190.776 C 157.418 189.469,158.608 187.075,159.133 185.455 C 159.658 183.835,161.148 181.175,162.444 179.545 C 163.740 177.914,164.800 176.228,164.800 175.797 C 164.800 175.367,165.983 173.346,167.430 171.307 C 168.876 169.268,170.691 166.340,171.464 164.800 C 174.591 158.565,183.130 147.995,185.032 148.005 C 185.565 148.008,186.946 148.638,188.101 149.405 M208.800 224.582 C 206.064 225.080,204.189 226.916,203.579 229.695 C 202.760 233.424,196.478 240.157,192.280 241.806 C 186.598 244.038,181.600 248.498,181.600 251.336 C 181.600 259.623,189.876 262.389,197.982 256.812 C 199.910 255.486,201.725 254.400,202.015 254.400 C 207.185 254.400,219.229 235.472,218.052 229.197 C 217.241 224.875,214.554 223.535,208.800 224.582 M215.040 227.360 C 218.150 230.470,212.647 242.778,205.417 248.880 C 200.350 253.157,190.653 257.798,188.847 256.812 C 181.584 252.846,183.066 248.981,194.000 243.373 C 198.354 241.140,203.595 235.534,205.257 231.332 C 207.007 226.906,212.398 224.718,215.040 227.360 " stroke="none" fill="#f5a2a4" fill-rule="evenodd"></path><path id="path4" d="M203.672 24.420 C 201.512 24.969,199.172 26.164,198.472 27.076 C 197.773 27.987,196.120 29.203,194.800 29.777 C 193.480 30.352,191.500 31.611,190.400 32.576 C 184.069 38.130,180.321 41.012,177.674 42.362 C 176.034 43.199,174.209 44.466,173.617 45.179 C 173.026 45.892,170.654 47.368,168.348 48.459 C 166.042 49.550,163.963 50.942,163.729 51.553 C 163.495 52.163,161.278 53.115,158.802 53.669 C 156.109 54.272,153.598 55.425,152.551 56.539 C 151.588 57.563,149.466 58.771,147.836 59.222 C 146.206 59.673,143.866 60.872,142.636 61.885 C 141.406 62.899,138.600 64.211,136.400 64.800 C 134.200 65.389,130.571 66.890,128.335 68.136 C 126.100 69.381,123.760 70.407,123.135 70.415 C 122.511 70.423,118.947 71.687,115.216 73.223 C 111.485 74.760,106.085 76.416,103.216 76.905 C 100.347 77.393,96.200 78.603,94.000 79.595 C 91.800 80.586,89.280 81.684,88.400 82.035 C 87.520 82.386,80.627 82.882,73.082 83.137 C 53.249 83.807,54.400 81.426,54.400 121.786 C 54.400 142.912,54.088 152.312,53.165 158.950 C 52.174 166.077,52.102 169.157,52.801 174.517 C 53.280 178.193,54.000 193.080,54.401 207.600 C 55.289 239.736,56.188 249.463,58.723 254.400 C 59.740 256.380,61.022 259.900,61.571 262.223 C 62.737 267.147,69.705 281.631,72.721 285.395 C 73.864 286.822,75.765 289.184,76.945 290.642 C 78.125 292.101,79.697 294.810,80.438 296.662 C 81.179 298.514,82.595 300.667,83.584 301.445 C 84.573 302.223,85.975 304.005,86.700 305.406 C 87.424 306.807,88.683 308.309,89.499 308.746 C 90.314 309.182,91.414 310.586,91.944 311.866 C 92.474 313.145,93.784 314.591,94.854 315.079 C 95.924 315.567,96.800 316.362,96.800 316.847 C 96.800 317.331,99.050 319.870,101.800 322.489 C 104.550 325.107,107.880 328.318,109.201 329.625 C 110.521 330.931,112.026 332.000,112.546 332.000 C 113.066 332.000,114.259 333.079,115.199 334.398 C 116.138 335.717,117.769 337.013,118.824 337.278 C 119.879 337.542,120.964 338.457,121.235 339.310 C 121.505 340.162,123.138 341.751,124.863 342.840 C 126.589 343.929,128.000 345.148,128.000 345.549 C 128.000 345.949,130.430 347.946,133.400 349.986 C 141.982 355.881,144.261 357.579,145.772 359.200 C 146.550 360.036,148.814 361.439,150.803 362.319 C 152.792 363.199,154.632 364.473,154.892 365.151 C 155.152 365.828,156.713 366.746,158.362 367.190 C 160.011 367.634,162.479 369.067,163.848 370.375 C 165.217 371.683,167.341 372.998,168.568 373.297 C 169.796 373.596,171.946 374.835,173.347 376.050 C 174.749 377.265,176.729 378.519,177.747 378.836 C 178.766 379.154,181.357 380.806,183.505 382.507 C 185.652 384.208,187.764 385.600,188.199 385.600 C 188.633 385.600,190.153 386.590,191.576 387.800 C 192.999 389.010,195.353 390.720,196.807 391.600 C 205.706 396.985,207.251 397.176,211.438 393.400 C 216.585 388.758,219.533 386.658,223.200 385.019 C 225.180 384.135,227.880 382.464,229.200 381.307 C 230.520 380.149,231.998 379.202,232.485 379.201 C 232.972 379.200,234.959 377.987,236.901 376.504 C 238.843 375.021,241.566 373.559,242.953 373.254 C 244.339 372.950,246.426 371.818,247.591 370.739 C 248.755 369.659,250.985 368.243,252.545 367.591 C 254.106 366.939,256.614 365.324,258.119 364.003 C 259.624 362.681,261.369 361.600,261.997 361.600 C 262.624 361.600,263.864 360.820,264.753 359.866 C 265.641 358.913,267.592 357.383,269.089 356.466 C 275.434 352.580,281.339 347.862,288.321 341.101 C 289.740 339.727,291.638 338.369,292.539 338.083 C 293.440 337.797,295.315 336.311,296.708 334.782 C 298.100 333.252,299.512 332.000,299.847 332.000 C 300.181 332.000,301.093 330.920,301.873 329.600 C 302.652 328.280,303.745 327.200,304.301 327.200 C 305.566 327.200,318.400 313.865,318.400 312.551 C 318.400 312.019,319.116 311.138,319.990 310.592 C 320.865 310.045,322.498 308.146,323.618 306.372 C 324.738 304.597,326.197 302.528,326.860 301.773 C 328.428 299.986,336.000 288.319,336.000 287.688 C 336.000 287.422,337.214 285.493,338.697 283.402 C 340.180 281.311,341.845 278.201,342.395 276.491 C 342.946 274.781,344.220 272.168,345.227 270.684 C 346.320 269.074,347.427 265.651,347.973 262.193 C 348.476 259.007,349.541 255.140,350.339 253.600 C 354.211 246.126,355.122 227.960,355.232 156.000 C 355.355 76.143,357.438 83.933,335.764 83.185 C 321.762 82.702,320.984 82.587,315.600 80.211 C 312.520 78.852,308.200 77.481,306.000 77.165 C 303.800 76.848,298.526 75.197,294.280 73.495 C 290.033 71.793,286.117 70.400,285.577 70.400 C 285.037 70.400,282.751 69.363,280.497 68.095 C 278.244 66.827,274.960 65.333,273.200 64.774 C 271.440 64.215,268.920 62.940,267.600 61.941 C 266.280 60.942,264.120 59.868,262.800 59.554 C 261.480 59.240,259.364 57.949,258.098 56.685 C 256.689 55.277,254.567 54.190,252.624 53.879 C 250.879 53.600,248.495 52.567,247.326 51.584 C 246.157 50.600,243.536 49.013,241.502 48.057 C 239.467 47.101,236.975 45.437,235.962 44.360 C 234.950 43.282,233.774 42.400,233.350 42.400 C 232.608 42.400,228.276 38.767,222.400 33.217 C 220.860 31.762,218.340 29.940,216.800 29.167 C 215.260 28.394,213.556 27.133,213.013 26.363 C 211.344 24.002,208.033 23.313,203.672 24.420 M210.890 27.965 C 215.735 31.648,221.425 36.134,225.143 39.200 C 228.608 42.058,235.264 46.983,237.537 48.371 C 238.232 48.796,240.240 50.080,242.000 51.226 C 243.760 52.371,247.000 53.963,249.200 54.764 C 251.400 55.564,253.837 56.772,254.615 57.447 C 256.293 58.904,262.666 62.376,268.800 65.177 C 271.220 66.281,274.560 67.925,276.223 68.830 C 282.076 72.014,294.867 76.967,300.800 78.347 C 304.100 79.114,308.557 80.521,310.705 81.473 C 315.603 83.643,321.676 84.612,334.400 85.254 C 355.612 86.323,353.600 79.147,353.600 153.724 C 353.600 215.106,352.960 231.289,350.092 242.400 C 349.467 244.820,348.206 250.606,347.290 255.257 C 345.558 264.044,341.005 274.758,334.563 285.203 C 332.933 287.845,330.880 291.209,330.000 292.679 C 329.120 294.150,327.374 296.668,326.120 298.276 C 324.867 299.884,323.159 302.531,322.326 304.157 C 321.493 305.784,320.325 307.404,319.732 307.757 C 319.138 308.111,317.975 309.449,317.148 310.730 C 314.598 314.685,293.470 335.079,289.845 337.086 C 289.050 337.526,287.320 338.917,286.000 340.177 C 279.872 346.025,278.594 347.086,275.600 348.813 C 273.840 349.828,271.565 351.407,270.544 352.322 C 267.287 355.239,253.363 364.684,248.658 367.167 C 246.160 368.486,243.905 369.906,243.647 370.324 C 243.389 370.741,241.833 371.514,240.189 372.040 C 238.545 372.566,236.480 373.646,235.600 374.439 C 234.720 375.232,232.124 376.819,229.831 377.967 C 227.538 379.114,225.442 380.408,225.174 380.842 C 224.906 381.276,223.002 382.493,220.943 383.548 C 218.885 384.603,215.220 386.967,212.800 388.802 C 206.977 393.218,203.076 392.993,195.997 387.832 C 190.572 383.877,184.819 380.099,181.739 378.467 C 180.562 377.844,177.850 376.134,175.710 374.667 C 173.571 373.200,171.492 372.000,171.091 372.000 C 170.690 372.000,168.596 370.830,166.438 369.400 C 164.281 367.970,160.142 365.360,157.241 363.600 C 154.340 361.840,148.818 358.035,144.969 355.144 C 141.121 352.253,137.354 349.542,136.600 349.120 C 135.845 348.697,133.871 347.181,132.214 345.750 C 125.401 339.870,114.389 330.623,111.106 328.027 C 106.608 324.468,96.805 314.571,93.885 310.641 C 92.643 308.969,90.271 305.957,88.613 303.949 C 86.956 301.940,85.600 299.983,85.600 299.600 C 85.600 299.217,84.793 298.044,83.806 296.993 C 82.819 295.943,81.289 293.690,80.406 291.986 C 79.523 290.283,76.871 286.104,74.514 282.701 C 72.156 279.297,69.725 275.087,69.110 273.344 C 68.495 271.601,67.233 268.947,66.305 267.446 C 64.639 264.751,61.001 253.737,58.693 244.400 C 55.814 232.759,55.395 95.874,58.219 89.734 C 59.850 86.186,61.456 85.704,73.422 85.163 C 86.732 84.562,93.648 83.456,98.782 81.106 C 101.085 80.051,105.071 78.800,107.640 78.325 C 112.760 77.378,125.161 72.719,134.124 68.375 C 137.272 66.849,140.276 65.600,140.800 65.600 C 141.324 65.600,142.767 64.878,144.005 63.996 C 145.244 63.114,148.000 61.582,150.129 60.591 C 152.258 59.600,154.884 58.167,155.964 57.405 C 157.044 56.643,159.744 55.430,161.964 54.710 C 164.184 53.989,166.754 52.715,167.675 51.878 C 168.596 51.041,170.823 49.556,172.625 48.578 C 177.916 45.705,184.865 40.854,189.655 36.687 C 193.517 33.328,205.796 25.600,207.271 25.600 C 207.551 25.600,209.179 26.664,210.890 27.965 M204.000 59.159 C 202.900 59.500,200.200 60.912,198.000 62.295 C 195.800 63.678,192.965 65.438,191.700 66.205 C 190.435 66.972,187.565 68.950,185.322 70.600 C 183.078 72.250,180.811 73.600,180.283 73.600 C 179.755 73.600,178.239 74.512,176.915 75.626 C 175.591 76.740,172.234 78.723,169.454 80.034 C 166.674 81.344,163.860 82.748,163.200 83.153 C 162.540 83.559,158.040 85.744,153.200 88.009 C 148.360 90.274,142.615 93.040,140.434 94.156 C 138.253 95.272,134.653 96.718,132.434 97.369 C 130.215 98.020,127.239 99.262,125.820 100.129 C 124.401 100.996,120.081 102.351,116.220 103.139 C 112.359 103.927,106.140 105.503,102.400 106.640 C 98.660 107.778,93.500 108.939,90.934 109.220 C 82.944 110.096,83.470 107.718,82.859 145.704 C 82.071 194.742,83.226 237.431,85.497 243.200 C 86.450 245.620,87.767 249.890,88.424 252.689 C 89.081 255.489,90.342 258.795,91.226 260.037 C 92.110 261.278,93.352 263.764,93.986 265.560 C 94.620 267.356,96.017 269.990,97.090 271.413 C 98.164 272.836,99.563 275.260,100.200 276.800 C 100.836 278.340,102.111 280.500,103.033 281.600 C 109.910 289.804,113.383 293.610,122.012 302.400 C 127.411 307.900,133.217 313.571,134.914 315.002 C 142.586 321.470,144.484 322.997,145.692 323.675 C 146.402 324.074,148.202 325.362,149.692 326.539 C 156.236 331.706,160.148 334.449,162.584 335.576 C 164.023 336.242,167.540 338.595,170.400 340.803 C 173.260 343.012,177.457 345.696,179.726 346.767 C 181.996 347.838,184.083 349.087,184.364 349.541 C 185.190 350.877,196.119 357.921,199.600 359.361 C 206.525 362.224,208.517 361.809,217.671 355.594 C 219.690 354.223,222.480 352.630,223.871 352.053 C 225.262 351.477,226.400 350.697,226.400 350.319 C 226.400 349.942,227.930 348.860,229.800 347.916 C 231.670 346.972,234.820 345.074,236.800 343.700 C 238.780 342.325,240.966 340.840,241.659 340.400 C 242.351 339.960,244.568 338.520,246.585 337.200 C 248.603 335.880,251.276 334.178,252.527 333.418 C 253.777 332.658,256.420 330.760,258.400 329.200 C 260.380 327.640,263.032 325.742,264.293 324.982 C 271.300 320.759,295.759 297.735,298.319 292.952 C 298.853 291.953,301.357 288.720,303.883 285.768 C 306.408 282.816,309.213 278.960,310.115 277.200 C 311.016 275.440,312.512 272.560,313.438 270.800 C 317.392 263.286,319.919 256.863,320.833 252.000 C 321.371 249.140,322.754 243.020,323.906 238.400 L 326.000 230.000 326.248 173.600 C 326.551 104.680,327.610 110.518,314.484 108.717 C 311.138 108.258,305.880 107.042,302.800 106.016 C 299.720 104.989,294.320 103.533,290.800 102.780 C 287.280 102.027,283.422 100.718,282.227 99.871 C 281.032 99.023,278.152 97.766,275.827 97.076 C 273.502 96.386,270.622 95.126,269.427 94.276 C 268.232 93.426,265.458 92.196,263.262 91.544 C 261.066 90.892,259.024 89.963,258.726 89.480 C 258.427 88.997,255.850 87.543,252.999 86.251 C 250.147 84.958,246.506 83.060,244.907 82.034 C 243.308 81.007,240.709 79.761,239.132 79.265 C 237.555 78.769,235.237 77.291,233.982 75.982 C 232.727 74.672,231.256 73.600,230.712 73.600 C 230.168 73.600,228.705 72.751,227.461 71.713 C 226.218 70.674,223.940 69.185,222.400 68.402 C 220.860 67.619,218.460 66.038,217.067 64.889 C 213.866 62.249,207.613 58.378,206.696 58.469 C 206.313 58.507,205.100 58.817,204.000 59.159 M212.082 64.399 C 213.577 65.499,215.835 67.029,217.101 67.799 C 218.366 68.570,220.346 69.962,221.501 70.893 C 222.655 71.824,225.400 73.503,227.600 74.625 C 229.800 75.746,232.053 77.414,232.607 78.332 C 233.161 79.249,233.990 80.000,234.451 80.000 C 235.908 80.000,242.098 83.072,243.118 84.301 C 243.657 84.951,246.040 86.093,248.414 86.840 C 250.788 87.586,253.349 88.881,254.106 89.717 C 254.863 90.553,257.488 91.817,259.941 92.527 C 262.393 93.236,265.386 94.641,266.592 95.650 C 267.798 96.658,270.740 97.889,273.131 98.386 C 275.521 98.882,277.925 99.828,278.473 100.488 C 280.049 102.387,282.144 103.248,287.153 104.054 C 289.720 104.468,293.750 105.686,296.110 106.761 C 300.272 108.658,306.574 110.072,314.800 110.955 C 317.817 111.279,319.439 111.990,321.400 113.849 L 324.000 116.314 323.988 168.757 C 323.979 210.795,323.755 222.152,322.859 226.000 C 322.244 228.640,321.140 235.821,320.405 241.957 C 319.447 249.960,318.662 253.632,317.626 254.949 C 316.832 255.959,315.544 259.218,314.765 262.192 C 313.986 265.167,312.531 268.500,311.531 269.600 C 310.532 270.700,309.461 272.623,309.152 273.873 C 308.843 275.123,307.211 277.823,305.525 279.873 C 303.839 281.923,301.457 284.823,300.230 286.317 C 299.004 287.811,297.818 289.513,297.596 290.099 C 297.374 290.684,292.964 295.486,287.796 300.768 C 282.628 306.051,278.400 310.739,278.400 311.186 C 278.400 311.634,277.918 312.000,277.329 312.000 C 276.739 312.000,275.111 313.260,273.709 314.800 C 272.308 316.340,270.638 317.600,269.999 317.600 C 269.360 317.600,268.236 318.517,267.501 319.638 C 266.767 320.759,264.869 322.217,263.283 322.879 C 261.697 323.540,259.320 325.103,258.000 326.351 C 256.680 327.599,254.430 329.210,253.000 329.931 C 251.570 330.652,250.400 331.605,250.400 332.049 C 250.400 332.493,248.820 333.534,246.888 334.362 C 244.957 335.190,243.131 336.264,242.832 336.749 C 242.532 337.234,240.422 338.564,238.143 339.705 C 235.865 340.846,233.280 342.587,232.400 343.575 C 231.520 344.563,229.119 345.981,227.065 346.727 C 225.011 347.473,222.773 348.933,222.092 349.972 C 221.411 351.011,219.766 352.100,218.436 352.392 C 217.106 352.684,215.804 353.270,215.542 353.694 C 212.381 358.808,203.275 359.766,197.576 355.582 C 195.465 354.033,192.641 352.383,191.301 351.916 C 189.962 351.448,188.659 350.416,188.406 349.620 C 188.154 348.825,186.069 347.378,183.774 346.404 C 181.478 345.431,178.700 343.813,177.600 342.808 C 176.500 341.804,174.430 340.392,173.000 339.671 C 171.570 338.949,170.400 338.015,170.400 337.596 C 170.400 336.721,164.607 333.600,162.982 333.600 C 162.388 333.600,161.140 332.570,160.209 331.312 C 159.279 330.053,157.479 328.816,156.210 328.562 C 154.780 328.276,153.547 327.321,152.968 326.050 C 152.455 324.923,151.546 324.000,150.948 324.000 C 148.370 324.000,129.002 307.206,123.962 300.600 C 123.039 299.390,121.770 298.400,121.142 298.400 C 120.514 298.400,120.000 298.008,120.000 297.529 C 120.000 297.049,118.470 295.130,116.600 293.263 C 112.792 289.463,111.815 288.315,105.760 280.526 C 103.419 277.515,101.164 274.158,100.749 273.065 C 100.333 271.973,98.915 269.511,97.597 267.595 C 96.279 265.679,95.200 263.597,95.200 262.968 C 95.200 262.340,94.102 259.768,92.761 257.255 C 91.182 254.296,89.789 249.812,88.811 244.542 C 87.980 240.064,86.683 234.060,85.928 231.200 C 84.696 226.531,84.555 220.371,84.545 170.888 L 84.534 115.776 87.267 113.510 C 88.770 112.263,90.900 111.230,92.000 111.214 C 95.920 111.157,109.280 108.018,114.000 106.045 C 116.640 104.941,119.947 104.029,121.348 104.019 C 124.516 103.995,127.905 102.746,130.000 100.830 C 130.880 100.025,133.725 98.899,136.322 98.328 C 138.920 97.757,141.980 96.509,143.122 95.553 C 144.265 94.598,147.207 93.236,149.659 92.527 C 152.112 91.817,154.739 90.551,155.498 89.713 C 156.256 88.875,158.982 87.599,161.555 86.877 C 164.129 86.155,166.721 84.974,167.317 84.253 C 167.913 83.531,170.380 82.069,172.800 81.004 C 175.220 79.938,177.924 78.394,178.810 77.572 C 179.695 76.751,182.087 75.341,184.124 74.440 C 186.162 73.538,188.039 72.251,188.297 71.579 C 188.555 70.907,190.326 69.689,192.233 68.871 C 194.140 68.054,196.299 66.787,197.030 66.056 C 201.153 61.933,207.742 61.208,212.082 64.399 M178.800 117.312 C 176.600 119.785,173.804 122.874,172.587 124.178 C 171.371 125.481,169.235 128.225,167.843 130.274 C 166.450 132.323,164.566 134.793,163.655 135.762 C 162.745 136.731,160.560 139.368,158.800 141.622 C 157.040 143.877,154.614 146.735,153.409 147.973 C 152.204 149.212,150.504 151.892,149.630 153.929 C 148.757 155.967,147.510 157.838,146.860 158.088 C 146.209 158.337,145.278 159.752,144.790 161.231 C 144.301 162.711,142.974 165.289,141.839 166.961 C 140.705 168.632,139.134 171.868,138.348 174.152 C 137.562 176.435,136.192 179.315,135.302 180.552 C 134.413 181.788,133.105 185.093,132.396 187.895 C 131.687 190.698,130.369 193.988,129.468 195.207 C 128.351 196.718,127.586 199.550,127.064 204.111 C 126.642 207.790,125.511 213.140,124.551 216.000 C 122.204 222.991,122.260 231.475,124.681 235.577 C 125.626 237.180,126.409 239.641,126.420 241.046 C 126.451 245.122,127.975 250.664,129.542 252.400 C 130.336 253.280,131.630 255.729,132.418 257.842 C 133.205 259.955,134.430 262.115,135.139 262.642 C 135.848 263.169,137.049 264.574,137.809 265.764 C 139.110 267.804,143.330 272.170,148.565 276.897 C 149.843 278.050,151.768 279.268,152.844 279.605 C 153.920 279.941,155.983 281.247,157.428 282.508 C 158.873 283.769,160.313 284.803,160.628 284.806 C 163.148 284.833,172.287 286.720,175.199 287.816 C 179.900 289.584,191.968 289.566,196.143 287.785 C 197.761 287.094,201.181 286.277,203.743 285.968 C 208.956 285.340,213.600 283.695,213.600 282.478 C 213.600 282.036,215.267 280.938,217.304 280.036 C 219.342 279.135,222.403 277.138,224.107 275.599 C 225.811 274.059,227.554 272.800,227.982 272.800 C 228.409 272.800,229.304 271.746,229.971 270.457 C 230.637 269.168,231.868 267.896,232.705 267.630 C 233.543 267.364,234.675 266.067,235.222 264.748 C 235.768 263.429,237.255 261.041,238.526 259.442 C 239.796 257.843,241.063 255.604,241.340 254.467 C 241.617 253.330,243.139 249.520,244.722 246.000 L 247.600 239.600 247.598 225.600 C 247.597 211.083,247.492 210.437,243.365 199.513 C 242.515 197.265,241.582 194.156,241.291 192.605 C 241.000 191.054,239.697 188.213,238.396 186.292 C 237.094 184.371,236.023 181.978,236.015 180.974 C 235.995 178.541,234.158 174.257,232.568 172.938 C 231.864 172.355,230.708 170.132,230.000 168.000 C 229.292 165.868,228.174 163.677,227.517 163.131 C 226.310 162.129,223.200 155.933,223.200 154.529 C 223.200 154.112,222.675 153.570,222.034 153.324 C 220.914 152.894,219.943 151.613,214.061 142.800 C 211.452 138.891,208.515 135.371,203.528 130.176 C 202.168 128.759,200.824 126.957,200.542 126.171 C 200.259 125.385,199.032 124.167,197.814 123.465 C 196.596 122.762,194.951 120.819,194.159 119.145 C 192.686 116.038,187.658 112.790,184.347 112.809 C 183.483 112.813,181.035 114.800,178.800 117.312 M188.434 117.700 C 190.423 118.635,192.438 120.165,192.911 121.100 C 193.384 122.035,194.824 123.880,196.111 125.200 C 200.590 129.793,211.200 142.473,211.200 143.232 C 211.200 143.652,212.386 145.346,213.836 146.998 C 216.169 149.655,218.688 153.418,224.685 163.200 C 225.629 164.740,227.518 168.340,228.883 171.200 C 230.248 174.060,231.831 176.940,232.402 177.600 C 232.973 178.260,234.181 181.220,235.087 184.178 C 235.993 187.136,237.258 190.376,237.898 191.378 C 239.103 193.264,239.322 193.991,242.916 208.000 C 250.747 238.532,239.354 264.738,211.104 281.173 C 204.154 285.217,181.201 287.081,170.205 284.494 C 135.909 276.428,116.774 234.154,131.159 198.230 C 132.501 194.877,133.600 191.666,133.600 191.095 C 133.600 190.043,138.170 180.063,142.344 172.000 C 143.597 169.580,144.890 166.700,145.218 165.600 C 145.545 164.500,146.846 162.288,148.107 160.685 C 149.368 159.082,150.400 157.428,150.400 157.010 C 150.400 156.591,152.830 153.257,155.800 149.600 C 158.770 145.942,162.541 141.296,164.180 139.275 C 165.819 137.254,167.785 134.700,168.549 133.600 C 169.313 132.500,172.749 128.298,176.185 124.261 C 181.494 118.025,183.014 116.546,184.609 116.063 C 184.724 116.028,186.445 116.765,188.434 117.700 M243.160 124.463 C 241.597 125.113,239.734 126.624,239.019 127.822 C 238.303 129.020,236.431 131.395,234.859 133.101 C 233.287 134.806,232.000 136.708,232.000 137.327 C 232.000 137.947,230.699 139.754,229.110 141.344 L 226.219 144.234 226.547 151.726 C 226.968 161.357,227.926 162.205,237.775 161.674 C 238.532 161.633,240.423 159.612,241.977 157.182 C 246.931 149.438,252.255 150.778,255.802 160.662 C 256.353 162.198,257.746 164.689,258.897 166.198 C 260.047 167.706,261.514 170.979,262.155 173.470 C 262.797 175.962,263.857 178.832,264.512 179.849 C 269.040 186.888,265.987 196.931,256.980 204.621 C 249.654 210.876,248.302 217.049,253.188 221.935 C 258.285 227.032,265.445 225.714,272.268 218.424 C 273.515 217.091,274.831 216.000,275.193 216.000 C 280.976 216.000,287.706 191.934,284.959 181.080 C 284.084 177.626,283.115 173.000,282.805 170.800 C 282.193 166.451,281.373 164.466,279.172 162.000 C 278.386 161.120,277.337 158.869,276.840 156.998 C 276.310 154.999,275.157 153.084,274.045 152.356 C 273.004 151.674,271.933 150.241,271.665 149.173 C 271.396 148.104,270.152 146.053,268.899 144.615 C 267.647 143.177,266.034 140.852,265.316 139.449 C 264.597 138.045,263.339 136.425,262.519 135.849 C 261.700 135.272,260.797 134.063,260.512 133.162 C 258.305 126.173,249.574 121.797,243.160 124.463 M254.635 129.901 C 256.926 132.267,260.060 136.077,261.600 138.369 C 263.140 140.662,265.571 144.216,267.003 146.268 C 273.229 155.193,275.388 158.733,276.463 161.779 C 277.093 163.564,278.297 166.144,279.138 167.512 C 285.880 178.474,282.358 210.307,274.047 213.528 C 273.581 213.709,271.940 215.193,270.400 216.828 C 266.035 221.460,260.865 223.065,257.334 220.883 C 251.936 217.547,252.971 212.386,260.561 204.800 C 267.844 197.521,268.234 196.563,267.863 186.873 C 267.621 180.541,267.182 178.110,265.831 175.600 C 264.883 173.840,263.701 171.068,263.204 169.439 C 262.708 167.811,261.419 165.178,260.340 163.588 C 259.261 161.998,257.878 159.500,257.267 158.037 C 253.300 148.542,245.832 146.353,241.472 153.407 C 237.800 159.348,232.976 160.365,229.400 155.951 C 227.263 153.313,228.045 144.000,230.403 144.000 C 230.703 144.000,231.798 142.348,232.836 140.329 C 233.875 138.311,237.154 134.171,240.123 131.129 C 247.139 123.945,248.736 123.810,254.635 129.901 M181.298 151.000 C 177.860 154.729,173.319 161.100,171.464 164.800 C 170.691 166.340,168.876 169.268,167.430 171.307 C 165.983 173.346,164.800 175.367,164.800 175.797 C 164.800 176.228,163.740 177.914,162.444 179.545 C 161.148 181.175,159.658 183.835,159.133 185.455 C 158.608 187.075,157.418 189.469,156.489 190.776 C 150.198 199.627,145.628 223.793,148.082 235.234 C 152.535 255.995,185.198 273.938,198.400 262.874 C 199.060 262.321,201.575 261.042,203.988 260.031 C 208.182 258.275,212.833 254.108,218.520 247.009 C 224.745 239.240,225.124 211.611,219.165 199.932 C 218.307 198.250,216.870 194.910,215.972 192.510 C 215.074 190.110,213.835 187.727,213.217 187.214 C 212.600 186.702,211.158 183.831,210.013 180.834 C 208.868 177.838,207.227 174.748,206.366 173.969 C 205.504 173.190,204.800 172.115,204.800 171.581 C 204.800 171.046,203.409 168.852,201.710 166.705 C 200.010 164.557,198.019 161.720,197.285 160.400 C 193.974 154.445,187.622 148.019,185.032 148.005 C 184.500 148.002,182.820 149.350,181.298 151.000 M190.349 155.105 C 190.759 155.872,192.559 158.270,194.348 160.435 C 196.136 162.600,197.600 164.940,197.600 165.635 C 197.600 166.330,198.635 167.665,199.901 168.600 C 201.166 169.536,202.449 171.314,202.751 172.551 C 203.053 173.788,204.379 176.155,205.697 177.811 C 207.014 179.467,208.642 182.707,209.314 185.011 C 209.986 187.315,211.378 189.999,212.406 190.975 C 213.544 192.055,214.632 194.463,215.185 197.126 C 215.684 199.533,216.745 202.335,217.541 203.351 C 221.933 208.958,222.008 228.912,217.618 223.621 C 214.887 220.331,205.560 221.691,203.335 225.705 C 198.270 234.840,193.272 239.800,187.442 241.474 C 178.402 244.071,175.745 260.469,184.094 262.139 C 185.417 262.403,186.207 262.903,185.850 263.249 C 185.006 264.065,178.572 262.355,176.000 260.631 C 174.900 259.893,172.380 258.929,170.400 258.487 C 168.365 258.034,166.090 256.862,165.167 255.792 C 164.269 254.751,162.906 253.658,162.138 253.364 C 161.370 253.069,160.126 251.755,159.373 250.443 C 158.620 249.132,157.273 247.667,156.379 247.189 C 154.599 246.236,151.683 238.593,150.192 230.977 C 148.829 224.007,153.220 200.769,156.749 196.283 C 157.673 195.109,158.972 192.278,159.637 189.992 C 160.301 187.707,161.724 185.011,162.799 184.001 C 163.874 182.991,165.167 180.868,165.673 179.282 C 166.179 177.697,167.430 175.500,168.454 174.400 C 169.478 173.300,170.842 171.140,171.485 169.600 C 172.129 168.060,173.768 165.400,175.128 163.690 C 176.487 161.979,177.600 160.223,177.600 159.787 C 177.600 159.351,178.878 157.510,180.440 155.697 C 182.002 153.884,183.645 151.941,184.090 151.381 C 185.012 150.219,189.006 152.596,190.349 155.105 M215.790 225.223 C 219.746 227.994,218.710 235.282,213.220 243.298 C 210.534 247.220,203.288 254.400,202.015 254.400 C 201.725 254.400,199.910 255.486,197.982 256.812 C 189.876 262.389,181.600 259.623,181.600 251.336 C 181.600 248.498,186.598 244.038,192.280 241.806 C 196.478 240.157,202.760 233.424,203.579 229.695 C 204.630 224.910,211.665 222.334,215.790 225.223 " stroke="none" fill="#f9d1d1" fill-rule="evenodd"></path></g></svg>