<?xml version="1.0"?><svg xmlns="http://www.w3.org/2000/svg" version="1.1" id="Layer_1" x="0px" y="0px" width="512" height="512" viewBox="-0 -0 514 514" style="enable-background:new 0 0 80 80;"><svg version="1.1" id="Layer_1" x="0" y="0" width="512" height="512" viewBox="0 0 80 80" style="enable-background:new 0 0 80 80;" fill="#DDDDDD"><style type="text/css">
	.st0{fill:#1E232D;}
</style><g>
	
	
	
<path class="st0" d="M76.7,56.5L52.3,10C48.2,2.2,42.8,1,40,1c-2.9,0-8.2,1.2-12.3,9L3.3,56.5c-2.9,5.6-3.1,11.3-0.5,15.7   C5.5,76.5,10.7,79,17,79h46c6.3,0,11.5-2.5,14.1-6.9C79.8,67.8,79.6,62.1,76.7,56.5z M69.4,67.5c-1,1.6-3.3,2.5-6.4,2.5H17   c-3.1,0-5.5-0.9-6.4-2.5c-1-1.6-0.7-4.1,0.7-6.9l24.3-46.5c1.3-2.6,3-4.2,4.4-4.2c1.3,0,3,1.6,4.4,4.2l24.3,46.5   C70.1,63.4,70.4,65.9,69.4,67.5z" fill="#DDDDDD" style="fill: rgb(221, 221, 221);"></path><circle class="st0" cx="40" cy="59.5" r="4.5" fill="#DDDDDD" style="fill: rgb(221, 221, 221);"></circle><path class="st0" d="M40,28c-4.1,0-7.5,3.4-7.5,7.5c0,0.9,0.2,1.7,0.4,2.5h0c3,8.6,3,8.6,4.2,12h0c0.4,1.2,1.5,2,2.8,2   c1.3,0,2.4-0.8,2.8-2h0c1.2-3.4,1.2-3.4,4.2-12h0c0.3-0.8,0.4-1.6,0.4-2.5C47.5,31.4,44.1,28,40,28z" fill="#DDDDDD" style="fill: rgb(221, 221, 221);"></path></g></svg></svg>