<svg id="svg" version="1.1" width="500" height="561" xmlns="http://www.w3.org/2000/svg" xmlns:xlink="http://www.w3.org/1999/xlink" style="display: block;"><g id="svgg"><path id="path0" d="M0.000 223.135 C 0.000 345.859,0.219 446.839,0.486 447.535 C 0.927 448.684,19.257 448.800,200.086 448.800 L 399.200 448.800 399.200 224.400 L 399.200 0.000 199.600 0.000 L 0.000 0.000 0.000 223.135 M205.473 39.267 C 209.456 42.389,221.990 51.596,225.200 53.758 C 226.960 54.943,230.920 57.733,234.000 59.958 C 237.080 62.183,241.760 65.089,244.400 66.416 C 249.414 68.936,259.819 74.977,261.705 76.462 C 262.307 76.936,264.600 77.978,266.800 78.778 C 269.000 79.577,272.272 81.079,274.070 82.115 C 275.869 83.152,277.788 84.000,278.335 84.000 C 278.882 84.000,281.730 85.204,284.665 86.675 C 287.599 88.146,291.980 89.811,294.400 90.375 C 296.820 90.939,302.400 92.580,306.800 94.021 C 315.080 96.734,327.090 98.771,341.710 99.941 C 350.565 100.650,353.025 101.431,354.382 103.966 C 355.740 106.504,355.427 239.996,354.040 250.000 C 350.956 272.228,348.562 283.331,345.281 290.623 C 344.136 293.165,343.200 295.654,343.200 296.154 C 343.200 299.016,334.395 314.088,325.886 325.790 C 318.360 336.142,296.627 359.463,289.641 364.685 C 288.085 365.848,284.338 368.858,281.315 371.372 C 278.292 373.887,274.269 376.695,272.374 377.612 C 270.480 378.530,268.477 379.826,267.923 380.493 C 267.369 381.160,265.937 382.212,264.740 382.831 C 263.543 383.450,259.557 386.142,255.882 388.814 C 245.808 396.139,235.259 402.770,223.600 409.107 C 222.720 409.586,220.200 411.105,218.000 412.483 C 215.800 413.861,213.206 415.236,212.236 415.537 C 211.265 415.839,208.745 417.518,206.636 419.270 C 201.972 423.142,198.761 423.040,192.400 418.819 C 190.200 417.359,186.894 415.413,185.054 414.494 C 183.214 413.575,181.478 412.450,181.196 411.994 C 180.914 411.537,178.640 410.071,176.142 408.735 C 168.940 404.883,162.103 400.706,156.234 396.574 C 153.245 394.470,149.540 391.870,148.000 390.796 C 146.460 389.723,141.960 386.541,138.000 383.725 C 134.040 380.910,129.360 377.830,127.600 376.880 C 118.882 372.178,95.520 350.935,82.800 336.145 C 72.056 323.653,69.659 320.559,67.500 316.400 C 66.358 314.200,64.782 311.680,63.998 310.800 C 62.407 309.013,55.696 295.908,54.782 292.800 C 54.458 291.700,53.338 289.099,52.293 287.020 C 51.248 284.941,49.694 280.441,48.839 277.020 C 47.984 273.599,46.712 268.820,46.013 266.400 C 43.540 257.845,41.484 118.359,43.660 106.760 C 44.615 101.670,49.630 99.200,59.005 99.200 C 66.593 99.200,82.922 96.630,89.600 94.384 C 93.340 93.126,98.920 91.523,102.000 90.820 C 105.080 90.118,109.220 88.708,111.200 87.686 C 113.180 86.665,116.780 85.192,119.200 84.412 C 121.620 83.632,124.140 82.551,124.800 82.009 C 125.460 81.467,128.608 80.043,131.795 78.844 C 134.982 77.645,137.812 76.305,138.083 75.866 C 138.354 75.427,140.247 74.354,142.288 73.482 C 144.330 72.610,147.646 70.844,149.657 69.556 C 151.669 68.269,154.549 66.803,156.057 66.297 C 157.566 65.792,159.538 64.713,160.440 63.900 C 161.342 63.087,165.482 60.278,169.640 57.657 C 173.798 55.036,178.460 51.947,180.000 50.792 C 196.668 38.299,201.468 36.127,205.473 39.267 M198.095 68.028 C 196.828 68.407,195.028 69.396,194.095 70.226 C 193.163 71.055,190.780 72.700,188.800 73.880 C 186.820 75.060,184.494 76.470,183.630 77.013 C 174.525 82.740,166.718 87.193,160.800 90.034 C 158.380 91.196,151.720 94.493,146.000 97.360 C 140.280 100.227,133.645 103.257,131.256 104.093 C 128.866 104.929,126.346 106.111,125.656 106.720 C 124.965 107.329,122.240 108.477,119.600 109.272 C 116.960 110.066,113.813 111.387,112.607 112.208 C 111.401 113.028,107.261 114.431,103.407 115.325 C 99.553 116.219,93.520 117.796,90.000 118.828 C 86.480 119.860,81.080 121.110,78.000 121.605 C 66.101 123.517,67.013 118.006,67.027 187.892 C 67.041 260.790,68.203 272.008,77.233 286.430 C 78.208 287.986,80.139 291.406,81.524 294.030 C 87.281 304.928,88.674 307.106,94.010 313.554 C 97.085 317.269,104.460 325.144,110.400 331.053 C 125.321 345.897,126.722 347.200,127.767 347.200 C 128.271 347.200,129.340 348.033,130.142 349.052 C 130.944 350.070,132.680 351.584,134.000 352.416 C 135.320 353.249,137.506 354.846,138.858 355.965 C 141.751 358.360,148.116 362.935,151.704 365.200 C 153.099 366.080,157.192 368.904,160.800 371.475 C 164.409 374.046,168.509 376.628,169.911 377.214 C 171.313 377.800,174.320 379.477,176.594 380.940 C 187.491 387.952,190.118 389.554,191.600 390.092 C 192.480 390.411,194.047 391.322,195.081 392.115 C 198.689 394.882,202.050 394.873,205.222 392.088 C 206.781 390.720,208.529 389.600,209.108 389.600 C 209.686 389.600,211.564 388.590,213.280 387.355 C 216.229 385.233,220.877 382.535,230.000 377.646 C 232.200 376.468,236.672 373.725,239.937 371.552 C 243.203 369.378,247.765 366.340,250.075 364.800 C 252.385 363.260,256.319 360.380,258.816 358.400 C 261.314 356.420,264.506 354.080,265.911 353.200 C 274.851 347.599,294.411 328.516,303.219 316.800 C 306.031 313.060,308.588 309.817,308.900 309.594 C 310.835 308.209,323.554 283.271,324.402 279.200 C 324.722 277.660,326.279 271.900,327.862 266.400 L 330.739 256.400 330.769 191.423 C 330.805 115.770,331.978 123.893,320.737 121.959 C 317.032 121.321,311.660 120.097,308.800 119.238 C 305.940 118.380,300.360 116.925,296.400 116.007 C 292.440 115.088,287.145 113.270,284.633 111.968 C 282.121 110.666,279.601 109.600,279.033 109.600 C 278.043 109.600,268.834 105.380,260.400 101.061 C 238.973 90.088,232.582 86.716,228.800 84.388 C 226.380 82.899,222.960 80.892,221.200 79.929 C 217.780 78.057,209.063 72.074,205.339 69.041 C 202.937 67.086,201.780 66.924,198.095 68.028 M181.295 134.436 C 185.217 135.927,195.929 147.969,202.949 158.780 C 205.243 162.311,207.847 166.145,208.737 167.299 C 209.627 168.454,212.211 172.234,214.480 175.699 C 216.748 179.165,219.614 183.466,220.850 185.258 C 223.383 188.933,231.200 204.843,231.200 206.325 C 231.200 206.856,232.419 210.240,233.909 213.845 C 245.484 241.855,241.792 271.728,224.559 289.486 C 212.354 302.064,200.096 308.645,187.373 309.453 C 162.126 311.055,148.176 305.744,133.577 288.971 C 131.170 286.206,128.210 282.811,127.000 281.427 C 125.790 280.044,124.800 278.582,124.800 278.179 C 124.800 277.776,123.573 274.861,122.073 271.700 C 116.346 259.631,115.949 232.554,121.347 222.116 C 122.021 220.813,123.268 217.194,124.119 214.073 C 124.970 210.953,126.314 207.500,127.105 206.400 C 127.895 205.300,129.345 202.240,130.327 199.600 C 131.308 196.960,133.166 193.148,134.455 191.130 C 135.745 189.111,136.800 187.063,136.800 186.578 C 136.800 185.570,149.626 166.228,152.303 163.200 C 153.275 162.100,156.155 158.101,158.702 154.314 C 163.881 146.615,175.904 133.600,177.839 133.600 C 178.530 133.600,180.085 133.976,181.295 134.436 M250.711 145.508 C 252.380 147.218,254.883 150.413,256.273 152.609 C 261.177 160.355,263.415 163.619,265.065 165.429 C 278.321 179.966,285.913 212.806,278.602 223.990 C 277.831 225.169,276.363 227.440,275.340 229.036 C 273.679 231.625,269.387 235.314,263.286 239.396 C 253.421 245.996,251.169 235.142,260.474 225.837 C 272.701 213.610,271.737 201.372,256.392 174.000 C 254.912 171.360,252.068 167.604,250.071 165.654 C 245.356 161.048,244.330 161.455,236.098 171.198 L 233.734 173.997 230.267 172.798 C 223.828 170.573,226.000 162.448,236.336 150.100 C 243.124 141.990,246.288 140.979,250.711 145.508 M172.742 166.560 C 167.568 172.697,162.718 179.441,160.861 183.081 C 159.960 184.847,158.850 186.522,158.394 186.804 C 157.937 187.086,156.476 189.360,155.145 191.858 C 153.815 194.356,152.220 197.300,151.602 198.400 C 148.969 203.082,143.200 215.758,143.200 216.861 C 143.200 217.521,142.470 219.488,141.578 221.231 C 135.030 234.025,135.130 258.033,141.778 269.154 C 163.935 306.221,219.017 292.818,222.139 249.600 C 222.706 241.758,219.043 226.516,213.584 214.000 C 205.518 195.508,204.218 192.912,199.576 186.038 C 196.949 182.148,193.900 177.629,192.800 175.997 C 183.452 162.128,178.460 159.779,172.742 166.560 M210.372 248.747 C 211.606 251.054,211.364 256.079,209.888 258.800 C 209.171 260.120,207.644 263.006,206.493 265.213 C 200.794 276.139,185.256 283.985,179.131 279.027 C 174.654 275.404,177.530 270.939,187.199 266.499 C 192.441 264.092,197.730 258.519,199.215 253.837 C 201.324 247.190,207.926 244.178,210.372 248.747 " stroke="none" fill="#fcfcfc" fill-rule="evenodd"></path><path id="path1" d="M196.488 39.709 C 192.893 41.579,187.063 45.499,180.000 50.792 C 178.460 51.947,173.798 55.036,169.640 57.657 C 165.482 60.278,161.342 63.087,160.440 63.900 C 159.538 64.713,157.566 65.792,156.057 66.297 C 154.549 66.803,151.669 68.269,149.657 69.556 C 147.646 70.844,144.330 72.610,142.288 73.482 C 140.247 74.354,138.354 75.427,138.083 75.866 C 137.812 76.305,134.982 77.645,131.795 78.844 C 128.608 80.043,125.460 81.467,124.800 82.009 C 124.140 82.551,121.620 83.632,119.200 84.412 C 116.780 85.192,113.180 86.665,111.200 87.686 C 109.220 88.708,105.080 90.118,102.000 90.820 C 98.920 91.523,93.340 93.126,89.600 94.384 C 82.922 96.630,66.593 99.200,59.005 99.200 C 49.630 99.200,44.615 101.670,43.660 106.760 C 41.484 118.359,43.540 257.845,46.013 266.400 C 46.712 268.820,47.984 273.599,48.839 277.020 C 49.694 280.441,51.248 284.941,52.293 287.020 C 53.338 289.099,54.458 291.700,54.782 292.800 C 55.696 295.908,62.407 309.013,63.998 310.800 C 64.782 311.680,66.358 314.200,67.500 316.400 C 74.672 330.218,113.463 369.254,127.600 376.880 C 129.360 377.830,134.040 380.910,138.000 383.725 C 141.960 386.541,146.460 389.723,148.000 390.796 C 149.540 391.870,153.245 394.470,156.234 396.574 C 162.103 400.706,168.940 404.883,176.142 408.735 C 178.640 410.071,180.914 411.537,181.196 411.994 C 181.478 412.450,183.214 413.575,185.054 414.494 C 186.894 415.413,190.200 417.359,192.400 418.819 C 198.761 423.040,201.972 423.142,206.636 419.270 C 208.745 417.518,211.265 415.839,212.236 415.537 C 213.206 415.236,215.800 413.861,218.000 412.483 C 220.200 411.105,222.720 409.586,223.600 409.107 C 235.259 402.770,245.808 396.139,255.882 388.814 C 259.557 386.142,263.543 383.450,264.740 382.831 C 265.937 382.212,267.369 381.160,267.923 380.493 C 268.477 379.826,270.480 378.530,272.374 377.612 C 274.269 376.695,278.292 373.887,281.315 371.372 C 284.338 368.858,288.085 365.848,289.641 364.685 C 296.627 359.463,318.360 336.142,325.886 325.790 C 334.395 314.088,343.200 299.016,343.200 296.154 C 343.200 295.654,344.136 293.165,345.281 290.623 C 348.562 283.331,350.956 272.228,354.040 250.000 C 355.427 239.996,355.740 106.504,354.382 103.966 C 353.025 101.431,350.565 100.650,341.710 99.941 C 327.090 98.771,315.080 96.734,306.800 94.021 C 302.400 92.580,296.820 90.939,294.400 90.375 C 291.980 89.811,287.599 88.146,284.665 86.675 C 281.730 85.204,278.882 84.000,278.335 84.000 C 277.788 84.000,275.869 83.152,274.070 82.115 C 272.272 81.079,269.000 79.577,266.800 78.778 C 264.600 77.978,262.307 76.936,261.705 76.462 C 259.819 74.977,249.414 68.936,244.400 66.416 C 241.760 65.089,237.080 62.183,234.000 59.958 C 230.920 57.733,226.960 54.943,225.200 53.758 C 221.990 51.596,209.456 42.389,205.473 39.267 C 202.755 37.136,201.296 37.208,196.488 39.709 M205.339 69.041 C 209.063 72.074,217.780 78.057,221.200 79.929 C 222.960 80.892,226.380 82.899,228.800 84.388 C 232.582 86.716,238.973 90.088,260.400 101.061 C 268.834 105.380,278.043 109.600,279.033 109.600 C 279.601 109.600,282.121 110.666,284.633 111.968 C 287.145 113.270,292.440 115.088,296.400 116.007 C 300.360 116.925,305.940 118.380,308.800 119.238 C 311.660 120.097,317.032 121.321,320.737 121.959 C 331.978 123.893,330.805 115.770,330.769 191.423 L 330.739 256.400 327.862 266.400 C 326.279 271.900,324.722 277.660,324.402 279.200 C 323.554 283.271,310.835 308.209,308.900 309.594 C 308.588 309.817,306.031 313.060,303.219 316.800 C 294.411 328.516,274.851 347.599,265.911 353.200 C 264.506 354.080,261.314 356.420,258.816 358.400 C 256.319 360.380,252.385 363.260,250.075 364.800 C 247.765 366.340,243.203 369.378,239.937 371.552 C 236.672 373.725,232.200 376.468,230.000 377.646 C 220.877 382.535,216.229 385.233,213.280 387.355 C 211.564 388.590,209.686 389.600,209.108 389.600 C 208.529 389.600,206.781 390.720,205.222 392.088 C 202.050 394.873,198.689 394.882,195.081 392.115 C 194.047 391.322,192.480 390.411,191.600 390.092 C 190.118 389.554,187.491 387.952,176.594 380.940 C 174.320 379.477,171.313 377.800,169.911 377.214 C 168.509 376.628,164.409 374.046,160.800 371.475 C 157.192 368.904,153.099 366.080,151.704 365.200 C 148.116 362.935,141.751 358.360,138.858 355.965 C 137.506 354.846,135.320 353.249,134.000 352.416 C 132.680 351.584,130.944 350.070,130.142 349.052 C 129.340 348.033,128.271 347.200,127.767 347.200 C 126.722 347.200,125.321 345.897,110.400 331.053 C 104.460 325.144,97.085 317.269,94.010 313.554 C 88.674 307.106,87.281 304.928,81.524 294.030 C 80.139 291.406,78.208 287.986,77.233 286.430 C 68.203 272.008,67.041 260.790,67.027 187.892 C 67.013 118.006,66.101 123.517,78.000 121.605 C 81.080 121.110,86.480 119.860,90.000 118.828 C 93.520 117.796,99.553 116.219,103.407 115.325 C 107.261 114.431,111.401 113.028,112.607 112.208 C 113.813 111.387,116.960 110.066,119.600 109.272 C 122.240 108.477,124.965 107.329,125.656 106.720 C 126.346 106.111,128.866 104.929,131.256 104.093 C 133.645 103.257,140.280 100.227,146.000 97.360 C 151.720 94.493,158.380 91.196,160.800 90.034 C 166.718 87.193,174.525 82.740,183.630 77.013 C 184.494 76.470,186.820 75.060,188.800 73.880 C 190.780 72.700,193.163 71.055,194.095 70.226 C 195.787 68.721,199.204 67.399,201.739 67.269 C 202.475 67.231,204.095 68.029,205.339 69.041 M169.958 140.514 C 166.315 144.316,161.249 150.526,158.702 154.314 C 156.155 158.101,153.275 162.100,152.303 163.200 C 149.626 166.228,136.800 185.570,136.800 186.578 C 136.800 187.063,135.745 189.111,134.455 191.130 C 133.166 193.148,131.308 196.960,130.327 199.600 C 129.345 202.240,127.895 205.300,127.105 206.400 C 126.314 207.500,124.970 210.953,124.119 214.073 C 123.268 217.194,122.021 220.813,121.347 222.116 C 115.949 232.554,116.346 259.631,122.073 271.700 C 123.573 274.861,124.800 277.776,124.800 278.179 C 124.800 278.582,125.790 280.044,127.000 281.427 C 128.210 282.811,131.170 286.206,133.577 288.971 C 158.351 317.434,197.226 317.653,224.559 289.486 C 241.792 271.728,245.484 241.855,233.909 213.845 C 232.419 210.240,231.200 206.856,231.200 206.325 C 231.200 204.843,223.383 188.933,220.850 185.258 C 219.614 183.466,216.748 179.165,214.480 175.699 C 212.211 172.234,209.627 168.454,208.737 167.299 C 207.847 166.145,205.243 162.311,202.949 158.780 C 193.322 143.955,182.995 133.600,177.839 133.600 C 177.148 133.600,173.601 136.711,169.958 140.514 M242.386 144.300 C 230.297 152.545,222.784 170.212,230.267 172.798 L 233.734 173.997 236.098 171.198 C 244.330 161.455,245.356 161.048,250.071 165.654 C 259.398 174.766,268.209 195.253,268.284 208.000 C 268.337 217.144,267.690 218.621,260.474 225.837 C 251.169 235.142,253.421 245.996,263.286 239.396 C 269.387 235.314,273.679 231.625,275.340 229.036 C 276.363 227.440,277.831 225.169,278.602 223.990 C 285.913 212.806,278.321 179.966,265.065 165.429 C 263.415 163.619,261.177 160.355,256.273 152.609 C 250.305 143.181,246.960 141.180,242.386 144.300 M181.539 163.568 C 183.852 164.764,189.230 170.701,192.800 175.997 C 193.900 177.629,196.949 182.148,199.576 186.038 C 204.218 192.912,205.518 195.508,213.584 214.000 C 219.043 226.516,222.706 241.758,222.139 249.600 C 219.017 292.818,163.935 306.221,141.778 269.154 C 135.130 258.033,135.030 234.025,141.578 221.231 C 142.470 219.488,143.200 217.521,143.200 216.861 C 143.200 215.758,148.969 203.082,151.602 198.400 C 152.220 197.300,153.815 194.356,155.145 191.858 C 156.476 189.360,157.937 187.086,158.394 186.804 C 158.850 186.522,159.960 184.847,160.861 183.081 C 164.526 175.897,175.558 162.400,177.765 162.400 C 178.598 162.400,180.296 162.926,181.539 163.568 M201.308 249.000 C 200.686 249.990,199.745 252.167,199.215 253.837 C 197.730 258.519,192.441 264.092,187.199 266.499 C 180.417 269.613,175.760 274.055,176.945 276.280 C 179.329 280.755,182.819 281.895,188.051 279.907 C 197.346 276.375,203.035 271.842,206.493 265.213 C 207.644 263.006,209.171 260.120,209.888 258.800 C 211.364 256.079,211.606 251.054,210.372 248.747 C 209.108 246.385,202.838 246.560,201.308 249.000 " stroke="none" fill="#359fde" fill-rule="evenodd"></path></g></svg>