<svg id="svg" version="1.1" width="500" height="515" xmlns="http://www.w3.org/2000/svg" xmlns:xlink="http://www.w3.org/1999/xlink" style="display: block;"><g id="svgg"><path id="path0" d="M0.000 206.800 L 0.000 412.000 200.000 412.000 L 400.000 412.000 400.000 206.800 L 400.000 1.600 200.000 1.600 L 0.000 1.600 0.000 206.800 M207.600 35.733 C 209.674 37.388,215.569 41.396,226.400 48.515 C 227.940 49.528,230.280 51.106,231.600 52.022 C 235.646 54.832,246.377 60.668,249.226 61.609 C 250.709 62.098,253.162 63.340,254.678 64.369 C 256.194 65.398,258.282 66.496,259.318 66.809 C 260.353 67.123,263.000 68.376,265.200 69.594 C 267.400 70.813,270.640 72.262,272.400 72.815 C 274.160 73.368,277.580 74.806,280.000 76.011 C 282.420 77.216,285.660 78.473,287.200 78.804 C 288.740 79.135,291.919 80.253,294.264 81.287 C 296.608 82.322,301.468 83.698,305.064 84.345 C 308.659 84.992,313.490 86.258,315.799 87.157 C 320.210 88.875,333.030 90.346,344.400 90.438 C 352.463 90.504,355.842 91.652,358.172 95.118 L 360.000 97.837 360.000 158.815 C 360.000 222.000,359.448 235.323,356.361 246.593 C 355.727 248.907,354.144 254.852,352.842 259.804 C 351.461 265.057,349.668 269.889,348.537 271.404 C 347.470 272.832,346.142 275.422,345.584 277.160 C 344.683 279.970,340.259 287.081,335.864 292.783 C 335.009 293.892,333.520 295.946,332.555 297.346 C 324.523 308.999,314.732 318.924,295.600 334.805 C 293.150 336.838,289.940 339.167,284.600 342.787 C 282.950 343.905,281.600 345.129,281.600 345.507 C 281.600 345.884,279.260 347.394,276.400 348.861 C 273.540 350.327,271.200 351.831,271.200 352.203 C 271.200 352.574,269.849 353.491,268.198 354.239 C 266.547 354.988,264.297 356.248,263.198 357.041 C 258.464 360.454,244.118 368.591,228.126 376.932 C 225.776 378.158,222.716 379.848,221.326 380.689 C 219.937 381.530,217.986 382.464,216.991 382.766 C 215.996 383.067,212.486 385.135,209.191 387.361 C 201.697 392.423,199.032 392.391,190.215 387.131 C 187.017 385.223,183.074 382.928,181.453 382.031 C 179.832 381.134,176.052 379.041,173.053 377.379 C 170.054 375.718,165.436 373.198,162.791 371.779 C 160.146 370.361,156.850 368.390,155.467 367.400 C 154.084 366.410,152.613 365.600,152.197 365.600 C 151.780 365.600,150.011 364.565,148.265 363.300 C 146.518 362.035,144.336 360.761,143.415 360.468 C 142.494 360.176,140.488 358.961,138.958 357.768 C 136.057 355.507,131.021 352.231,125.120 348.766 C 123.215 347.648,120.834 345.983,119.829 345.066 C 118.823 344.150,117.266 343.023,116.368 342.562 C 114.914 341.815,105.049 334.235,97.695 328.214 C 91.014 322.744,86.478 318.552,82.372 314.052 C 79.937 311.384,75.694 306.822,72.943 303.916 C 70.193 301.010,66.785 296.792,65.371 294.543 C 63.957 292.294,61.057 288.037,58.926 285.083 C 56.796 282.129,54.198 277.780,53.153 275.418 C 52.109 273.055,50.571 270.150,49.737 268.961 C 48.902 267.773,47.726 264.820,47.122 262.400 C 46.519 259.980,45.215 256.461,44.225 254.581 C 39.968 246.495,39.088 230.267,39.127 160.559 C 39.171 83.339,36.474 91.114,63.714 89.659 C 76.370 88.982,78.874 88.620,83.283 86.829 C 86.064 85.699,90.333 84.541,92.770 84.256 C 98.500 83.585,130.511 72.159,134.388 69.400 C 135.471 68.630,136.698 68.000,137.117 68.000 C 137.812 68.000,142.728 65.732,155.533 59.502 C 163.765 55.498,167.588 53.450,168.000 52.823 C 168.220 52.489,170.020 51.405,172.000 50.416 C 173.980 49.427,176.860 47.670,178.400 46.512 C 183.381 42.767,188.745 39.200,189.395 39.200 C 189.743 39.200,191.460 38.227,193.209 37.039 C 199.863 32.517,203.191 32.215,207.600 35.733 M196.800 68.686 C 194.820 69.462,191.616 71.245,189.680 72.648 C 187.744 74.052,185.723 75.200,185.188 75.200 C 184.653 75.200,183.251 75.959,182.073 76.886 C 180.894 77.813,177.696 79.647,174.965 80.963 C 172.234 82.278,169.460 83.810,168.800 84.368 C 168.140 84.925,165.800 86.035,163.600 86.834 C 161.400 87.633,158.674 88.921,157.542 89.697 C 156.410 90.472,153.108 92.001,150.204 93.094 C 147.301 94.187,144.087 95.617,143.062 96.272 C 142.038 96.928,139.400 98.011,137.200 98.680 C 135.000 99.350,131.429 100.820,129.264 101.949 C 127.100 103.077,124.615 104.000,123.742 104.000 C 122.869 104.000,119.923 105.055,117.195 106.343 C 114.467 107.632,109.932 109.102,107.117 109.609 C 104.303 110.116,99.840 111.256,97.200 112.141 C 94.560 113.027,88.273 114.447,83.229 115.296 C 72.972 117.022,70.834 118.029,70.149 121.453 C 69.448 124.958,69.574 206.922,70.306 223.600 C 70.968 238.685,75.178 256.567,79.159 261.200 C 79.915 262.080,81.173 264.537,81.955 266.659 C 82.738 268.782,83.913 270.724,84.567 270.975 C 85.221 271.226,86.405 272.946,87.199 274.797 C 88.929 278.832,98.964 290.586,106.230 297.084 C 109.110 299.661,112.630 302.901,114.052 304.284 C 118.140 308.261,120.961 310.728,124.310 313.254 C 132.887 319.724,149.172 330.823,155.454 334.480 C 158.174 336.063,162.560 338.667,165.200 340.265 C 167.840 341.863,172.160 344.220,174.800 345.502 C 177.440 346.784,180.840 348.770,182.355 349.916 C 183.871 351.062,185.388 352.000,185.728 352.000 C 186.067 352.000,188.023 353.064,190.074 354.366 C 198.509 359.715,201.970 359.378,214.800 351.963 C 217.880 350.183,222.380 347.783,224.800 346.630 C 227.220 345.476,230.280 343.733,231.600 342.756 C 232.920 341.779,235.440 340.260,237.200 339.380 C 245.525 335.217,258.809 326.799,260.756 324.453 C 261.328 323.764,262.212 323.200,262.719 323.200 C 264.359 323.200,275.799 314.580,284.800 306.564 C 293.002 299.259,304.800 287.024,304.800 285.823 C 304.800 285.587,306.044 284.017,307.565 282.333 C 309.086 280.650,311.107 277.726,312.056 275.836 C 313.004 273.946,314.416 271.680,315.192 270.800 C 315.968 269.920,317.064 267.760,317.626 266.000 C 318.189 264.240,319.476 261.540,320.485 260.000 C 321.566 258.350,322.871 254.244,323.664 250.000 C 324.403 246.040,325.761 240.100,326.683 236.800 C 328.965 228.627,329.808 124.270,327.626 120.051 C 326.216 117.324,324.114 116.595,313.600 115.186 C 309.860 114.685,303.560 113.243,299.600 111.980 C 295.640 110.717,290.713 109.467,288.651 109.201 C 286.588 108.935,283.630 107.854,282.075 106.799 C 280.521 105.745,277.888 104.627,276.225 104.315 C 272.587 103.634,268.285 101.908,267.646 100.874 C 267.390 100.461,266.016 99.877,264.591 99.576 C 263.166 99.275,256.881 96.535,250.623 93.487 C 244.366 90.439,237.716 87.406,235.846 86.746 C 233.976 86.086,231.710 84.855,230.812 84.011 C 229.913 83.167,227.751 81.880,226.007 81.151 C 224.263 80.423,221.388 78.850,219.618 77.657 C 217.848 76.464,215.256 75.030,213.857 74.471 C 212.459 73.911,211.143 73.005,210.933 72.457 C 210.550 71.461,202.479 67.167,201.120 67.237 C 200.724 67.258,198.780 67.910,196.800 68.686 M200.800 129.139 C 213.292 131.809,219.035 135.178,230.365 146.480 C 237.440 153.537,239.397 155.054,242.033 155.525 C 252.244 157.349,264.360 171.014,266.927 183.603 C 272.889 212.836,246.275 236.236,216.600 227.852 C 212.604 226.723,211.449 226.692,207.800 227.619 C 193.579 231.233,173.851 229.736,170.807 224.812 C 169.933 223.398,166.687 223.928,162.307 226.200 C 154.631 230.182,142.514 229.122,134.591 223.775 C 114.524 210.232,115.882 182.376,137.157 171.145 C 141.091 169.068,143.419 165.451,144.428 159.849 C 146.372 149.058,163.627 133.676,177.470 130.395 C 188.845 127.699,193.012 127.475,200.800 129.139 M157.997 239.400 C 173.018 257.523,170.839 277.600,153.851 277.600 C 141.474 277.600,136.152 265.385,142.780 252.190 C 143.891 249.978,144.800 247.914,144.800 247.604 C 144.800 247.294,146.290 244.737,148.111 241.920 C 152.108 235.740,154.466 235.139,157.997 239.400 M198.342 239.393 C 199.675 240.819,201.201 243.069,201.734 244.393 C 202.266 245.717,203.539 248.152,204.563 249.804 C 212.907 263.268,207.161 277.607,193.426 277.597 C 180.719 277.588,175.929 265.194,183.263 251.300 C 185.209 247.616,187.292 243.656,187.893 242.500 C 191.423 235.717,194.149 234.907,198.342 239.393 M237.337 238.327 C 247.123 247.444,250.462 266.241,243.587 273.517 L 240.107 277.200 233.692 277.200 C 219.871 277.200,214.819 266.354,222.111 252.335 C 224.152 248.411,226.621 243.632,227.599 241.716 C 230.269 236.482,233.973 235.193,237.337 238.327 " stroke="none" fill="#fcfcfc" fill-rule="evenodd"></path><path id="path1" d="M180.727 134.001 C 165.251 137.086,149.373 152.004,146.764 165.911 C 146.203 168.900,142.969 173.600,141.473 173.600 C 140.162 173.600,133.854 178.238,130.883 181.386 C 112.471 200.902,135.659 232.582,160.656 222.061 C 166.979 219.399,168.995 219.463,176.116 222.553 C 184.919 226.372,196.469 226.746,205.583 223.507 C 211.371 221.451,212.216 221.338,214.585 222.304 C 222.507 225.534,223.646 225.751,230.800 225.389 C 269.233 223.444,275.505 169.745,238.579 158.779 C 234.310 157.511,232.664 156.170,227.248 149.545 C 215.954 135.731,199.549 130.250,180.727 134.001 M150.203 246.200 C 143.878 257.082,142.473 262.526,144.694 267.546 C 148.645 276.479,159.851 275.896,163.754 266.554 C 165.218 263.051,164.662 260.617,160.309 251.467 C 154.871 240.036,154.038 239.602,150.203 246.200 M188.606 249.800 C 182.378 262.500,182.110 265.516,186.762 270.532 C 191.100 275.210,196.835 275.015,201.781 270.022 C 205.916 265.847,205.568 261.619,200.201 250.800 C 194.790 239.895,193.516 239.785,188.606 249.800 M230.858 244.200 C 228.282 248.134,223.953 258.537,223.545 261.773 C 222.021 273.866,238.567 278.386,243.221 267.148 C 244.682 263.622,243.708 258.847,240.047 251.600 C 235.092 241.788,233.354 240.388,230.858 244.200 " stroke="none" fill="#41637e" fill-rule="evenodd"></path><path id="path2" d="M197.200 41.733 C 196.320 42.219,192.604 44.638,188.943 47.108 C 181.319 52.252,174.014 56.850,170.689 58.596 C 156.454 66.073,149.669 69.486,148.000 70.006 C 146.900 70.350,145.157 71.182,144.126 71.856 C 141.482 73.585,131.090 78.205,124.000 80.805 C 120.700 82.014,116.347 83.760,114.327 84.683 C 112.307 85.607,108.707 86.764,106.327 87.255 C 103.947 87.745,99.607 88.993,96.683 90.026 C 88.827 92.803,68.494 96.671,58.628 97.266 C 45.500 98.057,46.731 95.242,45.998 126.146 C 44.617 184.326,45.668 229.258,48.735 243.200 C 51.784 257.056,52.047 257.986,53.501 260.000 C 54.295 261.100,55.587 263.980,56.372 266.400 C 57.158 268.820,58.458 271.524,59.261 272.410 C 60.065 273.295,61.455 275.678,62.352 277.704 C 63.248 279.731,64.509 281.827,65.154 282.362 C 65.800 282.898,67.306 285.015,68.502 287.068 C 71.029 291.405,74.226 295.565,78.997 300.725 C 80.866 302.746,83.566 305.748,84.997 307.397 C 90.553 313.794,95.794 318.536,106.442 326.800 C 108.709 328.560,111.487 330.990,112.615 332.200 C 113.742 333.410,115.148 334.400,115.740 334.400 C 116.331 334.400,117.945 335.480,119.326 336.800 C 120.707 338.120,122.116 339.200,122.457 339.200 C 122.798 339.200,124.201 340.146,125.575 341.302 C 126.949 342.458,129.839 344.348,131.998 345.502 C 134.157 346.656,138.997 349.670,142.754 352.200 C 146.511 354.730,149.797 356.800,150.057 356.800 C 150.317 356.800,152.390 358.004,154.664 359.475 C 161.846 364.120,164.253 365.523,170.000 368.413 C 173.080 369.962,176.860 371.988,178.400 372.914 C 187.381 378.316,189.003 379.200,189.933 379.200 C 190.498 379.200,192.451 380.280,194.273 381.600 C 197.650 384.046,202.570 384.866,203.626 383.159 C 203.912 382.696,206.183 381.288,208.673 380.031 C 211.163 378.773,215.900 376.290,219.200 374.512 C 222.500 372.735,227.720 369.995,230.800 368.424 C 233.880 366.853,236.940 365.229,237.600 364.815 C 238.260 364.401,241.680 362.408,245.200 360.387 C 252.283 356.320,252.404 356.247,255.688 354.061 C 261.313 350.316,266.237 347.287,269.200 345.750 C 270.960 344.837,274.380 342.634,276.800 340.856 C 279.220 339.077,282.563 336.704,284.229 335.583 C 285.895 334.461,288.595 332.352,290.229 330.896 C 291.863 329.441,293.848 327.899,294.639 327.471 C 303.702 322.569,329.395 293.158,336.460 279.600 C 338.065 276.520,339.843 273.460,340.411 272.800 C 340.979 272.140,341.979 269.781,342.632 267.557 C 343.286 265.333,344.566 261.733,345.477 259.557 C 347.898 253.776,349.427 246.913,350.013 239.200 C 350.297 235.460,351.040 229.570,351.665 226.112 C 352.579 221.048,352.800 208.167,352.800 159.957 L 352.800 100.091 351.022 98.845 C 349.777 97.973,347.318 97.595,342.822 97.584 C 333.310 97.560,308.215 93.004,301.175 90.023 C 299.429 89.284,294.760 87.844,290.800 86.823 C 286.840 85.802,281.980 84.034,280.000 82.893 C 278.020 81.753,275.860 80.815,275.200 80.810 C 274.540 80.805,271.840 79.742,269.200 78.447 C 266.560 77.153,262.420 75.182,260.000 74.067 C 257.580 72.953,255.060 71.685,254.400 71.249 C 253.740 70.813,251.760 69.792,250.000 68.980 C 248.240 68.168,246.080 67.080,245.200 66.562 C 244.320 66.045,241.620 64.717,239.200 63.612 C 233.379 60.952,218.352 51.599,216.672 49.589 C 215.941 48.715,215.041 47.996,214.672 47.991 C 214.302 47.987,211.686 46.367,208.858 44.391 C 203.546 40.682,200.401 39.964,197.200 41.733 M210.372 64.504 C 218.218 69.628,234.794 79.200,235.824 79.200 C 236.156 79.200,237.682 80.046,239.214 81.081 C 240.746 82.116,243.440 83.432,245.200 84.006 C 246.960 84.580,252.540 87.109,257.600 89.626 C 262.660 92.143,268.420 94.664,270.400 95.228 C 272.380 95.791,274.720 96.684,275.600 97.212 C 278.648 99.039,301.219 106.227,305.600 106.766 C 314.479 107.859,330.323 112.145,332.318 113.994 C 335.209 116.673,335.391 121.336,334.969 181.600 C 334.567 238.992,334.228 244.297,330.441 252.400 C 329.619 254.160,328.338 257.760,327.595 260.400 C 326.198 265.363,321.887 273.313,315.609 282.501 C 308.839 292.408,299.682 302.119,286.000 313.898 C 281.600 317.686,277.347 321.351,276.549 322.043 C 275.752 322.735,273.412 324.305,271.349 325.533 C 266.936 328.160,258.840 333.653,256.000 335.948 C 254.900 336.837,253.576 337.572,253.057 337.582 C 252.539 337.592,251.595 338.119,250.960 338.754 C 250.326 339.389,247.690 341.047,245.103 342.439 C 242.516 343.831,239.900 345.378,239.288 345.876 C 238.677 346.374,236.337 347.710,234.088 348.845 C 231.840 349.980,226.642 352.802,222.537 355.118 C 218.433 357.433,213.933 359.708,212.537 360.174 C 211.142 360.640,209.280 361.668,208.400 362.458 C 204.353 366.090,196.380 366.300,192.167 362.885 C 190.975 361.919,188.380 360.447,186.400 359.614 C 184.420 358.781,182.260 357.664,181.600 357.130 C 179.917 355.771,172.427 351.573,167.200 349.061 C 164.780 347.898,161.617 345.923,160.172 344.673 C 158.727 343.423,157.162 342.400,156.696 342.400 C 156.229 342.400,154.713 341.590,153.326 340.600 C 151.940 339.610,149.479 338.080,147.858 337.200 C 146.236 336.320,142.491 333.800,139.534 331.600 C 136.578 329.400,133.223 327.093,132.079 326.473 C 120.790 320.356,92.177 293.920,84.123 282.166 C 76.965 271.719,71.249 261.480,71.218 259.047 C 71.208 258.303,70.837 257.470,70.394 257.196 C 64.499 253.553,61.943 220.652,62.657 157.600 C 63.097 118.708,63.386 115.511,66.648 113.373 C 69.005 111.829,81.611 108.430,90.878 106.841 C 97.384 105.725,117.871 99.662,122.000 97.631 C 124.536 96.383,130.676 94.424,132.092 94.412 C 132.803 94.405,134.318 93.666,135.458 92.769 C 136.599 91.871,139.438 90.472,141.766 89.660 C 144.095 88.848,147.620 87.246,149.600 86.101 C 151.580 84.956,153.920 84.013,154.800 84.004 C 155.680 83.996,157.480 83.258,158.800 82.364 C 160.120 81.470,163.720 79.482,166.800 77.948 C 177.792 72.471,180.421 71.037,182.000 69.658 C 182.880 68.888,184.818 67.777,186.306 67.188 C 187.795 66.600,190.066 65.232,191.353 64.148 C 196.479 59.835,203.424 59.965,210.372 64.504 " stroke="none" fill="#359fde" fill-rule="evenodd"></path><path id="path3" d="M196.000 39.055 C 191.887 41.088,185.418 45.164,180.800 48.633 C 179.700 49.459,176.100 51.685,172.800 53.578 C 169.500 55.472,164.820 58.188,162.400 59.613 C 159.980 61.037,157.100 62.465,156.000 62.785 C 154.900 63.105,152.467 64.246,150.592 65.321 C 148.718 66.397,145.789 67.769,144.084 68.370 C 142.378 68.972,139.532 70.381,137.758 71.500 C 135.984 72.620,133.513 73.782,132.266 74.083 C 131.020 74.383,128.226 75.516,126.059 76.600 C 123.891 77.683,120.291 79.112,118.059 79.773 C 115.826 80.435,112.740 81.612,111.200 82.389 C 109.660 83.165,104.803 84.615,100.406 85.610 C 96.009 86.606,90.429 88.103,88.006 88.937 C 82.130 90.961,71.171 92.683,60.400 93.275 C 49.144 93.894,45.962 94.703,44.198 97.396 C 41.415 101.642,41.542 227.237,44.342 240.800 C 47.721 257.164,58.891 282.843,64.006 286.004 C 64.459 286.284,65.690 288.198,66.741 290.257 C 68.998 294.681,87.522 315.474,94.307 321.200 C 106.735 331.688,124.262 344.885,128.916 347.259 C 130.689 348.164,134.603 350.662,137.615 352.810 C 140.626 354.959,144.824 357.649,146.945 358.788 C 151.064 361.001,154.600 363.083,159.365 366.100 C 160.996 367.132,166.091 369.949,170.686 372.359 C 175.281 374.769,180.387 377.654,182.032 378.770 C 183.677 379.887,185.342 380.800,185.731 380.800 C 186.121 380.800,188.680 382.194,191.420 383.898 C 198.321 388.190,201.277 388.513,206.036 385.495 C 208.103 384.184,213.981 380.918,219.098 378.236 C 224.214 375.555,229.300 372.757,230.400 372.020 C 231.500 371.283,233.660 370.176,235.200 369.560 C 238.560 368.217,245.723 364.112,258.800 356.032 C 261.880 354.129,265.300 351.904,266.400 351.088 C 267.500 350.272,270.020 348.738,272.000 347.679 C 297.555 334.016,335.273 294.715,344.072 272.584 C 344.907 270.485,346.452 267.065,347.506 264.984 C 348.643 262.741,350.437 255.988,351.913 248.400 C 356.819 223.170,356.769 224.089,356.785 159.045 L 356.800 99.289 354.972 97.164 C 353.245 95.157,352.485 94.978,341.172 93.924 C 325.915 92.502,315.380 90.831,308.800 88.791 C 305.940 87.904,300.720 86.448,297.200 85.555 C 280.924 81.428,242.003 62.801,222.977 50.034 C 216.392 45.615,209.243 40.830,207.091 39.400 C 202.398 36.282,201.656 36.259,196.000 39.055 M208.858 44.391 C 211.686 46.367,214.302 47.987,214.672 47.991 C 215.041 47.996,215.941 48.715,216.672 49.589 C 218.352 51.599,233.379 60.952,239.200 63.612 C 241.620 64.717,244.320 66.045,245.200 66.562 C 246.080 67.080,248.240 68.168,250.000 68.980 C 251.760 69.792,253.740 70.813,254.400 71.249 C 255.060 71.685,257.580 72.953,260.000 74.067 C 262.420 75.182,266.560 77.153,269.200 78.447 C 271.840 79.742,274.540 80.805,275.200 80.810 C 275.860 80.815,278.020 81.753,280.000 82.893 C 281.980 84.034,286.840 85.802,290.800 86.823 C 294.760 87.844,299.429 89.284,301.175 90.023 C 308.215 93.004,333.310 97.560,342.822 97.584 C 347.318 97.595,349.777 97.973,351.022 98.845 L 352.800 100.091 352.800 159.957 C 352.800 208.167,352.579 221.048,351.665 226.112 C 351.040 229.570,350.297 235.460,350.013 239.200 C 349.427 246.913,347.898 253.776,345.477 259.557 C 344.566 261.733,343.286 265.333,342.632 267.557 C 341.979 269.781,340.979 272.140,340.411 272.800 C 339.843 273.460,338.065 276.520,336.460 279.600 C 329.395 293.158,303.702 322.569,294.639 327.471 C 293.848 327.899,291.863 329.441,290.229 330.896 C 288.595 332.352,285.895 334.461,284.229 335.583 C 282.563 336.704,279.220 339.077,276.800 340.856 C 274.380 342.634,270.960 344.837,269.200 345.750 C 266.237 347.287,261.313 350.316,255.688 354.061 C 252.404 356.247,252.283 356.320,245.200 360.387 C 241.680 362.408,238.260 364.401,237.600 364.815 C 236.940 365.229,233.880 366.853,230.800 368.424 C 227.720 369.995,222.500 372.735,219.200 374.512 C 215.900 376.290,211.163 378.773,208.673 380.031 C 206.183 381.288,203.912 382.696,203.626 383.159 C 202.570 384.866,197.650 384.046,194.273 381.600 C 192.451 380.280,190.498 379.200,189.933 379.200 C 189.003 379.200,187.381 378.316,178.400 372.914 C 176.860 371.988,173.080 369.962,170.000 368.413 C 164.253 365.523,161.846 364.120,154.664 359.475 C 152.390 358.004,150.317 356.800,150.057 356.800 C 149.797 356.800,146.511 354.730,142.754 352.200 C 138.997 349.670,134.157 346.656,131.998 345.502 C 129.839 344.348,126.949 342.458,125.575 341.302 C 124.201 340.146,122.798 339.200,122.457 339.200 C 122.116 339.200,120.707 338.120,119.326 336.800 C 117.945 335.480,116.331 334.400,115.740 334.400 C 115.148 334.400,113.742 333.410,112.615 332.200 C 111.487 330.990,108.709 328.560,106.442 326.800 C 95.794 318.536,90.553 313.794,84.997 307.397 C 83.566 305.748,80.866 302.746,78.997 300.725 C 74.226 295.565,71.029 291.405,68.502 287.068 C 67.306 285.015,65.800 282.898,65.154 282.362 C 64.509 281.827,63.248 279.731,62.352 277.704 C 61.455 275.678,60.065 273.295,59.261 272.410 C 58.458 271.524,57.158 268.820,56.372 266.400 C 55.587 263.980,54.295 261.100,53.501 260.000 C 52.047 257.986,51.784 257.056,48.735 243.200 C 45.668 229.258,44.617 184.326,45.998 126.146 C 46.731 95.242,45.500 98.057,58.628 97.266 C 68.494 96.671,88.827 92.803,96.683 90.026 C 99.607 88.993,103.947 87.745,106.327 87.255 C 108.707 86.764,112.307 85.607,114.327 84.683 C 116.347 83.760,120.700 82.014,124.000 80.805 C 131.090 78.205,141.482 73.585,144.126 71.856 C 145.157 71.182,146.900 70.350,148.000 70.006 C 149.669 69.486,156.454 66.073,170.689 58.596 C 174.014 56.850,181.319 52.252,188.943 47.108 C 200.610 39.236,201.335 39.137,208.858 44.391 M196.247 61.530 C 194.843 61.887,192.641 63.065,191.353 64.148 C 190.066 65.232,187.795 66.600,186.306 67.188 C 184.818 67.777,182.880 68.888,182.000 69.658 C 180.421 71.037,177.792 72.471,166.800 77.948 C 163.720 79.482,160.120 81.470,158.800 82.364 C 157.480 83.258,155.680 83.996,154.800 84.004 C 153.920 84.013,151.580 84.956,149.600 86.101 C 147.620 87.246,144.095 88.848,141.766 89.660 C 139.438 90.472,136.599 91.871,135.458 92.769 C 134.318 93.666,132.803 94.405,132.092 94.412 C 130.676 94.424,124.536 96.383,122.000 97.631 C 117.871 99.662,97.384 105.725,90.878 106.841 C 81.611 108.430,69.005 111.829,66.648 113.373 C 63.386 115.511,63.097 118.708,62.657 157.600 C 61.943 220.652,64.499 253.553,70.394 257.196 C 70.837 257.470,71.208 258.303,71.218 259.047 C 71.249 261.480,76.965 271.719,84.123 282.166 C 92.177 293.920,120.790 320.356,132.079 326.473 C 133.223 327.093,136.578 329.400,139.534 331.600 C 142.491 333.800,146.236 336.320,147.858 337.200 C 149.479 338.080,151.940 339.610,153.326 340.600 C 154.713 341.590,156.229 342.400,156.696 342.400 C 157.162 342.400,158.727 343.423,160.172 344.673 C 161.617 345.923,164.780 347.898,167.200 349.061 C 172.427 351.573,179.917 355.771,181.600 357.130 C 182.260 357.664,184.420 358.781,186.400 359.614 C 188.380 360.447,190.975 361.919,192.167 362.885 C 196.380 366.300,204.353 366.090,208.400 362.458 C 209.280 361.668,211.142 360.640,212.537 360.174 C 213.933 359.708,218.433 357.433,222.537 355.118 C 226.642 352.802,231.840 349.980,234.088 348.845 C 236.337 347.710,238.677 346.374,239.288 345.876 C 239.900 345.378,242.516 343.831,245.103 342.439 C 247.690 341.047,250.326 339.389,250.960 338.754 C 251.595 338.119,252.539 337.592,253.057 337.582 C 253.576 337.572,254.900 336.837,256.000 335.948 C 258.840 333.653,266.936 328.160,271.349 325.533 C 273.412 324.305,275.752 322.735,276.549 322.043 C 277.347 321.351,281.600 317.686,286.000 313.898 C 299.682 302.119,308.839 292.408,315.609 282.501 C 317.986 279.022,318.608 278.022,323.624 269.600 C 325.065 267.180,326.852 263.040,327.595 260.400 C 328.338 257.760,329.619 254.160,330.441 252.400 C 334.228 244.297,334.567 238.992,334.969 181.600 C 335.391 121.336,335.209 116.673,332.318 113.994 C 330.323 112.145,314.479 107.859,305.600 106.766 C 301.219 106.227,278.648 99.039,275.600 97.212 C 274.720 96.684,272.380 95.791,270.400 95.228 C 268.420 94.664,262.660 92.143,257.600 89.626 C 252.540 87.109,246.960 84.580,245.200 84.006 C 243.440 83.432,240.746 82.116,239.214 81.081 C 237.682 80.046,236.156 79.200,235.824 79.200 C 234.794 79.200,218.218 69.628,210.372 64.504 C 205.354 61.226,201.031 60.316,196.247 61.530 M208.000 66.736 C 216.239 72.082,220.740 74.753,228.400 78.845 C 230.600 80.021,232.940 81.453,233.600 82.028 C 234.260 82.603,236.714 83.826,239.053 84.746 C 241.392 85.666,247.692 88.532,253.053 91.115 C 258.414 93.698,267.120 97.480,272.400 99.519 C 277.680 101.558,283.877 103.970,286.172 104.878 C 290.255 106.495,303.004 109.586,320.228 113.135 C 325.291 114.179,329.423 115.480,330.228 116.285 C 331.875 117.931,332.791 221.369,331.261 232.943 C 329.319 247.641,321.757 268.179,314.834 277.555 C 313.715 279.071,312.800 280.718,312.800 281.216 C 312.800 281.714,311.863 282.994,310.718 284.061 C 309.573 285.127,306.476 288.700,303.837 292.000 C 301.197 295.300,296.284 300.474,292.919 303.499 C 289.553 306.523,284.782 310.843,282.315 313.099 C 278.040 317.008,274.676 319.435,262.000 327.750 C 258.920 329.770,255.680 332.040,254.800 332.794 C 252.149 335.065,231.341 346.829,211.632 357.199 C 199.290 363.693,199.452 363.714,181.600 353.181 C 178.740 351.494,174.600 349.235,172.400 348.161 C 143.139 333.883,93.659 294.202,85.729 278.654 C 84.791 276.814,83.687 275.101,83.277 274.847 C 80.383 273.059,69.524 248.544,67.963 240.276 C 66.942 234.868,65.901 130.920,66.785 122.664 C 67.503 115.956,68.651 114.839,76.113 113.585 C 79.351 113.040,83.620 112.091,85.600 111.474 C 87.580 110.858,93.340 109.482,98.400 108.417 C 103.460 107.352,111.380 105.064,116.000 103.332 C 120.620 101.600,127.280 99.098,130.800 97.772 C 134.320 96.445,141.160 93.495,146.000 91.215 C 150.840 88.936,156.780 86.329,159.200 85.422 C 161.620 84.516,164.549 83.109,165.708 82.298 C 166.868 81.486,169.388 80.098,171.308 79.213 C 173.229 78.327,177.500 76.013,180.800 74.070 C 201.522 61.869,200.799 62.064,208.000 66.736 M178.561 132.818 C 163.345 136.804,149.165 150.220,145.601 164.000 C 144.327 168.924,142.903 170.911,139.347 172.725 C 117.567 183.836,117.483 213.060,139.200 223.399 C 146.385 226.819,155.107 226.953,161.373 223.740 C 166.734 220.991,169.037 221.046,175.510 224.076 C 184.023 228.059,196.958 228.223,208.880 224.499 C 212.288 223.434,212.820 223.470,216.080 224.984 C 222.662 228.042,237.393 227.531,244.267 224.007 C 274.018 208.752,271.589 168.330,240.273 157.556 C 236.385 156.219,234.553 154.774,227.274 147.307 C 212.788 132.448,197.421 127.877,178.561 132.818 M201.047 133.691 C 210.665 135.181,220.242 140.976,227.248 149.545 C 232.664 156.170,234.310 157.511,238.579 158.779 C 275.505 169.745,269.233 223.444,230.800 225.389 C 223.646 225.751,222.507 225.534,214.585 222.304 C 212.216 221.338,211.371 221.451,205.583 223.507 C 196.469 226.746,184.919 226.372,176.116 222.553 C 168.995 219.463,166.979 219.399,160.656 222.061 C 135.659 232.582,112.471 200.902,130.883 181.386 C 133.854 178.238,140.162 173.600,141.473 173.600 C 142.969 173.600,146.203 168.900,146.764 165.911 C 150.764 144.590,175.732 129.770,201.047 133.691 M150.311 243.400 C 139.703 257.829,140.068 272.203,151.117 275.178 C 163.614 278.543,169.689 265.398,162.198 251.200 C 155.823 239.117,154.228 238.071,150.311 243.400 M189.447 245.000 C 182.378 257.252,180.699 263.059,182.889 267.674 C 186.661 275.623,195.124 277.758,201.438 272.353 C 207.691 267.001,207.703 261.213,201.485 249.600 C 195.490 238.404,193.657 237.704,189.447 245.000 M231.058 241.400 C 226.702 246.523,220.716 260.797,221.407 264.412 C 224.623 281.239,247.740 277.061,245.199 260.111 C 244.436 255.025,237.757 242.544,235.040 241.127 C 232.353 239.726,232.489 239.716,231.058 241.400 M155.553 242.867 C 157.183 244.498,163.630 258.027,164.344 261.317 C 166.042 269.134,156.990 276.366,149.850 272.897 C 141.559 268.869,141.665 260.890,150.203 246.200 C 153.080 241.250,153.607 240.921,155.553 242.867 M196.187 243.800 C 200.101 248.237,205.177 261.342,204.460 265.162 C 202.417 276.053,187.472 276.521,183.936 265.806 C 181.641 258.851,192.406 239.514,196.187 243.800 M235.719 243.800 C 238.144 246.897,243.308 258.208,243.746 261.379 C 244.939 270.029,236.969 276.366,229.600 272.627 C 222.469 269.009,221.694 263.287,226.828 252.173 C 231.492 242.077,233.149 240.516,235.719 243.800 " stroke="none" fill="#7ac0e8" fill-rule="evenodd"></path><path id="path4" d="M199.195 33.880 C 197.652 34.429,194.959 35.850,193.209 37.039 C 191.460 38.227,189.743 39.200,189.395 39.200 C 188.745 39.200,183.381 42.767,178.400 46.512 C 176.860 47.670,173.980 49.427,172.000 50.416 C 170.020 51.405,168.220 52.489,168.000 52.823 C 167.588 53.450,163.765 55.498,155.533 59.502 C 142.728 65.732,137.812 68.000,137.117 68.000 C 136.698 68.000,135.471 68.630,134.388 69.400 C 130.511 72.159,98.500 83.585,92.770 84.256 C 90.333 84.541,86.064 85.699,83.283 86.829 C 78.874 88.620,76.370 88.982,63.714 89.659 C 36.474 91.114,39.171 83.339,39.127 160.559 C 39.088 230.267,39.968 246.495,44.225 254.581 C 45.215 256.461,46.519 259.980,47.122 262.400 C 47.726 264.820,48.902 267.773,49.737 268.961 C 50.571 270.150,52.109 273.055,53.153 275.418 C 54.198 277.780,56.796 282.129,58.926 285.083 C 61.057 288.037,63.957 292.294,65.371 294.543 C 66.785 296.792,70.193 301.010,72.943 303.916 C 75.694 306.822,79.937 311.384,82.372 314.052 C 86.478 318.552,91.014 322.744,97.695 328.214 C 105.049 334.235,114.914 341.815,116.368 342.562 C 117.266 343.023,118.823 344.150,119.829 345.066 C 120.834 345.983,123.215 347.648,125.120 348.766 C 131.021 352.231,136.057 355.507,138.958 357.768 C 140.488 358.961,142.494 360.176,143.415 360.468 C 144.336 360.761,146.518 362.035,148.265 363.300 C 150.011 364.565,151.780 365.600,152.197 365.600 C 152.613 365.600,154.084 366.410,155.467 367.400 C 156.850 368.390,160.146 370.361,162.791 371.779 C 165.436 373.198,170.054 375.718,173.053 377.379 C 176.052 379.041,179.832 381.134,181.453 382.031 C 183.074 382.928,187.017 385.223,190.215 387.131 C 199.032 392.391,201.697 392.423,209.191 387.361 C 212.486 385.135,215.996 383.067,216.991 382.766 C 217.986 382.464,219.937 381.530,221.326 380.689 C 222.716 379.848,225.776 378.158,228.126 376.932 C 244.118 368.591,258.464 360.454,263.198 357.041 C 264.297 356.248,266.547 354.988,268.198 354.239 C 269.849 353.491,271.200 352.574,271.200 352.203 C 271.200 351.831,273.540 350.327,276.400 348.861 C 279.260 347.394,281.600 345.884,281.600 345.507 C 281.600 345.129,282.950 343.905,284.600 342.787 C 289.940 339.167,293.150 336.838,295.600 334.805 C 314.732 318.924,324.523 308.999,332.555 297.346 C 333.520 295.946,335.009 293.892,335.864 292.783 C 340.259 287.081,344.683 279.970,345.584 277.160 C 346.142 275.422,347.470 272.832,348.537 271.404 C 349.668 269.889,351.461 265.057,352.842 259.804 C 354.144 254.852,355.727 248.907,356.361 246.593 C 359.448 235.323,360.000 222.000,360.000 158.815 L 360.000 97.837 358.172 95.118 C 355.842 91.652,352.463 90.504,344.400 90.438 C 333.030 90.346,320.210 88.875,315.799 87.157 C 313.490 86.258,308.659 84.992,305.064 84.345 C 301.468 83.698,296.608 82.322,294.264 81.287 C 291.919 80.253,288.740 79.135,287.200 78.804 C 285.660 78.473,282.420 77.216,280.000 76.011 C 277.580 74.806,274.160 73.368,272.400 72.815 C 270.640 72.262,267.400 70.813,265.200 69.594 C 263.000 68.376,260.353 67.123,259.318 66.809 C 258.282 66.496,256.194 65.398,254.678 64.369 C 253.162 63.340,250.709 62.098,249.226 61.609 C 246.377 60.668,235.646 54.832,231.600 52.022 C 230.280 51.106,227.940 49.528,226.400 48.515 C 215.569 41.396,209.674 37.388,207.600 35.733 C 204.320 33.116,202.485 32.711,199.195 33.880 M207.091 39.400 C 209.243 40.830,216.392 45.615,222.977 50.034 C 242.003 62.801,280.924 81.428,297.200 85.555 C 300.720 86.448,305.940 87.904,308.800 88.791 C 315.380 90.831,325.915 92.502,341.172 93.924 C 352.485 94.978,353.245 95.157,354.972 97.164 L 356.800 99.289 356.785 159.045 C 356.769 224.089,356.819 223.170,351.913 248.400 C 350.437 255.988,348.643 262.741,347.506 264.984 C 346.452 267.065,344.907 270.485,344.072 272.584 C 335.273 294.715,297.555 334.016,272.000 347.679 C 270.020 348.738,267.500 350.272,266.400 351.088 C 265.300 351.904,261.880 354.129,258.800 356.032 C 245.723 364.112,238.560 368.217,235.200 369.560 C 233.660 370.176,231.500 371.283,230.400 372.020 C 229.300 372.757,224.214 375.555,219.098 378.236 C 213.981 380.918,208.103 384.184,206.036 385.495 C 201.277 388.513,198.321 388.190,191.420 383.898 C 188.680 382.194,186.121 380.800,185.731 380.800 C 185.342 380.800,183.677 379.887,182.032 378.770 C 180.387 377.654,175.281 374.769,170.686 372.359 C 166.091 369.949,160.996 367.132,159.365 366.100 C 154.600 363.083,151.064 361.001,146.945 358.788 C 144.824 357.649,140.626 354.959,137.615 352.810 C 134.603 350.662,130.689 348.164,128.916 347.259 C 124.262 344.885,106.735 331.688,94.307 321.200 C 87.522 315.474,68.998 294.681,66.741 290.257 C 65.690 288.198,64.459 286.284,64.006 286.004 C 58.891 282.843,47.721 257.164,44.342 240.800 C 41.542 227.237,41.415 101.642,44.198 97.396 C 45.962 94.703,49.144 93.894,60.400 93.275 C 71.171 92.683,82.130 90.961,88.006 88.937 C 90.429 88.103,96.009 86.606,100.406 85.610 C 104.803 84.615,109.660 83.165,111.200 82.389 C 112.740 81.612,115.826 80.435,118.059 79.773 C 120.291 79.112,123.891 77.683,126.059 76.600 C 128.226 75.516,131.020 74.383,132.266 74.083 C 133.513 73.782,135.984 72.620,137.758 71.500 C 139.532 70.381,142.378 68.972,144.084 68.370 C 145.789 67.769,148.718 66.397,150.592 65.321 C 152.467 64.246,154.900 63.105,156.000 62.785 C 157.100 62.465,159.980 61.037,162.400 59.613 C 164.820 58.188,169.500 55.472,172.800 53.578 C 176.100 51.685,179.700 49.459,180.800 48.633 C 195.655 37.475,201.241 35.513,207.091 39.400 M199.600 64.014 C 197.298 64.536,193.962 66.320,180.800 74.070 C 177.500 76.013,173.229 78.327,171.308 79.213 C 169.388 80.098,166.868 81.486,165.708 82.298 C 164.549 83.109,161.620 84.516,159.200 85.422 C 156.780 86.329,150.840 88.936,146.000 91.215 C 141.160 93.495,134.320 96.445,130.800 97.772 C 127.280 99.098,120.620 101.600,116.000 103.332 C 111.380 105.064,103.460 107.352,98.400 108.417 C 93.340 109.482,87.580 110.858,85.600 111.474 C 83.620 112.091,79.351 113.040,76.113 113.585 C 68.651 114.839,67.503 115.956,66.785 122.664 C 65.901 130.920,66.942 234.868,67.963 240.276 C 69.524 248.544,80.383 273.059,83.277 274.847 C 83.687 275.101,84.791 276.814,85.729 278.654 C 93.659 294.202,143.139 333.883,172.400 348.161 C 174.600 349.235,178.740 351.494,181.600 353.181 C 199.452 363.714,199.290 363.693,211.632 357.199 C 231.341 346.829,252.149 335.065,254.800 332.794 C 255.680 332.040,258.920 329.770,262.000 327.750 C 274.676 319.435,278.040 317.008,282.315 313.099 C 284.782 310.843,289.553 306.523,292.919 303.499 C 296.284 300.474,301.197 295.300,303.837 292.000 C 306.476 288.700,309.573 285.127,310.718 284.061 C 311.863 282.994,312.800 281.714,312.800 281.216 C 312.800 280.718,313.715 279.071,314.834 277.555 C 321.757 268.179,329.319 247.641,331.261 232.943 C 332.791 221.369,331.875 117.931,330.228 116.285 C 329.423 115.480,325.291 114.179,320.228 113.135 C 303.004 109.586,290.255 106.495,286.172 104.878 C 283.877 103.970,277.680 101.558,272.400 99.519 C 267.120 97.480,258.414 93.698,253.053 91.115 C 247.692 88.532,241.392 85.666,239.053 84.746 C 236.714 83.826,234.260 82.603,233.600 82.028 C 232.940 81.453,230.600 80.021,228.400 78.845 C 220.740 74.753,216.239 72.082,208.000 66.736 C 203.219 63.634,202.420 63.375,199.600 64.014 M206.196 69.331 C 208.591 70.503,210.723 71.910,210.933 72.457 C 211.143 73.005,212.459 73.911,213.857 74.471 C 215.256 75.030,217.848 76.464,219.618 77.657 C 221.388 78.850,224.263 80.423,226.007 81.151 C 227.751 81.880,229.913 83.167,230.812 84.011 C 231.710 84.855,233.976 86.086,235.846 86.746 C 237.716 87.406,244.366 90.439,250.623 93.487 C 256.881 96.535,263.166 99.275,264.591 99.576 C 266.016 99.877,267.390 100.461,267.646 100.874 C 268.285 101.908,272.587 103.634,276.225 104.315 C 277.888 104.627,280.521 105.745,282.075 106.799 C 283.630 107.854,286.588 108.935,288.651 109.201 C 290.713 109.467,295.640 110.717,299.600 111.980 C 303.560 113.243,309.860 114.685,313.600 115.186 C 324.114 116.595,326.216 117.324,327.626 120.051 C 329.808 124.270,328.965 228.627,326.683 236.800 C 325.761 240.100,324.403 246.040,323.664 250.000 C 322.871 254.244,321.566 258.350,320.485 260.000 C 319.476 261.540,318.189 264.240,317.626 266.000 C 317.064 267.760,315.968 269.920,315.192 270.800 C 314.416 271.680,313.004 273.946,312.056 275.836 C 311.107 277.726,309.086 280.650,307.565 282.333 C 306.044 284.017,304.800 285.587,304.800 285.823 C 304.800 287.024,293.002 299.259,284.800 306.564 C 275.799 314.580,264.359 323.200,262.719 323.200 C 262.212 323.200,261.328 323.764,260.756 324.453 C 258.809 326.799,245.525 335.217,237.200 339.380 C 235.440 340.260,232.920 341.779,231.600 342.756 C 230.280 343.733,227.220 345.476,224.800 346.630 C 222.380 347.783,217.880 350.183,214.800 351.963 C 201.970 359.378,198.509 359.715,190.074 354.366 C 188.023 353.064,186.067 352.000,185.728 352.000 C 185.388 352.000,183.871 351.062,182.355 349.916 C 180.840 348.770,177.440 346.784,174.800 345.502 C 172.160 344.220,167.840 341.863,165.200 340.265 C 162.560 338.667,158.174 336.063,155.454 334.480 C 149.172 330.823,132.887 319.724,124.310 313.254 C 120.961 310.728,118.140 308.261,114.052 304.284 C 112.630 302.901,109.110 299.661,106.230 297.084 C 98.964 290.586,88.929 278.832,87.199 274.797 C 86.405 272.946,85.221 271.226,84.567 270.975 C 83.913 270.724,82.738 268.782,81.955 266.659 C 81.173 264.537,79.915 262.080,79.159 261.200 C 75.178 256.567,70.968 238.685,70.306 223.600 C 69.574 206.922,69.448 124.958,70.149 121.453 C 70.834 118.029,72.972 117.022,83.229 115.296 C 88.273 114.447,94.560 113.027,97.200 112.141 C 99.840 111.256,104.303 110.116,107.117 109.609 C 109.932 109.102,114.467 107.632,117.195 106.343 C 119.923 105.055,122.869 104.000,123.742 104.000 C 124.615 104.000,127.100 103.077,129.264 101.949 C 131.429 100.820,135.000 99.350,137.200 98.680 C 139.400 98.011,142.038 96.928,143.062 96.272 C 144.087 95.617,147.301 94.187,150.204 93.094 C 153.108 92.001,156.410 90.472,157.542 89.697 C 158.674 88.921,161.400 87.633,163.600 86.834 C 165.800 86.035,168.140 84.925,168.800 84.368 C 169.460 83.810,172.234 82.278,174.965 80.963 C 177.696 79.647,180.894 77.813,182.073 76.886 C 183.251 75.959,184.653 75.200,185.188 75.200 C 185.723 75.200,187.744 74.052,189.680 72.648 C 192.835 70.361,199.232 67.336,201.120 67.237 C 201.516 67.217,203.800 68.159,206.196 69.331 M185.600 128.580 C 165.484 132.222,146.856 146.370,144.428 159.849 C 143.419 165.451,141.091 169.068,137.157 171.145 C 115.882 182.376,114.524 210.232,134.591 223.775 C 142.514 229.122,154.631 230.182,162.307 226.200 C 166.687 223.928,169.933 223.398,170.807 224.812 C 173.851 229.736,193.579 231.233,207.800 227.619 C 211.449 226.692,212.604 226.723,216.600 227.852 C 246.275 236.236,272.889 212.836,266.927 183.603 C 264.360 171.014,252.244 157.349,242.033 155.525 C 239.397 155.054,237.440 153.537,230.365 146.480 C 215.690 131.841,200.698 125.846,185.600 128.580 M202.053 132.061 C 211.388 133.753,217.895 137.687,227.274 147.307 C 234.553 154.774,236.385 156.219,240.273 157.556 C 271.589 168.330,274.018 208.752,244.267 224.007 C 237.393 227.531,222.662 228.042,216.080 224.984 C 212.820 223.470,212.288 223.434,208.880 224.499 C 196.958 228.223,184.023 228.059,175.510 224.076 C 169.037 221.046,166.734 220.991,161.373 223.740 C 155.107 226.953,146.385 226.819,139.200 223.399 C 117.483 213.060,117.567 183.836,139.347 172.725 C 142.903 170.911,144.327 168.924,145.601 164.000 C 151.282 142.034,176.952 127.510,202.053 132.061 M148.111 241.920 C 146.290 244.737,144.800 247.294,144.800 247.604 C 144.800 247.914,143.891 249.978,142.780 252.190 C 136.152 265.385,141.474 277.600,153.851 277.600 C 168.140 277.600,172.509 264.246,163.517 248.057 C 156.159 234.810,153.416 233.718,148.111 241.920 M190.111 238.600 C 189.493 239.590,188.494 241.345,187.893 242.500 C 187.292 243.656,185.209 247.616,183.263 251.300 C 175.929 265.194,180.719 277.588,193.426 277.597 C 207.161 277.607,212.907 263.268,204.563 249.804 C 203.539 248.152,202.266 245.717,201.734 244.393 C 199.105 237.855,192.603 234.615,190.111 238.600 M230.488 237.529 C 229.876 237.916,228.576 239.800,227.599 241.716 C 226.621 243.632,224.152 248.411,222.111 252.335 C 214.819 266.354,219.871 277.200,233.692 277.200 L 240.107 277.200 243.587 273.517 C 249.646 267.104,249.347 259.035,242.587 246.533 C 237.602 237.314,234.488 234.996,230.488 237.529 M157.075 242.600 C 160.194 246.744,165.313 256.929,165.916 260.188 C 168.171 272.391,153.625 280.617,145.717 271.611 C 140.957 266.189,140.917 261.971,145.532 251.815 C 150.546 240.781,153.770 238.208,157.075 242.600 M196.597 241.800 C 209.592 255.762,208.013 275.200,193.884 275.200 C 183.900 275.200,179.467 266.398,184.081 255.734 C 190.219 241.549,193.236 238.190,196.597 241.800 M235.040 241.127 C 237.757 242.544,244.436 255.025,245.199 260.111 C 247.333 274.346,230.589 281.143,223.224 269.031 C 220.141 263.963,221.149 258.575,227.240 247.554 C 231.544 239.767,231.888 239.483,235.040 241.127 " stroke="none" fill="#b4dbf1" fill-rule="evenodd"></path></g></svg>