<?xml version="1.0"?><svg xmlns="http://www.w3.org/2000/svg" version="1.1" id="Layer_1" x="0px" y="0px" viewBox="-0 -0 514 514" style="enable-background:new 0 0 80 80;" width="512" height="512"><svg version="1.1" id="Layer_1" x="0" y="0" viewBox="0 0 80 80" style="enable-background:new 0 0 80 80;" width="512" height="512" fill="#DDDDDD"><style type="text/css">
	.st0{fill:#1E232D;}
</style><g>
	
	
<path class="st0" d="M42.5,13h-32C8,13,6,15,6,17.5v57C6,77,8,79,10.5,79h32c2.5,0,4.5-2,4.5-4.5v-57C47,15,45,13,42.5,13z M32,75   H21c-1.1,0-2-0.9-2-2c0-1.1,0.9-2,2-2h11c1.1,0,2,0.9,2,2C34,74.1,33.1,75,32,75z M41,66c0,0.6-0.4,1-1,1H13c-0.6,0-1-0.5-1-1V20   c0-0.6,0.4-1,1-1h27c0.6,0,1,0.5,1,1V66z" fill="#DDDDDD" style="fill: rgb(221, 221, 221);"></path><path class="st0" d="M70.5,1h-28C40,1,38,3,38,5.5V7h30c0.6,0,1,0.5,1,1v47c0,0.6-0.4,1-1,1H53v4h6c1.1,0,2,0.9,2,2   c0,1.1-0.9,2-2,2h-6v4h17.5c2.5,0,4.5,0,4.5-2.5v-60C75,3,73,1,70.5,1z" fill="#DDDDDD" style="fill: rgb(221, 221, 221);"></path></g></svg></svg>